<?xml version="1.0" encoding="UTF-8"?>
<svg xmlns="http://www.w3.org/2000/svg" viewBox="0,0,750,750">
    <g transform="translate(375,375)">
        <g class="group" data-original-title="" title="">
            <path style="fill: rgb(138, 63, 100);" d="M2.2065686027037013e-14,-360.36000000000007A360.36000000000007,360.36000000000007,0,0,1,341.08794336000926,-116.26841572172198L313.18074799419026,-106.75554534449017A330.87600000000003,330.87600000000003,0,0,0,2.0260311715733983e-14,-330.87600000000003Z"></path>
        </g>
        <g class="group" style="cursor: pointer;" data-original-title="" title="">
            <path style="fill: rgb(93, 181, 183);" d="M354.63282833818226,-63.99130147810237A360.36000000000007,360.36000000000007,0,0,1,286.9509857407095,217.98729637856243L263.47317781646956,200.1519721294073A330.87600000000003,330.87600000000003,0,0,0,325.6174151105128,-58.755649538984905Z"></path>
        </g>
        <g class="group" style="cursor: pointer;" data-original-title="" title="">
            <path style="fill: rgb(93, 181, 183);" d="M251.15322101186985,258.4209534371447A360.36000000000007,360.36000000000007,0,0,1,-20.545800770689247,359.7738173779343L-18.864780707632853,330.3377777742851A330.87600000000003,330.87600000000003,0,0,0,230.60432111089867,237.27742088319647Z"></path>
        </g>
        <g class="group" style="cursor: pointer;" data-original-title="" title="">
            <path style="fill: rgb(138, 63, 100);" d="M-74.07902095694978,352.6636191245985A360.36000000000007,360.36000000000007,0,0,1,-357.7044037906196,43.66794143072716L-328.4376798441143,40.0951098591222A330.87600000000003,330.87600000000003,0,0,0,-68.01801015138115,323.809323014404Z"></path>
        </g>
        <g class="group" style="cursor: pointer;">
            <path style="fill: rgb(211, 30, 37);" d="M-360.21342453489467,-10.277080560344512A360.36000000000007,360.36000000000007,0,0,1,-325.63397335849174,-154.34327000151694L-298.99119372006965,-141.71518427412008A330.87600000000003,330.87600000000003,0,0,0,-330.7414170729487,-9.436228514498142Z"></path>
        </g>
        <g class="group" style="cursor: pointer;">
            <path style="fill: rgb(215, 163, 46);" d="M-298.91268482137707,-201.27229430022442A360.36000000000007,360.36000000000007,0,0,1,-53.85152541818673,-356.31354564503215L-49.44549152033509,-327.16061918316586A330.87600000000003,330.87600000000003,0,0,0,-274.45619242690077,-184.80456113020603Z"></path>
        </g>
        <path class="chord" style="opacity: 0.8; fill: rgb(138, 63, 100);" d="M131.81250886429223,-299.91202461205336A327.6,327.6,0,0,1,241.34405618244273,-221.52834253297243Q0,0,-190.650087630292,266.41003000368056A327.6,327.6,0,0,1,-281.72902385550293,167.18408153118366Q0,0,131.81250886429223,-299.91202461205336Z" data-original-title="" title=""></path>
        <path class="chord" style="opacity: 0.8; fill: rgb(93, 181, 183);" d="M281.72902385550316,-167.18408153118332A327.6,327.6,0,0,1,310.07994850909927,-105.69855974701997Q0,0,322.3934803074384,-58.173910434638515A327.6,327.6,0,0,1,327.4667495771769,9.342800509404361Q0,0,281.72902385550316,-167.18408153118332Z" data-original-title="" title=""></path>
        <path class="chord" style="opacity: 0.8; fill: rgb(93, 181, 183);" d="M241.34405618244273,-221.52834253297243A327.6,327.6,0,0,1,281.72902385550316,-167.18408153118332Q0,0,175.15068933960194,276.84652070030114A327.6,327.6,0,0,1,114.49871457946472,306.93941480306876Q0,0,241.34405618244273,-221.52834253297243Z" data-original-title="" title=""></path>
        <path class="chord" style="opacity: 0.8; fill: rgb(211, 30, 37);" d="M67.34456450631829,-320.6032901132712A327.6,327.6,0,0,1,131.81250886429223,-299.91202461205336Q0,0,-318.5522908594821,-76.4604341354135A327.6,327.6,0,0,1,-296.0308848713561,-140.31206363774265Q0,0,67.34456450631829,-320.6032901132712Z"></path>
        <path class="chord" style="opacity: 0.8; fill: rgb(215, 163, 46);" d="M2.0059714570033648e-14,-327.6A327.6,327.6,0,0,1,67.34456450631829,-320.6032901132712Q0,0,-114.49871457946487,-306.9394148030687A327.6,327.6,0,0,1,-48.95593219835157,-323.9214051318474Q0,0,2.0059714570033648e-14,-327.6Z"></path>
        <path class="chord" style="opacity: 0.8; fill: rgb(93, 181, 183);" d="M296.0308848713559,140.31206363774294A327.6,327.6,0,0,1,260.86453249155403,198.17026943505675Q0,0,228.32111001079076,234.92813948831332A327.6,327.6,0,0,1,175.15068933960194,276.84652070030114Q0,0,296.0308848713559,140.31206363774294Z" data-original-title="" title=""></path>
        <path class="chord" style="opacity: 0.8; fill: rgb(138, 63, 100);" d="M318.55229085948207,76.46043413541375A327.6,327.6,0,0,1,296.0308848713559,140.31206363774294Q0,0,-131.8125088642919,299.9120246120535A327.6,327.6,0,0,1,-190.650087630292,266.41003000368056Q0,0,318.55229085948207,76.46043413541375Z" data-original-title="" title=""></path>
        <path class="chord" style="opacity: 0.8; fill: rgb(215, 163, 46);" d="M327.4667495771769,9.342800509404361A327.6,327.6,0,0,1,318.55229085948207,76.46043413541375Q0,0,-175.1506893396021,-276.846520700301A327.6,327.6,0,0,1,-114.49871457946487,-306.9394148030687Q0,0,327.4667495771769,9.342800509404361Z" data-original-title="" title=""></path>
        <path class="chord" style="opacity: 0.8; fill: rgb(138, 63, 100);" d="M48.95593219835139,323.92140513184745A327.6,327.6,0,0,1,-18.678000700626587,327.06710670721293Q0,0,-67.34456450631797,320.60329011327127A327.6,327.6,0,0,1,-131.8125088642919,299.9120246120535Q0,0,48.95593219835139,323.92140513184745Z"></path>
        <path class="chord" style="opacity: 0.8; fill: rgb(215, 163, 46);" d="M114.49871457946472,306.93941480306876A327.6,327.6,0,0,1,48.95593219835139,323.92140513184745Q0,0,-228.3211100107909,-234.9281394883132A327.6,327.6,0,0,1,-175.1506893396021,-276.846520700301Q0,0,114.49871457946472,306.93941480306876Z"></path>
        <path class="chord" style="opacity: 0.8; fill: rgb(211, 30, 37);" d="M-310.07994850909915,105.69855974702034A327.6,327.6,0,0,1,-325.18582162783594,39.698128573388324Q0,0,-327.4667495771769,-9.342800509404102A327.6,327.6,0,0,1,-318.5522908594821,-76.4604341354135Q0,0,-310.07994850909915,105.69855974702034Z"></path>
        <path class="chord" style="opacity: 0.8; fill: rgb(215, 163, 46);" d="M-281.72902385550293,167.18408153118366A327.6,327.6,0,0,1,-310.07994850909915,105.69855974702034Q0,0,-271.73880438307003,-182.974813000204A327.6,327.6,0,0,1,-228.3211100107909,-234.9281394883132Q0,0,-281.72902385550293,167.18408153118366Z"></path>
    </g>
</svg>