<?xml version="1.0" encoding="UTF-8"?>
<svg xmlns="http://www.w3.org/2000/svg" viewBox="0,0,800,800" style="font: 10px sans-serif;">
    <g transform="translate(400,400)">
        <g>
            <path fill="#5db5b7" fill-opacity="0.8" pointer-events="auto" d="M0.49999947916687115,-265.66619615280115A265.6666666666667,265.6666666666667,0,0,1,260.83434013696905,50.44030910977564L130.95513420434222,25.07051262540322A133.33333333333334,133.33333333333334,0,0,0,0.49999947916683163,-133.33239583199057Z" style="cursor: pointer;"></path>
            <path fill="#d7a32e" fill-opacity="0.8" pointer-events="auto" d="M260.64262970474385,51.42175958068307A265.6666666666667,265.6666666666667,0,0,1,-57.60827598825501,259.3454536240009L-28.669376130613536,130.2146099716126A133.33333333333334,133.33333333333334,0,0,0,130.763423772117,26.051963096310658Z" style="cursor: pointer;"></path>
            <path fill="#8a3f64" fill-opacity="0.8" pointer-events="auto" d="M-58.58407135442825,259.1267727605873A265.6666666666667,265.6666666666667,0,0,1,-253.4038891885113,79.78249633794664L-127.10384824460573,40.2788969460438A133.33333333333334,133.33333333333334,0,0,0,-29.645171496786713,129.99592910819894Z" style="cursor: pointer;"></path>
            <path fill="#4f2e39" fill-opacity="0.8" pointer-events="auto" d="M-253.70240368856017,78.82809233023866A265.6666666666667,265.6666666666667,0,0,1,-243.49086373375602,-106.25900929317594L-122.30309918506113,-53.10112717736677A133.33333333333334,133.33333333333334,0,0,0,-127.4023627446546,39.324492938335865Z" style="cursor: pointer;"></path>
            <path fill="#d31e25" fill-opacity="0.8" pointer-events="auto" d="M-243.08916872753562,-107.17478166590078A265.6666666666667,265.6666666666667,0,0,1,-151.78962765557262,-218.03368252167007L-76.38476195182,-109.28470121358053A133.33333333333334,133.33333333333334,0,0,0,-121.90140417884076,-54.01689955009157Z" style="cursor: pointer;"></path>
            <path fill="#31407b" fill-opacity="0.8" pointer-events="auto" d="M-150.96785069636562,-218.60348998563046A265.6666666666667,265.6666666666667,0,0,1,-15.13419598649441,-265.2352425482333L-7.844223307440531,-133.1023889285267A133.33333333333334,133.33333333333334,0,0,0,-75.56298499261305,-109.85450867754092Z" style="cursor: pointer;"></path>
            <path fill="#5F272A" fill-opacity="0.8" pointer-events="auto" d="M-14.135715510145632,-265.2903302512061A265.6666666666667,265.6666666666667,0,0,1,-0.49999947916713966,-265.66619615280115L-0.4999994791669664,-133.33239583199057A133.33333333333334,133.33333333333334,0,0,0,-6.8457428310918145,-133.1574766314995Z" style="cursor: pointer;"></path>
            <path fill="#d1c02b" fill-opacity="0" pointer-events="none" d="M-2.8476157511302197e-13,-265.6666666666667L-1.429167252762971e-13,-133.33333333333334Z"></path>
            <path fill="#369e4b" fill-opacity="0" pointer-events="none" d="M-2.8476157511302197e-13,-265.6666666666667L-1.429167252762971e-13,-133.33333333333334Z"></path>
            <path fill="#5F272A" fill-opacity="0" pointer-events="none" d="M-2.8476157511302197e-13,-265.6666666666667L-1.429167252762971e-13,-133.33333333333334Z"></path>
            <path fill="#afafaf" fill-opacity="0" pointer-events="none" d="M-2.8476157511302197e-13,-265.6666666666667L-1.429167252762971e-13,-133.33333333333334Z"></path>
            <path fill="#afafaf" fill-opacity="0" pointer-events="none" d="M-2.8476157511302197e-13,-265.6666666666667L-1.429167252762971e-13,-133.33333333333334Z"></path>
            <path fill="#afafaf" fill-opacity="0" pointer-events="none" d="M-2.8476157511302197e-13,-265.6666666666667L-1.429167252762971e-13,-133.33333333333334Z"></path>
            <path fill="#5db5b7" fill-opacity="0.5" pointer-events="auto" d="M0.49999947916682697,-398.99968671732165A399,399,0,0,1,149.68407496491992,-369.85899705414255L99.88574290689195,-247.2528047870224A266.6666666666667,266.6666666666667,0,0,0,0.49999947916684,-266.6661979172313Z"></path>
            <path fill="#5db5b7" fill-opacity="0.5" pointer-events="auto" d="M150.610568067037,-369.48268807418356A399,399,0,0,1,261.6667989338882,-301.2166767224088L174.75651231513066,-201.42311812342373A266.6666666666667,266.6666666666667,0,0,0,100.81223600900906,-246.87649580706335Z"></path>
            <path fill="#5db5b7" fill-opacity="0.5" pointer-events="auto" d="M262.4209047581377,-300.5599253824775A399,399,0,0,1,321.20390740860313,-236.70456240944216L214.57419982311245,-158.3320052338823A266.6666666666667,266.6666666666667,0,0,0,175.51061813938009,-200.76636678349246Z"></path>
            <path fill="#5db5b7" fill-opacity="0.5" pointer-events="auto" d="M321.7961420443566,-235.89879814311956A399,399,0,0,1,365.1924229363372,-160.7342347786787L244.00494367000866,-107.57647779931742A266.6666666666667,266.6666666666667,0,0,0,215.16643445886587,-157.52624096755974Z"></path>
            <path fill="#5db5b7" fill-opacity="0.5" pointer-events="auto" d="M365.59411794255755,-159.8184624059539A399,399,0,0,1,391.50298311984966,-76.98320731340512L261.62408292969883,-51.61347055086683A266.6666666666667,266.6666666666667,0,0,0,244.406638676229,-106.66070542659261Z"></path>
            <path fill="#5db5b7" fill-opacity="0.5" pointer-events="auto" d="M391.6946935520749,-76.00175684249768A399,399,0,0,1,398.8344121823956,-11.493983605475522L266.55116947836626,-7.8476213483045A266.6666666666667,266.6666666666667,0,0,0,261.8157933619241,-50.63202007995939Z"></path>
            <path fill="#5db5b7" fill-opacity="0.5" pointer-events="auto" d="M398.86196649606137,-10.4943643397214A399,399,0,0,1,397.6781901267282,32.450841245333L265.79668728308627,21.522828356151315A266.6666666666667,266.6666666666667,0,0,0,266.578723792032,-6.8480020825503765Z"></path>
            <path fill="#5db5b7" fill-opacity="0.5" pointer-events="auto" d="M397.59561086727604,33.44742470023115A399,399,0,0,1,395.28667816432306,54.30876601263241L264.20743497070384,36.13229050741751A266.6666666666667,266.6666666666667,0,0,0,265.7141080236341,22.519411811049462Z"></path>
            <path fill="#5db5b7" fill-opacity="0.5" pointer-events="auto" d="M395.1493247495813,55.29928706547638A399,399,0,0,1,391.6946935520749,76.00175684249768L261.8157933619241,50.63202007995939A266.6666666666667,266.6666666666667,0,0,0,264.070081555962,37.1228115602615Z"></path>
            <path fill="#d7a32e" fill-opacity="0.5" pointer-events="auto" d="M391.50298311984966,76.98320731340512A399,399,0,0,1,245.46524978466147,314.55970998866616L164.18433864907013,210.12999322676092A266.6666666666667,266.6666666666667,0,0,0,261.62408292969883,51.61347055086683Z"></path>
            <path fill="#d7a32e" fill-opacity="0.5" pointer-events="auto" d="M244.67611009728617,315.17392206155114A399,399,0,0,1,190.34259713326247,350.67177775886745L127.35881812735867,234.28794795361006A266.6666666666667,266.6666666666667,0,0,0,163.39519896169486,210.74420529964584Z"></path>
            <path fill="#d7a32e" fill-opacity="0.5" pointer-events="auto" d="M189.46312429817422,351.1477246561262A399,399,0,0,1,130.02789461818668,377.21843356490643L87.05928104679342,252.0551382033831A266.6666666666667,266.6666666666667,0,0,0,126.4793452922704,234.76389485086872Z"></path>
            <path fill="#d7a32e" fill-opacity="0.5" pointer-events="auto" d="M129.08207836171206,377.5431326958826A399,399,0,0,1,87.74158456543259,389.2331105365357L58.80275283148212,260.10257086493925A266.6666666666667,266.6666666666667,0,0,0,86.11346479031877,252.37983733435928Z"></path>
            <path fill="#d7a32e" fill-opacity="0.5" pointer-events="auto" d="M86.76578919925946,389.4517913999494A399,399,0,0,1,44.39021053395444,396.52302481539607L29.832438853116585,264.9927106604749A266.6666666666667,266.6666666666667,0,0,0,57.82695746530894,260.3212517283529Z"></path>
            <path fill="#d7a32e" fill-opacity="0.5" pointer-events="auto" d="M43.39628089198067,396.6330329217983A399,399,0,0,1,0.49999947916682697,398.99968671732165L0.49999947916684,266.6661979172313A266.6666666666667,266.6666666666667,0,0,0,28.83850921114278,265.10271876687716Z"></path>
            <path fill="#d7a32e" fill-opacity="0.5" pointer-events="auto" d="M-0.49999947916677806,398.99968671732165A399,399,0,0,1,-43.39628089198062,396.6330329217983L-28.838509211142746,265.10271876687716A266.6666666666667,266.6666666666667,0,0,0,-0.49999947916680737,266.6661979172313Z"></path>
            <path fill="#d7a32e" fill-opacity="0.5" pointer-events="auto" d="M-44.39021053395439,396.52302481539607A399,399,0,0,1,-65.18000981940708,393.6401482571893L-43.39863344993609,263.1115157605026A266.6666666666667,266.6666666666667,0,0,0,-29.832438853116557,264.9927106604749Z"></path>
            <path fill="#d7a32e" fill-opacity="0.5" pointer-events="auto" d="M-66.16637009535037,393.47555383836124A399,399,0,0,1,-86.7657891992594,389.4517913999494L-57.826957465308915,260.3212517283529A266.6666666666667,266.6666666666667,0,0,0,-44.38499372587943,262.9469213416745Z"></path>
            <path fill="#8a3f64" fill-opacity="0.5" pointer-events="auto" d="M-87.74158456543255,389.2331105365357A399,399,0,0,1,-169.83148595207066,361.05161179436885L-113.35467130516489,241.3748735979144A266.6666666666667,266.6666666666667,0,0,0,-58.80275283148209,260.10257086493925Z"></path>
            <path fill="#8a3f64" fill-opacity="0.5" pointer-events="auto" d="M-170.73584217072994,360.62483580343104A399,399,0,0,1,-244.67611009728608,315.1739220615512L-163.39519896169483,210.74420529964587A266.6666666666667,266.6666666666667,0,0,0,-114.25902752382403,240.94809760697666Z"></path>
            <path fill="#8a3f64" fill-opacity="0.5" pointer-events="auto" d="M-245.46524978466144,314.55970998866616A399,399,0,0,1,-293.2149694359601,270.60299647023317L-195.85405754293853,180.97596319699045A266.6666666666667,266.6666666666667,0,0,0,-164.1843386490701,210.12999322676092Z"></path>
            <path fill="#8a3f64" fill-opacity="0.5" pointer-events="auto" d="M-293.89225030208445,269.8672733259387A399,399,0,0,1,-333.7556887627999,218.65072654457165L-222.97052798783446,146.27116858744736A266.6666666666667,266.6666666666667,0,0,0,-196.53133840906287,180.24024005269615Z"></path>
            <path fill="#8a3f64" fill-opacity="0.5" pointer-events="auto" d="M-334.30263635118484,217.8135609383572A399,399,0,0,1,-355.7833952369597,180.60779516305863L-237.70827894391928,120.8548105481573A266.6666666666667,266.6666666666667,0,0,0,-223.5174755762194,145.43400298123296Z"></path>
            <path fill="#8a3f64" fill-opacity="0.5" pointer-events="auto" d="M-356.2349281249235,179.71554185387134A399,399,0,0,1,-365.1924229363371,160.7342347786789L-244.0049436700086,107.5764777993175A266.6666666666667,266.6666666666667,0,0,0,-238.15981183188305,119.96255723897012Z"></path>
            <path fill="#8a3f64" fill-opacity="0.5" pointer-events="auto" d="M-365.59411794255755,159.81846240595397A399,399,0,0,1,-373.4923732499021,140.37252980606937L-249.56057340179294,93.97143882307775A266.6666666666667,266.6666666666667,0,0,0,-244.40663867622897,106.66070542659271Z"></path>
            <path fill="#8a3f64" fill-opacity="0.5" pointer-events="auto" d="M-373.84301043984755,139.43601954040443A399,399,0,0,1,-380.65803950134364,119.58451807401111L-254.35829587437166,80.08101167565705A266.6666666666667,266.6666666666667,0,0,0,-249.91121059173835,93.03492855741294Z"></path>
            <path fill="#4f2e39" fill-opacity="0.5" pointer-events="auto" d="M-380.95655400139265,118.63011406630272A399,399,0,0,1,-386.9131450291946,-97.46393283475392L-258.62902579370757,-64.97798187162235A266.6666666666667,266.6666666666667,0,0,0,-254.65681037442062,79.1266076679489Z"></path>
            <path fill="#4f2e39" fill-opacity="0.5" pointer-events="auto" d="M-386.6676597977677,-98.43333209090174A399,399,0,0,1,-365.5941179425577,-159.81846240595357L-244.40663867622908,-106.66070542659243A266.6666666666667,266.6666666666667,0,0,0,-258.3835405622807,-65.94738112777004Z"></path>
            <path fill="#d31e25" fill-opacity="0.5" pointer-events="auto" d="M-365.1924229363373,-160.73423477867848A399,399,0,0,1,-345.7938645388166,-199.06683110782305L-231.18970146651475,-132.900086707778A266.6666666666667,266.6666666666667,0,0,0,-244.0049436700087,-107.57647779931723Z"></path>
            <path fill="#d31e25" fill-opacity="0.5" pointer-events="auto" d="M-345.2938650596497,-199.9328556094981A399,399,0,0,1,-321.79614204435677,-235.89879814311928L-215.16643445886598,-157.52624096755957A266.6666666666667,266.6666666666667,0,0,0,-230.68970198734792,-133.7661112094529Z"></path>
            <path fill="#d31e25" fill-opacity="0.5" pointer-events="auto" d="M-321.20390740860324,-236.704562409442A399,399,0,0,1,-293.8922503020847,-269.8672733259385L-196.53133840906298,-180.24024005269604A266.6666666666667,266.6666666666667,0,0,0,-214.57419982311256,-158.33200523388217Z"></path>
            <path fill="#d31e25" fill-opacity="0.5" pointer-events="auto" d="M-293.21496943596026,-270.60299647023294A399,399,0,0,1,-262.4209047581379,-300.5599253824773L-175.51061813938023,-200.76636678349234A266.6666666666667,266.6666666666667,0,0,0,-195.85405754293865,-180.9759631969903Z"></path>
            <path fill="#d31e25" fill-opacity="0.5" pointer-events="auto" d="M-261.66679893388834,-301.2166767224086A399,399,0,0,1,-245.46524978466152,-314.5597099886661L-164.18433864907016,-210.1299932267609A266.6666666666667,266.6666666666667,0,0,0,-174.7565123151308,-201.4231181234236Z"></path>
            <path fill="#d31e25" fill-opacity="0.5" pointer-events="auto" d="M-244.67611009728617,-315.17392206155114A399,399,0,0,1,-227.76412491520554,-327.6041870941375L-152.35943671846937,-218.85546178686485A266.6666666666667,266.6666666666667,0,0,0,-163.3951989616949,-210.7442052996458Z"></path>
            <path fill="#31407b" fill-opacity="0.5" pointer-events="auto" d="M-226.9423479559985,-328.17399455809795A399,399,0,0,1,-170.73584217073002,-360.624835803431L-114.25902752382409,-240.94809760697663A266.6666666666667,266.6666666666667,0,0,0,-151.53765975926243,-219.42526925082524Z"></path>
            <path fill="#31407b" fill-opacity="0.5" pointer-events="auto" d="M-169.83148595207075,-361.0516117943688A399,399,0,0,1,-150.6105680670373,-369.48268807418344L-100.81223600900921,-246.87649580706332A266.6666666666667,266.6666666666667,0,0,0,-113.35467130516494,-241.37487359791436Z"></path>
            <path fill="#31407b" fill-opacity="0.5" pointer-events="auto" d="M-149.68407496492006,-369.85899705414255A399,399,0,0,1,-130.02789461818713,-377.21843356490626L-87.05928104679366,-252.05513820338302A266.6666666666667,266.6666666666667,0,0,0,-99.8857429068921,-247.25280478702234Z"></path>
            <path fill="#31407b" fill-opacity="0.5" pointer-events="auto" d="M-129.08207836171238,-377.5431326958825A399,399,0,0,1,-109.0503307269606,-383.8085790707922L-73.04192990938441,-256.46829742918266A266.6666666666667,266.6666666666667,0,0,0,-86.11346479031903,-252.3798373343592Z"></path>
            <path fill="#31407b" fill-opacity="0.5" pointer-events="auto" d="M-108.08806372901341,-384.0806822521965A399,399,0,0,1,-87.74158456543341,-389.23311053653555L-58.802752831482614,-260.10257086493914A266.6666666666667,266.6666666666667,0,0,0,-72.07966291143735,-256.74040061058696Z"></path>
            <path fill="#31407b" fill-opacity="0.5" pointer-events="auto" d="M-86.76578919926011,-389.4517913999492A399,399,0,0,1,-66.16637009535143,-393.47555383836107L-44.384993725880086,-262.9469213416744A266.6666666666667,266.6666666666667,0,0,0,-57.82695746530944,-260.32125172835276Z"></path>
            <path fill="#31407b" fill-opacity="0.5" pointer-events="auto" d="M-65.18000981940796,-393.6401482571892A399,399,0,0,1,-44.39021053395563,-396.5230248153959L-29.832438853117324,-264.99271066047487A266.6666666666667,266.6666666666667,0,0,0,-43.39863344993674,-263.11151576050247Z"></path>
            <path fill="#31407b" fill-opacity="0.5" pointer-events="auto" d="M-43.39628089198169,-396.63303292179813A399,399,0,0,1,-22.479239362124943,-398.36626839844297L-15.189283844049458,-266.23372582641747A266.6666666666667,266.6666666666667,0,0,0,-28.83850921114352,-265.10271876687705Z"></path>
            <path fill="#5F272A" fill-opacity="0.5" pointer-events="auto" d="M-21.480758885775032,-398.4213561014158A399,399,0,0,1,-0.4999994791673188,-398.99968671732165L-0.4999994791671095,-266.6661979172313A266.6666666666667,266.6666666666667,0,0,0,-14.190803367700031,-266.28881352939027Z"></path>
        </g>
        <circle r="133.33333333333334" fill="none" pointer-events="all"></circle>
    </g>
</svg>