<?xml version="1.0" encoding="UTF-8"?><svg xmlns="http://www.w3.org/2000/svg" viewBox="0 0 600 600"><g id="color"><circle cx="300" cy="205.34" r="97.5" style="fill:#f2ab38;"/><circle cx="440.57" cy="469.23" r="63.78" style="fill:#f2ab38;"/><circle cx="292.69" cy="469.23" r="63.78" style="fill:#f2ab38;"/><circle cx="144.8" cy="469.23" r="63.78" style="fill:#f2ab38;"/></g><g id="Ebene_2"><g><circle cx="292.33" cy="204.65" r="97.5" style="fill:none; stroke:#000; stroke-linecap:round; stroke-linejoin:round; stroke-width:15px;"/><g style="opacity:.15;"><path d="M142.58,408.23c-33.69,0-60.99,27.31-60.99,60.99s27.31,60.99,60.99,60.99v-121.99Z"/></g><g style="opacity:.15;"><path d="M293.43,408.23c-33.69,0-60.99,27.31-60.99,60.99s27.31,60.99,60.99,60.99v-121.99Z"/></g><g style="opacity:.15;"><path d="M442.79,408.23c-33.69,0-60.99,27.31-60.99,60.99s27.31,60.99,60.99,60.99v-121.99Z"/></g><polyline points="142.58 379.44 142.58 356.07 292.69 356.07 292.69 328.65 292.69 379.44" style="fill:none; stroke:#000; stroke-linecap:round; stroke-linejoin:round; stroke-width:15px;"/><polyline points="333.37 356.07 442.79 356.07 442.79 379.44" style="fill:none; stroke:#000; stroke-linecap:round; stroke-linejoin:round; stroke-width:15px;"/><circle cx="142.58" cy="469.23" r="60.99" style="fill:none; stroke:#000; stroke-linecap:round; stroke-linejoin:round; stroke-width:15px;"/><circle cx="142.58" cy="454.67" r="18.66" style="fill:#fff; stroke:#000; stroke-linecap:round; stroke-linejoin:round; stroke-width:15px;"/><path d="M142.58,473.45c-18.87,0-34.18,15.3-34.18,34.18,0,5,1.08,9.75,3.02,14.03,9.12,5.43,19.77,8.56,31.16,8.56s22.04-3.13,31.16-8.56c1.93-4.28,3.02-9.03,3.02-14.03,0-18.87-15.3-34.18-34.18-34.18Z" style="fill:#fff; stroke:#000; stroke-linecap:round; stroke-linejoin:round; stroke-width:15px;"/><circle cx="292.69" cy="469.23" r="60.99" style="fill:none; stroke:#000; stroke-linecap:round; stroke-linejoin:round; stroke-width:15px;"/><circle cx="292.69" cy="454.67" r="18.66" style="fill:#fff; stroke:#000; stroke-linecap:round; stroke-linejoin:round; stroke-width:15px;"/><path d="M292.69,473.45c-18.87,0-34.18,15.3-34.18,34.18,0,5,1.08,9.75,3.02,14.03,9.12,5.43,19.77,8.56,31.16,8.56s22.04-3.13,31.16-8.56c1.93-4.28,3.02-9.03,3.02-14.03,0-18.87-15.3-34.18-34.18-34.18Z" style="fill:#fff; stroke:#000; stroke-linecap:round; stroke-linejoin:round; stroke-width:15px;"/><circle cx="442.79" cy="469.23" r="60.99" style="fill:none; stroke:#000; stroke-linecap:round; stroke-linejoin:round; stroke-width:15px;"/><circle cx="442.79" cy="454.67" r="18.66" style="fill:#fff; stroke:#000; stroke-linecap:round; stroke-linejoin:round; stroke-width:15px;"/><path d="M442.79,473.45c-18.87,0-34.18,15.3-34.18,34.18,0,5,1.08,9.75,3.02,14.03,9.12,5.43,19.77,8.56,31.16,8.56s22.04-3.13,31.16-8.56c1.93-4.28,3.02-9.03,3.02-14.03,0-18.87-15.3-34.18-34.18-34.18Z" style="fill:#fff; stroke:#000; stroke-linecap:round; stroke-linejoin:round; stroke-width:15px;"/><path d="M358.22,170.28c0,2.46-.94,4.92-2.81,6.79l-76.84,76.84c-1.87,1.88-4.33,2.82-6.79,2.82s-4.92-.94-6.79-2.81l-38.42-38.42c-1.88-1.87-2.82-4.33-2.82-6.79,0-5.49,4.49-9.6,9.6-9.6,2.46,0,4.92,.94,6.79,2.81l31.63,31.64,70.05-70.05c1.86-1.88,4.32-2.82,6.78-2.82,5.13,0,9.6,4.11,9.6,9.6Z"/><g style="opacity:.15;"><path d="M294.86,103.31c-.18,0-.35,0-.53,0-56.35,0-102.03,45.68-102.03,102.03s45.68,102.03,102.03,102.03c.18,0,.35,0,.53,0V103.31Z"/></g></g></g><g id="Ebene_4"><g><path d="M308.78,125.97c7.9,1.59,14.38,3.83,21.26,7.54" style="fill:none; stroke:#fff; stroke-linecap:round; stroke-linejoin:round; stroke-width:5px;"/><path d="M345.28,143.78c2.17,1.86,4.24,3.83,6.21,5.9" style="fill:none; stroke:#fff; stroke-linecap:round; stroke-linejoin:round; stroke-width:5px;"/><path d="M337.06,137.61c.51,.32,1.01,.66,1.5,1" style="fill:none; stroke:#fff; stroke-linecap:round; stroke-linejoin:round; stroke-width:5px;"/></g><g><path d="M474.94,437.68c.55,.56-.16-.12,.36,.46" style="fill:none; stroke:#fff; stroke-linecap:round; stroke-linejoin:round; stroke-width:5px;"/><path d="M480.17,444.17c.55,.79,1.07,1.59,1.57,2.41" style="fill:none; stroke:#fff; stroke-linecap:round; stroke-linejoin:round; stroke-width:5px;"/><path d="M485.47,453.88c2.02,5.56,2.97,11.6,2.65,17.87" style="fill:none; stroke:#fff; stroke-linecap:round; stroke-linejoin:round; stroke-width:5px;"/></g><g><path d="M172.41,433.94c.73,.61,1.45,1.25,2.15,1.91" style="fill:none; stroke:#fff; stroke-linecap:round; stroke-linejoin:round; stroke-width:5px;"/><path d="M179,440.74c3.65,4.65,6.45,10.09,8.09,16.15" style="fill:none; stroke:#fff; stroke-linecap:round; stroke-linejoin:round; stroke-width:5px;"/></g><g><path d="M331.48,443.84c.72,1.02,.68,1.01,1.33,2.09" style="fill:none; stroke:#fff; stroke-linecap:round; stroke-linejoin:round; stroke-width:5px;"/><path d="M317.31,429.43c3.86,2.51,6.77,5.39,8.86,7.65" style="fill:none; stroke:#fff; stroke-linecap:round; stroke-linejoin:round; stroke-width:5px;"/></g></g></svg>