<?xml version="1.0" encoding="UTF-8"?><svg xmlns="http://www.w3.org/2000/svg" viewBox="0 0 600 600"><g id="color"><g><path d="M182.15,121.19l283.51,46.03c12.64,2.05,24.55-6.53,26.61-19.17l3.26-20.09c2.05-12.64-6.53-24.55-19.17-26.61L192.85,55.32c-12.64-2.05-24.55,6.53-26.61,19.17l-3.26,20.09c-2.05,12.64,6.53,24.55,19.17,26.61Z" style="fill:#f2ab38;"/><path d="M452.6,253.86s.02,0,.03,0v-15.92c0-12.81-10.38-23.19-23.19-23.19h-93.22c12.81,0,23.19-10.38,23.19-23.19v-20.35c0-12.81-10.38-23.19-23.19-23.19H49c-12.81,0-23.19,10.38-23.19,23.19v20.35c0,12.81,10.38,23.19,23.19,23.19h93.22c-12.81,0-23.19,10.38-23.19,23.19v20.35c0,12.81,10.38,23.19,23.19,23.19h-32.73c-12.81,0-23.19,10.38-23.19,23.19v20.35c0,12.81,10.38,23.19,23.19,23.19-12.81,0-23.19,10.38-23.19,23.19v20.35c0,12.81,10.38,23.19,23.19,23.19-12.81,0-23.19,10.38-23.19,23.19v20.35c0,12.81,10.38,23.19,23.19,23.19h203.44s0,0,0,0c24.77,24.43,58.78,39.52,96.32,39.52,75.76,0,137.18-61.42,137.18-137.18,0-60.61-39.31-112.04-93.83-130.18Zm-4.87-1.52c-.1-.03-.2-.06-.3-.09,.1,.03,.2,.06,.3,.09Zm-2.32-.65c-.3-.08-.6-.16-.89-.24,.3,.08,.6,.16,.89,.24Zm-2.81-.74c-.34-.08-.67-.16-1.01-.25,.34,.08,.67,.16,1.01,.25Zm-2.91-.7c-.3-.07-.61-.13-.91-.2,.3,.07,.61,.13,.91,.2Zm-4.35-.91c-.43-.08-.86-.17-1.29-.25,.43,.08,.86,.16,1.29,.25Zm-2.91-.53c-.5-.08-1-.17-1.5-.25,.5,.08,1,.16,1.5,.25Zm-114.27,32.67h0s0,0,0,0h0Zm-7.14,6.81s0,0,0,0h0Zm-34.21,59.91s0,0,0,0c0,0,0,0,0,0s0,0,0,0Zm27.58-52.61h0s0,0,0,0Zm-6.1,7.78s0,0,0,0c0,0,0,0,0,0Zm-5.54,8.21s0,0,0,0c0,0,0,0,0,0Zm-20.67,72.44h0s0,0,0,0h0Zm1.92-22.93c-.03,.15-.05,.3-.07,.45,.02-.15,.05-.3,.07-.45Zm-.67,4.41c-.02,.12-.04,.25-.05,.37,.02-.12,.04-.25,.05-.37Zm-.91,8.86c-.03,.37-.05,.74-.07,1.11,.02-.37,.04-.74,.07-1.11Zm-.23,4.28c-.02,.39-.03,.79-.04,1.18,.01-.4,.03-.79,.04-1.18Zm3.37,36.26s0,.04,.01,.06c0,0,0,0,0,0,0-.02,0-.04-.01-.05Zm-3.44-27.1c.01,.41,.03,.81,.05,1.21-.01-.41-.04-.81-.05-1.21Zm.15,3.75c.03,.48,.06,.95,.09,1.43-.03-.48-.06-.95-.09-1.43Zm.25,3.73c.04,.5,.09,1,.13,1.5-.05-.5-.09-1-.13-1.5Zm.35,3.72c.05,.5,.11,1,.17,1.49-.06-.5-.12-.99-.17-1.49Zm.46,3.72c.07,.48,.13,.97,.2,1.45-.07-.48-.14-.96-.2-1.45Zm.56,3.74c.07,.45,.14,.89,.22,1.34-.08-.44-.15-.89-.22-1.34Zm.69,3.85c.07,.36,.13,.72,.21,1.08-.07-.36-.14-.72-.21-1.08Zm31.69,64.35s.08,.09,.12,.13c-.04-.04-.08-.09-.12-.13Zm-29.64-55.4c.09,.35,.19,.7,.28,1.04-.1-.35-.19-.7-.28-1.04Zm1.39,4.86c.05,.15,.09,.3,.13,.45-.05-.15-.09-.3-.13-.45Zm1.51,4.65c.1,.3,.21,.6,.32,.9-.11-.3-.21-.6-.32-.9Zm1.65,4.52c.08,.2,.15,.4,.23,.6-.08-.2-.15-.4-.23-.6Zm1.91,4.71c.1,.22,.19,.44,.29,.66-.1-.22-.2-.44-.29-.66Zm1.91,4.25c.09,.2,.19,.41,.28,.61-.1-.2-.19-.4-.28-.61Zm2.29,4.65c.05,.1,.11,.2,.16,.31-.05-.1-.11-.2-.16-.31Zm2.17,4.02c.1,.18,.2,.35,.3,.53-.1-.18-.2-.35-.3-.53Zm5.05,8.32c.09,.14,.18,.28,.27,.41-.09-.14-.18-.28-.27-.41Zm5.61,7.92c.07,.09,.14,.19,.21,.28-.07-.09-.14-.19-.21-.28Zm105.69-220.29c1.13-.03,2.27-.04,3.41-.04,1.08,0,2.16,.02,3.23,.04-1.07-.02-2.15-.04-3.23-.04-1.14,0-2.28,.02-3.41,.04Zm-63.05,17.11c.08-.05,.17-.09,.25-.14-.08,.05-.17,.09-.25,.14Zm2.59-1.4c.15-.08,.31-.16,.46-.24-.15,.08-.31,.16-.46,.24Zm2.7-1.39c.2-.1,.4-.2,.6-.3-.2,.1-.4,.2-.6,.3Zm2.78-1.35c.23-.11,.45-.21,.68-.32-.23,.11-.45,.21-.68,.32Zm2.84-1.3c.24-.11,.49-.21,.73-.32-.24,.11-.49,.21-.73,.32Zm2.89-1.24c.25-.1,.5-.2,.75-.31-.25,.1-.5,.2-.75,.31Zm2.94-1.18c.24-.09,.48-.18,.71-.27-.24,.09-.48,.18-.71,.27Zm2.98-1.12c.18-.06,.36-.12,.53-.19-.18,.06-.36,.12-.53,.19Zm8.71-2.83c.08-.02,.16-.05,.24-.07-.08,.02-.16,.05-.24,.07Zm2.22-.61c.39-.11,.78-.22,1.17-.32-.39,.1-.78,.21-1.17,.32Zm2.96-.76c.47-.11,.93-.23,1.4-.34-.47,.11-.93,.23-1.4,.34Zm3.1-.72c.5-.11,1.01-.22,1.51-.33-.51,.11-1.01,.22-1.51,.33Zm3.17-.66c.53-.1,1.06-.21,1.59-.3-.53,.1-1.06,.2-1.59,.3Zm3.22-.59c.55-.09,1.11-.19,1.66-.28-.55,.09-1.11,.18-1.66,.28Zm3.25-.52c.57-.08,1.15-.16,1.73-.24-.58,.08-1.15,.16-1.73,.24Zm3.28-.44c.6-.07,1.2-.14,1.8-.21-.6,.07-1.2,.13-1.8,.21Zm3.31-.37c.63-.06,1.25-.11,1.88-.17-.63,.05-1.26,.11-1.88,.17Zm3.34-.29c.66-.05,1.33-.09,2-.13-.67,.04-1.33,.08-2,.13Zm3.37-.21c.75-.04,1.49-.06,2.24-.09-.75,.02-1.5,.05-2.24,.09Zm26.94,1.31c-.56-.08-1.12-.16-1.68-.23,.56,.08,1.12,.15,1.68,.23Zm-3.07-.42c-.82-.1-1.63-.19-2.45-.28,.82,.09,1.64,.18,2.45,.28Zm-3.57-.39c-.86-.08-1.72-.16-2.59-.23,.87,.07,1.73,.15,2.59,.23Zm-3.73-.31c-.7-.05-1.4-.09-2.1-.13,.7,.04,1.4,.08,2.1,.13Zm-3.29-.19c-.73-.03-1.46-.06-2.2-.08,.73,.02,1.47,.05,2.2,.08Z" style="fill:#f2ab38;"/></g></g><g id="Ebene_2"><g><rect x="25.81" y="148.02" width="333.6" height="66.74" rx="23.19" ry="23.19" style="fill:none; stroke:#000; stroke-linecap:round; stroke-linejoin:round; stroke-width:19px;"/><rect x="162.45" y="77.9" width="333.6" height="66.74" rx="23.19" ry="23.19" transform="translate(22.09 -51.32) rotate(9.22)" style="fill:none; stroke:#000; stroke-linecap:round; stroke-linejoin:round; stroke-width:19px;"/><circle cx="409.25" cy="384.04" r="137.18" style="fill:none; stroke:#000; stroke-linecap:round; stroke-linejoin:round; stroke-width:19px;"/><path d="M409.25,288.17c-52.95,0-95.87,42.92-95.87,95.87s42.92,95.87,95.87,95.87,95.87-42.92,95.87-95.87-42.92-95.87-95.87-95.87Zm33.81,144.66l-33.81-24.19-33.81,24.19,12.91-39.14-33.81-24.19h41.79l12.91-39.14,12.91,39.14h41.79l-33.81,24.19,12.91,39.14Z" style="fill:#fff; stroke:#000; stroke-linecap:round; stroke-linejoin:round; stroke-width:19px;"/><path d="M275.57,414.96H109.49c-12.81,0-23.19,10.38-23.19,23.19v20.35c0,12.81,10.38,23.19,23.19,23.19h203.44c-18.2-17.95-31.41-40.95-37.36-66.74Z" style="fill:none; stroke:#000; stroke-linecap:round; stroke-linejoin:round; stroke-width:19px;"/><path d="M272.07,384.04c0-12.39,1.65-24.39,4.73-35.81H109.49c-12.81,0-23.19,10.38-23.19,23.19v20.35c0,12.81,10.38,23.19,23.19,23.19h166.08c-2.29-9.94-3.5-20.29-3.5-30.93Z" style="fill:none; stroke:#000; stroke-linecap:round; stroke-linejoin:round; stroke-width:19px;"/><path d="M318.14,281.49H109.49c-12.81,0-23.19,10.38-23.19,23.19v20.35c0,12.81,10.38,23.19,23.19,23.19h167.32c7.06-26.17,21.66-49.24,41.34-66.74Z" style="fill:none; stroke:#000; stroke-linecap:round; stroke-linejoin:round; stroke-width:19px;"/><path d="M409.25,246.86c15.16,0,29.74,2.47,43.38,7.01v-15.92c0-12.81-10.38-23.19-23.19-23.19H142.21c-12.81,0-23.19,10.38-23.19,23.19v20.35c0,12.81,10.38,23.19,23.19,23.19h175.93c24.23-21.54,56.14-34.63,91.11-34.63Z" style="fill:none; stroke:#000; stroke-linecap:round; stroke-linejoin:round; stroke-width:19px;"/><path d="M409.25,288.17c-52.95,0-95.87,42.92-95.87,95.87s42.92,95.87,95.87,95.87v-191.73Z" style="opacity:.15;"/><polygon points="124.05 214.76 348.08 214.76 86.3 391.77 86.3 357.23 102.11 349.43 86.3 325.04 86.3 288.31 123.19 274.58 119.02 258.3 124.05 214.76" style="opacity:.15;"/></g></g></svg>