<?xml version="1.0" encoding="UTF-8"?><svg xmlns="http://www.w3.org/2000/svg" xmlns:xlink="http://www.w3.org/1999/xlink" viewBox="0 0 600 600"><defs><linearGradient id="Unbenannter_Verlauf_21" x1="82.92" y1="139.3" x2="504.3" y2="560.68" gradientUnits="userSpaceOnUse"><stop offset="0" stop-color="#974619"/><stop offset=".08" stop-color="#b26f49"/><stop offset=".18" stop-color="#d7a58a"/><stop offset=".26" stop-color="#efc7b2"/><stop offset=".3" stop-color="#f8d5c2"/><stop offset=".34" stop-color="#e9c3b0"/><stop offset=".47" stop-color="#b98a74"/><stop offset=".57" stop-color="#966049"/><stop offset=".66" stop-color="#81462e"/><stop offset=".71" stop-color="#793d25"/><stop offset="1" stop-color="#6d3119"/></linearGradient><linearGradient id="Unbenannter_Verlauf_18" x1="82.92" y1="139.3" x2="504.3" y2="560.68" gradientUnits="userSpaceOnUse"><stop offset="0" stop-color="#9a9b9f"/><stop offset=".31" stop-color="#fefefe"/><stop offset=".38" stop-color="#e0e0e1"/><stop offset=".47" stop-color="#c1c1c3"/><stop offset=".54" stop-color="#adaeb0"/><stop offset=".6" stop-color="#a7a8aa"/><stop offset=".72" stop-color="#abacae"/><stop offset=".86" stop-color="#b8b9bb"/><stop offset="1" stop-color="#cdced0"/></linearGradient><linearGradient id="Neues_Verlaufsfeld_1" x1="82.92" y1="139.3" x2="504.3" y2="560.68" gradientUnits="userSpaceOnUse"><stop offset="0" stop-color="#a36d0a"/><stop offset=".31" stop-color="#f8fb9f"/><stop offset=".6" stop-color="#cf9618"/><stop offset="1" stop-color="#a16705"/></linearGradient><linearGradient id="Unbenannter_Verlauf_24" x1="82.92" y1="139.3" x2="504.3" y2="560.68" gradientUnits="userSpaceOnUse"><stop offset="0" stop-color="#1d7abf"/><stop offset=".31" stop-color="#4ee9f9"/><stop offset=".6" stop-color="#2085c7"/><stop offset="1" stop-color="#2a3b92"/></linearGradient></defs><g id="lvl-1"><polygon points="519.61 467.58 519.61 151.49 474.68 151.49 127.25 151.49 70.73 151.49 70.73 467.58 41.19 467.58 41.19 522.08 542.9 522.08 542.9 467.58 519.61 467.58" style="fill:url(#Unbenannter_Verlauf_21);"/></g><g id="lvl-2"><polygon points="519.61 467.58 519.61 151.49 474.68 151.49 127.25 151.49 70.73 151.49 70.73 467.58 41.19 467.58 41.19 522.08 542.9 522.08 542.9 467.58 519.61 467.58" style="fill:url(#Unbenannter_Verlauf_18);"/></g><g id="lvl-3"><polygon points="519.61 467.58 519.61 151.49 474.68 151.49 127.25 151.49 70.73 151.49 70.73 467.58 41.19 467.58 41.19 522.08 542.9 522.08 542.9 467.58 519.61 467.58" style="fill:url(#Neues_Verlaufsfeld_1);"/></g><g id="lvl-max"><polygon points="519.61 467.58 519.61 151.49 474.68 151.49 127.25 151.49 70.73 151.49 70.73 467.58 41.19 467.58 41.19 522.08 542.9 522.08 542.9 467.58 519.61 467.58" style="fill:url(#Unbenannter_Verlauf_24);"/></g><g id="icons"><g><rect x="107.27" y="190.33" width="378.64" height="240.69" style="opacity:.15;"/><g><rect x="258.65" y="38.74" width="75.03" height="357.68" style="fill:#fff;"/><path d="m434.95,63c-4.65-12.27,3.38-24.26,3.38-24.26,0,0-55.85,27.64-60.51,61.92-4.65,34.27,14.39,53.4,14.39,53.4v221c0,11.8,9.57,21.37,21.37,21.37s21.37-9.57,21.37-21.37v-221s18.62-17.43,20.73-39.86c2.12-22.43-16.08-38.93-20.73-51.2Z" style="fill:#fff;"/><path d="m157.1,93.46v287.44c0,8.57,6.95,15.51,15.51,15.51h21.72c8.57,0,15.51-6.95,15.51-15.51V93.46l-26.37-54.72-26.37,54.72Z" style="fill:#fff;"/></g><rect x="259.32" y="38.12" width="73.77" height="351.67" style="fill:none; stroke:#000; stroke-linecap:round; stroke-linejoin:round; stroke-width:19px;"/><path d="m390.64,151.49h42.02v217.28c0,11.59-9.41,21.01-21.01,21.01h0c-11.59,0-21.01-9.41-21.01-21.01v-217.28h0Z" style="fill:none; stroke:#000; stroke-linecap:round; stroke-linejoin:round; stroke-width:19px;"/><line x1="390.64" y1="191.09" x2="432.66" y2="191.09" style="fill:none; stroke:#000; stroke-linecap:round; stroke-linejoin:round; stroke-width:19px;"/><line x1="260.06" y1="78.86" x2="287.76" y2="78.86" style="fill:none; stroke:#000; stroke-linecap:round; stroke-linejoin:round; stroke-width:19px;"/><line x1="260.06" y1="123.96" x2="304.21" y2="123.96" style="fill:none; stroke:#000; stroke-linecap:round; stroke-linejoin:round; stroke-width:19px;"/><line x1="260.06" y1="169.05" x2="287.76" y2="169.05" style="fill:none; stroke:#000; stroke-linecap:round; stroke-linejoin:round; stroke-width:19px;"/><line x1="260.06" y1="214.15" x2="304.21" y2="214.15" style="fill:none; stroke:#000; stroke-linecap:round; stroke-linejoin:round; stroke-width:19px;"/><line x1="260.06" y1="259.24" x2="287.76" y2="259.24" style="fill:none; stroke:#000; stroke-linecap:round; stroke-linejoin:round; stroke-width:19px;"/><line x1="260.06" y1="349.43" x2="287.76" y2="349.43" style="fill:none; stroke:#000; stroke-linecap:round; stroke-linejoin:round; stroke-width:19px;"/><line x1="260.06" y1="304.34" x2="304.21" y2="304.34" style="fill:none; stroke:#000; stroke-linecap:round; stroke-linejoin:round; stroke-width:19px;"/><path d="m390.64,151.49s-18.72-18.8-14.14-52.5c4.58-33.7,59.49-60.88,59.49-60.88,0,0-7.9,11.79-3.33,23.85s22.46,28.29,20.38,50.34c-2.08,22.05-20.38,39.19-20.38,39.19h-42.02Z" style="fill:none; stroke:#000; stroke-linecap:round; stroke-linejoin:round; stroke-width:19px;"/><path d="m159.48,91.92h51.86v282.61c0,8.42-6.84,15.25-15.25,15.25h-21.36c-8.42,0-15.25-6.84-15.25-15.25V91.92h0Z" style="fill:none; stroke:#000; stroke-linecap:round; stroke-linejoin:round; stroke-width:19px;"/><polygon points="185.41 38.12 211.34 91.92 159.48 91.92 185.41 38.12" style="fill:none; stroke:#000; stroke-linecap:round; stroke-linejoin:round; stroke-width:19px;"/><line x1="159.48" y1="349.43" x2="211.34" y2="349.43" style="fill:none; stroke:#000; stroke-linecap:round; stroke-linejoin:round; stroke-width:19px;"/><polyline points="473.01 151.49 517.94 151.49 517.94 467.58 69.06 467.58 69.06 151.49 125.59 151.49" style="fill:none; stroke:#000; stroke-linecap:round; stroke-linejoin:round; stroke-width:19px;"/><rect x="39.53" y="467.58" width="501.71" height="54.5" style="fill:none; stroke:#000; stroke-linecap:round; stroke-linejoin:round; stroke-width:19px;"/><rect x="245.45" y="467.58" width="93.19" height="12.48" style="fill:none; stroke:#000; stroke-linecap:round; stroke-linejoin:round; stroke-width:19px;"/><polyline points="469.43 188.44 485.91 188.44 485.91 431.02 104.42 431.02 104.42 188.44 126.84 188.44" style="fill:none; stroke:#000; stroke-linecap:round; stroke-linejoin:round; stroke-width:19px;"/><path d="m390.64,151.49s-18.72-18.8-14.14-52.5c4.58-33.7,59.49-60.88,59.49-60.88,0,0-7.9,11.79-3.33,23.85s22.46,28.29,20.38,50.34c-2.08,22.05-20.38,39.19-20.38,39.19h-42.02Z" style="opacity:.15;"/><polygon points="185.41 38.12 211.34 91.92 159.48 91.92 185.41 38.12" style="opacity:.15;"/></g></g><g id="highlights"><g><line x1="501.5" y1="197.08" x2="501.5" y2="205.39" style="fill:none; stroke:#fff; stroke-linecap:round; stroke-linejoin:round; stroke-width:5px;"/><path d="m477.21,169.27l19.66-.22c2.51-.03,4.55,2.01,4.51,4.52l-.18,9.96" style="fill:none; stroke:#fff; stroke-linecap:round; stroke-linejoin:round; stroke-width:5px;"/><line x1="501.5" y1="218.67" x2="501.5" y2="220.05" style="fill:none; stroke:#fff; stroke-linecap:round; stroke-linejoin:round; stroke-width:5px;"/></g><path d="m499.23,488.88l19.66-.22c2.51-.03,4.55,2.01,4.51,4.52l-.18,9.96" style="fill:none; stroke:#fff; stroke-linecap:round; stroke-linejoin:round; stroke-width:5px;"/></g></svg>