<?xml version="1.0" encoding="UTF-8"?><svg xmlns="http://www.w3.org/2000/svg" xmlns:xlink="http://www.w3.org/1999/xlink" viewBox="0 0 600 600"><defs><linearGradient id="Unbenannter_Verlauf_21" x1="223.81" y1="88.27" x2="389.1" y2="253.56" gradientUnits="userSpaceOnUse"><stop offset="0" stop-color="#974619"/><stop offset=".08" stop-color="#b26f49"/><stop offset=".18" stop-color="#d7a58a"/><stop offset=".26" stop-color="#efc7b2"/><stop offset=".3" stop-color="#f8d5c2"/><stop offset=".34" stop-color="#e9c3b0"/><stop offset=".47" stop-color="#b98a74"/><stop offset=".57" stop-color="#966049"/><stop offset=".66" stop-color="#81462e"/><stop offset=".71" stop-color="#793d25"/><stop offset="1" stop-color="#6d3119"/></linearGradient><linearGradient id="Unbenannter_Verlauf_21-2" x1="420.91" y1="433.19" x2="529.03" y2="541.32" xlink:href="#Unbenannter_Verlauf_21"/><linearGradient id="Unbenannter_Verlauf_21-3" x1="243.62" y1="433.19" x2="351.75" y2="541.32" xlink:href="#Unbenannter_Verlauf_21"/><linearGradient id="Unbenannter_Verlauf_21-4" x1="66.34" y1="433.19" x2="174.46" y2="541.32" xlink:href="#Unbenannter_Verlauf_21"/><linearGradient id="Unbenannter_Verlauf_18" x1="223.81" y1="88.27" x2="389.1" y2="253.56" gradientUnits="userSpaceOnUse"><stop offset="0" stop-color="#9a9b9f"/><stop offset=".31" stop-color="#fefefe"/><stop offset=".38" stop-color="#e0e0e1"/><stop offset=".47" stop-color="#c1c1c3"/><stop offset=".54" stop-color="#adaeb0"/><stop offset=".6" stop-color="#a7a8aa"/><stop offset=".72" stop-color="#abacae"/><stop offset=".86" stop-color="#b8b9bb"/><stop offset="1" stop-color="#cdced0"/></linearGradient><linearGradient id="Unbenannter_Verlauf_18-2" x1="420.91" y1="433.19" x2="529.03" y2="541.32" xlink:href="#Unbenannter_Verlauf_18"/><linearGradient id="Unbenannter_Verlauf_18-3" x1="243.62" y1="433.19" x2="351.75" y2="541.32" xlink:href="#Unbenannter_Verlauf_18"/><linearGradient id="Unbenannter_Verlauf_18-4" x1="66.34" y1="433.19" x2="174.46" y2="541.32" xlink:href="#Unbenannter_Verlauf_18"/><linearGradient id="Neues_Verlaufsfeld_1" x1="223.81" y1="88.27" x2="389.1" y2="253.56" gradientUnits="userSpaceOnUse"><stop offset="0" stop-color="#a36d0a"/><stop offset=".31" stop-color="#f8fb9f"/><stop offset=".6" stop-color="#cf9618"/><stop offset="1" stop-color="#a16705"/></linearGradient><linearGradient id="Neues_Verlaufsfeld_1-2" x1="420.91" y1="433.19" x2="529.03" y2="541.32" xlink:href="#Neues_Verlaufsfeld_1"/><linearGradient id="Neues_Verlaufsfeld_1-3" x1="243.62" y1="433.19" x2="351.75" y2="541.32" xlink:href="#Neues_Verlaufsfeld_1"/><linearGradient id="Neues_Verlaufsfeld_1-4" x1="66.34" y1="433.19" x2="174.46" y2="541.32" xlink:href="#Neues_Verlaufsfeld_1"/><linearGradient id="Unbenannter_Verlauf_24" x1="223.81" y1="88.27" x2="389.1" y2="253.56" gradientUnits="userSpaceOnUse"><stop offset="0" stop-color="#1d7abf"/><stop offset=".31" stop-color="#4ee9f9"/><stop offset=".6" stop-color="#2085c7"/><stop offset="1" stop-color="#2a3b92"/></linearGradient><linearGradient id="Unbenannter_Verlauf_24-2" x1="420.91" y1="433.19" x2="529.03" y2="541.32" xlink:href="#Unbenannter_Verlauf_24"/><linearGradient id="Unbenannter_Verlauf_24-3" x1="243.62" y1="433.19" x2="351.75" y2="541.32" xlink:href="#Unbenannter_Verlauf_24"/><linearGradient id="Unbenannter_Verlauf_24-4" x1="66.34" y1="433.19" x2="174.46" y2="541.32" xlink:href="#Unbenannter_Verlauf_24"/></defs><g id="lvl-1"><circle cx="306.45" cy="170.91" r="116.88" style="fill:url(#Unbenannter_Verlauf_21);"/><circle cx="474.97" cy="487.26" r="76.46" style="fill:url(#Unbenannter_Verlauf_21-2);"/><circle cx="297.69" cy="487.26" r="76.46" style="fill:url(#Unbenannter_Verlauf_21-3);"/><circle cx="120.4" cy="487.26" r="76.46" style="fill:url(#Unbenannter_Verlauf_21-4);"/></g><g id="lvl-2"><circle cx="306.45" cy="170.91" r="116.88" style="fill:url(#Unbenannter_Verlauf_18);"/><circle cx="474.97" cy="487.26" r="76.46" style="fill:url(#Unbenannter_Verlauf_18-2);"/><circle cx="297.69" cy="487.26" r="76.46" style="fill:url(#Unbenannter_Verlauf_18-3);"/><circle cx="120.4" cy="487.26" r="76.46" style="fill:url(#Unbenannter_Verlauf_18-4);"/></g><g id="lvl-3"><circle cx="306.45" cy="170.91" r="116.88" style="fill:url(#Neues_Verlaufsfeld_1);"/><circle cx="474.97" cy="487.26" r="76.46" style="fill:url(#Neues_Verlaufsfeld_1-2);"/><circle cx="297.69" cy="487.26" r="76.46" style="fill:url(#Neues_Verlaufsfeld_1-3);"/><circle cx="120.4" cy="487.26" r="76.46" style="fill:url(#Neues_Verlaufsfeld_1-4);"/></g><g id="lvl-max"><circle cx="306.45" cy="170.91" r="116.88" style="fill:url(#Unbenannter_Verlauf_24);"/><circle cx="474.97" cy="487.26" r="76.46" style="fill:url(#Unbenannter_Verlauf_24-2);"/><circle cx="297.69" cy="487.26" r="76.46" style="fill:url(#Unbenannter_Verlauf_24-3);"/><circle cx="120.4" cy="487.26" r="76.46" style="fill:url(#Unbenannter_Verlauf_24-4);"/></g><g id="icons"><g><circle cx="297.26" cy="170.08" r="116.88" style="fill:none; stroke:#000; stroke-linecap:round; stroke-linejoin:round; stroke-width:15px;"/><g style="opacity:.15;"><path d="m117.74,414.14c-40.38,0-73.12,32.74-73.12,73.12s32.74,73.12,73.12,73.12v-146.24Z"/></g><g style="opacity:.15;"><path d="m298.58,414.14c-40.38,0-73.12,32.74-73.12,73.12s32.74,73.12,73.12,73.12v-146.24Z"/></g><g style="opacity:.15;"><path d="m477.63,414.14c-40.38,0-73.12,32.74-73.12,73.12s32.74,73.12,73.12,73.12v-146.24Z"/></g><polyline points="117.74 379.63 117.74 351.61 297.69 351.61 297.69 318.74 297.69 379.63" style="fill:none; stroke:#000; stroke-linecap:round; stroke-linejoin:round; stroke-width:15px;"/><polyline points="346.45 351.61 477.63 351.61 477.63 379.63" style="fill:none; stroke:#000; stroke-linecap:round; stroke-linejoin:round; stroke-width:15px;"/><circle cx="117.74" cy="487.26" r="73.12" style="fill:none; stroke:#000; stroke-linecap:round; stroke-linejoin:round; stroke-width:15px;"/><circle cx="117.74" cy="469.81" r="22.36" style="fill:#fff; stroke:#000; stroke-linecap:round; stroke-linejoin:round; stroke-width:15px;"/><path d="m117.74,492.32c-22.63,0-40.97,18.34-40.97,40.97,0,6,1.3,11.69,3.62,16.82,10.93,6.51,23.7,10.26,37.35,10.26s26.42-3.75,37.35-10.26c2.32-5.13,3.62-10.83,3.62-16.82,0-22.63-18.34-40.97-40.97-40.97Z" style="fill:#fff; stroke:#000; stroke-linecap:round; stroke-linejoin:round; stroke-width:15px;"/><circle cx="297.69" cy="487.26" r="73.12" style="fill:none; stroke:#000; stroke-linecap:round; stroke-linejoin:round; stroke-width:15px;"/><circle cx="297.69" cy="469.81" r="22.36" style="fill:#fff; stroke:#000; stroke-linecap:round; stroke-linejoin:round; stroke-width:15px;"/><path d="m297.69,492.32c-22.63,0-40.97,18.34-40.97,40.97,0,6,1.3,11.69,3.62,16.82,10.93,6.51,23.7,10.26,37.35,10.26s26.42-3.75,37.35-10.26c2.32-5.13,3.62-10.83,3.62-16.82,0-22.63-18.34-40.97-40.97-40.97Z" style="fill:#fff; stroke:#000; stroke-linecap:round; stroke-linejoin:round; stroke-width:15px;"/><circle cx="477.63" cy="487.26" r="73.12" style="fill:none; stroke:#000; stroke-linecap:round; stroke-linejoin:round; stroke-width:15px;"/><circle cx="477.63" cy="469.81" r="22.36" style="fill:#fff; stroke:#000; stroke-linecap:round; stroke-linejoin:round; stroke-width:15px;"/><path d="m477.63,492.32c-22.63,0-40.97,18.34-40.97,40.97,0,6,1.3,11.69,3.62,16.82,10.93,6.51,23.7,10.26,37.35,10.26s26.42-3.75,37.35-10.26c2.32-5.13,3.62-10.83,3.62-16.82,0-22.63-18.34-40.97-40.97-40.97Z" style="fill:#fff; stroke:#000; stroke-linecap:round; stroke-linejoin:round; stroke-width:15px;"/><path d="m376.25,128.89c0,2.95-1.12,5.89-3.37,8.14l-92.11,92.11c-2.24,2.26-5.19,3.38-8.14,3.38s-5.89-1.13-8.14-3.37l-46.05-46.05c-2.25-2.24-3.38-5.19-3.38-8.14,0-6.58,5.38-11.51,11.51-11.51,2.95,0,5.89,1.12,8.14,3.37l37.92,37.93,83.98-83.98c2.23-2.26,5.18-3.38,8.13-3.38,6.15,0,11.51,4.93,11.51,11.51Z"/><g style="opacity:.15;"><path d="m300.3,48.6c-.21,0-.42,0-.63,0-67.55,0-122.32,54.76-122.32,122.32s54.76,122.32,122.32,122.32c.21,0,.42,0,.63,0V48.6Z"/></g></g></g><g id="highlights"><g><path d="m316.97,75.77c9.47,1.91,17.24,4.6,25.49,9.04" style="fill:none; stroke:#fff; stroke-linecap:round; stroke-linejoin:round; stroke-width:5px;"/><path d="m360.73,97.11c2.6,2.23,5.09,4.59,7.44,7.07" style="fill:none; stroke:#fff; stroke-linecap:round; stroke-linejoin:round; stroke-width:5px;"/><path d="m350.88,89.73c.61.39,1.21.79,1.8,1.2" style="fill:none; stroke:#fff; stroke-linecap:round; stroke-linejoin:round; stroke-width:5px;"/></g><g><path d="m516.16,449.44c.66.67-.2-.15.43.55" style="fill:none; stroke:#fff; stroke-linecap:round; stroke-linejoin:round; stroke-width:5px;"/><path d="m522.44,457.22c.66.94,1.29,1.91,1.88,2.89" style="fill:none; stroke:#fff; stroke-linecap:round; stroke-linejoin:round; stroke-width:5px;"/><path d="m528.79,468.86c2.42,6.66,3.57,13.91,3.17,21.43" style="fill:none; stroke:#fff; stroke-linecap:round; stroke-linejoin:round; stroke-width:5px;"/></g><g><path d="m153.5,444.96c.88.74,1.74,1.5,2.57,2.29" style="fill:none; stroke:#fff; stroke-linecap:round; stroke-linejoin:round; stroke-width:5px;"/><path d="m161.41,453.11c4.37,5.57,7.73,12.1,9.7,19.37" style="fill:none; stroke:#fff; stroke-linecap:round; stroke-linejoin:round; stroke-width:5px;"/></g><g><path d="m344.2,456.82c.87,1.22.81,1.21,1.59,2.51" style="fill:none; stroke:#fff; stroke-linecap:round; stroke-linejoin:round; stroke-width:5px;"/><path d="m327.21,439.55c4.63,3.01,8.12,6.46,10.62,9.17" style="fill:none; stroke:#fff; stroke-linecap:round; stroke-linejoin:round; stroke-width:5px;"/></g></g></svg>