<?xml version="1.0" encoding="UTF-8"?><svg xmlns="http://www.w3.org/2000/svg" viewBox="0 0 600 600"><g id="color"><circle cx="307.17" cy="180.82" r="112.58" style="fill:#f2ab38;"/><circle cx="475.97" cy="489.72" r="73.64" style="fill:#f2ab38;"/><circle cx="305.22" cy="489.72" r="73.64" style="fill:#f2ab38;"/><circle cx="134.46" cy="489.72" r="73.64" style="fill:#f2ab38;"/></g><g id="Ebene_2"><circle cx="292.51" cy="166.4" r="112.58" style="fill:none; stroke:#000; stroke-linecap:round; stroke-linejoin:round; stroke-width:19px;"/><polyline points="119.6 368.23 119.6 341.24 292.91 341.24 292.91 309.58 292.91 368.23" style="fill:none; stroke:#000; stroke-linecap:round; stroke-linejoin:round; stroke-width:19px;"/><polyline points="339.89 341.24 466.23 341.24 466.23 368.23" style="fill:none; stroke:#000; stroke-linecap:round; stroke-linejoin:round; stroke-width:19px;"/><g><circle cx="119.6" cy="471.89" r="70.42" style="fill:none; stroke:#000; stroke-linecap:round; stroke-linejoin:round; stroke-width:19px;"/><circle cx="119.6" cy="455.09" r="21.54" style="fill:#fff; stroke:#000; stroke-linecap:round; stroke-linejoin:round; stroke-width:19px;"/><path d="M119.6,476.77c-21.79,0-39.46,17.67-39.46,39.46,0,5.78,1.25,11.26,3.48,16.2,10.53,6.27,22.83,9.88,35.98,9.88s25.45-3.61,35.98-9.88c2.23-4.95,3.48-10.43,3.48-16.2,0-21.79-17.67-39.46-39.46-39.46Z" style="fill:#fff; stroke:#000; stroke-linecap:round; stroke-linejoin:round; stroke-width:19px;"/></g><g><circle cx="292.91" cy="471.89" r="70.42" style="fill:none; stroke:#000; stroke-linecap:round; stroke-linejoin:round; stroke-width:19px;"/><circle cx="292.91" cy="455.09" r="21.54" style="fill:#fff; stroke:#000; stroke-linecap:round; stroke-linejoin:round; stroke-width:19px;"/><path d="M292.91,476.77c-21.79,0-39.46,17.67-39.46,39.46,0,5.78,1.25,11.26,3.48,16.2,10.53,6.27,22.83,9.88,35.98,9.88s25.45-3.61,35.98-9.88c2.23-4.95,3.48-10.43,3.48-16.2,0-21.79-17.67-39.46-39.46-39.46Z" style="fill:#fff; stroke:#000; stroke-linecap:round; stroke-linejoin:round; stroke-width:19px;"/></g><g><circle cx="466.23" cy="471.89" r="70.42" style="fill:none; stroke:#000; stroke-linecap:round; stroke-linejoin:round; stroke-width:19px;"/><circle cx="466.23" cy="455.09" r="21.54" style="fill:#fff; stroke:#000; stroke-linecap:round; stroke-linejoin:round; stroke-width:19px;"/><path d="M466.23,476.77c-21.79,0-39.46,17.67-39.46,39.46,0,5.78,1.25,11.26,3.48,16.2,10.53,6.27,22.83,9.88,35.98,9.88s25.45-3.61,35.98-9.88c2.23-4.95,3.48-10.43,3.48-16.2,0-21.79-17.67-39.46-39.46-39.46Z" style="fill:#fff; stroke:#000; stroke-linecap:round; stroke-linejoin:round; stroke-width:19px;"/></g><path d="M368.59,126.72c0,2.84-1.08,5.68-3.25,7.84l-88.72,88.72c-2.16,2.18-5,3.25-7.84,3.25s-5.68-1.08-7.84-3.25l-44.36-44.36c-2.17-2.16-3.25-5-3.25-7.84,0-6.33,5.18-11.09,11.09-11.09,2.84,0,5.68,1.08,7.84,3.25l36.52,36.53,80.88-80.88c2.15-2.17,4.99-3.26,7.83-3.26,5.93,0,11.09,4.75,11.09,11.09Z"/></g></svg>