<?xml version="1.0" encoding="UTF-8"?><svg xmlns="http://www.w3.org/2000/svg" viewBox="0 0 600 600"><g id="color"><polygon points="539.2 493.19 539.2 177.1 494.27 177.1 146.85 177.1 90.32 177.1 90.32 493.19 60.79 493.19 60.79 547.69 562.5 547.69 562.5 493.19 539.2 493.19" style="fill:#f2ab38;"/></g><g id="Ebene_2"><g><rect x="278.68" y="60.11" width="75.03" height="357.68" style="fill:#fff;"/><path d="M454.98,84.37c-4.65-12.27,3.38-24.26,3.38-24.26,0,0-55.85,27.64-60.51,61.92-4.65,34.27,14.39,53.4,14.39,53.4v221c0,11.8,9.57,21.37,21.37,21.37s21.37-9.57,21.37-21.37V175.43s18.62-17.43,20.73-39.86c2.12-22.43-16.08-38.93-20.73-51.2Z" style="fill:#fff;"/><path d="M177.13,114.84V402.28c0,8.57,6.95,15.51,15.51,15.51h21.72c8.57,0,15.51-6.95,15.51-15.51V114.84l-26.37-54.72-26.37,54.72Z" style="fill:#fff;"/></g><rect x="261.35" y="44.49" width="73.77" height="351.67" style="fill:none; stroke:#000; stroke-linecap:round; stroke-linejoin:round; stroke-width:19px;"/><path d="M392.67,157.87h42.02v217.28c0,11.59-9.41,21.01-21.01,21.01h0c-11.59,0-21.01-9.41-21.01-21.01V157.87h0Z" style="fill:none; stroke:#000; stroke-linecap:round; stroke-linejoin:round; stroke-width:19px;"/><line x1="392.67" y1="197.47" x2="434.68" y2="197.47" style="fill:none; stroke:#000; stroke-linecap:round; stroke-linejoin:round; stroke-width:19px;"/><line x1="262.09" y1="85.24" x2="289.78" y2="85.24" style="fill:none; stroke:#000; stroke-linecap:round; stroke-linejoin:round; stroke-width:19px;"/><line x1="262.09" y1="130.33" x2="306.24" y2="130.33" style="fill:none; stroke:#000; stroke-linecap:round; stroke-linejoin:round; stroke-width:19px;"/><line x1="262.09" y1="175.43" x2="289.78" y2="175.43" style="fill:none; stroke:#000; stroke-linecap:round; stroke-linejoin:round; stroke-width:19px;"/><line x1="262.09" y1="220.52" x2="306.24" y2="220.52" style="fill:none; stroke:#000; stroke-linecap:round; stroke-linejoin:round; stroke-width:19px;"/><line x1="262.09" y1="265.62" x2="289.78" y2="265.62" style="fill:none; stroke:#000; stroke-linecap:round; stroke-linejoin:round; stroke-width:19px;"/><line x1="262.09" y1="355.81" x2="289.78" y2="355.81" style="fill:none; stroke:#000; stroke-linecap:round; stroke-linejoin:round; stroke-width:19px;"/><line x1="262.09" y1="310.71" x2="306.24" y2="310.71" style="fill:none; stroke:#000; stroke-linecap:round; stroke-linejoin:round; stroke-width:19px;"/><path d="M392.67,157.87s-18.72-18.8-14.14-52.5c4.58-33.7,59.49-60.88,59.49-60.88,0,0-7.9,11.79-3.33,23.85,4.58,12.06,22.46,28.29,20.38,50.34-2.08,22.05-20.38,39.19-20.38,39.19h-42.02Z" style="fill:none; stroke:#000; stroke-linecap:round; stroke-linejoin:round; stroke-width:19px;"/><path d="M161.5,98.29h51.86V380.91c0,8.42-6.84,15.25-15.25,15.25h-21.36c-8.42,0-15.25-6.84-15.25-15.25V98.29h0Z" style="fill:none; stroke:#000; stroke-linecap:round; stroke-linejoin:round; stroke-width:19px;"/><polygon points="187.43 44.49 213.37 98.29 161.5 98.29 187.43 44.49" style="fill:none; stroke:#000; stroke-linecap:round; stroke-linejoin:round; stroke-width:19px;"/><line x1="161.5" y1="355.81" x2="213.37" y2="355.81" style="fill:none; stroke:#000; stroke-linecap:round; stroke-linejoin:round; stroke-width:19px;"/><polyline points="475.04 157.87 519.97 157.87 519.97 473.95 71.09 473.95 71.09 157.87 127.61 157.87" style="fill:none; stroke:#000; stroke-linecap:round; stroke-linejoin:round; stroke-width:19px;"/><rect x="41.55" y="473.95" width="501.71" height="54.5" style="fill:none; stroke:#000; stroke-linecap:round; stroke-linejoin:round; stroke-width:19px;"/><rect x="247.48" y="473.95" width="93.19" height="12.48" style="fill:none; stroke:#000; stroke-linecap:round; stroke-linejoin:round; stroke-width:19px;"/><polyline points="471.46 194.81 487.93 194.81 487.93 437.39 106.45 437.39 106.45 194.81 128.86 194.81" style="fill:none; stroke:#000; stroke-linecap:round; stroke-linejoin:round; stroke-width:19px;"/></g></svg>