<?xml version="1.0" encoding="UTF-8"?><svg xmlns="http://www.w3.org/2000/svg" xmlns:xlink="http://www.w3.org/1999/xlink" viewBox="0 0 600 600"><defs><linearGradient id="Unbenannter_Verlauf_21" x1="99.08" y1="39.68" x2="489.21" y2="429.81" gradientUnits="userSpaceOnUse"><stop offset="0" stop-color="#974619"/><stop offset=".08" stop-color="#b26f49"/><stop offset=".18" stop-color="#d7a58a"/><stop offset=".26" stop-color="#efc7b2"/><stop offset=".3" stop-color="#f8d5c2"/><stop offset=".34" stop-color="#e9c3b0"/><stop offset=".47" stop-color="#b98a74"/><stop offset=".57" stop-color="#966049"/><stop offset=".66" stop-color="#81462e"/><stop offset=".71" stop-color="#793d25"/><stop offset="1" stop-color="#6d3119"/></linearGradient><linearGradient id="Unbenannter_Verlauf_18" x1="99.08" y1="39.68" x2="489.21" y2="429.81" gradientUnits="userSpaceOnUse"><stop offset="0" stop-color="#9a9b9f"/><stop offset=".31" stop-color="#fefefe"/><stop offset=".38" stop-color="#e0e0e1"/><stop offset=".47" stop-color="#c1c1c3"/><stop offset=".54" stop-color="#adaeb0"/><stop offset=".6" stop-color="#a7a8aa"/><stop offset=".72" stop-color="#abacae"/><stop offset=".86" stop-color="#b8b9bb"/><stop offset="1" stop-color="#cdced0"/></linearGradient><linearGradient id="Neues_Verlaufsfeld_1" x1="99.08" y1="39.68" x2="489.21" y2="429.81" gradientUnits="userSpaceOnUse"><stop offset="0" stop-color="#a36d0a"/><stop offset=".31" stop-color="#f8fb9f"/><stop offset=".6" stop-color="#cf9618"/><stop offset="1" stop-color="#a16705"/></linearGradient><linearGradient id="Unbenannter_Verlauf_24" x1="99.08" y1="39.68" x2="489.21" y2="429.81" gradientUnits="userSpaceOnUse"><stop offset="0" stop-color="#1d7abf"/><stop offset=".31" stop-color="#4ee9f9"/><stop offset=".6" stop-color="#2085c7"/><stop offset="1" stop-color="#2a3b92"/></linearGradient></defs><g id="lvl-1"><path d="m73.66,423.14V65.11h459.72v294c0,35.36-28.67,64.03-64.03,64.03H73.66Z" style="fill:url(#Unbenannter_Verlauf_21);"/></g><g id="lvl-2"><path d="m73.66,423.14V65.11h459.72v294c0,35.36-28.67,64.03-64.03,64.03H73.66Z" style="fill:url(#Unbenannter_Verlauf_18);"/></g><g id="lvl-3"><path d="m73.66,423.14V65.11h459.72v294c0,35.36-28.67,64.03-64.03,64.03H73.66Z" style="fill:url(#Neues_Verlaufsfeld_1);"/></g><g id="lvl-max"><path d="m73.66,423.14V65.11h459.72v294c0,35.36-28.67,64.03-64.03,64.03H73.66Z" style="fill:url(#Unbenannter_Verlauf_24);"/></g><g id="icons"><g><polyline points="372.7 377.95 118.03 377.95 118.03 110.21 486 110.21 486 242.29" style="fill:none; stroke:#000; stroke-linecap:round; stroke-linejoin:round; stroke-width:15px;"/><polyline points="345.06 423.05 72.22 423.05 72.22 65.11 531.82 65.11 531.82 253.92" style="fill:none; stroke:#000; stroke-linecap:round; stroke-linejoin:round; stroke-width:15px;"/><rect x="178.89" y="159.08" width="246.27" height="42.95" style="fill:#fff; stroke:#000; stroke-linecap:round; stroke-linejoin:round; stroke-width:15px;"/><rect x="117.13" y="110.21" width="191.6" height="267.74" style="opacity:.15;"/><line x1="173.94" y1="249.18" x2="418.77" y2="249.18" style="fill:none; stroke:#000; stroke-linecap:round; stroke-linejoin:round; stroke-width:15px;"/><line x1="215.3" y1="332.13" x2="353.56" y2="332.13" style="fill:none; stroke:#000; stroke-dasharray:0 0 0 0 0 0 2 25 2 25 2 25; stroke-linecap:round; stroke-linejoin:round; stroke-width:15px;"/><line x1="173.94" y1="290.65" x2="324.57" y2="290.65" style="fill:none; stroke:#000; stroke-linecap:round; stroke-linejoin:round; stroke-width:15px;"/><g><circle cx="138.56" cy="393.08" r="73.37" style="fill:#fff; stroke:#000; stroke-linecap:round; stroke-linejoin:round; stroke-width:15px;"/><polygon points="138.56 361.28 145.53 382.42 168.09 382.42 149.84 395.48 156.81 416.61 138.56 403.55 120.3 416.61 127.27 395.48 109.02 382.42 131.58 382.42 138.56 361.28" style="fill:none; stroke:#000; stroke-linecap:round; stroke-linejoin:round; stroke-width:15px;"/><polyline points="75.48 430.58 28.88 487.31 72.76 488.06 86.97 528.15 126.96 466.45" style="fill:none; stroke:#000; stroke-linecap:round; stroke-linejoin:round; stroke-width:15px;"/><polyline points="202.91 430.58 249.25 487.31 207.42 488.06 193.88 528.15 153.83 466.45" style="fill:none; stroke:#000; stroke-linecap:round; stroke-linejoin:round; stroke-width:15px;"/><polyline points="75.48 430.58 28.88 487.31 72.76 488.06 86.97 528.15 126.96 466.45" style="opacity:.15;"/><polyline points="202.91 430.58 249.25 487.31 207.42 488.06 193.88 528.15 153.83 466.45" style="opacity:.15;"/></g><path d="m529.76,428.49s-.02-.04-.07-.11c-1.8-3.43-3.84-6.7-6.12-9.8-7.72-12.91-20.23-35.95-23-53.75-2.32-14.88,18.01-31.56,30.23-43.79,12.22-12.22,7.43-28.14,7.43-28.14,0,0-20.65,6.56-38.5,16.99-14.41,8.42-18.74,18.33-19.87,21.84,2.11-7.98,11.95-49.69-13.53-48.06-22.18,1.41-14.12,44.81-14.12,44.81,0,0-3.88-12.32-17.79-23.63-12.87-10.46-33.98-8.23-33.98-8.23,0,0-3.91,9.17,9.82,27.88,13.74,18.71,20.86,15.74,24.66,34.68,4.97,24.74-43.16,52.01-47.23,88.25l.25-.03c-1.14,5.25-1.76,10.69-1.76,16.28,0,42.03,34.07,76.1,76.1,76.1s76.1-34.07,76.1-76.1c0-12.7-3.13-24.66-8.63-35.19h.02Z" style="fill:#fff; stroke:#000; stroke-linecap:round; stroke-linejoin:round; stroke-width:15px;"/><path d="m472.89,466.48c0-2.76-.77-4.96-2.3-6.59-1.53-1.63-4.13-3.14-7.8-4.52-3.67-1.38-6.84-2.75-9.5-4.12-2.66-1.36-4.94-2.93-6.84-4.7-1.9-1.77-3.38-3.85-4.45-6.24-1.06-2.39-1.59-5.24-1.59-8.54,0-5.69,1.82-10.36,5.46-13.99,3.64-3.64,8.47-5.76,14.5-6.36v-10.81h8.08v10.96c5.96.84,10.62,3.33,13.99,7.45,3.37,4.13,5.05,9.47,5.05,16.04h-14.6c0-4.04-.83-7.06-2.5-9.07-1.67-2-3.9-3.01-6.69-3.01s-4.9.78-6.41,2.35c-1.52,1.57-2.27,3.73-2.27,6.49,0,2.56.74,4.61,2.22,6.16,1.48,1.55,4.23,3.13,8.26,4.75,4.02,1.62,7.33,3.14,9.93,4.57,2.59,1.43,4.78,3.05,6.57,4.85,1.78,1.8,3.15,3.86,4.09,6.16.94,2.31,1.41,4.99,1.41,8.06,0,5.73-1.78,10.37-5.35,13.94-3.57,3.57-8.49,5.67-14.75,6.31v10.05h-8.03v-10c-6.9-.74-12.25-3.19-16.04-7.35-3.79-4.16-5.68-9.69-5.68-16.59h14.6c0,4.01.95,7.08,2.85,9.22,1.9,2.14,4.64,3.21,8.21,3.21,2.96,0,5.3-.78,7.02-2.35,1.72-1.57,2.58-3.68,2.58-6.34Z" style="stroke:#000; stroke-linecap:round; stroke-linejoin:round; stroke-width:6px;"/></g></g><g id="highlights"><g><line x1="508.7" y1="114.06" x2="508.7" y2="121.81" style="fill:none; stroke:#fff; stroke-linecap:round; stroke-linejoin:round; stroke-width:5px;"/><path d="m486.03,88.1l18.35-.21c2.34-.03,4.24,1.88,4.21,4.22l-.17,9.3" style="fill:none; stroke:#fff; stroke-linecap:round; stroke-linejoin:round; stroke-width:5px;"/><line x1="508.7" y1="134.21" x2="508.7" y2="135.5" style="fill:none; stroke:#fff; stroke-linecap:round; stroke-linejoin:round; stroke-width:5px;"/></g></g></svg>