<?xml version="1.0" encoding="UTF-8"?><svg xmlns="http://www.w3.org/2000/svg" viewBox="0 0 600 600"><g id="color"><path d="M111.65,401.35V107.96H488.35v240.92c0,28.98-23.49,52.47-52.47,52.47H111.65Z" style="fill:#f2ab38;"/></g><g id="Ebene_2"><g><polyline points="356.68 364.32 148.01 364.32 148.01 144.92 449.53 144.92 449.53 253.15" style="fill:none; stroke:#000; stroke-linecap:round; stroke-linejoin:round; stroke-width:15px;"/><polyline points="334.04 401.27 110.46 401.27 110.46 107.96 487.08 107.96 487.08 262.68" style="fill:none; stroke:#000; stroke-linecap:round; stroke-linejoin:round; stroke-width:15px;"/><rect x="197.87" y="184.97" width="201.8" height="35.2" style="fill:#fff; stroke:#000; stroke-linecap:round; stroke-linejoin:round; stroke-width:15px;"/><rect x="147.27" y="144.92" width="157" height="219.4" style="opacity:.15;"/><line x1="193.81" y1="258.8" x2="394.44" y2="258.8" style="fill:none; stroke:#000; stroke-linecap:round; stroke-linejoin:round; stroke-width:15px;"/><line x1="227.71" y1="326.77" x2="341.01" y2="326.77" style="fill:none; stroke:#000; stroke-dasharray:0 0 0 0 0 0 2 25 2 25 2 25; stroke-linecap:round; stroke-linejoin:round; stroke-width:15px;"/><line x1="193.81" y1="292.78" x2="317.25" y2="292.78" style="fill:none; stroke:#000; stroke-linecap:round; stroke-linejoin:round; stroke-width:15px;"/><g><circle cx="164.82" cy="376.71" r="60.13" style="fill:#fff; stroke:#000; stroke-linecap:round; stroke-linejoin:round; stroke-width:15px;"/><polygon points="164.82 350.66 170.53 367.97 189.02 367.97 174.06 378.68 179.78 396 164.82 385.29 149.86 396 155.58 378.68 140.62 367.97 159.11 367.97 164.82 350.66" style="fill:none; stroke:#000; stroke-linecap:round; stroke-linejoin:round; stroke-width:15px;"/><polyline points="113.13 407.44 74.95 453.93 110.91 454.54 122.55 487.39 155.32 436.84" style="fill:none; stroke:#000; stroke-linecap:round; stroke-linejoin:round; stroke-width:15px;"/><polyline points="217.56 407.44 255.53 453.93 221.25 454.54 210.15 487.39 177.34 436.84" style="fill:none; stroke:#000; stroke-linecap:round; stroke-linejoin:round; stroke-width:15px;"/><polyline points="113.13 407.44 74.95 453.93 110.91 454.54 122.55 487.39 155.32 436.84" style="opacity:.15;"/><polyline points="217.56 407.44 255.53 453.93 221.25 454.54 210.15 487.39 177.34 436.84" style="opacity:.15;"/></g><path d="M485.39,405.73s-.02-.03-.06-.09c-1.47-2.81-3.15-5.49-5.02-8.03-6.32-10.58-16.58-29.46-18.85-44.04-1.9-12.2,14.75-25.87,24.77-35.88,10.01-10.01,6.09-23.06,6.09-23.06,0,0-16.92,5.37-31.55,13.92-11.81,6.9-15.35,15.02-16.28,17.89,1.73-6.54,9.79-40.71-11.09-39.38-18.17,1.16-11.57,36.72-11.57,36.72,0,0-3.18-10.1-14.58-19.36-10.54-8.57-27.85-6.74-27.85-6.74,0,0-3.21,7.51,8.05,22.84,11.26,15.33,17.09,12.9,20.21,28.42,4.07,20.28-35.36,42.62-38.7,72.31l.21-.03c-.94,4.3-1.45,8.76-1.45,13.34,0,34.44,27.92,62.36,62.36,62.36s62.36-27.92,62.36-62.36c0-10.41-2.56-20.21-7.07-28.83h.01Z" style="fill:#fff; stroke:#000; stroke-linecap:round; stroke-linejoin:round; stroke-width:15px;"/><path d="M438.79,436.86c0-2.26-.63-4.06-1.88-5.4-1.26-1.34-3.39-2.57-6.4-3.7-3.01-1.13-5.6-2.26-7.78-3.37-2.18-1.12-4.05-2.4-5.61-3.85-1.56-1.45-2.77-3.15-3.64-5.11-.87-1.96-1.3-4.29-1.3-7,0-4.66,1.49-8.49,4.47-11.47,2.98-2.98,6.94-4.72,11.88-5.22v-8.86h6.62v8.98c4.88,.69,8.71,2.73,11.47,6.11,2.76,3.38,4.14,7.76,4.14,13.14h-11.96c0-3.31-.68-5.79-2.05-7.43-1.37-1.64-3.19-2.46-5.48-2.46s-4.02,.64-5.26,1.92c-1.24,1.28-1.86,3.06-1.86,5.32,0,2.1,.61,3.78,1.82,5.05,1.21,1.27,3.47,2.57,6.77,3.89,3.3,1.32,6.01,2.57,8.13,3.75,2.12,1.17,3.92,2.5,5.38,3.97,1.46,1.48,2.58,3.16,3.35,5.05,.77,1.89,1.16,4.09,1.16,6.6,0,4.69-1.46,8.5-4.39,11.42-2.93,2.93-6.95,4.65-12.09,5.17v8.24h-6.58v-8.2c-5.66-.61-10.04-2.61-13.14-6.02-3.1-3.41-4.66-7.94-4.66-13.6h11.96c0,3.28,.78,5.8,2.34,7.55,1.56,1.75,3.8,2.63,6.73,2.63,2.43,0,4.35-.64,5.75-1.92,1.41-1.28,2.11-3.01,2.11-5.19Z" style="stroke:#000; stroke-linecap:round; stroke-linejoin:round; stroke-width:6px;"/></g></g><g id="Ebene_4"><g><line x1="468.13" y1="148.07" x2="468.13" y2="154.43" style="fill:none; stroke:#fff; stroke-linecap:round; stroke-linejoin:round; stroke-width:5px;"/><path d="M449.55,126.8l15.04-.17c1.92-.02,3.48,1.54,3.45,3.46l-.14,7.62" style="fill:none; stroke:#fff; stroke-linecap:round; stroke-linejoin:round; stroke-width:5px;"/><line x1="468.13" y1="164.59" x2="468.13" y2="165.64" style="fill:none; stroke:#fff; stroke-linecap:round; stroke-linejoin:round; stroke-width:5px;"/></g></g></svg>