<?xml version="1.0" encoding="UTF-8"?><svg xmlns="http://www.w3.org/2000/svg" xmlns:xlink="http://www.w3.org/1999/xlink" viewBox="0 0 600 600"><defs><linearGradient id="Unbenannter_Verlauf_21" x1="106.38" y1="31.89" x2="440.67" y2="366.19" gradientUnits="userSpaceOnUse"><stop offset="0" stop-color="#974619"/><stop offset=".08" stop-color="#b26f49"/><stop offset=".18" stop-color="#d7a58a"/><stop offset=".26" stop-color="#efc7b2"/><stop offset=".3" stop-color="#f8d5c2"/><stop offset=".34" stop-color="#e9c3b0"/><stop offset=".47" stop-color="#b98a74"/><stop offset=".57" stop-color="#966049"/><stop offset=".66" stop-color="#81462e"/><stop offset=".71" stop-color="#793d25"/><stop offset="1" stop-color="#6d3119"/></linearGradient><linearGradient id="Unbenannter_Verlauf_18" x1="106.38" y1="31.89" x2="440.67" y2="366.19" gradientUnits="userSpaceOnUse"><stop offset="0" stop-color="#9a9b9f"/><stop offset=".31" stop-color="#fefefe"/><stop offset=".38" stop-color="#e0e0e1"/><stop offset=".47" stop-color="#c1c1c3"/><stop offset=".54" stop-color="#adaeb0"/><stop offset=".6" stop-color="#a7a8aa"/><stop offset=".72" stop-color="#abacae"/><stop offset=".86" stop-color="#b8b9bb"/><stop offset="1" stop-color="#cdced0"/></linearGradient><linearGradient id="Neues_Verlaufsfeld_1" x1="106.38" y1="31.89" x2="440.67" y2="366.19" gradientUnits="userSpaceOnUse"><stop offset="0" stop-color="#a36d0a"/><stop offset=".31" stop-color="#f8fb9f"/><stop offset=".6" stop-color="#cf9618"/><stop offset="1" stop-color="#a16705"/></linearGradient><linearGradient id="Unbenannter_Verlauf_24" x1="106.38" y1="31.89" x2="440.67" y2="366.19" gradientUnits="userSpaceOnUse"><stop offset="0" stop-color="#1d7abf"/><stop offset=".31" stop-color="#4ee9f9"/><stop offset=".6" stop-color="#2085c7"/><stop offset="1" stop-color="#2a3b92"/></linearGradient></defs><g id="lvl-1"><path d="m365.67,346.36c0,17.8-1.23,66.32-1.23,66.32l-67.41-66.32H93.18c-22.75,0-41.2-18.44-41.2-41.2V104.84c0-24.73,20.05-44.78,44.78-44.78h367.02c20.66,0,37.4,16.74,37.4,37.4v179.46c0,38.35-31.09,69.45-69.45,69.45h-66.07Z" style="fill:url(#Unbenannter_Verlauf_21);"/></g><g id="lvl-2"><path d="m365.67,346.36c0,17.8-1.23,66.32-1.23,66.32l-67.41-66.32H93.18c-22.75,0-41.2-18.44-41.2-41.2V104.84c0-24.73,20.05-44.78,44.78-44.78h367.02c20.66,0,37.4,16.74,37.4,37.4v179.46c0,38.35-31.09,69.45-69.45,69.45h-66.07Z" style="fill:url(#Unbenannter_Verlauf_18);"/></g><g id="lvl-3"><path d="m365.67,346.36c0,17.8-1.23,66.32-1.23,66.32l-67.41-66.32H93.18c-22.75,0-41.2-18.44-41.2-41.2V104.84c0-24.73,20.05-44.78,44.78-44.78h367.02c20.66,0,37.4,16.74,37.4,37.4v179.46c0,38.35-31.09,69.45-69.45,69.45h-66.07Z" style="fill:url(#Neues_Verlaufsfeld_1);"/></g><g id="lvl-max"><path d="m365.67,346.36c0,17.8-1.23,66.32-1.23,66.32l-67.41-66.32H93.18c-22.75,0-41.2-18.44-41.2-41.2V104.84c0-24.73,20.05-44.78,44.78-44.78h367.02c20.66,0,37.4,16.74,37.4,37.4v179.46c0,38.35-31.09,69.45-69.45,69.45h-66.07Z" style="fill:url(#Unbenannter_Verlauf_24);"/></g><g id="icons"><g><g><circle cx="108.13" cy="435.58" r="33.32" style="fill:none; stroke:#000; stroke-miterlimit:10; stroke-width:15px;"/><path d="m108.13,469.48c-28.97,0-52.45,23.48-52.45,52.45,0,7.12,1.43,13.91,4,20.11h96.9c2.57-6.19,4-12.98,4-20.11,0-28.97-23.48-52.45-52.45-52.45Z" style="fill:none; stroke:#000; stroke-linecap:round; stroke-linejoin:round; stroke-width:15px;"/></g><path d="m501.49,252.66v22.16c0,38.35-31.09,69.45-69.45,69.45h-78.28" style="fill:none; stroke:#000; stroke-linecap:round; stroke-linejoin:round; stroke-width:15px;"/><path d="m295.52,344.27H93.48c-22.75,0-41.2-18.44-41.2-41.2V102.74c0-24.73,20.05-44.78,44.78-44.78h367.02c20.66,0,37.4,16.74,37.4,37.4" style="fill:none; stroke:#000; stroke-linecap:round; stroke-linejoin:round; stroke-width:15px;"/><path d="m85.66,57.96h159.59c18.42,0,33.37,14.95,33.37,33.37v252.93H52.29V91.33c0-18.42,14.95-33.37,33.37-33.37Z" style="opacity:.15;"/><rect x="108.13" y="112.98" width="106.13" height="106.13" style="fill:#fff; stroke:#000; stroke-linecap:round; stroke-linejoin:round; stroke-width:15px;"/><line x1="276.89" y1="112.98" x2="436.38" y2="112.98" style="fill:none; stroke:#000; stroke-linecap:round; stroke-linejoin:round; stroke-width:15px;"/><line x1="276.89" y1="166.04" x2="356.92" y2="166.04" style="fill:none; stroke:#000; stroke-linecap:round; stroke-linejoin:round; stroke-width:15px;"/><line x1="111.54" y1="279.58" x2="299.36" y2="278.91" style="fill:none; stroke:#000; stroke-linecap:round; stroke-linejoin:round; stroke-width:15px;"/><line x1="276.89" y1="219.11" x2="321.84" y2="219.11" style="fill:none; stroke:#000; stroke-linecap:round; stroke-linejoin:round; stroke-width:15px;"/><path d="m297.33,344.27l67.41,66.32s1.23-48.51,1.23-66.32" style="fill:none; stroke:#000; stroke-linecap:round; stroke-linejoin:round; stroke-width:15px;"/><g><path d="m369.59,164.32h223.37v39.85c0,7.29-5.92,13.22-13.22,13.22h-196.93c-7.29,0-13.22-5.92-13.22-13.22v-39.85h0Z" transform="translate(-11.22 350.55) rotate(-39.6)" style="fill:#fff; stroke:#000; stroke-linecap:round; stroke-linejoin:round; stroke-width:15px;"/><path d="m352.46,301.1l59.67-18.62-33.82-40.89-29.47,55.12c-1.3,2.42,1,5.2,3.62,4.38Z" style="fill:#fff; stroke:#000; stroke-linecap:round; stroke-linejoin:round; stroke-width:15px;"/><line x1="524.74" y1="130.65" x2="553.56" y2="165.5" style="fill:none; stroke:#000; stroke-linecap:round; stroke-linejoin:round; stroke-width:15px;"/></g><g><circle cx="445.42" cy="435.58" r="33.32" style="fill:none; stroke:#000; stroke-miterlimit:10; stroke-width:15px;"/><path d="m445.42,469.48c-28.97,0-52.45,23.48-52.45,52.45,0,7.12,1.43,13.91,4,20.11h96.9c2.57-6.19,4-12.98,4-20.11,0-28.97-23.48-52.45-52.45-52.45Z" style="fill:none; stroke:#000; stroke-linecap:round; stroke-linejoin:round; stroke-width:15px;"/></g><g><circle cx="276.58" cy="435.58" r="33.32" style="fill:none; stroke:#000; stroke-miterlimit:10; stroke-width:15px;"/><path d="m276.58,469.48c-28.97,0-52.45,23.48-52.45,52.45,0,7.12,1.43,13.91,4,20.11h96.9c2.57-6.19,4-12.98,4-20.11,0-28.97-23.48-52.45-52.45-52.45Z" style="fill:none; stroke:#000; stroke-linecap:round; stroke-linejoin:round; stroke-width:15px;"/></g><g style="opacity:.15;"><circle cx="108.13" cy="435.58" r="33.32"/><path d="m108.13,469.48c-28.97,0-52.45,23.48-52.45,52.45,0,7.12,1.43,13.91,4,20.11h96.9c2.57-6.19,4-12.98,4-20.11,0-28.97-23.48-52.45-52.45-52.45Z"/></g><g style="opacity:.15;"><circle cx="445.42" cy="435.58" r="33.32"/><path d="m445.42,469.48c-28.97,0-52.45,23.48-52.45,52.45,0,7.12,1.43,13.91,4,20.11h96.9c2.57-6.19,4-12.98,4-20.11,0-28.97-23.48-52.45-52.45-52.45Z"/></g><g style="opacity:.15;"><circle cx="276.58" cy="435.58" r="33.32"/><path d="m276.58,469.48c-28.97,0-52.45,23.48-52.45,52.45,0,7.12,1.43,13.91,4,20.11h96.9c2.57-6.19,4-12.98,4-20.11,0-28.97-23.48-52.45-52.45-52.45Z"/></g></g></g><g id="highlights"><path d="m432.45,79.12c10.86-.89,21.8-.76,32.63.37" style="fill:none; stroke:#fff; stroke-linecap:round; stroke-linejoin:round; stroke-width:5px;"/><path d="m475.58,84.15c2.02,1.8,3.44,4.26,3.98,6.91" style="fill:none; stroke:#fff; stroke-linecap:round; stroke-linejoin:round; stroke-width:5px;"/><path d="m480.72,106.61v-3.39" style="fill:none; stroke:#fff; stroke-linecap:round; stroke-linejoin:round; stroke-width:5px;"/></g></svg>