<?xml version="1.0" encoding="UTF-8"?><svg xmlns="http://www.w3.org/2000/svg" viewBox="0 0 600 600"><g id="color"><path d="M378.42,336.95c0,14.43-1,53.74-1,53.74l-54.62-53.74H157.62c-18.44,0-33.38-14.95-33.38-33.38V141.24c0-20.04,16.25-36.29,36.29-36.29H457.93c16.74,0,30.31,13.57,30.31,30.31v145.42c0,31.08-25.19,56.27-56.27,56.27h-53.54Z" style="fill:#f2ab38;"/></g><g id="Ebene_2"><g><g><circle cx="169.73" cy="409.25" r="27" style="fill:none; stroke:#000; stroke-miterlimit:10; stroke-width:15px;"/><path d="M169.73,436.72c-23.47,0-42.5,19.03-42.5,42.5,0,5.77,1.16,11.27,3.24,16.29h78.52c2.09-5.02,3.24-10.52,3.24-16.29,0-23.47-19.03-42.5-42.5-42.5Z" style="fill:none; stroke:#000; stroke-linecap:round; stroke-linejoin:round; stroke-width:15px;"/></g><path d="M488.48,261.03v17.96c0,31.08-25.19,56.27-56.27,56.27h-63.43" style="fill:none; stroke:#000; stroke-linecap:round; stroke-linejoin:round; stroke-width:15px;"/><path d="M321.58,335.25H157.87c-18.44,0-33.38-14.95-33.38-33.38V139.54c0-20.04,16.25-36.29,36.29-36.29H458.18c16.74,0,30.31,13.57,30.31,30.31" style="fill:none; stroke:#000; stroke-linecap:round; stroke-linejoin:round; stroke-width:15px;"/><path d="M157.85,103.25h116.66c18.42,0,33.37,14.95,33.37,33.37v198.63H124.48V136.63c0-18.42,14.95-33.37,33.37-33.37Z" style="opacity:.15;"/><rect x="169.73" y="147.83" width="86" height="86" style="fill:#fff; stroke:#000; stroke-linecap:round; stroke-linejoin:round; stroke-width:15px;"/><line x1="306.48" y1="147.83" x2="435.72" y2="147.83" style="fill:none; stroke:#000; stroke-linecap:round; stroke-linejoin:round; stroke-width:15px;"/><line x1="306.48" y1="190.83" x2="371.33" y2="190.83" style="fill:none; stroke:#000; stroke-linecap:round; stroke-linejoin:round; stroke-width:15px;"/><line x1="172.5" y1="282.83" x2="324.69" y2="282.3" style="fill:none; stroke:#000; stroke-linecap:round; stroke-linejoin:round; stroke-width:15px;"/><line x1="306.48" y1="233.83" x2="342.91" y2="233.83" style="fill:none; stroke:#000; stroke-linecap:round; stroke-linejoin:round; stroke-width:15px;"/><path d="M323.05,335.25l54.62,53.74s1-39.31,1-53.74" style="fill:none; stroke:#000; stroke-linecap:round; stroke-linejoin:round; stroke-width:15px;"/><g><path d="M381.61,189.44h181v29.78c0,7.29-5.92,13.22-13.22,13.22h-154.57c-7.29,0-13.22-5.92-13.22-13.22v-29.78h0Z" transform="translate(-26.12 349.31) rotate(-39.6)" style="fill:#fff; stroke:#000; stroke-linecap:round; stroke-linejoin:round; stroke-width:15px;"/><path d="M369.08,299.85l47-14.66-27.41-33.13-23.21,43.41c-1.3,2.42,1,5.2,3.62,4.38Z" style="fill:#fff; stroke:#000; stroke-linecap:round; stroke-linejoin:round; stroke-width:15px;"/><line x1="507.32" y1="162.16" x2="530.68" y2="190.39" style="fill:none; stroke:#000; stroke-linecap:round; stroke-linejoin:round; stroke-width:15px;"/></g><g><circle cx="443.05" cy="409.25" r="27" style="fill:none; stroke:#000; stroke-miterlimit:10; stroke-width:15px;"/><path d="M443.05,436.72c-23.47,0-42.5,19.03-42.5,42.5,0,5.77,1.16,11.27,3.24,16.29h78.52c2.09-5.02,3.24-10.52,3.24-16.29,0-23.47-19.03-42.5-42.5-42.5Z" style="fill:none; stroke:#000; stroke-linecap:round; stroke-linejoin:round; stroke-width:15px;"/></g><g><circle cx="306.23" cy="409.25" r="27" style="fill:none; stroke:#000; stroke-miterlimit:10; stroke-width:15px;"/><path d="M306.23,436.72c-23.47,0-42.5,19.03-42.5,42.5,0,5.77,1.16,11.27,3.24,16.29h78.52c2.09-5.02,3.24-10.52,3.24-16.29,0-23.47-19.03-42.5-42.5-42.5Z" style="fill:none; stroke:#000; stroke-linecap:round; stroke-linejoin:round; stroke-width:15px;"/></g><g style="opacity:.15;"><circle cx="169.73" cy="409.25" r="27"/><path d="M169.73,436.72c-23.47,0-42.5,19.03-42.5,42.5,0,5.77,1.16,11.27,3.24,16.29h78.52c2.09-5.02,3.24-10.52,3.24-16.29,0-23.47-19.03-42.5-42.5-42.5Z"/></g><g style="opacity:.15;"><circle cx="443.05" cy="409.25" r="27"/><path d="M443.05,436.72c-23.47,0-42.5,19.03-42.5,42.5,0,5.77,1.16,11.27,3.24,16.29h78.52c2.09-5.02,3.24-10.52,3.24-16.29,0-23.47-19.03-42.5-42.5-42.5Z"/></g><g style="opacity:.15;"><circle cx="306.23" cy="409.25" r="27"/><path d="M306.23,436.72c-23.47,0-42.5,19.03-42.5,42.5,0,5.77,1.16,11.27,3.24,16.29h78.52c2.09-5.02,3.24-10.52,3.24-16.29,0-23.47-19.03-42.5-42.5-42.5Z"/></g></g></g><g id="Ebene_4"><path d="M432.54,120.4c8.8-.72,17.66-.62,26.44,.3" style="fill:none; stroke:#fff; stroke-linecap:round; stroke-linejoin:round; stroke-width:5px;"/><path d="M467.49,124.47c1.64,1.46,2.79,3.45,3.23,5.6" style="fill:none; stroke:#fff; stroke-linecap:round; stroke-linejoin:round; stroke-width:5px;"/><path d="M471.65,142.68v-2.75" style="fill:none; stroke:#fff; stroke-linecap:round; stroke-linejoin:round; stroke-width:5px;"/></g></svg>