<?xml version="1.0" encoding="UTF-8"?><svg xmlns="http://www.w3.org/2000/svg" xmlns:xlink="http://www.w3.org/1999/xlink" viewBox="0 0 600 600"><defs><linearGradient id="Unbenannter_Verlauf_21" x1="267.42" y1="217.59" x2="413.23" y2="363.41" gradientUnits="userSpaceOnUse"><stop offset="0" stop-color="#974619"/><stop offset=".08" stop-color="#b26f49"/><stop offset=".18" stop-color="#d7a58a"/><stop offset=".26" stop-color="#efc7b2"/><stop offset=".3" stop-color="#f8d5c2"/><stop offset=".34" stop-color="#e9c3b0"/><stop offset=".47" stop-color="#b98a74"/><stop offset=".57" stop-color="#966049"/><stop offset=".66" stop-color="#81462e"/><stop offset=".71" stop-color="#793d25"/><stop offset="1" stop-color="#6d3119"/></linearGradient><linearGradient id="Unbenannter_Verlauf_21-2" x1="57.06" y1="259.94" x2="147.26" y2="350.14" xlink:href="#Unbenannter_Verlauf_21"/><linearGradient id="Unbenannter_Verlauf_21-3" x1="153.23" y1="448.72" x2="243.43" y2="538.92" xlink:href="#Unbenannter_Verlauf_21"/><linearGradient id="Unbenannter_Verlauf_21-4" x1="135.43" y1="58.5" x2="225.62" y2="148.7" xlink:href="#Unbenannter_Verlauf_21"/><linearGradient id="Unbenannter_Verlauf_21-5" x1="436.71" y1="442.43" x2="526.91" y2="532.63" xlink:href="#Unbenannter_Verlauf_21"/><linearGradient id="Unbenannter_Verlauf_21-6" x1="432.11" y1="52.18" x2="522.3" y2="142.38" xlink:href="#Unbenannter_Verlauf_21"/><linearGradient id="Unbenannter_Verlauf_18" x1="267.42" y1="217.59" x2="413.23" y2="363.41" gradientUnits="userSpaceOnUse"><stop offset="0" stop-color="#9a9b9f"/><stop offset=".31" stop-color="#fefefe"/><stop offset=".38" stop-color="#e0e0e1"/><stop offset=".47" stop-color="#c1c1c3"/><stop offset=".54" stop-color="#adaeb0"/><stop offset=".6" stop-color="#a7a8aa"/><stop offset=".72" stop-color="#abacae"/><stop offset=".86" stop-color="#b8b9bb"/><stop offset="1" stop-color="#cdced0"/></linearGradient><linearGradient id="Unbenannter_Verlauf_18-2" x1="57.06" y1="259.94" x2="147.26" y2="350.14" xlink:href="#Unbenannter_Verlauf_18"/><linearGradient id="Unbenannter_Verlauf_18-3" x1="153.23" y1="448.72" x2="243.43" y2="538.92" xlink:href="#Unbenannter_Verlauf_18"/><linearGradient id="Unbenannter_Verlauf_18-4" x1="135.43" y1="58.5" x2="225.62" y2="148.7" xlink:href="#Unbenannter_Verlauf_18"/><linearGradient id="Unbenannter_Verlauf_18-5" x1="436.71" y1="442.43" x2="526.91" y2="532.63" xlink:href="#Unbenannter_Verlauf_18"/><linearGradient id="Unbenannter_Verlauf_18-6" x1="432.11" y1="52.18" x2="522.3" y2="142.38" xlink:href="#Unbenannter_Verlauf_18"/><linearGradient id="Neues_Verlaufsfeld_1" x1="267.42" y1="217.59" x2="413.23" y2="363.41" gradientUnits="userSpaceOnUse"><stop offset="0" stop-color="#a36d0a"/><stop offset=".31" stop-color="#f8fb9f"/><stop offset=".6" stop-color="#cf9618"/><stop offset="1" stop-color="#a16705"/></linearGradient><linearGradient id="Neues_Verlaufsfeld_1-2" x1="57.06" y1="259.94" x2="147.26" y2="350.14" xlink:href="#Neues_Verlaufsfeld_1"/><linearGradient id="Neues_Verlaufsfeld_1-3" x1="153.23" y1="448.72" x2="243.43" y2="538.92" xlink:href="#Neues_Verlaufsfeld_1"/><linearGradient id="Neues_Verlaufsfeld_1-4" x1="135.43" y1="58.5" x2="225.62" y2="148.7" xlink:href="#Neues_Verlaufsfeld_1"/><linearGradient id="Neues_Verlaufsfeld_1-5" x1="436.71" y1="442.43" x2="526.91" y2="532.63" xlink:href="#Neues_Verlaufsfeld_1"/><linearGradient id="Neues_Verlaufsfeld_1-6" x1="432.11" y1="52.18" x2="522.3" y2="142.38" xlink:href="#Neues_Verlaufsfeld_1"/><linearGradient id="Unbenannter_Verlauf_24" x1="267.42" y1="217.59" x2="413.23" y2="363.41" gradientUnits="userSpaceOnUse"><stop offset="0" stop-color="#1d7abf"/><stop offset=".31" stop-color="#4ee9f9"/><stop offset=".6" stop-color="#2085c7"/><stop offset="1" stop-color="#2a3b92"/></linearGradient><linearGradient id="Unbenannter_Verlauf_24-2" x1="57.06" y1="259.94" x2="147.26" y2="350.14" xlink:href="#Unbenannter_Verlauf_24"/><linearGradient id="Unbenannter_Verlauf_24-3" x1="153.23" y1="448.72" x2="243.43" y2="538.92" xlink:href="#Unbenannter_Verlauf_24"/><linearGradient id="Unbenannter_Verlauf_24-4" x1="135.43" y1="58.5" x2="225.62" y2="148.7" xlink:href="#Unbenannter_Verlauf_24"/><linearGradient id="Unbenannter_Verlauf_24-5" x1="436.71" y1="442.43" x2="526.91" y2="532.63" xlink:href="#Unbenannter_Verlauf_24"/><linearGradient id="Unbenannter_Verlauf_24-6" x1="432.11" y1="52.18" x2="522.3" y2="142.38" xlink:href="#Unbenannter_Verlauf_24"/></defs><g id="lvl-1"><circle cx="340.32" cy="290.5" r="103.1" style="fill:url(#Unbenannter_Verlauf_21);"/><circle cx="102.16" cy="305.04" r="63.78" style="fill:url(#Unbenannter_Verlauf_21-2);"/><circle cx="198.33" cy="493.82" r="63.78" style="fill:url(#Unbenannter_Verlauf_21-3);"/><circle cx="180.52" cy="103.6" r="63.78" style="fill:url(#Unbenannter_Verlauf_21-4);"/><circle cx="481.81" cy="487.53" r="63.78" style="fill:url(#Unbenannter_Verlauf_21-5);"/><circle cx="477.21" cy="97.28" r="63.78" style="fill:url(#Unbenannter_Verlauf_21-6);"/></g><g id="lvl-2"><circle cx="340.32" cy="290.5" r="103.1" style="fill:url(#Unbenannter_Verlauf_18);"/><circle cx="102.16" cy="305.04" r="63.78" style="fill:url(#Unbenannter_Verlauf_18-2);"/><circle cx="198.33" cy="493.82" r="63.78" style="fill:url(#Unbenannter_Verlauf_18-3);"/><circle cx="180.52" cy="103.6" r="63.78" style="fill:url(#Unbenannter_Verlauf_18-4);"/><circle cx="481.81" cy="487.53" r="63.78" style="fill:url(#Unbenannter_Verlauf_18-5);"/><circle cx="477.21" cy="97.28" r="63.78" style="fill:url(#Unbenannter_Verlauf_18-6);"/></g><g id="lvl-3"><circle cx="340.32" cy="290.5" r="103.1" style="fill:url(#Neues_Verlaufsfeld_1);"/><circle cx="102.16" cy="305.04" r="63.78" style="fill:url(#Neues_Verlaufsfeld_1-2);"/><circle cx="198.33" cy="493.82" r="63.78" style="fill:url(#Neues_Verlaufsfeld_1-3);"/><circle cx="180.52" cy="103.6" r="63.78" style="fill:url(#Neues_Verlaufsfeld_1-4);"/><circle cx="481.81" cy="487.53" r="63.78" style="fill:url(#Neues_Verlaufsfeld_1-5);"/><circle cx="477.21" cy="97.28" r="63.78" style="fill:url(#Neues_Verlaufsfeld_1-6);"/></g><g id="lvl-max"><circle cx="340.32" cy="290.5" r="103.1" style="fill:url(#Unbenannter_Verlauf_24);"/><circle cx="102.16" cy="305.04" r="63.78" style="fill:url(#Unbenannter_Verlauf_24-2);"/><circle cx="198.33" cy="493.82" r="63.78" style="fill:url(#Unbenannter_Verlauf_24-3);"/><circle cx="180.52" cy="103.6" r="63.78" style="fill:url(#Unbenannter_Verlauf_24-4);"/><circle cx="481.81" cy="487.53" r="63.78" style="fill:url(#Unbenannter_Verlauf_24-5);"/><circle cx="477.21" cy="97.28" r="63.78" style="fill:url(#Unbenannter_Verlauf_24-6);"/></g><g id="icons"><g><g style="opacity:.15;"><path d="m339.78,187.4c-.18,0-.35,0-.53,0-56.35,0-102.03,45.68-102.03,102.03s45.68,102.03,102.03,102.03c.18,0,.35,0,.53,0v-204.05Z"/></g><g style="opacity:.15;"><path d="m102.71,244.63c-33.69,0-60.99,27.31-60.99,60.99s27.31,60.99,60.99,60.99v-121.99Z"/></g><g style="opacity:.15;"><path d="m198.48,432.83c-33.69,0-60.99,27.31-60.99,60.99s27.31,60.99,60.99,60.99v-121.99Z"/></g><g style="opacity:.15;"><path d="m481.81,426.53c-33.69,0-60.99,27.31-60.99,60.99s27.31,60.99,60.99,60.99v-121.99Z"/></g><g><circle cx="477.21" cy="97.28" r="60.99" style="fill:none; stroke:#000; stroke-linecap:round; stroke-linejoin:round; stroke-width:15px;"/><g style="opacity:.15;"><path d="m477.21,36.28c-33.69,0-60.99,27.31-60.99,60.99s27.31,60.99,60.99,60.99V36.28Z"/></g><circle cx="477.21" cy="82.72" r="18.66" style="fill:#fff; stroke:#000; stroke-linecap:round; stroke-linejoin:round; stroke-width:15px;"/><path d="m477.21,101.5c-18.87,0-34.18,15.3-34.18,34.18,0,5,1.08,9.75,3.02,14.03,9.12,5.43,19.77,8.56,31.16,8.56s22.04-3.13,31.16-8.56c1.93-4.28,3.02-9.03,3.02-14.03,0-18.87-15.3-34.18-34.18-34.18Z" style="fill:#fff; stroke:#000; stroke-linecap:round; stroke-linejoin:round; stroke-width:15px;"/></g><circle cx="102.16" cy="305.04" r="60.99" style="fill:none; stroke:#000; stroke-linecap:round; stroke-linejoin:round; stroke-width:15px;"/><circle cx="102.16" cy="290.49" r="18.66" style="fill:#fff; stroke:#000; stroke-linecap:round; stroke-linejoin:round; stroke-width:15px;"/><path d="m102.16,309.26c-18.87,0-34.18,15.3-34.18,34.18,0,5,1.08,9.75,3.02,14.03,9.12,5.43,19.77,8.56,31.16,8.56s22.04-3.13,31.16-8.56c1.93-4.28,3.02-9.03,3.02-14.03,0-18.87-15.3-34.18-34.18-34.18Z" style="fill:#fff; stroke:#000; stroke-linecap:round; stroke-linejoin:round; stroke-width:15px;"/><circle cx="198.33" cy="493.82" r="60.99" style="fill:none; stroke:#000; stroke-linecap:round; stroke-linejoin:round; stroke-width:15px;"/><circle cx="198.33" cy="479.27" r="18.66" style="fill:#fff; stroke:#000; stroke-linecap:round; stroke-linejoin:round; stroke-width:15px;"/><path d="m198.33,498.05c-18.87,0-34.18,15.3-34.18,34.18,0,5,1.08,9.75,3.02,14.03,9.12,5.43,19.77,8.56,31.16,8.56s22.04-3.13,31.16-8.56c1.93-4.28,3.02-9.03,3.02-14.03,0-18.87-15.3-34.18-34.18-34.18Z" style="fill:#fff; stroke:#000; stroke-linecap:round; stroke-linejoin:round; stroke-width:15px;"/><g style="opacity:.15;"><path d="m181.4,42.61c-33.69,0-60.99,27.31-60.99,60.99s27.31,60.99,60.99,60.99V42.61Z"/></g><circle cx="180.52" cy="103.6" r="60.99" style="fill:none; stroke:#000; stroke-linecap:round; stroke-linejoin:round; stroke-width:15px;"/><circle cx="180.52" cy="89.05" r="18.66" style="fill:#fff; stroke:#000; stroke-linecap:round; stroke-linejoin:round; stroke-width:15px;"/><path d="m180.52,107.83c-18.87,0-34.18,15.3-34.18,34.18,0,5,1.08,9.75,3.02,14.03,9.12,5.43,19.77,8.56,31.16,8.56s22.04-3.13,31.16-8.56c1.93-4.28,3.02-9.03,3.02-14.03,0-18.87-15.3-34.18-34.18-34.18Z" style="fill:#fff; stroke:#000; stroke-linecap:round; stroke-linejoin:round; stroke-width:15px;"/><circle cx="481.81" cy="487.53" r="60.99" style="fill:none; stroke:#000; stroke-linecap:round; stroke-linejoin:round; stroke-width:15px;"/><circle cx="481.81" cy="472.97" r="18.66" style="fill:#fff; stroke:#000; stroke-linecap:round; stroke-linejoin:round; stroke-width:15px;"/><path d="m481.81,491.75c-18.87,0-34.18,15.3-34.18,34.18,0,5,1.08,9.75,3.02,14.03,9.12,5.43,19.77,8.56,31.16,8.56s22.04-3.13,31.16-8.56c1.93-4.28,3.02-9.03,3.02-14.03,0-18.87-15.3-34.18-34.18-34.18Z" style="fill:#fff; stroke:#000; stroke-linecap:round; stroke-linejoin:round; stroke-width:15px;"/><g><circle cx="339.25" cy="289.99" r="102.03" style="fill:none; stroke:#000; stroke-linecap:round; stroke-linejoin:round; stroke-width:15px;"/><circle cx="339.25" cy="265.65" r="31.21" style="fill:#fff; stroke:#000; stroke-linecap:round; stroke-linejoin:round; stroke-width:15px;"/><path d="m339.25,297.06c-31.57,0-57.17,25.6-57.17,57.17,0,8.37,1.81,16.31,5.05,23.48,15.26,9.09,33.08,14.32,52.12,14.32s36.87-5.23,52.12-14.32c3.23-7.16,5.05-15.11,5.05-23.48,0-31.57-25.6-57.17-57.17-57.17Z" style="fill:#fff; stroke:#000; stroke-linecap:round; stroke-linejoin:round; stroke-width:15px;"/></g><line x1="400.06" y1="208.05" x2="446.05" y2="149.71" style="fill:none; stroke:#000; stroke-linecap:round; stroke-linejoin:round; stroke-width:15px;"/><line x1="221.85" y1="149.71" x2="272.61" y2="212.73" style="fill:none; stroke:#000; stroke-linecap:round; stroke-linejoin:round; stroke-width:15px;"/><line x1="233.28" y1="443.83" x2="287.13" y2="377.71" style="fill:none; stroke:#000; stroke-linecap:round; stroke-linejoin:round; stroke-width:15px;"/><line x1="444.62" y1="439.19" x2="400.06" y2="371.93" style="fill:none; stroke:#000; stroke-linecap:round; stroke-linejoin:round; stroke-width:15px;"/><line x1="162.37" y1="295.26" x2="237.22" y2="289.99" style="fill:none; stroke:#000; stroke-linecap:round; stroke-linejoin:round; stroke-width:15px;"/><line x1="121.6" y1="244.63" x2="158.89" y2="160.65" style="fill:none; stroke:#000; stroke-linecap:round; stroke-linejoin:round; stroke-width:15px;"/><line x1="130.59" y1="358.99" x2="171.2" y2="439.19" style="fill:none; stroke:#000; stroke-linecap:round; stroke-linejoin:round; stroke-width:15px;"/></g></g><g id="highlights"><path d="m365.67,211.46l7,2.47" style="fill:none; stroke:#fff; stroke-linecap:round; stroke-linejoin:round; stroke-width:5px;"/><path d="m382.54,218.49c7.78,6.83,14.62,14.74,20.26,23.43" style="fill:none; stroke:#fff; stroke-linecap:round; stroke-linejoin:round; stroke-width:5px;"/><path d="m412.23,252.67l3.71,7" style="fill:none; stroke:#fff; stroke-linecap:round; stroke-linejoin:round; stroke-width:5px;"/><path d="m497.94,52.97l5.8,4.41" style="fill:none; stroke:#fff; stroke-linecap:round; stroke-linejoin:round; stroke-width:5px;"/><path d="m510.81,62.96c2.65,1.66,4.6,4.4,5.3,7.45" style="fill:none; stroke:#fff; stroke-linecap:round; stroke-linejoin:round; stroke-width:5px;"/><path d="m202.78,60.62l5.41,2.29" style="fill:none; stroke:#fff; stroke-linecap:round; stroke-linejoin:round; stroke-width:5px;"/><path d="m213.62,70.16c3,3.01,5.61,6.4,7.77,10.07" style="fill:none; stroke:#fff; stroke-linecap:round; stroke-linejoin:round; stroke-width:5px;"/><path d="m123.14,260.67l7.26,5.01" style="fill:none; stroke:#fff; stroke-linecap:round; stroke-linejoin:round; stroke-width:5px;"/><path d="m137.19,273.84c3.76,4,6.55,8.9,8.05,14.18" style="fill:none; stroke:#fff; stroke-linecap:round; stroke-linejoin:round; stroke-width:5px;"/><path d="m219.9,449.09c2.3,2.37,4.94,4.42,7.81,6.06" style="fill:none; stroke:#fff; stroke-linecap:round; stroke-linejoin:round; stroke-width:5px;"/><path d="m233.66,464.63c4.1,3.08,6.95,7.77,7.8,12.82" style="fill:none; stroke:#fff; stroke-linecap:round; stroke-linejoin:round; stroke-width:5px;"/><path d="m503.77,444.28l5.39,3.57" style="fill:none; stroke:#fff; stroke-linecap:round; stroke-linejoin:round; stroke-width:5px;"/><path d="m514.82,454.15c4.41,3.75,7.8,8.69,9.73,14.15" style="fill:none; stroke:#fff; stroke-linecap:round; stroke-linejoin:round; stroke-width:5px;"/></g></svg>