<?xml version="1.0" encoding="UTF-8"?><svg xmlns="http://www.w3.org/2000/svg" viewBox="0 0 600 600"><g id="color"><path d="M189.72,505.18H108.61V68.46H380.8l132.23,123.67v251.9c0,33.78-27.38,61.16-61.16,61.16h-20.48" style="fill:#f2ab38;"/></g><g id="white"><path d="M373.64,435.61h-1.7c10.74-15.88,17.01-35.02,17.01-55.63,0-54.9-44.51-99.41-99.41-99.41s-99.41,44.51-99.41,99.41c0,20.74,6.36,40,17.23,55.93l-44.68,58.03,53.67,3.73,20.54,48.54,41.54-63.94,32.2,1.4,40.14,63.01,18.2-45.27,51.81-5.13-47.14-60.68Zm-14.38-52.54l-27.04,19.35,10.3,31.23c1.62,4.91-.1,10.3-4.26,13.36-2.1,1.55-4.59,2.32-7.08,2.32s-4.87-.74-6.95-2.23l-27.23-19.49-27.23,19.49c-4.2,3.01-9.86,2.97-14.02-.09s-5.88-8.45-4.26-13.36l10.3-31.23-27.04-19.35c-4.22-3.02-6.01-8.42-4.42-13.36,1.59-4.94,6.18-8.29,11.37-8.29h33.61l10.35-31.38c1.61-4.89,6.19-8.2,11.34-8.2s9.73,3.31,11.34,8.2l10.35,31.37h33.61c5.19,0,9.78,3.35,11.37,8.29,1.58,4.94-.2,10.34-4.42,13.36Z" style="fill:#fff;"/></g><g id="Ebene_2"><g><path d="M168.79,480.59H87.91V45.15H359.31l131.84,123.3v251.16c0,33.68-27.3,60.98-60.98,60.98h-20.42" style="fill:none; stroke:#000; stroke-linecap:round; stroke-linejoin:round; stroke-width:19px;"/><path d="M356.47,45.15l.35,66.53c.18,32.5,26.65,58.71,59.15,58.56l75.18-1.78" style="fill:none; stroke:#000; stroke-linecap:round; stroke-linejoin:round; stroke-width:19px;"/><line x1="226.75" y1="202.55" x2="352.31" y2="202.55" style="fill:none; stroke:#000; stroke-linecap:round; stroke-linejoin:round; stroke-width:19px;"/><line x1="258.08" y1="244.36" x2="320.99" y2="244.36" style="fill:none; stroke:#000; stroke-linecap:round; stroke-linejoin:round; stroke-width:19px;"/><circle cx="289.53" cy="385.59" r="99.41" style="fill:none; stroke:#000; stroke-linecap:round; stroke-linejoin:round; stroke-width:19px;"/><polygon points="289.53 328.18 302.59 367.76 344.84 367.76 310.66 392.22 323.71 431.79 289.53 407.33 255.35 431.79 268.41 392.22 234.23 367.76 276.48 367.76 289.53 328.18" style="fill:none; stroke:#000; stroke-linecap:round; stroke-linejoin:round; stroke-width:19px;"/><polyline points="204.07 436.39 154.68 499.52 214.13 500.53 233.38 554.85 273.82 485" style="fill:none; stroke:#000; stroke-linecap:round; stroke-linejoin:round; stroke-width:19px;"/><polyline points="376.72 436.39 423.81 499.52 367.13 500.53 348.78 554.85 310.23 485" style="fill:none; stroke:#000; stroke-linecap:round; stroke-linejoin:round; stroke-width:19px;"/></g></g></svg>