<?xml version="1.0" encoding="UTF-8"?><svg xmlns="http://www.w3.org/2000/svg" viewBox="0 0 600 600"><g id="color"><path d="M165.42,540.44H89.06V81.99H345.3l124.48,116.42V482.87c0,31.8-25.78,57.57-57.57,57.57h-19.28" style="fill:#f2ab38;"/></g><g id="white"><path d="M371.07,406.1l-49.76,8.44c-7.77,1.32-13.57-6.98-9.67-13.83l24.68-43.27c3.28-5.75,7.73-10.75,13.06-14.68l169.45-124.93c8.37-6.17,20.15-4.39,26.32,3.98l18.57,25.19c6.17,8.37,4.39,20.15-3.98,26.32l-168.45,124.19c-5.98,4.41-12.9,7.35-20.22,8.59Z" style="fill:#fff;"/><rect x="143.15" y="163.79" width="65.65" height="129.77" style="fill:#fff;"/></g><g id="Ebene_2"><g><path d="M449.18,428.21v29.32c0,31.7-25.7,57.4-57.4,57.4H69.58V60.05h255.48l124.12,116.08v24.72" style="fill:none; stroke:#000; stroke-linecap:round; stroke-linejoin:round; stroke-width:19px;"/><line x1="449.18" y1="387.63" x2="449.18" y2="395.65" style="fill:none; stroke:#000; stroke-linecap:round; stroke-linejoin:round; stroke-width:19px;"/><path d="M322.39,60.05l.33,62.63c.17,30.59,25.09,55.27,55.68,55.12l70.77-1.68" style="fill:none; stroke:#000; stroke-linecap:round; stroke-linejoin:round; stroke-width:19px;"/><line x1="236.96" y1="204.75" x2="316.1" y2="204.75" style="fill:none; stroke:#000; stroke-linecap:round; stroke-linejoin:round; stroke-width:19px;"/><line x1="236.96" y1="255.29" x2="284.5" y2="255.29" style="fill:none; stroke:#000; stroke-linecap:round; stroke-linejoin:round; stroke-width:19px;"/><line x1="236.96" y1="154.21" x2="284.5" y2="154.21" style="fill:none; stroke:#000; stroke-linecap:round; stroke-linejoin:round; stroke-width:19px;"/><line x1="126.84" y1="391.41" x2="234.16" y2="391.41" style="fill:none; stroke:#000; stroke-linecap:round; stroke-linejoin:round; stroke-width:19px;"/><line x1="126.84" y1="441.95" x2="234.16" y2="441.95" style="fill:none; stroke:#000; stroke-linecap:round; stroke-linejoin:round; stroke-width:19px;"/><line x1="126.84" y1="340.87" x2="191.31" y2="340.87" style="fill:none; stroke:#000; stroke-linecap:round; stroke-linejoin:round; stroke-width:19px;"/><rect x="126.84" y="145.89" width="62.76" height="129.31" style="fill:none; stroke:#000; stroke-linecap:round; stroke-linejoin:round; stroke-width:19px;"/></g><g><path d="M360.45,385.81l-47.08,7.37c-7.35,1.15-12.73-6.76-8.96-13.17l23.83-40.55c3.17-5.39,7.43-10.06,12.5-13.7l161.48-115.89c7.97-5.72,19.07-3.9,24.8,4.08l17.23,24c5.72,7.97,3.9,19.07-4.08,24.8l-160.52,115.2c-5.69,4.09-12.27,6.78-19.19,7.86Z" style="fill:none; stroke:#000; stroke-linecap:round; stroke-linejoin:round; stroke-width:19px;"/><line x1="339.11" y1="326.6" x2="377.19" y2="379.58" style="fill:none; stroke:#000; stroke-linecap:round; stroke-linejoin:round; stroke-width:19px;"/><line x1="487.23" y1="221.28" x2="525.46" y2="273.18" style="fill:none; stroke:#000; stroke-linecap:round; stroke-linejoin:round; stroke-width:19px;"/></g></g></svg>