<?xml version="1.0" encoding="UTF-8"?><svg xmlns="http://www.w3.org/2000/svg" viewBox="0 0 600 600"><g id="color"><path d="M169.26,474.57H91.17V54.12H353.21l127.3,119.06v242.51c0,32.52-26.36,58.88-58.88,58.88h-19.72" style="fill:#f2ab38;"/></g><g id="Ebene_2"><g><g><path d="M462.28,456.66c-10.63,10.68-25.35,17.29-41.61,17.29h-7.56" style="fill:none; stroke:#000; stroke-linecap:round; stroke-linejoin:round; stroke-width:19px;"/><polyline points="241.64 473.95 91.17 473.95 91.17 54.74 352.44 54.74 479.37 173.45 479.37 227.43" style="fill:none; stroke:#000; stroke-linecap:round; stroke-linejoin:round; stroke-width:19px;"/><path d="M349.71,54.74l.34,64.05c.17,31.29,25.66,56.52,56.94,56.37l72.38-1.72" style="fill:none; stroke:#000; stroke-linecap:round; stroke-linejoin:round; stroke-width:19px;"/><line x1="224.83" y1="206.26" x2="345.71" y2="206.26" style="fill:none; stroke:#000; stroke-linecap:round; stroke-linejoin:round; stroke-width:19px;"/><line x1="254.99" y1="246.52" x2="315.55" y2="246.52" style="fill:none; stroke:#000; stroke-linecap:round; stroke-linejoin:round; stroke-width:19px;"/></g><rect x="94.86" y="55.02" width="190.99" height="419.55" style="opacity:.15;"/><g><rect x="286.5" y="358.95" width="57.23" height="94.86" rx="10.05" ry="10.05" transform="translate(-136.57 160.58) rotate(-23.65)" style="fill:#fff; stroke:#000; stroke-linecap:round; stroke-linejoin:round; stroke-width:19px;"/><path d="M270.81,404.33h19.85v43.82h-19.85c-12.09,0-21.91-9.82-21.91-21.91h0c0-12.09,9.82-21.91,21.91-21.91Z" transform="translate(-148.35 144.05) rotate(-23.65)" style="fill:#fff; stroke:#000; stroke-linecap:round; stroke-linejoin:round; stroke-width:19px;"/><path d="M504.3,410.22l-148.64,17.42-28.68-65.49,113.59-97.44c6.11-5.24,15.55-3.09,18.78,4.29l54.54,124.5c3.23,7.38-1.59,15.78-9.58,16.71Z" style="fill:#fff; stroke:#000; stroke-linecap:round; stroke-linejoin:round; stroke-width:19px;"/><path d="M336.68,447.36h26.64v59.72c0,7.35-5.97,13.32-13.32,13.32h0c-7.35,0-13.32-5.97-13.32-13.32v-59.72h0Z" transform="translate(-164.74 181.08) rotate(-23.65)" style="fill:#fff; stroke:#000; stroke-linecap:round; stroke-linejoin:round; stroke-width:19px;"/><path d="M485.51,303.35h9.84c9.18,0,16.63,7.45,16.63,16.63v11.94c0,9.18-7.45,16.63-16.63,16.63h-9.84v-45.2h0Z" transform="translate(-88.87 227.49) rotate(-23.65)" style="fill:#fff; stroke:#000; stroke-linecap:round; stroke-linejoin:round; stroke-width:19px;"/><line x1="524.81" y1="277.69" x2="552.28" y2="243.86" style="fill:#fff; stroke:#000; stroke-linecap:round; stroke-linejoin:round; stroke-width:19px;"/><line x1="551.89" y1="339.5" x2="595.38" y2="342.26" style="fill:#fff; stroke:#000; stroke-linecap:round; stroke-linejoin:round; stroke-width:19px;"/><line x1="543.47" y1="306.36" x2="585.65" y2="287.88" style="fill:#fff; stroke:#000; stroke-linecap:round; stroke-linejoin:round; stroke-width:19px;"/></g></g></g></svg>