<?xml version="1.0" encoding="UTF-8"?><svg xmlns="http://www.w3.org/2000/svg" viewBox="0 0 600 600"><g id="color"><circle cx="315.42" cy="272.41" r="97.5" style="fill:#f2ab38;"/></g><g id="Ebene_2"><g><g style="opacity:.15;"><path d="M316.48,171.97c-53.85,0-97.5,43.65-97.5,97.5s43.65,97.5,97.5,97.5V171.97Z"/></g><polygon points="317.47 201.03 332.74 248.95 382.17 248.95 342.18 278.56 357.46 326.48 317.47 296.87 277.48 326.48 292.76 278.56 252.77 248.95 302.2 248.95 317.47 201.03" style="fill:#fff;"/><line x1="257.65" y1="504.35" x2="257.81" y2="468.99" style="fill:none; stroke:#000; stroke-linecap:round; stroke-linejoin:round; stroke-width:15px;"/><path d="M300.35,463.81l-102.27,.46c-26.48,.12-48.01-21.32-48.01-47.8v-52.67l-36.76-2.16,50.81-81.63,.59-1.25c-.35-4.26-.53-4.43-.53-8.78,0-85.05,69.17-154,154.5-154s154.5,68.95,154.5,154c0,57.33-31.43,107.35-78.05,133.86" style="fill:none; stroke:#000; stroke-linecap:round; stroke-linejoin:round; stroke-width:15px;"/><line x1="426.85" y1="386.35" x2="426.93" y2="504.35" style="fill:none; stroke:#000; stroke-linecap:round; stroke-linejoin:round; stroke-width:15px;"/><path d="M116.72,191.4c6.08,1.6,12.16,3.2,18.25,4.81,2.98,.78,6.41,1.98-18.25-4.81Z" style="fill:none; stroke:#000; stroke-linecap:round; stroke-linejoin:round; stroke-width:15px;"/><path d="M161.6,113.37c6,6.7,12,13.4,18,20.1" style="fill:none; stroke:#000; stroke-linecap:round; stroke-linejoin:round; stroke-width:15px;"/><path d="M231.68,62.15c3.19,9.41,6.92,18.63,11.17,27.61" style="fill:none; stroke:#000; stroke-linecap:round; stroke-linejoin:round; stroke-width:15px;"/><path d="M317.47,45.47c-1.28,8.09-1.32,16.37-.11,24.47" style="fill:none; stroke:#000; stroke-linecap:round; stroke-linejoin:round; stroke-width:15px;"/><path d="M402.23,61.76c-5.2,7.79-10.15,15.74-14.83,23.84" style="fill:none; stroke:#000; stroke-linecap:round; stroke-linejoin:round; stroke-width:15px;"/><path d="M449.36,128.19c7.2-7.14,14.92-13.77,23.07-19.8" style="fill:none; stroke:#000; stroke-linecap:round; stroke-linejoin:round; stroke-width:15px;"/><path d="M490.03,193.64c9.41-1.44,18.65-3.96,27.49-7.5" style="fill:none; stroke:#000; stroke-linecap:round; stroke-linejoin:round; stroke-width:15px;"/><polygon points="317.47 201.03 332.74 248.95 382.17 248.95 342.18 278.56 357.46 326.48 317.47 296.87 277.48 326.48 292.76 278.56 252.77 248.95 302.2 248.95 317.47 201.03" style="fill:none; stroke:#000; stroke-linecap:round; stroke-linejoin:round; stroke-width:15px;"/><circle cx="316.48" cy="269.47" r="97.5" style="fill:none; stroke:#000; stroke-linecap:round; stroke-linejoin:round; stroke-width:15px;"/></g></g><g id="Ebene_4"><g><path d="M332.41,191.56c7.9,1.59,14.38,3.83,21.26,7.54" style="fill:none; stroke:#fff; stroke-linecap:round; stroke-linejoin:round; stroke-width:5px;"/><path d="M368.91,209.37c2.17,1.86,4.24,3.83,6.21,5.9" style="fill:none; stroke:#fff; stroke-linecap:round; stroke-linejoin:round; stroke-width:5px;"/><path d="M360.69,203.21c.51,.32,1.01,.66,1.5,1" style="fill:none; stroke:#fff; stroke-linecap:round; stroke-linejoin:round; stroke-width:5px;"/></g></g></svg>