<?xml version="1.0" encoding="UTF-8"?><svg xmlns="http://www.w3.org/2000/svg" xmlns:xlink="http://www.w3.org/1999/xlink" viewBox="0 0 600 600"><defs><linearGradient id="Unbenannter_Verlauf_21" x1="23.63" y1="123.66" x2="411.28" y2="511.31" gradientUnits="userSpaceOnUse"><stop offset="0" stop-color="#974619"/><stop offset=".08" stop-color="#b26f49"/><stop offset=".18" stop-color="#d7a58a"/><stop offset=".26" stop-color="#efc7b2"/><stop offset=".3" stop-color="#f8d5c2"/><stop offset=".34" stop-color="#e9c3b0"/><stop offset=".47" stop-color="#b98a74"/><stop offset=".57" stop-color="#966049"/><stop offset=".66" stop-color="#81462e"/><stop offset=".71" stop-color="#793d25"/><stop offset="1" stop-color="#6d3119"/></linearGradient><linearGradient id="Unbenannter_Verlauf_18" x1="23.63" y1="123.66" x2="411.28" y2="511.31" gradientUnits="userSpaceOnUse"><stop offset="0" stop-color="#9a9b9f"/><stop offset=".31" stop-color="#fefefe"/><stop offset=".38" stop-color="#e0e0e1"/><stop offset=".47" stop-color="#c1c1c3"/><stop offset=".54" stop-color="#adaeb0"/><stop offset=".6" stop-color="#a7a8aa"/><stop offset=".72" stop-color="#abacae"/><stop offset=".86" stop-color="#b8b9bb"/><stop offset="1" stop-color="#cdced0"/></linearGradient><linearGradient id="Neues_Verlaufsfeld_1" x1="23.63" y1="123.66" x2="411.28" y2="511.31" gradientUnits="userSpaceOnUse"><stop offset="0" stop-color="#a36d0a"/><stop offset=".31" stop-color="#f8fb9f"/><stop offset=".6" stop-color="#cf9618"/><stop offset="1" stop-color="#a16705"/></linearGradient><linearGradient id="Unbenannter_Verlauf_24" x1="23.63" y1="123.66" x2="411.28" y2="511.31" gradientUnits="userSpaceOnUse"><stop offset="0" stop-color="#1d7abf"/><stop offset=".31" stop-color="#4ee9f9"/><stop offset=".6" stop-color="#2085c7"/><stop offset="1" stop-color="#2a3b92"/></linearGradient></defs><g id="lvl-1"><path d="m139.26,506.57H61.17V86.12h262.05l127.3,119.06v242.51c0,32.52-26.36,58.88-58.88,58.88h-19.72" style="fill:url(#Unbenannter_Verlauf_21);"/></g><g id="lvl-2"><path d="m139.26,506.57H61.17V86.12h262.05l127.3,119.06v242.51c0,32.52-26.36,58.88-58.88,58.88h-19.72" style="fill:url(#Unbenannter_Verlauf_18);"/></g><g id="lvl-3"><path d="m139.26,506.57H61.17V86.12h262.05l127.3,119.06v242.51c0,32.52-26.36,58.88-58.88,58.88h-19.72" style="fill:url(#Neues_Verlaufsfeld_1);"/></g><g id="lvl-max"><path d="m139.26,506.57H61.17V86.12h262.05l127.3,119.06v242.51c0,32.52-26.36,58.88-58.88,58.88h-19.72" style="fill:url(#Unbenannter_Verlauf_24);"/></g><g id="icons"><g><g><path d="m432.28,488.66c-10.63,10.68-25.35,17.29-41.61,17.29h-7.56" style="fill:none; stroke:#000; stroke-linecap:round; stroke-linejoin:round; stroke-width:19px;"/><polyline points="211.64 505.95 61.17 505.95 61.17 86.74 322.44 86.74 449.37 205.45 449.37 259.43" style="fill:none; stroke:#000; stroke-linecap:round; stroke-linejoin:round; stroke-width:19px;"/><path d="m319.71,86.74l.34,64.05c.17,31.29,25.66,56.52,56.94,56.37l72.38-1.72" style="fill:none; stroke:#000; stroke-linecap:round; stroke-linejoin:round; stroke-width:19px;"/><line x1="194.83" y1="238.26" x2="315.71" y2="238.26" style="fill:none; stroke:#000; stroke-linecap:round; stroke-linejoin:round; stroke-width:19px;"/><line x1="224.99" y1="278.52" x2="285.55" y2="278.52" style="fill:none; stroke:#000; stroke-linecap:round; stroke-linejoin:round; stroke-width:19px;"/></g><rect x="64.86" y="87.02" width="190.99" height="419.55" style="opacity:.15;"/><g><rect x="256.5" y="390.95" width="57.23" height="94.86" rx="10.05" ry="10.05" transform="translate(-151.93 151.23) rotate(-23.65)" style="fill:#fff; stroke:#000; stroke-linecap:round; stroke-linejoin:round; stroke-width:19px;"/><path d="m240.81,436.33h19.85v43.82h-19.85c-12.09,0-21.91-9.82-21.91-21.91h0c0-12.09,9.82-21.91,21.91-21.91Z" transform="translate(-163.71 134.71) rotate(-23.65)" style="fill:#fff; stroke:#000; stroke-linecap:round; stroke-linejoin:round; stroke-width:19px;"/><path d="m474.3,442.22l-148.64,17.42-28.68-65.49,113.59-97.44c6.11-5.24,15.55-3.09,18.78,4.29l54.54,124.5c3.23,7.38-1.59,15.78-9.58,16.71Z" style="fill:#fff; stroke:#000; stroke-linecap:round; stroke-linejoin:round; stroke-width:19px;"/><path d="m306.68,479.36h26.64v59.72c0,7.35-5.97,13.32-13.32,13.32h0c-7.35,0-13.32-5.97-13.32-13.32v-59.72h0Z" transform="translate(-180.1 171.73) rotate(-23.65)" style="fill:#fff; stroke:#000; stroke-linecap:round; stroke-linejoin:round; stroke-width:19px;"/><path d="m455.51,335.35h9.84c9.18,0,16.63,7.45,16.63,16.63v11.94c0,9.18-7.45,16.63-16.63,16.63h-9.84v-45.2h0Z" transform="translate(-104.23 218.14) rotate(-23.65)" style="fill:#fff; stroke:#000; stroke-linecap:round; stroke-linejoin:round; stroke-width:19px;"/><line x1="494.81" y1="309.69" x2="522.28" y2="275.86" style="fill:#fff; stroke:#000; stroke-linecap:round; stroke-linejoin:round; stroke-width:19px;"/><line x1="521.89" y1="371.5" x2="565.38" y2="374.26" style="fill:#fff; stroke:#000; stroke-linecap:round; stroke-linejoin:round; stroke-width:19px;"/><line x1="513.47" y1="338.36" x2="555.65" y2="319.88" style="fill:#fff; stroke:#000; stroke-linecap:round; stroke-linejoin:round; stroke-width:19px;"/></g></g></g><g id="highlights"><g><path d="m344.09,136.72c7.11,6.68,14.22,13.36,21.33,20.04" style="fill:none; stroke:#fff; stroke-linecap:round; stroke-linejoin:round; stroke-width:5px;"/><path d="m375.96,167.5c2.05,1.78,4.17,3.48,6.2,5.28.57.51,1.23,1.02,1.71,1.62-.11-.15-.21-.3-7.91-6.9Z" style="fill:none; stroke:#fff; stroke-linecap:round; stroke-linejoin:round; stroke-width:5px;"/><line x1="391.32" y1="181.99" x2="393.24" y2="183.53" style="fill:none; stroke:#fff; stroke-linecap:round; stroke-linejoin:round; stroke-width:5px;"/></g></g></svg>