<?xml version="1.0" encoding="UTF-8"?><svg xmlns="http://www.w3.org/2000/svg" xmlns:xlink="http://www.w3.org/1999/xlink" viewBox="0 0 600 600"><defs><linearGradient id="Unbenannter_Verlauf_21" x1="97.05" y1="70.18" x2="459.04" y2="432.18" gradientUnits="userSpaceOnUse"><stop offset="0" stop-color="#974619"/><stop offset=".08" stop-color="#b26f49"/><stop offset=".18" stop-color="#d7a58a"/><stop offset=".26" stop-color="#efc7b2"/><stop offset=".3" stop-color="#f8d5c2"/><stop offset=".34" stop-color="#e9c3b0"/><stop offset=".47" stop-color="#b98a74"/><stop offset=".57" stop-color="#966049"/><stop offset=".66" stop-color="#81462e"/><stop offset=".71" stop-color="#793d25"/><stop offset="1" stop-color="#6d3119"/></linearGradient><linearGradient id="Unbenannter_Verlauf_18" x1="97.05" y1="70.18" x2="459.04" y2="432.18" gradientUnits="userSpaceOnUse"><stop offset="0" stop-color="#9a9b9f"/><stop offset=".31" stop-color="#fefefe"/><stop offset=".38" stop-color="#e0e0e1"/><stop offset=".47" stop-color="#c1c1c3"/><stop offset=".54" stop-color="#adaeb0"/><stop offset=".6" stop-color="#a7a8aa"/><stop offset=".72" stop-color="#abacae"/><stop offset=".86" stop-color="#b8b9bb"/><stop offset="1" stop-color="#cdced0"/></linearGradient><linearGradient id="Neues_Verlaufsfeld_1" x1="97.05" y1="70.18" x2="459.04" y2="432.18" gradientUnits="userSpaceOnUse"><stop offset="0" stop-color="#a36d0a"/><stop offset=".31" stop-color="#f8fb9f"/><stop offset=".6" stop-color="#cf9618"/><stop offset="1" stop-color="#a16705"/></linearGradient><linearGradient id="Unbenannter_Verlauf_24" x1="97.05" y1="70.18" x2="459.04" y2="432.18" gradientUnits="userSpaceOnUse"><stop offset="0" stop-color="#1d7abf"/><stop offset=".31" stop-color="#4ee9f9"/><stop offset=".6" stop-color="#2085c7"/><stop offset="1" stop-color="#2a3b92"/></linearGradient></defs><g id="lvl-1"><path d="m482.03,82.84l4.32,304.33c0,23.6-19.13,42.73-42.73,42.73H84.43V82.81h329.29l68.31.03Z" style="fill:url(#Unbenannter_Verlauf_21);"/></g><g id="lvl-2"><path d="m482.03,82.84l4.32,304.33c0,23.6-19.13,42.73-42.73,42.73H84.43V82.81h329.29l68.31.03Z" style="fill:url(#Unbenannter_Verlauf_18);"/></g><g id="lvl-3"><path d="m482.03,82.84l4.32,304.33c0,23.6-19.13,42.73-42.73,42.73H84.43V82.81h329.29l68.31.03Z" style="fill:url(#Neues_Verlaufsfeld_1);"/></g><g id="lvl-max"><path d="m482.03,82.84l4.32,304.33c0,23.6-19.13,42.73-42.73,42.73H84.43V82.81h329.29l68.31.03Z" style="fill:url(#Unbenannter_Verlauf_24);"/></g><g id="icons"><g><rect x="84.43" y="82.99" width="199.17" height="346.9" style="opacity:.15;"/><path d="m484.56,211.59v175.75c0,23.6-19.13,42.73-42.73,42.73H82.63V82.99h329.29" style="fill:none; stroke:#000; stroke-linecap:round; stroke-linejoin:round; stroke-width:15px;"/><line x1="62.55" y1="82.5" x2="420.42" y2="82.99" style="fill:none; stroke:#000; stroke-linecap:round; stroke-linejoin:round; stroke-width:15px;"/><path d="m201.07,113.23v76.23h71.48c.01-.57.04-1.14.04-1.71,0-40.09-31.73-72.78-71.53-74.52Z" style="fill:#fff; stroke:#000; stroke-linecap:round; stroke-linejoin:round; stroke-width:15px;"/><path d="m201.07,189.45v-60.49c-.8-.03-1.61-.06-2.42-.06-31.92,0-57.8,25.88-57.8,57.8s25.88,57.8,57.8,57.8,56.3-24.41,57.73-55.06h-55.32Z" style="fill:#fff; stroke:#000; stroke-linecap:round; stroke-linejoin:round; stroke-width:15px;"/><polyline points="127.65 304.16 167.23 378.12 210.57 291.44 261.92 348.91 375.93 215.59 327.41 217" style="fill:none; stroke:#000; stroke-linecap:round; stroke-linejoin:round; stroke-width:15px;"/><line x1="375.93" y1="215.59" x2="375.93" y2="256.53" style="fill:none; stroke:#000; stroke-linecap:round; stroke-linejoin:round; stroke-width:15px;"/><line x1="380.4" y1="322.91" x2="430.16" y2="323.72" style="fill:none; stroke:#000; stroke-linecap:round; stroke-linejoin:round; stroke-width:15px;"/><line x1="337.93" y1="358.11" x2="434.21" y2="358.51" style="fill:none; stroke:#000; stroke-linecap:round; stroke-linejoin:round; stroke-width:15px;"/><g><path d="m366.1,186.22l-42.99-6.71c-6.71-1.05-9.18-9.42-4.12-13.95l32.01-28.62c4.25-3.8,9.26-6.68,14.69-8.43l172.7-55.8c8.53-2.75,17.67,1.92,20.43,10.45l8.29,25.67c2.75,8.53-1.92,17.67-10.45,20.43l-171.67,55.47c-6.09,1.97-12.56,2.48-18.88,1.49Z" style="fill:#fff; stroke:#000; stroke-linecap:round; stroke-linejoin:round; stroke-width:15px;"/><line x1="364.04" y1="128.79" x2="382.4" y2="185.47" style="fill:#fff; stroke:#000; stroke-linecap:round; stroke-linejoin:round; stroke-width:15px;"/><line x1="522.17" y1="78.46" x2="540.95" y2="134.24" style="fill:#fff; stroke:#000; stroke-linecap:round; stroke-linejoin:round; stroke-width:15px;"/><line x1="149.43" y1="533.55" x2="206.53" y2="430.08" style="fill:#fff; stroke:#000; stroke-linecap:round; stroke-linejoin:round; stroke-width:15px;"/></g><line x1="420.74" y1="534.1" x2="364.8" y2="430.08" style="fill:none; stroke:#000; stroke-linecap:round; stroke-linejoin:round; stroke-width:15px;"/><line x1="283.59" y1="504.27" x2="283.6" y2="430.08" style="fill:none; stroke:#000; stroke-linecap:round; stroke-linejoin:round; stroke-width:15px;"/><polyline points="175.65 486.03 283.6 463.08 396.57 489.16" style="fill:none; stroke:#000; stroke-linecap:round; stroke-linejoin:round; stroke-width:15px;"/></g></g><g id="highlights"><path d="m460.58,208.63c-.13,9.54-.13,19.08,0,28.61" style="fill:none; stroke:#fff; stroke-linecap:round; stroke-linejoin:round; stroke-width:5px;"/><path d="m460.31,190.55l.17,7.48" style="fill:none; stroke:#fff; stroke-linecap:round; stroke-linejoin:round; stroke-width:5px;"/><path d="m460.55,248.82c-.12.98-.16,1.97-.12,2.95" style="fill:none; stroke:#fff; stroke-linecap:round; stroke-linejoin:round; stroke-width:5px;"/></g></svg>