<?xml version="1.0" encoding="UTF-8"?><svg xmlns="http://www.w3.org/2000/svg" xmlns:xlink="http://www.w3.org/1999/xlink" viewBox="0 0 600 600"><defs><linearGradient id="Unbenannter_Verlauf_21" x1="64.73" y1="108.61" x2="443.75" y2="487.63" gradientUnits="userSpaceOnUse"><stop offset="0" stop-color="#974619"/><stop offset=".08" stop-color="#b26f49"/><stop offset=".18" stop-color="#d7a58a"/><stop offset=".26" stop-color="#efc7b2"/><stop offset=".3" stop-color="#f8d5c2"/><stop offset=".34" stop-color="#e9c3b0"/><stop offset=".47" stop-color="#b98a74"/><stop offset=".57" stop-color="#966049"/><stop offset=".66" stop-color="#81462e"/><stop offset=".71" stop-color="#793d25"/><stop offset="1" stop-color="#6d3119"/></linearGradient><linearGradient id="Unbenannter_Verlauf_18" x1="64.73" y1="108.61" x2="443.75" y2="487.63" gradientUnits="userSpaceOnUse"><stop offset="0" stop-color="#9a9b9f"/><stop offset=".31" stop-color="#fefefe"/><stop offset=".38" stop-color="#e0e0e1"/><stop offset=".47" stop-color="#c1c1c3"/><stop offset=".54" stop-color="#adaeb0"/><stop offset=".6" stop-color="#a7a8aa"/><stop offset=".72" stop-color="#abacae"/><stop offset=".86" stop-color="#b8b9bb"/><stop offset="1" stop-color="#cdced0"/></linearGradient><linearGradient id="Neues_Verlaufsfeld_1" x1="64.73" y1="108.61" x2="443.75" y2="487.63" gradientUnits="userSpaceOnUse"><stop offset="0" stop-color="#a36d0a"/><stop offset=".31" stop-color="#f8fb9f"/><stop offset=".6" stop-color="#cf9618"/><stop offset="1" stop-color="#a16705"/></linearGradient><linearGradient id="Unbenannter_Verlauf_24" x1="64.73" y1="108.61" x2="443.75" y2="487.63" gradientUnits="userSpaceOnUse"><stop offset="0" stop-color="#1d7abf"/><stop offset=".31" stop-color="#4ee9f9"/><stop offset=".6" stop-color="#2085c7"/><stop offset="1" stop-color="#2a3b92"/></linearGradient></defs><g id="lvl-1"><path d="m177.78,482.99h-76.35V71.91h256.21l124.47,116.41v237.11c0,31.79-25.77,57.57-57.57,57.57h-19.28" style="fill:url(#Unbenannter_Verlauf_21);"/></g><g id="lvl-2"><path d="m177.78,482.99h-76.35V71.91h256.21l124.47,116.41v237.11c0,31.79-25.77,57.57-57.57,57.57h-19.28" style="fill:url(#Unbenannter_Verlauf_18);"/></g><g id="lvl-3"><path d="m177.78,482.99h-76.35V71.91h256.21l124.47,116.41v237.11c0,31.79-25.77,57.57-57.57,57.57h-19.28" style="fill:url(#Neues_Verlaufsfeld_1);"/></g><g id="lvl-max"><path d="m177.78,482.99h-76.35V71.91h256.21l124.47,116.41v237.11c0,31.79-25.77,57.57-57.57,57.57h-19.28" style="fill:url(#Unbenannter_Verlauf_24);"/></g><g id="icons"><g><path d="m177.78,480.68h-76.35V69.6h256.21l124.47,116.41v237.11c0,31.79-25.77,57.57-57.57,57.57h-19.28" style="fill:none; stroke:#000; stroke-linecap:round; stroke-linejoin:round; stroke-width:15px;"/><rect x="101.43" y="69.6" width="190.34" height="411.08" style="opacity:.15;"/><path d="m354.96,69.6l.33,62.81c.17,30.68,25.16,55.42,55.84,55.28l70.98-1.68" style="fill:none; stroke:#000; stroke-linecap:round; stroke-linejoin:round; stroke-width:15px;"/><line x1="232.5" y1="218.19" x2="351.04" y2="218.19" style="fill:none; stroke:#000; stroke-linecap:round; stroke-linejoin:round; stroke-width:15px;"/><line x1="262.07" y1="257.66" x2="321.46" y2="257.66" style="fill:none; stroke:#000; stroke-linecap:round; stroke-linejoin:round; stroke-width:15px;"/><polyline points="374.08 438.95 418.53 498.55 365.03 499.5 347.71 550.78 311.31 484.84" style="fill:#fff; stroke:#000; stroke-linecap:round; stroke-linejoin:round; stroke-width:15px;"/><polyline points="211.09 438.95 164.46 498.55 220.59 499.5 238.76 550.78 276.94 484.84" style="fill:#fff; stroke:#000; stroke-linecap:round; stroke-linejoin:round; stroke-width:15px;"/><path d="m291.77,297.14c-51.83,0-93.85,42.02-93.85,93.85s42.02,93.85,93.85,93.85,93.85-42.02,93.85-93.85-42.02-93.85-93.85-93.85Zm32.27,137.47l-32.27-23.09-32.27,23.09,12.33-37.36-32.27-23.09h39.89l12.33-37.36,12.33,37.36h39.89l-32.27,23.09,12.33,37.36Z" style="fill:#fff; stroke:#000; stroke-linecap:round; stroke-linejoin:round; stroke-width:15px;"/></g></g><g id="highlights"><g><path d="m375.04,115.89c7.4,6.7,14.8,13.39,22.2,20.09" style="fill:none; stroke:#fff; stroke-linecap:round; stroke-linejoin:round; stroke-width:5px;"/><path d="m408.21,146.75c2.13,1.79,4.34,3.49,6.46,5.3.59.51,1.28,1.02,1.78,1.62-.11-.15-.22-.3-8.24-6.92Z" style="fill:none; stroke:#fff; stroke-linecap:round; stroke-linejoin:round; stroke-width:5px;"/><line x1="424.2" y1="161.28" x2="426.2" y2="162.83" style="fill:none; stroke:#fff; stroke-linecap:round; stroke-linejoin:round; stroke-width:5px;"/></g></g></svg>