<?xml version="1.0" encoding="UTF-8"?><svg xmlns="http://www.w3.org/2000/svg" viewBox="0 0 600 600"><g id="color"><path d="M469.61,99.23l4,281.67c0,21.84-17.71,39.55-39.55,39.55H101.61V99.2H406.39l63.22,.03Z" style="fill:#f2ab38;"/></g><g id="Ebene_2"><g><rect x="101.61" y="99.37" width="184.34" height="321.07" style="opacity:.15;"/><path d="M471.95,218.4v162.67c0,21.84-17.71,39.55-39.55,39.55H99.95V99.37H404.73" style="fill:none; stroke:#000; stroke-linecap:round; stroke-linejoin:round; stroke-width:15px;"/><line x1="81.36" y1="98.92" x2="412.59" y2="99.37" style="fill:none; stroke:#000; stroke-linecap:round; stroke-linejoin:round; stroke-width:15px;"/><path d="M209.57,127.36v70.55h66.16c.01-.53,.04-1.05,.04-1.58,0-37.11-29.37-67.36-66.2-68.97Z" style="fill:#fff; stroke:#000; stroke-linecap:round; stroke-linejoin:round; stroke-width:15px;"/><path d="M209.57,197.91v-55.98c-.74-.03-1.49-.06-2.24-.06-29.55,0-53.5,23.95-53.5,53.5s23.95,53.5,53.5,53.5,52.11-22.59,53.44-50.96h-51.2Z" style="fill:#fff; stroke:#000; stroke-linecap:round; stroke-linejoin:round; stroke-width:15px;"/><polyline points="141.62 304.07 178.25 372.53 218.36 292.3 265.89 345.5 371.41 222.1 326.5 223.4" style="fill:none; stroke:#000; stroke-linecap:round; stroke-linejoin:round; stroke-width:15px;"/><line x1="371.41" y1="222.1" x2="371.41" y2="259.99" style="fill:none; stroke:#000; stroke-linecap:round; stroke-linejoin:round; stroke-width:15px;"/><line x1="375.55" y1="321.43" x2="421.6" y2="322.18" style="fill:none; stroke:#000; stroke-linecap:round; stroke-linejoin:round; stroke-width:15px;"/><line x1="336.24" y1="354" x2="425.35" y2="354.38" style="fill:none; stroke:#000; stroke-linecap:round; stroke-linejoin:round; stroke-width:15px;"/><g><path d="M362.31,194.92l-39.79-6.21c-6.21-.97-8.5-8.72-3.82-12.91l29.63-26.49c3.94-3.52,8.57-6.18,13.59-7.8l159.84-51.64c7.89-2.55,16.36,1.78,18.91,9.67l7.68,23.76c2.55,7.89-1.78,16.36-9.67,18.91l-158.89,51.34c-5.64,1.82-11.62,2.29-17.47,1.38Z" style="fill:#fff; stroke:#000; stroke-linecap:round; stroke-linejoin:round; stroke-width:15px;"/><line x1="360.4" y1="141.76" x2="377.4" y2="194.22" style="fill:#fff; stroke:#000; stroke-linecap:round; stroke-linejoin:round; stroke-width:15px;"/><line x1="506.76" y1="95.18" x2="524.14" y2="146.8" style="fill:#fff; stroke:#000; stroke-linecap:round; stroke-linejoin:round; stroke-width:15px;"/><line x1="161.77" y1="516.39" x2="214.62" y2="420.62" style="fill:#fff; stroke:#000; stroke-linecap:round; stroke-linejoin:round; stroke-width:15px;"/></g><line x1="412.88" y1="516.89" x2="361.11" y2="420.62" style="fill:none; stroke:#000; stroke-linecap:round; stroke-linejoin:round; stroke-width:15px;"/><line x1="285.94" y1="489.28" x2="285.95" y2="420.62" style="fill:none; stroke:#000; stroke-linecap:round; stroke-linejoin:round; stroke-width:15px;"/><polyline points="186.04 472.41 285.95 451.16 390.51 475.3" style="fill:none; stroke:#000; stroke-linecap:round; stroke-linejoin:round; stroke-width:15px;"/></g></g><g id="Ebene_4"><path d="M449.76,215.66c-.12,8.83-.12,17.66,0,26.48" style="fill:none; stroke:#fff; stroke-linecap:round; stroke-linejoin:round; stroke-width:5px;"/><path d="M449.51,198.93l.16,6.92" style="fill:none; stroke:#fff; stroke-linecap:round; stroke-linejoin:round; stroke-width:5px;"/><path d="M449.73,252.86c-.11,.91-.15,1.82-.11,2.73" style="fill:none; stroke:#fff; stroke-linecap:round; stroke-linejoin:round; stroke-width:5px;"/></g></svg>