<?xml version="1.0" encoding="UTF-8"?><svg xmlns="http://www.w3.org/2000/svg" viewBox="0 0 600 600"><g id="color"><path d="M174.16,492.39H109.63V104.95h216.54l105.2,98.38v240.4c0,26.87-21.78,48.65-48.65,48.65h-16.29" style="fill:#f2ab38;"/></g><g id="Ebene_2"><g><rect x="109.63" y="106.46" width="157.81" height="382.31" style="opacity:.15;"/><g><path d="M427.84,417.59v24.77c0,26.79-21.72,48.51-48.51,48.51H107.04V106.46h215.9l104.89,98.09v20.89" style="fill:none; stroke:#000; stroke-linecap:round; stroke-linejoin:round; stroke-width:15px;"/><line x1="427.84" y1="383.29" x2="427.84" y2="390.07" style="fill:none; stroke:#000; stroke-linecap:round; stroke-linejoin:round; stroke-width:15px;"/><path d="M320.69,106.46l.28,52.93c.14,25.85,21.2,46.7,47.05,46.58l59.81-1.42" style="fill:none; stroke:#000; stroke-linecap:round; stroke-linejoin:round; stroke-width:15px;"/><line x1="248.49" y1="228.75" x2="315.38" y2="228.75" style="fill:none; stroke:#000; stroke-linecap:round; stroke-linejoin:round; stroke-width:15px;"/><line x1="248.49" y1="271.46" x2="288.67" y2="271.46" style="fill:none; stroke:#000; stroke-linecap:round; stroke-linejoin:round; stroke-width:15px;"/><line x1="248.49" y1="186.04" x2="288.67" y2="186.04" style="fill:none; stroke:#000; stroke-linecap:round; stroke-linejoin:round; stroke-width:15px;"/><line x1="155.44" y1="386.49" x2="246.13" y2="386.49" style="fill:none; stroke:#000; stroke-linecap:round; stroke-linejoin:round; stroke-width:15px;"/><line x1="155.44" y1="429.2" x2="246.13" y2="429.2" style="fill:none; stroke:#000; stroke-linecap:round; stroke-linejoin:round; stroke-width:15px;"/><line x1="155.44" y1="343.78" x2="209.92" y2="343.78" style="fill:none; stroke:#000; stroke-linecap:round; stroke-linejoin:round; stroke-width:15px;"/><rect x="155.44" y="179.01" width="53.04" height="109.28" style="fill:#fff; stroke:#000; stroke-linecap:round; stroke-linejoin:round; stroke-width:15px;"/></g><g><path d="M352.85,381.76l-39.79,6.23c-6.21,.97-10.76-5.71-7.57-11.13l20.13-34.27c2.68-4.55,6.28-8.5,10.57-11.58l136.47-97.94c6.74-4.84,16.12-3.29,20.96,3.44l14.56,20.28c4.84,6.74,3.29,16.12-3.44,20.96l-135.66,97.35c-4.81,3.45-10.37,5.73-16.22,6.65Z" style="fill:#fff; stroke:#000; stroke-linecap:round; stroke-linejoin:round; stroke-width:15px;"/><line x1="334.82" y1="331.72" x2="367" y2="376.49" style="fill:none; stroke:#000; stroke-linecap:round; stroke-linejoin:round; stroke-width:15px;"/><line x1="459.99" y1="242.71" x2="492.3" y2="286.57" style="fill:none; stroke:#000; stroke-linecap:round; stroke-linejoin:round; stroke-width:15px;"/></g><polygon points="332.91 333.46 306.13 381.96 355.17 381.05 363.68 376.71 332.91 333.46" style="opacity:.15;"/><polygon points="464.36 241.44 483.38 228.95 494.75 238.27 511.16 261.95 508.74 273.88 493.45 282.27 472.94 258.97 464.36 241.44" style="opacity:.15;"/></g></g><g id="Ebene_4"><g><path d="M339.79,144.29c6.07,5.71,12.15,11.41,18.22,17.12" style="fill:none; stroke:#fff; stroke-linecap:round; stroke-linejoin:round; stroke-width:5px;"/><path d="M367.02,170.59c1.75,1.52,3.57,2.98,5.3,4.51,.49,.43,1.05,.87,1.46,1.38-.09-.12-.18-.26-6.76-5.9Z" style="fill:none; stroke:#fff; stroke-linecap:round; stroke-linejoin:round; stroke-width:5px;"/><line x1="380.15" y1="182.97" x2="381.79" y2="184.29" style="fill:none; stroke:#fff; stroke-linecap:round; stroke-linejoin:round; stroke-width:5px;"/></g></g></svg>