<?xml version="1.0" encoding="UTF-8"?><svg xmlns="http://www.w3.org/2000/svg" viewBox="0 0 600 600"><g id="color"><path d="M195.71,445.61h-64.34V99.2h215.9l104.89,98.09v199.81c0,26.79-21.72,48.51-48.51,48.51h-16.25" style="fill:#f2ab38;"/></g><g id="Ebene_2"><g><path d="M195.71,443.67h-64.34V97.26h215.9l104.89,98.09v199.81c0,26.79-21.72,48.51-48.51,48.51h-16.25" style="fill:none; stroke:#000; stroke-linecap:round; stroke-linejoin:round; stroke-width:15px;"/><rect x="131.37" y="97.26" width="160.4" height="346.41" style="opacity:.15;"/><path d="M345.02,97.26l.28,52.93c.14,25.85,21.2,46.7,47.05,46.58l59.81-1.42" style="fill:none; stroke:#000; stroke-linecap:round; stroke-linejoin:round; stroke-width:15px;"/><line x1="241.82" y1="222.47" x2="341.71" y2="222.47" style="fill:none; stroke:#000; stroke-linecap:round; stroke-linejoin:round; stroke-width:15px;"/><line x1="266.74" y1="255.74" x2="316.79" y2="255.74" style="fill:none; stroke:#000; stroke-linecap:round; stroke-linejoin:round; stroke-width:15px;"/><polyline points="361.13 408.5 398.59 458.73 353.5 459.53 338.91 502.74 308.23 447.17" style="fill:#fff; stroke:#000; stroke-linecap:round; stroke-linejoin:round; stroke-width:15px;"/><polyline points="223.78 408.5 184.49 458.73 231.78 459.53 247.1 502.74 279.27 447.17" style="fill:#fff; stroke:#000; stroke-linecap:round; stroke-linejoin:round; stroke-width:15px;"/><path d="M291.77,289c-43.68,0-79.08,35.41-79.08,79.08s35.41,79.08,79.08,79.08,79.08-35.41,79.08-79.08-35.41-79.08-79.08-79.08Zm27.19,115.84l-27.19-19.46-27.19,19.46,10.39-31.48-27.19-19.46h33.61l10.39-31.48,10.39,31.48h33.61l-27.19,19.46,10.39,31.48Z" style="fill:#fff; stroke:#000; stroke-linecap:round; stroke-linejoin:round; stroke-width:15px;"/></g></g><g id="Ebene_4"><g><path d="M361.94,136.26c6.24,5.64,12.47,11.29,18.71,16.93" style="fill:none; stroke:#fff; stroke-linecap:round; stroke-linejoin:round; stroke-width:5px;"/><path d="M389.89,162.27c1.79,1.51,3.66,2.94,5.44,4.46,.5,.43,1.08,.86,1.5,1.37-.1-.12-.18-.25-6.94-5.83Z" style="fill:none; stroke:#fff; stroke-linecap:round; stroke-linejoin:round; stroke-width:5px;"/><line x1="403.37" y1="174.51" x2="405.05" y2="175.82" style="fill:none; stroke:#fff; stroke-linecap:round; stroke-linejoin:round; stroke-width:5px;"/></g></g></svg>