<?xml version="1.0" encoding="UTF-8"?><svg xmlns="http://www.w3.org/2000/svg" xmlns:xlink="http://www.w3.org/1999/xlink" viewBox="0 0 600 600"><defs><linearGradient id="Unbenannter_Verlauf_21" x1="246.48" y1="203.46" x2="384.36" y2="341.35" gradientUnits="userSpaceOnUse"><stop offset="0" stop-color="#974619"/><stop offset=".08" stop-color="#b26f49"/><stop offset=".18" stop-color="#d7a58a"/><stop offset=".26" stop-color="#efc7b2"/><stop offset=".3" stop-color="#f8d5c2"/><stop offset=".34" stop-color="#e9c3b0"/><stop offset=".47" stop-color="#b98a74"/><stop offset=".57" stop-color="#966049"/><stop offset=".66" stop-color="#81462e"/><stop offset=".71" stop-color="#793d25"/><stop offset="1" stop-color="#6d3119"/></linearGradient><linearGradient id="Unbenannter_Verlauf_18" x1="246.48" y1="203.46" x2="384.36" y2="341.35" gradientUnits="userSpaceOnUse"><stop offset="0" stop-color="#9a9b9f"/><stop offset=".31" stop-color="#fefefe"/><stop offset=".38" stop-color="#e0e0e1"/><stop offset=".47" stop-color="#c1c1c3"/><stop offset=".54" stop-color="#adaeb0"/><stop offset=".6" stop-color="#a7a8aa"/><stop offset=".72" stop-color="#abacae"/><stop offset=".86" stop-color="#b8b9bb"/><stop offset="1" stop-color="#cdced0"/></linearGradient><linearGradient id="Neues_Verlaufsfeld_1" x1="246.48" y1="203.46" x2="384.36" y2="341.35" gradientUnits="userSpaceOnUse"><stop offset="0" stop-color="#a36d0a"/><stop offset=".31" stop-color="#f8fb9f"/><stop offset=".6" stop-color="#cf9618"/><stop offset="1" stop-color="#a16705"/></linearGradient><linearGradient id="Unbenannter_Verlauf_24" x1="246.48" y1="203.46" x2="384.36" y2="341.35" gradientUnits="userSpaceOnUse"><stop offset="0" stop-color="#1d7abf"/><stop offset=".31" stop-color="#4ee9f9"/><stop offset=".6" stop-color="#2085c7"/><stop offset="1" stop-color="#2a3b92"/></linearGradient></defs><g id="lvl-1"><circle cx="315.42" cy="272.41" r="97.5" style="fill:url(#Unbenannter_Verlauf_21);"/></g><g id="lvl-2"><circle cx="315.42" cy="272.41" r="97.5" style="fill:url(#Unbenannter_Verlauf_18);"/></g><g id="lvl-3"><circle cx="315.42" cy="272.41" r="97.5" style="fill:url(#Neues_Verlaufsfeld_1);"/></g><g id="lvl-max"><circle cx="315.42" cy="272.41" r="97.5" style="fill:url(#Unbenannter_Verlauf_24);"/></g><g id="icons"><g><g style="opacity:.15;"><path d="m316.48,171.97c-53.85,0-97.5,43.65-97.5,97.5s43.65,97.5,97.5,97.5v-195Z"/></g><polygon points="317.47 201.03 332.74 248.95 382.17 248.95 342.18 278.56 357.46 326.48 317.47 296.87 277.48 326.48 292.76 278.56 252.77 248.95 302.2 248.95 317.47 201.03" style="fill:#fff;"/><line x1="257.65" y1="504.35" x2="257.81" y2="468.99" style="fill:none; stroke:#000; stroke-linecap:round; stroke-linejoin:round; stroke-width:15px;"/><path d="m300.35,463.81l-102.27.46c-26.48.12-48.01-21.32-48.01-47.8v-52.67l-36.76-2.16,50.81-81.63.59-1.25c-.35-4.26-.53-4.43-.53-8.78,0-85.05,69.17-154,154.5-154s154.5,68.95,154.5,154c0,57.33-31.43,107.35-78.05,133.86" style="fill:none; stroke:#000; stroke-linecap:round; stroke-linejoin:round; stroke-width:15px;"/><line x1="426.85" y1="386.35" x2="426.93" y2="504.35" style="fill:none; stroke:#000; stroke-linecap:round; stroke-linejoin:round; stroke-width:15px;"/><path d="m116.72,191.4c6.08,1.6,12.16,3.2,18.25,4.81,2.98.78,6.41,1.98-18.25-4.81Z" style="fill:none; stroke:#000; stroke-linecap:round; stroke-linejoin:round; stroke-width:15px;"/><path d="m161.6,113.37c6,6.7,12,13.4,18,20.1" style="fill:none; stroke:#000; stroke-linecap:round; stroke-linejoin:round; stroke-width:15px;"/><path d="m231.68,62.15c3.19,9.41,6.92,18.63,11.17,27.61" style="fill:none; stroke:#000; stroke-linecap:round; stroke-linejoin:round; stroke-width:15px;"/><path d="m317.47,45.47c-1.28,8.09-1.32,16.37-.11,24.47" style="fill:none; stroke:#000; stroke-linecap:round; stroke-linejoin:round; stroke-width:15px;"/><path d="m402.23,61.76c-5.2,7.79-10.15,15.74-14.83,23.84" style="fill:none; stroke:#000; stroke-linecap:round; stroke-linejoin:round; stroke-width:15px;"/><path d="m449.36,128.19c7.2-7.14,14.92-13.77,23.07-19.8" style="fill:none; stroke:#000; stroke-linecap:round; stroke-linejoin:round; stroke-width:15px;"/><path d="m490.03,193.64c9.41-1.44,18.65-3.96,27.49-7.5" style="fill:none; stroke:#000; stroke-linecap:round; stroke-linejoin:round; stroke-width:15px;"/><polygon points="317.47 201.03 332.74 248.95 382.17 248.95 342.18 278.56 357.46 326.48 317.47 296.87 277.48 326.48 292.76 278.56 252.77 248.95 302.2 248.95 317.47 201.03" style="fill:none; stroke:#000; stroke-linecap:round; stroke-linejoin:round; stroke-width:15px;"/><circle cx="316.48" cy="269.47" r="97.5" style="fill:none; stroke:#000; stroke-linecap:round; stroke-linejoin:round; stroke-width:15px;"/></g></g><g id="highlights"><g><path d="m332.41,191.56c7.9,1.59,14.38,3.83,21.26,7.54" style="fill:none; stroke:#fff; stroke-linecap:round; stroke-linejoin:round; stroke-width:5px;"/><path d="m368.91,209.37c2.17,1.86,4.24,3.83,6.21,5.9" style="fill:none; stroke:#fff; stroke-linecap:round; stroke-linejoin:round; stroke-width:5px;"/><path d="m360.69,203.21c.51.32,1.01.66,1.5,1" style="fill:none; stroke:#fff; stroke-linecap:round; stroke-linejoin:round; stroke-width:5px;"/></g></g></svg>