<?xml version="1.0" encoding="UTF-8"?><svg xmlns="http://www.w3.org/2000/svg" xmlns:xlink="http://www.w3.org/1999/xlink" viewBox="0 0 600 600"><defs><linearGradient id="Unbenannter_Verlauf_21" x1="27.63" y1="119.95" x2="425.96" y2="518.28" gradientUnits="userSpaceOnUse"><stop offset="0" stop-color="#974619"/><stop offset=".08" stop-color="#b26f49"/><stop offset=".18" stop-color="#d7a58a"/><stop offset=".26" stop-color="#efc7b2"/><stop offset=".3" stop-color="#f8d5c2"/><stop offset=".34" stop-color="#e9c3b0"/><stop offset=".47" stop-color="#b98a74"/><stop offset=".57" stop-color="#966049"/><stop offset=".66" stop-color="#81462e"/><stop offset=".71" stop-color="#793d25"/><stop offset="1" stop-color="#6d3119"/></linearGradient><linearGradient id="Unbenannter_Verlauf_18" x1="27.63" y1="119.95" x2="425.96" y2="518.28" gradientUnits="userSpaceOnUse"><stop offset="0" stop-color="#9a9b9f"/><stop offset=".31" stop-color="#fefefe"/><stop offset=".38" stop-color="#e0e0e1"/><stop offset=".47" stop-color="#c1c1c3"/><stop offset=".54" stop-color="#adaeb0"/><stop offset=".6" stop-color="#a7a8aa"/><stop offset=".72" stop-color="#abacae"/><stop offset=".86" stop-color="#b8b9bb"/><stop offset="1" stop-color="#cdced0"/></linearGradient><linearGradient id="Neues_Verlaufsfeld_1" x1="27.63" y1="119.95" x2="425.96" y2="518.28" gradientUnits="userSpaceOnUse"><stop offset="0" stop-color="#a36d0a"/><stop offset=".31" stop-color="#f8fb9f"/><stop offset=".6" stop-color="#cf9618"/><stop offset="1" stop-color="#a16705"/></linearGradient><linearGradient id="Unbenannter_Verlauf_24" x1="27.63" y1="119.95" x2="425.96" y2="518.28" gradientUnits="userSpaceOnUse"><stop offset="0" stop-color="#1d7abf"/><stop offset=".31" stop-color="#4ee9f9"/><stop offset=".6" stop-color="#2085c7"/><stop offset="1" stop-color="#2a3b92"/></linearGradient></defs><g id="lvl-1"><path d="m151.16,525.39h-75.52V71.94h253.44l123.12,115.15v281.36c0,31.45-25.5,56.94-56.94,56.94h-19.07" style="fill:url(#Unbenannter_Verlauf_21);"/></g><g id="lvl-2"><path d="m151.16,525.39h-75.52V71.94h253.44l123.12,115.15v281.36c0,31.45-25.5,56.94-56.94,56.94h-19.07" style="fill:url(#Unbenannter_Verlauf_18);"/></g><g id="lvl-3"><path d="m151.16,525.39h-75.52V71.94h253.44l123.12,115.15v281.36c0,31.45-25.5,56.94-56.94,56.94h-19.07" style="fill:url(#Neues_Verlaufsfeld_1);"/></g><g id="lvl-max"><path d="m151.16,525.39h-75.52V71.94h253.44l123.12,115.15v281.36c0,31.45-25.5,56.94-56.94,56.94h-19.07" style="fill:url(#Unbenannter_Verlauf_24);"/></g><g id="icons"><g><rect x="75.64" y="73.71" width="184.7" height="447.45" style="opacity:.15;"/><g><path d="m448.07,437.85v29c0,31.36-25.42,56.78-56.78,56.78H72.61V73.71h252.69l122.76,114.81v24.45" style="fill:none; stroke:#000; stroke-linecap:round; stroke-linejoin:round; stroke-width:15px;"/><line x1="448.07" y1="397.71" x2="448.07" y2="405.65" style="fill:none; stroke:#000; stroke-linecap:round; stroke-linejoin:round; stroke-width:15px;"/><path d="m322.67,73.71l.33,61.95c.16,30.26,24.81,54.66,55.07,54.52l70-1.66" style="fill:none; stroke:#000; stroke-linecap:round; stroke-linejoin:round; stroke-width:15px;"/><line x1="238.17" y1="216.83" x2="316.45" y2="216.83" style="fill:none; stroke:#000; stroke-linecap:round; stroke-linejoin:round; stroke-width:15px;"/><line x1="238.17" y1="266.82" x2="285.19" y2="266.82" style="fill:none; stroke:#000; stroke-linecap:round; stroke-linejoin:round; stroke-width:15px;"/><line x1="238.17" y1="166.85" x2="285.19" y2="166.85" style="fill:none; stroke:#000; stroke-linecap:round; stroke-linejoin:round; stroke-width:15px;"/><line x1="129.25" y1="401.46" x2="235.4" y2="401.46" style="fill:none; stroke:#000; stroke-linecap:round; stroke-linejoin:round; stroke-width:15px;"/><line x1="129.25" y1="451.44" x2="235.4" y2="451.44" style="fill:none; stroke:#000; stroke-linecap:round; stroke-linejoin:round; stroke-width:15px;"/><line x1="129.25" y1="351.47" x2="193.01" y2="351.47" style="fill:none; stroke:#000; stroke-linecap:round; stroke-linejoin:round; stroke-width:15px;"/><rect x="129.25" y="158.62" width="62.08" height="127.9" style="fill:#fff; stroke:#000; stroke-linecap:round; stroke-linejoin:round; stroke-width:15px;"/></g><g><path d="m360.31,395.91l-46.57,7.29c-7.27,1.14-12.59-6.68-8.86-13.03l23.57-40.1c3.13-5.33,7.34-9.95,12.37-13.55l159.72-114.62c7.89-5.66,18.87-3.85,24.53,4.03l17.04,23.74c5.66,7.89,3.85,18.87-4.03,24.53l-158.77,113.94c-5.63,4.04-12.13,6.71-18.98,7.78Z" style="fill:#fff; stroke:#000; stroke-linecap:round; stroke-linejoin:round; stroke-width:15px;"/><line x1="339.2" y1="337.35" x2="376.87" y2="389.75" style="fill:none; stroke:#000; stroke-linecap:round; stroke-linejoin:round; stroke-width:15px;"/><line x1="485.71" y1="233.18" x2="523.51" y2="284.51" style="fill:none; stroke:#000; stroke-linecap:round; stroke-linejoin:round; stroke-width:15px;"/></g><polygon points="336.97 339.38 305.62 396.15 363.02 395.09 372.98 390 336.97 339.38" style="opacity:.15;"/><polygon points="490.82 231.69 513.08 217.07 526.39 227.98 545.59 255.69 542.75 269.66 524.86 279.48 500.85 252.2 490.82 231.69" style="opacity:.15;"/></g></g><g id="highlights"><g><path d="m345.02,117.98c7.11,6.68,14.22,13.36,21.33,20.04" style="fill:none; stroke:#fff; stroke-linecap:round; stroke-linejoin:round; stroke-width:5px;"/><path d="m376.89,148.76c2.05,1.78,4.17,3.48,6.2,5.28.57.51,1.23,1.02,1.71,1.62-.11-.15-.21-.3-7.91-6.9Z" style="fill:none; stroke:#fff; stroke-linecap:round; stroke-linejoin:round; stroke-width:5px;"/><line x1="392.26" y1="163.25" x2="394.18" y2="164.8" style="fill:none; stroke:#fff; stroke-linecap:round; stroke-linejoin:round; stroke-width:5px;"/></g></g></svg>