<?xml version="1.0" encoding="UTF-8"?><svg xmlns="http://www.w3.org/2000/svg" viewBox="0 0 600 600"><g id="color"><path d="M134.52,220.37H490.64v204.61c0,27.87-22.63,50.5-50.5,50.5H134.52V220.37h0Z" style="fill:#f2ab38;"/></g><g id="Ebene_2"><g><path d="M451.51,148.12h39.14V427.61c0,27.9-22.62,50.51-50.51,50.51H132.64V148.12h75.17" style="fill:none; stroke:#000; stroke-linecap:round; stroke-linejoin:round; stroke-width:15px;"/><line x1="347.24" y1="148.12" x2="416.41" y2="148.12" style="fill:none; stroke:#000; stroke-linecap:round; stroke-linejoin:round; stroke-width:15px;"/><line x1="247.11" y1="148.12" x2="309.08" y2="148.12" style="fill:none; stroke:#000; stroke-linecap:round; stroke-linejoin:round; stroke-width:15px;"/><line x1="207.82" y1="113.35" x2="207.82" y2="184.75" style="fill:none; stroke:#000; stroke-linecap:round; stroke-linejoin:round; stroke-width:15px;"/><line x1="310.58" y1="112.42" x2="310.58" y2="183.83" style="fill:none; stroke:#000; stroke-linecap:round; stroke-linejoin:round; stroke-width:15px;"/><line x1="416.58" y1="112.42" x2="416.58" y2="183.83" style="fill:none; stroke:#000; stroke-linecap:round; stroke-linejoin:round; stroke-width:15px;"/><path d="M132.64,220.35V478.12h182.78V220.35H132.64Zm103.64,199.44c-36.22,0-65.58-29.36-65.58-65.58s29.36-65.58,65.58-65.58v65.58h65.58c0,36.22-29.36,65.58-65.58,65.58Z" style="opacity:.15;"/><line x1="134.52" y1="220.96" x2="490.64" y2="219.75" style="fill:none; stroke:#000; stroke-linecap:round; stroke-linejoin:round; stroke-width:15px;"/><path d="M236.29,270.25v83.07h87.2c.02-.62,.03-1.24,.03-1.86,0-43.69-38.7-79.32-87.23-81.21Z" style="fill:#fff; stroke:#000; stroke-linecap:round; stroke-linejoin:round; stroke-width:15px;"/><path d="M236.29,288.63c-36.22,0-65.58,29.36-65.58,65.58s29.36,65.58,65.58,65.58,65.58-29.36,65.58-65.58h-65.58v-65.58Z" style="fill:none; stroke:#000; stroke-linecap:round; stroke-linejoin:round; stroke-width:15px;"/><rect x="371.81" y="270.19" width="57.61" height="57.61" style="fill:#fff; stroke:#000; stroke-linecap:round; stroke-linejoin:round; stroke-width:15px;"/><rect x="371.81" y="372.09" width="57.61" height="57.61" style="fill:#fff; stroke:#000; stroke-linecap:round; stroke-linejoin:round; stroke-width:15px;"/></g></g><g id="Ebene_4"><g><line x1="474.05" y1="257.8" x2="474.05" y2="264.15" style="fill:none; stroke:#fff; stroke-linecap:round; stroke-linejoin:round; stroke-width:5px;"/><path d="M455.46,236.53l15.04-.17c1.92-.02,3.48,1.54,3.45,3.46l-.14,7.62" style="fill:none; stroke:#fff; stroke-linecap:round; stroke-linejoin:round; stroke-width:5px;"/><line x1="474.05" y1="274.31" x2="474.05" y2="275.37" style="fill:none; stroke:#fff; stroke-linecap:round; stroke-linejoin:round; stroke-width:5px;"/></g></g></svg>