<?xml version="1.0" encoding="UTF-8"?><svg xmlns="http://www.w3.org/2000/svg" xmlns:xlink="http://www.w3.org/1999/xlink" viewBox="0 0 600 600"><defs><linearGradient id="Unbenannter_Verlauf_21" x1="109.96" y1="159.77" x2="476.01" y2="525.82" gradientUnits="userSpaceOnUse"><stop offset="0" stop-color="#974619"/><stop offset=".08" stop-color="#b26f49"/><stop offset=".18" stop-color="#d7a58a"/><stop offset=".26" stop-color="#efc7b2"/><stop offset=".3" stop-color="#f8d5c2"/><stop offset=".34" stop-color="#e9c3b0"/><stop offset=".47" stop-color="#b98a74"/><stop offset=".57" stop-color="#966049"/><stop offset=".66" stop-color="#81462e"/><stop offset=".71" stop-color="#793d25"/><stop offset="1" stop-color="#6d3119"/></linearGradient><linearGradient id="Unbenannter_Verlauf_18" x1="109.96" y1="159.77" x2="476.01" y2="525.82" gradientUnits="userSpaceOnUse"><stop offset="0" stop-color="#9a9b9f"/><stop offset=".31" stop-color="#fefefe"/><stop offset=".38" stop-color="#e0e0e1"/><stop offset=".47" stop-color="#c1c1c3"/><stop offset=".54" stop-color="#adaeb0"/><stop offset=".6" stop-color="#a7a8aa"/><stop offset=".72" stop-color="#abacae"/><stop offset=".86" stop-color="#b8b9bb"/><stop offset="1" stop-color="#cdced0"/></linearGradient><linearGradient id="Neues_Verlaufsfeld_1" x1="109.96" y1="159.77" x2="476.01" y2="525.82" gradientUnits="userSpaceOnUse"><stop offset="0" stop-color="#a36d0a"/><stop offset=".31" stop-color="#f8fb9f"/><stop offset=".6" stop-color="#cf9618"/><stop offset="1" stop-color="#a16705"/></linearGradient><linearGradient id="Unbenannter_Verlauf_24" x1="109.96" y1="159.77" x2="476.01" y2="525.82" gradientUnits="userSpaceOnUse"><stop offset="0" stop-color="#1d7abf"/><stop offset=".31" stop-color="#4ee9f9"/><stop offset=".6" stop-color="#2085c7"/><stop offset="1" stop-color="#2a3b92"/></linearGradient></defs><g id="lvl-1"><path d="m78.49,191.24h443.78v267.4c0,27.87-22.63,50.5-50.5,50.5H78.49V191.24h0Z" style="fill:url(#Unbenannter_Verlauf_21);"/></g><g id="lvl-2"><path d="m78.49,191.24h443.78v267.4c0,27.87-22.63,50.5-50.5,50.5H78.49V191.24h0Z" style="fill:url(#Unbenannter_Verlauf_18);"/></g><g id="lvl-3"><path d="m78.49,191.24h443.78v267.4c0,27.87-22.63,50.5-50.5,50.5H78.49V191.24h0Z" style="fill:url(#Neues_Verlaufsfeld_1);"/></g><g id="lvl-max"><path d="m78.49,191.24h443.78v267.4c0,27.87-22.63,50.5-50.5,50.5H78.49V191.24h0Z" style="fill:url(#Unbenannter_Verlauf_24);"/></g><g id="icons"><g><path d="m473.49,101.21h48.77v348.28c0,34.76-28.18,62.94-62.94,62.94H76.15V101.21h93.67" style="fill:none; stroke:#000; stroke-linecap:round; stroke-linejoin:round; stroke-width:15px;"/><line x1="343.57" y1="101.21" x2="429.76" y2="101.21" style="fill:none; stroke:#000; stroke-linecap:round; stroke-linejoin:round; stroke-width:15px;"/><line x1="218.79" y1="101.21" x2="296.02" y2="101.21" style="fill:none; stroke:#000; stroke-linecap:round; stroke-linejoin:round; stroke-width:15px;"/><line x1="169.83" y1="57.88" x2="169.83" y2="146.86" style="fill:none; stroke:#000; stroke-linecap:round; stroke-linejoin:round; stroke-width:15px;"/><line x1="297.89" y1="56.72" x2="297.89" y2="145.7" style="fill:none; stroke:#000; stroke-linecap:round; stroke-linejoin:round; stroke-width:15px;"/><line x1="429.98" y1="56.72" x2="429.98" y2="145.7" style="fill:none; stroke:#000; stroke-linecap:round; stroke-linejoin:round; stroke-width:15px;"/><g><rect x="76.15" y="191.22" width="227.76" height="321.22" style="opacity:.15;"/><path d="m205.3,439.75c-45.13,0-81.72-36.59-81.72-81.72s36.59-81.72,81.72-81.72v81.72h81.72c0,45.13-36.59,81.72-81.72,81.72Z" style="opacity:.15;"/></g><line x1="78.49" y1="191.98" x2="522.26" y2="190.47" style="fill:none; stroke:#000; stroke-linecap:round; stroke-linejoin:round; stroke-width:15px;"/><path d="m205.3,253.4v103.52h108.66c.02-.77.03-1.55.03-2.32,0-54.44-48.22-98.84-108.7-101.19Z" style="fill:#fff; stroke:#000; stroke-linecap:round; stroke-linejoin:round; stroke-width:15px;"/><path d="m205.3,276.31c-45.13,0-81.72,36.59-81.72,81.72s36.59,81.72,81.72,81.72,81.72-36.59,81.72-81.72h-81.72v-81.72Z" style="fill:none; stroke:#000; stroke-linecap:round; stroke-linejoin:round; stroke-width:15px;"/><rect x="374.18" y="253.32" width="71.8" height="71.8" style="fill:#fff; stroke:#000; stroke-linecap:round; stroke-linejoin:round; stroke-width:15px;"/><rect x="374.18" y="380.3" width="71.8" height="71.8" style="fill:#fff; stroke:#000; stroke-linecap:round; stroke-linejoin:round; stroke-width:15px;"/></g></g><g id="highlights"><g><line x1="501.58" y1="237.88" x2="501.58" y2="245.8" style="fill:none; stroke:#fff; stroke-linecap:round; stroke-linejoin:round; stroke-width:5px;"/><path d="m478.43,211.37l18.74-.21c2.39-.03,4.33,1.92,4.3,4.31l-.17,9.5" style="fill:none; stroke:#fff; stroke-linecap:round; stroke-linejoin:round; stroke-width:5px;"/><line x1="501.58" y1="258.46" x2="501.58" y2="259.78" style="fill:none; stroke:#fff; stroke-linecap:round; stroke-linejoin:round; stroke-width:5px;"/></g></g></svg>