<?xml version="1.0" encoding="UTF-8"?><svg xmlns="http://www.w3.org/2000/svg" viewBox="0 0 600 600"><g id="color"><path d="M173.12,475.48H108.59V88.04h216.54l105.2,98.38v240.4c0,26.87-21.78,48.65-48.65,48.65h-16.29" style="fill:#f2ab38;"/></g><g id="Ebene_2"><g><rect x="108.59" y="89.55" width="160.87" height="384.41" style="opacity:.15;"/><g><path d="M415.18,459.76c-8.78,8.78-20.91,14.21-34.3,14.21H108.59V89.55h215.9l104.89,98.09v44.41" style="fill:none; stroke:#000; stroke-linecap:round; stroke-linejoin:round; stroke-width:15px;"/><path d="M322.24,89.55l.28,52.93c.14,25.85,21.2,46.7,47.05,46.58l59.81-1.42" style="fill:none; stroke:#000; stroke-linecap:round; stroke-linejoin:round; stroke-width:15px;"/><line x1="250.05" y1="169.13" x2="290.22" y2="169.13" style="fill:none; stroke:#000; stroke-linecap:round; stroke-linejoin:round; stroke-width:15px;"/><line x1="250.05" y1="216.74" x2="300" y2="216.74" style="fill:none; stroke:#000; stroke-linecap:round; stroke-linejoin:round; stroke-width:15px;"/><line x1="156.99" y1="369.58" x2="247.68" y2="369.58" style="fill:none; stroke:#000; stroke-linecap:round; stroke-linejoin:round; stroke-width:15px;"/><line x1="156.99" y1="412.29" x2="247.68" y2="412.29" style="fill:none; stroke:#000; stroke-linecap:round; stroke-linejoin:round; stroke-width:15px;"/><line x1="156.99" y1="326.87" x2="211.47" y2="326.87" style="fill:none; stroke:#000; stroke-linecap:round; stroke-linejoin:round; stroke-width:15px;"/><rect x="156.99" y="162.1" width="53.04" height="109.28" style="fill:#fff; stroke:#000; stroke-linecap:round; stroke-linejoin:round; stroke-width:15px;"/></g><g><path d="M406.43,259.88c-34.97-29.46-86.84-25.42-115.86,9.03-29.02,34.45-24.19,86.25,10.78,115.71s86.84,25.42,115.86-9.03c29.02-34.45,24.19-86.25-10.78-115.71Zm-15.49,93.58c-16.98,20.15-47.32,22.52-67.78,5.28s-23.28-47.54-6.31-67.69c16.98-20.15,47.32-22.52,67.78-5.28,20.46,17.23,23.28,47.54,6.31,67.69Z" style="fill:#fff; stroke:#000; stroke-miterlimit:10; stroke-width:15px;"/><rect x="410.07" y="370.5" width="36.21" height="28.71" transform="translate(-142.02 464.39) rotate(-49.89)" style="fill:#fff; stroke:#000; stroke-miterlimit:10; stroke-width:15px;"/><path d="M473.44,460.05l-42.2-35.55c-5.71-4.81-6.44-13.35-1.63-19.06l19.12-22.7c4.81-5.71,13.35-6.44,19.06-1.63l42.2,35.55c11.98,10.09,13.51,27.99,3.42,39.97h0c-10.09,11.98-27.99,13.51-39.97,3.42Z" style="fill:#fff; stroke:#000; stroke-miterlimit:10; stroke-width:15px;"/></g><path d="M473.44,460.05l-42.2-35.55c-5.71-4.81-6.44-13.35-1.63-19.06l19.12-22.7c4.81-5.71,13.35-6.44,19.06-1.63l42.2,35.55c11.98,10.09,13.51,27.99,3.42,39.97h0c-10.09,11.98-27.99,13.51-39.97,3.42Z" style="opacity:.15;"/></g></g><g id="Ebene_4"><g><path d="M339.13,127.26c6.24,5.64,12.47,11.29,18.71,16.93" style="fill:none; stroke:#fff; stroke-linecap:round; stroke-linejoin:round; stroke-width:5px;"/><path d="M367.08,153.27c1.79,1.51,3.66,2.94,5.44,4.46,.5,.43,1.08,.86,1.5,1.37-.1-.12-.18-.25-6.94-5.83Z" style="fill:none; stroke:#fff; stroke-linecap:round; stroke-linejoin:round; stroke-width:5px;"/><line x1="380.56" y1="165.51" x2="382.24" y2="166.82" style="fill:none; stroke:#fff; stroke-linecap:round; stroke-linejoin:round; stroke-width:5px;"/></g></g></svg>