<?xml version="1.0" encoding="UTF-8"?><svg xmlns="http://www.w3.org/2000/svg" xmlns:xlink="http://www.w3.org/1999/xlink" viewBox="0 0 600 600"><defs><linearGradient id="Unbenannter_Verlauf_21" x1="25.16" y1="102.82" x2="423.99" y2="501.65" gradientUnits="userSpaceOnUse"><stop offset="0" stop-color="#974619"/><stop offset=".08" stop-color="#b26f49"/><stop offset=".18" stop-color="#d7a58a"/><stop offset=".26" stop-color="#efc7b2"/><stop offset=".3" stop-color="#f8d5c2"/><stop offset=".34" stop-color="#e9c3b0"/><stop offset=".47" stop-color="#b98a74"/><stop offset=".57" stop-color="#966049"/><stop offset=".66" stop-color="#81462e"/><stop offset=".71" stop-color="#793d25"/><stop offset="1" stop-color="#6d3119"/></linearGradient><linearGradient id="Unbenannter_Verlauf_18" x1="25.16" y1="102.82" x2="423.99" y2="501.65" gradientUnits="userSpaceOnUse"><stop offset="0" stop-color="#9a9b9f"/><stop offset=".31" stop-color="#fefefe"/><stop offset=".38" stop-color="#e0e0e1"/><stop offset=".47" stop-color="#c1c1c3"/><stop offset=".54" stop-color="#adaeb0"/><stop offset=".6" stop-color="#a7a8aa"/><stop offset=".72" stop-color="#abacae"/><stop offset=".86" stop-color="#b8b9bb"/><stop offset="1" stop-color="#cdced0"/></linearGradient><linearGradient id="Neues_Verlaufsfeld_1" x1="25.16" y1="102.82" x2="423.99" y2="501.65" gradientUnits="userSpaceOnUse"><stop offset="0" stop-color="#a36d0a"/><stop offset=".31" stop-color="#f8fb9f"/><stop offset=".6" stop-color="#cf9618"/><stop offset="1" stop-color="#a16705"/></linearGradient><linearGradient id="Unbenannter_Verlauf_24" x1="25.16" y1="102.82" x2="423.99" y2="501.65" gradientUnits="userSpaceOnUse"><stop offset="0" stop-color="#1d7abf"/><stop offset=".31" stop-color="#4ee9f9"/><stop offset=".6" stop-color="#2085c7"/><stop offset="1" stop-color="#2a3b92"/></linearGradient></defs><g id="lvl-1"><path d="m148.85,508.77h-75.62V54.75h253.76l123.28,115.29v281.71c0,31.49-25.53,57.02-57.02,57.02h-19.1" style="fill:url(#Unbenannter_Verlauf_21);"/></g><g id="lvl-2"><path d="m148.85,508.77h-75.62V54.75h253.76l123.28,115.29v281.71c0,31.49-25.53,57.02-57.02,57.02h-19.1" style="fill:url(#Unbenannter_Verlauf_18);"/></g><g id="lvl-3"><path d="m148.85,508.77h-75.62V54.75h253.76l123.28,115.29v281.71c0,31.49-25.53,57.02-57.02,57.02h-19.1" style="fill:url(#Neues_Verlaufsfeld_1);"/></g><g id="lvl-max"><path d="m148.85,508.77h-75.62V54.75h253.76l123.28,115.29v281.71c0,31.49-25.53,57.02-57.02,57.02h-19.1" style="fill:url(#Unbenannter_Verlauf_24);"/></g><g id="icons"><g><rect x="73.23" y="56.52" width="188.52" height="450.48" style="opacity:.15;"/><g><path d="m432.51,490.35c-10.29,10.29-24.5,16.65-40.2,16.65H73.23V56.52h253.01l122.92,114.95v52.04" style="fill:none; stroke:#000; stroke-linecap:round; stroke-linejoin:round; stroke-width:15px;"/><path d="m323.6,56.52l.33,62.02c.16,30.3,24.84,54.73,55.14,54.59l70.09-1.66" style="fill:none; stroke:#000; stroke-linecap:round; stroke-linejoin:round; stroke-width:15px;"/><line x1="239" y1="149.77" x2="286.08" y2="149.77" style="fill:none; stroke:#000; stroke-linecap:round; stroke-linejoin:round; stroke-width:15px;"/><line x1="239" y1="205.56" x2="297.54" y2="205.56" style="fill:none; stroke:#000; stroke-linecap:round; stroke-linejoin:round; stroke-width:15px;"/><line x1="129.94" y1="384.68" x2="236.22" y2="384.68" style="fill:none; stroke:#000; stroke-linecap:round; stroke-linejoin:round; stroke-width:15px;"/><line x1="129.94" y1="434.73" x2="236.22" y2="434.73" style="fill:none; stroke:#000; stroke-linecap:round; stroke-linejoin:round; stroke-width:15px;"/><line x1="129.94" y1="334.63" x2="193.79" y2="334.63" style="fill:none; stroke:#000; stroke-linecap:round; stroke-linejoin:round; stroke-width:15px;"/><rect x="129.94" y="141.53" width="62.16" height="128.06" style="fill:#fff; stroke:#000; stroke-linecap:round; stroke-linejoin:round; stroke-width:15px;"/></g><g><path d="m422.25,256.13c-40.98-34.52-101.77-29.78-135.77,10.58-34,40.37-28.35,101.08,12.64,135.6,40.98,34.52,101.77,29.78,135.77-10.58,34-40.37,28.35-101.08-12.64-135.6Zm-18.16,109.66c-19.89,23.62-55.45,26.39-79.43,6.19-23.98-20.2-27.29-55.71-7.39-79.33,19.89-23.62,55.45-26.39,79.43-6.19,23.98,20.2,27.29,55.71,7.39,79.33Z" style="fill:#fff; stroke:#000; stroke-miterlimit:10; stroke-width:15px;"/><rect x="426.52" y="385.76" width="42.44" height="33.65" transform="translate(-148.61 485.66) rotate(-49.89)" style="fill:#fff; stroke:#000; stroke-miterlimit:10; stroke-width:15px;"/><path d="m500.78,490.69l-49.46-41.66c-6.7-5.64-7.55-15.64-1.91-22.33l22.41-26.6c5.64-6.7,15.64-7.55,22.33-1.91l49.46,41.66c14.04,11.83,15.84,32.8,4.01,46.84h0c-11.83,14.04-32.8,15.84-46.84,4.01Z" style="fill:#fff; stroke:#000; stroke-miterlimit:10; stroke-width:15px;"/></g><path d="m500.78,490.69l-49.46-41.66c-6.7-5.64-7.55-15.64-1.91-22.33l22.41-26.6c5.64-6.7,15.64-7.55,22.33-1.91l49.46,41.66c14.04,11.83,15.84,32.8,4.01,46.84h0c-11.83,14.04-32.8,15.84-46.84,4.01Z" style="opacity:.15;"/></g></g><g id="highlights"><g><path d="m343.39,100.71c7.31,6.61,14.61,13.23,21.92,19.84" style="fill:none; stroke:#fff; stroke-linecap:round; stroke-linejoin:round; stroke-width:5px;"/><path d="m376.14,131.19c2.1,1.77,4.29,3.45,6.38,5.23.59.5,1.26,1.01,1.76,1.6-.11-.14-.21-.3-8.13-6.83Z" style="fill:none; stroke:#fff; stroke-linecap:round; stroke-linejoin:round; stroke-width:5px;"/><line x1="391.94" y1="145.53" x2="393.91" y2="147.07" style="fill:none; stroke:#fff; stroke-linecap:round; stroke-linejoin:round; stroke-width:5px;"/></g></g></svg>