<?xml version="1.0" encoding="UTF-8"?><svg xmlns="http://www.w3.org/2000/svg" viewBox="0 0 600 600"><g id="color"><path d="M117.52,185.66v195.92c0,18.09,14.17,32.76,31.66,32.76H407.75c17.48,0,31.66-14.67,31.66-32.76V185.66H117.52Z" style="fill:#f2ab38;"/></g><g id="Ebene_2"><g><path d="M258.04,406.87h-108.44c-18.37,0-33.26-14.89-33.26-33.26V158.14c0-18.37,14.89-33.26,33.26-33.26h253.33c18.37,0,33.26,14.89,33.26,33.26v147.5" style="fill:none; stroke:#000; stroke-linecap:round; stroke-linejoin:round; stroke-width:15px;"/><path d="M150.39,181.21h128.07v233.13H116.33V215.27c0-18.8,15.26-34.06,34.06-34.06Z" style="opacity:.15;"/><path d="M148.29,323.2v-107h72.3l14.7,25,67-.03v67.5c0,8.02-6.51,14.53-14.53,14.53H148.29Z" style="fill:#fff;"/><line x1="148.29" y1="245.59" x2="202.12" y2="245.59" style="fill:none; stroke:#000; stroke-linecap:round; stroke-linejoin:round; stroke-width:15px;"/><line x1="116.33" y1="181.21" x2="436.19" y2="181.21" style="fill:none; stroke:#000; stroke-miterlimit:10; stroke-width:15px;"/><line x1="334.71" y1="153.98" x2="350.71" y2="153.98" style="fill:none; stroke:#000; stroke-linecap:round; stroke-linejoin:round; stroke-width:15px;"/><line x1="383.71" y1="153.98" x2="399.71" y2="153.98" style="fill:none; stroke:#000; stroke-linecap:round; stroke-linejoin:round; stroke-width:15px;"/><polygon points="468.21 394.43 468.21 339.43 299.21 339.43 299.21 394.43 323.71 394.43 323.71 428.64 299.21 428.64 299.21 483.64 468.21 483.64 468.21 428.64 443.71 428.64 443.71 394.43 468.21 394.43" style="fill:#fff;"/><line x1="413.93" y1="366.93" x2="429.93" y2="366.93" style="fill:none; stroke:#000; stroke-linecap:round; stroke-linejoin:round; stroke-width:15px;"/><rect x="299.21" y="339.43" width="169" height="55" style="fill:none; stroke:#000; stroke-linecap:round; stroke-linejoin:round; stroke-width:15px;"/><line x1="413.93" y1="456.14" x2="429.93" y2="456.14" style="fill:none; stroke:#000; stroke-linecap:round; stroke-linejoin:round; stroke-width:15px;"/><rect x="299.21" y="428.64" width="169" height="55" style="fill:none; stroke:#000; stroke-linecap:round; stroke-linejoin:round; stroke-width:15px;"/><rect x="323.71" y="394.43" width="120" height="34.21" style="fill:none; stroke:#000; stroke-linecap:round; stroke-linejoin:round; stroke-width:15px;"/><rect x="323.71" y="394.43" width="120" height="34.21" style="opacity:.15;"/><polyline points="265.04 323.2 148.29 323.2 148.29 216.2 220.59 216.2 235.29 241.2 302.29 241.17 302.29 301.06" style="fill:none; stroke:#000; stroke-linecap:round; stroke-linejoin:round; stroke-width:15px;"/></g></g><g id="Ebene_4"><g><line x1="418.92" y1="219.67" x2="418.92" y2="226.02" style="fill:none; stroke:#fff; stroke-linecap:round; stroke-linejoin:round; stroke-width:5px;"/><path d="M400.34,198.4l15.04-.17c1.92-.02,3.48,1.54,3.45,3.46l-.14,7.62" style="fill:none; stroke:#fff; stroke-linecap:round; stroke-linejoin:round; stroke-width:5px;"/><line x1="418.92" y1="236.18" x2="418.92" y2="237.24" style="fill:none; stroke:#fff; stroke-linecap:round; stroke-linejoin:round; stroke-width:5px;"/></g></g></svg>