<?xml version="1.0" encoding="UTF-8"?><svg xmlns="http://www.w3.org/2000/svg" viewBox="0 0 600 600"><g id="color"><path d="M490.14,345.16h-20.4v-9.63c0-9.07-7.35-16.42-16.42-16.42H150.26c-9.07,0-16.42,7.35-16.42,16.42v9.63h-20.4c-10.37,0-18.78,8.41-18.78,18.78v19.28c0,10.37,8.41,18.78,18.78,18.78h20.4v9.63c0,9.07,7.35,16.42,16.42,16.42H453.33c9.07,0,16.42-7.35,16.42-16.42v-9.63h20.4c10.37,0,18.78-8.41,18.78-18.78v-19.28c0-10.37-8.41-18.78-18.78-18.78Z" style="fill:#f2ab38;"/><path d="M303.12,96.33L99.06,165.06l103.23,41.29v57c0,13.08,45.06,23.68,100.64,23.68s100.64-10.6,100.64-23.68v-56.76l103.23-40.93-203.68-69.33Z" style="fill:#f2ab38;"/></g><g id="Ebene_2"><g><ellipse cx="302.93" cy="263.34" rx="100.64" ry="23.68" style="fill:none; stroke:#000; stroke-linecap:round; stroke-linejoin:round; stroke-width:15px;"/><path d="M302.93,157.97c-55.58,0-100.64,10.6-100.64,23.68v81.7c0,13.08,45.06,23.68,100.64,23.68s100.64-10.6,100.64-23.68v-81.7c0-13.08-45.06-23.68-100.64-23.68Z" style="fill:none; stroke:#000; stroke-linecap:round; stroke-linejoin:round; stroke-width:15px;"/><path d="M202.29,181.65c0-13.08,45.06-23.68,100.64-23.68s100.64,10.6,100.64,23.68v24.94l103.23-40.93-203.68-69.33L99.06,165.06l103.23,41.29v-24.7Z" style="fill:none; stroke:#000; stroke-linejoin:round; stroke-width:15px;"/><ellipse cx="302.93" cy="263.34" rx="100.64" ry="23.68" style="opacity:.15;"/><g style="opacity:.15;"><path d="M202.29,181.65c0-13.08,45.06-23.68,100.64-23.68s100.64,10.6,100.64,23.68v24.94l103.23-40.93-203.68-69.33L99.06,165.06l103.23,41.29v-24.7Z"/></g><line x1="452.58" y1="151.46" x2="452.58" y2="227.23" style="fill:none; stroke:#000; stroke-linecap:round; stroke-linejoin:round; stroke-width:15px;"/><path d="M435.41,227.23h19.93c7.95,0,14.41,6.46,14.41,14.41v15c0,7.95-6.46,14.41-14.41,14.41h-19.93v-43.81h0Z" style="fill:none; stroke:#000; stroke-linecap:round; stroke-linejoin:round; stroke-width:15px;"/><rect x="133.84" y="319.11" width="335.91" height="108.93" rx="16.42" ry="16.42" style="fill:none; stroke:#000; stroke-linecap:round; stroke-linejoin:round; stroke-width:15px;"/><path d="M133.84,373.57v38.05c0,9.07,7.35,16.42,16.42,16.42H453.33c9.07,0,16.42-7.35,16.42-16.42v-38.05H133.84Z" style="opacity:.15;"/><path d="M469.75,345.16h39.17v38.06c0,10.36-8.41,18.78-18.78,18.78h-1.62c-10.36,0-18.78-8.41-18.78-18.78v-38.06h0Z" style="fill:none; stroke:#000; stroke-linecap:round; stroke-linejoin:round; stroke-width:15px;"/><path d="M94.67,345.16h39.17v38.06c0,10.36-8.41,18.78-18.78,18.78h-1.62c-10.36,0-18.78-8.41-18.78-18.78v-38.06h0Z" style="fill:none; stroke:#000; stroke-linecap:round; stroke-linejoin:round; stroke-width:15px;"/><path d="M94.67,345.16h39.17v38.06c0,10.36-8.41,18.78-18.78,18.78h-1.62c-10.36,0-18.78-8.41-18.78-18.78v-38.06h0Z" style="opacity:.15;"/><rect x="276.34" y="319.11" width="50.91" height="108.93" style="fill:#fff; stroke:#000; stroke-linecap:round; stroke-linejoin:round; stroke-width:15px;"/><g><circle cx="303.11" cy="421.8" r="59.99" style="fill:#fff; stroke:#000; stroke-linecap:round; stroke-linejoin:round; stroke-width:15px;"/><polygon points="303.11 395.81 308.81 413.09 327.25 413.09 312.33 423.76 318.03 441.04 303.11 430.36 288.18 441.04 293.88 423.76 278.96 413.09 297.41 413.09 303.11 395.81" style="fill:none; stroke:#000; stroke-linecap:round; stroke-linejoin:round; stroke-width:15px;"/><polyline points="251.54 452.46 213.45 498.84 249.32 499.45 260.93 532.23 293.63 481.79" style="fill:none; stroke:#000; stroke-linecap:round; stroke-linejoin:round; stroke-width:15px;"/><polyline points="355.72 452.46 393.6 498.84 359.41 499.45 348.33 532.23 315.59 481.79" style="fill:none; stroke:#000; stroke-linecap:round; stroke-linejoin:round; stroke-width:15px;"/><polyline points="251.54 452.46 213.45 498.84 249.32 499.45 260.93 532.23 293.63 481.79" style="opacity:.15;"/><polyline points="355.72 452.46 393.6 498.84 359.41 499.45 348.33 532.23 315.59 481.79" style="opacity:.15;"/></g></g></g><g id="Ebene_4"><path d="M436.16,338.61c4.36-.53,9.84-.5,11.85,3.4,.76,1.48,.8,3.21,.82,4.88,.1,7.84,.21,15.67,.31,23.51" style="fill:none; stroke:#fff; stroke-linecap:round; stroke-linejoin:round; stroke-width:5px;"/><path d="M448.23,379.07v7.07" style="fill:none; stroke:#fff; stroke-linecap:round; stroke-linejoin:round; stroke-width:5px;"/><path d="M388.21,187.9c-.35,3.75-.31,7.53,.12,11.26" style="fill:none; stroke:#fff; stroke-linecap:round; stroke-linejoin:round; stroke-width:5px;"/><path d="M388.19,210.39l.32,5.14" style="fill:none; stroke:#fff; stroke-linecap:round; stroke-linejoin:round; stroke-width:5px;"/></g></svg>