<?xml version="1.0" encoding="UTF-8"?><svg xmlns="http://www.w3.org/2000/svg" xmlns:xlink="http://www.w3.org/1999/xlink" viewBox="0 0 600 600"><defs><linearGradient id="Unbenannter_Verlauf_21" x1="100.45" y1="112.6" x2="447.99" y2="460.13" gradientUnits="userSpaceOnUse"><stop offset="0" stop-color="#974619"/><stop offset=".08" stop-color="#b26f49"/><stop offset=".18" stop-color="#d7a58a"/><stop offset=".26" stop-color="#efc7b2"/><stop offset=".3" stop-color="#f8d5c2"/><stop offset=".34" stop-color="#e9c3b0"/><stop offset=".47" stop-color="#b98a74"/><stop offset=".57" stop-color="#966049"/><stop offset=".66" stop-color="#81462e"/><stop offset=".71" stop-color="#793d25"/><stop offset="1" stop-color="#6d3119"/></linearGradient><linearGradient id="Unbenannter_Verlauf_18" x1="100.45" y1="112.6" x2="447.99" y2="460.13" gradientUnits="userSpaceOnUse"><stop offset="0" stop-color="#9a9b9f"/><stop offset=".31" stop-color="#fefefe"/><stop offset=".38" stop-color="#e0e0e1"/><stop offset=".47" stop-color="#c1c1c3"/><stop offset=".54" stop-color="#adaeb0"/><stop offset=".6" stop-color="#a7a8aa"/><stop offset=".72" stop-color="#abacae"/><stop offset=".86" stop-color="#b8b9bb"/><stop offset="1" stop-color="#cdced0"/></linearGradient><linearGradient id="Neues_Verlaufsfeld_1" x1="100.45" y1="112.6" x2="447.99" y2="460.13" gradientUnits="userSpaceOnUse"><stop offset="0" stop-color="#a36d0a"/><stop offset=".31" stop-color="#f8fb9f"/><stop offset=".6" stop-color="#cf9618"/><stop offset="1" stop-color="#a16705"/></linearGradient><linearGradient id="Unbenannter_Verlauf_24" x1="100.45" y1="112.6" x2="447.99" y2="460.13" gradientUnits="userSpaceOnUse"><stop offset="0" stop-color="#1d7abf"/><stop offset=".31" stop-color="#4ee9f9"/><stop offset=".6" stop-color="#2085c7"/><stop offset="1" stop-color="#2a3b92"/></linearGradient></defs><g id="lvl-1"><path d="m63.83,149.22v256.11c0,23.65,18.53,42.83,41.39,42.83h338.02c22.86,0,41.39-19.17,41.39-42.83V149.22H63.83Z" style="fill:url(#Unbenannter_Verlauf_21);"/></g><g id="lvl-2"><path d="m63.83,149.22v256.11c0,23.65,18.53,42.83,41.39,42.83h338.02c22.86,0,41.39-19.17,41.39-42.83V149.22H63.83Z" style="fill:url(#Unbenannter_Verlauf_18);"/></g><g id="lvl-3"><path d="m63.83,149.22v256.11c0,23.65,18.53,42.83,41.39,42.83h338.02c22.86,0,41.39-19.17,41.39-42.83V149.22H63.83Z" style="fill:url(#Neues_Verlaufsfeld_1);"/></g><g id="lvl-max"><path d="m63.83,149.22v256.11c0,23.65,18.53,42.83,41.39,42.83h338.02c22.86,0,41.39-19.17,41.39-42.83V149.22H63.83Z" style="fill:url(#Unbenannter_Verlauf_24);"/></g><g id="icons"><g><path d="m247.52,438.4H105.76c-24.02,0-43.48-19.47-43.48-43.48V113.24c0-24.02,19.47-43.48,43.48-43.48h331.17c24.02,0,43.48,19.47,43.48,43.48v192.81" style="fill:none; stroke:#000; stroke-linecap:round; stroke-linejoin:round; stroke-width:15px;"/><path d="m96.34,143.41h177.88v304.76H62.28V177.47c0-18.8,15.26-34.06,34.06-34.06Z" style="opacity:.15;"/><path d="m104.05,329.02v-139.88h94.51l19.22,32.68,87.59-.05v88.25c0,10.49-8.5,18.99-18.99,18.99H104.05Z" style="fill:#fff;"/><line x1="104.05" y1="227.56" x2="174.43" y2="227.56" style="fill:none; stroke:#000; stroke-linecap:round; stroke-linejoin:round; stroke-width:15px;"/><line x1="62.28" y1="143.41" x2="480.41" y2="143.41" style="fill:none; stroke:#000; stroke-miterlimit:10; stroke-width:15px;"/><line x1="347.75" y1="107.8" x2="368.66" y2="107.8" style="fill:none; stroke:#000; stroke-linecap:round; stroke-linejoin:round; stroke-width:15px;"/><line x1="411.8" y1="107.8" x2="432.72" y2="107.8" style="fill:none; stroke:#000; stroke-linecap:round; stroke-linejoin:round; stroke-width:15px;"/><polygon points="522.26 422.14 522.26 350.24 301.34 350.24 301.34 422.14 333.37 422.14 333.37 466.85 301.34 466.85 301.34 538.75 522.26 538.75 522.26 466.85 490.24 466.85 490.24 422.14 522.26 422.14" style="fill:#fff;"/><line x1="451.31" y1="386.19" x2="472.23" y2="386.19" style="fill:none; stroke:#000; stroke-linecap:round; stroke-linejoin:round; stroke-width:15px;"/><rect x="301.34" y="350.24" width="220.92" height="71.9" style="fill:none; stroke:#000; stroke-linecap:round; stroke-linejoin:round; stroke-width:15px;"/><line x1="451.31" y1="502.8" x2="472.23" y2="502.8" style="fill:none; stroke:#000; stroke-linecap:round; stroke-linejoin:round; stroke-width:15px;"/><rect x="301.34" y="466.85" width="220.92" height="71.9" style="fill:none; stroke:#000; stroke-linecap:round; stroke-linejoin:round; stroke-width:15px;"/><rect x="333.37" y="422.14" width="156.87" height="44.72" style="fill:none; stroke:#000; stroke-linecap:round; stroke-linejoin:round; stroke-width:15px;"/><rect x="333.37" y="422.14" width="156.87" height="44.72" style="opacity:.15;"/><polyline points="256.68 329.02 104.05 329.02 104.05 189.15 198.56 189.15 217.78 221.83 305.37 221.78 305.37 300.07" style="fill:none; stroke:#000; stroke-linecap:round; stroke-linejoin:round; stroke-width:15px;"/></g></g><g id="highlights"><g><line x1="457.83" y1="193.68" x2="457.83" y2="201.99" style="fill:none; stroke:#fff; stroke-linecap:round; stroke-linejoin:round; stroke-width:5px;"/><path d="m433.54,165.87l19.66-.22c2.51-.03,4.55,2.01,4.51,4.52l-.18,9.96" style="fill:none; stroke:#fff; stroke-linecap:round; stroke-linejoin:round; stroke-width:5px;"/><line x1="457.83" y1="215.27" x2="457.83" y2="216.65" style="fill:none; stroke:#fff; stroke-linecap:round; stroke-linejoin:round; stroke-width:5px;"/></g></g></svg>