<?xml version="1.0" encoding="UTF-8"?><svg xmlns="http://www.w3.org/2000/svg" xmlns:xlink="http://www.w3.org/1999/xlink" viewBox="0 0 600 600"><defs><linearGradient id="Unbenannter_Verlauf_21" x1="175.62" y1="254.74" x2="427.96" y2="507.08" gradientUnits="userSpaceOnUse"><stop offset="0" stop-color="#974619"/><stop offset=".08" stop-color="#b26f49"/><stop offset=".18" stop-color="#d7a58a"/><stop offset=".26" stop-color="#efc7b2"/><stop offset=".3" stop-color="#f8d5c2"/><stop offset=".34" stop-color="#e9c3b0"/><stop offset=".47" stop-color="#b98a74"/><stop offset=".57" stop-color="#966049"/><stop offset=".66" stop-color="#81462e"/><stop offset=".71" stop-color="#793d25"/><stop offset="1" stop-color="#6d3119"/></linearGradient><linearGradient id="Unbenannter_Verlauf_21-2" x1="188.35" y1="32.2" x2="417.79" y2="261.64" xlink:href="#Unbenannter_Verlauf_21"/><linearGradient id="Unbenannter_Verlauf_18" x1="175.62" y1="254.74" x2="427.96" y2="507.08" gradientUnits="userSpaceOnUse"><stop offset="0" stop-color="#9a9b9f"/><stop offset=".31" stop-color="#fefefe"/><stop offset=".38" stop-color="#e0e0e1"/><stop offset=".47" stop-color="#c1c1c3"/><stop offset=".54" stop-color="#adaeb0"/><stop offset=".6" stop-color="#a7a8aa"/><stop offset=".72" stop-color="#abacae"/><stop offset=".86" stop-color="#b8b9bb"/><stop offset="1" stop-color="#cdced0"/></linearGradient><linearGradient id="Unbenannter_Verlauf_18-2" x1="188.35" y1="32.2" x2="417.79" y2="261.64" xlink:href="#Unbenannter_Verlauf_18"/><linearGradient id="Neues_Verlaufsfeld_1" x1="175.62" y1="254.74" x2="427.96" y2="507.08" gradientUnits="userSpaceOnUse"><stop offset="0" stop-color="#a36d0a"/><stop offset=".31" stop-color="#f8fb9f"/><stop offset=".6" stop-color="#cf9618"/><stop offset="1" stop-color="#a16705"/></linearGradient><linearGradient id="Neues_Verlaufsfeld_1-2" x1="188.35" y1="32.2" x2="417.79" y2="261.64" xlink:href="#Neues_Verlaufsfeld_1"/><linearGradient id="Unbenannter_Verlauf_24" x1="175.62" y1="254.74" x2="427.96" y2="507.08" gradientUnits="userSpaceOnUse"><stop offset="0" stop-color="#1d7abf"/><stop offset=".31" stop-color="#4ee9f9"/><stop offset=".6" stop-color="#2085c7"/><stop offset="1" stop-color="#2a3b92"/></linearGradient><linearGradient id="Unbenannter_Verlauf_24-2" x1="188.35" y1="32.2" x2="417.79" y2="261.64" xlink:href="#Unbenannter_Verlauf_24"/></defs><g id="lvl-1"><path d="m513.46,348.98h-22.92v-10.82c0-10.19-8.26-18.45-18.45-18.45H131.5c-10.19,0-18.45,8.26-18.45,18.45v10.82h-22.92c-11.65,0-21.1,9.45-21.1,21.1v21.67c0,11.65,9.45,21.1,21.1,21.1h22.92v10.82c0,10.19,8.26,18.45,18.45,18.45h340.58c10.19,0,18.45-8.26,18.45-18.45v-10.82h22.92c11.65,0,21.1-9.45,21.1-21.1v-21.67c0-11.65-9.45-21.1-21.1-21.1Z" style="fill:url(#Unbenannter_Verlauf_21);"/><path d="m303.28,69.35l-229.31,77.24,116,46.4v64.05c0,14.7,50.64,26.61,113.1,26.61s113.1-11.91,113.1-26.61v-63.78l116-46-228.89-77.91Z" style="fill:url(#Unbenannter_Verlauf_21-2);"/></g><g id="lvl-2"><path d="m513.46,348.98h-22.92v-10.82c0-10.19-8.26-18.45-18.45-18.45H131.5c-10.19,0-18.45,8.26-18.45,18.45v10.82h-22.92c-11.65,0-21.1,9.45-21.1,21.1v21.67c0,11.65,9.45,21.1,21.1,21.1h22.92v10.82c0,10.19,8.26,18.45,18.45,18.45h340.58c10.19,0,18.45-8.26,18.45-18.45v-10.82h22.92c11.65,0,21.1-9.45,21.1-21.1v-21.67c0-11.65-9.45-21.1-21.1-21.1Z" style="fill:url(#Unbenannter_Verlauf_18);"/><path d="m303.28,69.35l-229.31,77.24,116,46.4v64.05c0,14.7,50.64,26.61,113.1,26.61s113.1-11.91,113.1-26.61v-63.78l116-46-228.89-77.91Z" style="fill:url(#Unbenannter_Verlauf_18-2);"/></g><g id="lvl-3"><path d="m513.46,348.98h-22.92v-10.82c0-10.19-8.26-18.45-18.45-18.45H131.5c-10.19,0-18.45,8.26-18.45,18.45v10.82h-22.92c-11.65,0-21.1,9.45-21.1,21.1v21.67c0,11.65,9.45,21.1,21.1,21.1h22.92v10.82c0,10.19,8.26,18.45,18.45,18.45h340.58c10.19,0,18.45-8.26,18.45-18.45v-10.82h22.92c11.65,0,21.1-9.45,21.1-21.1v-21.67c0-11.65-9.45-21.1-21.1-21.1Z" style="fill:url(#Neues_Verlaufsfeld_1);"/><path d="m303.28,69.35l-229.31,77.24,116,46.4v64.05c0,14.7,50.64,26.61,113.1,26.61s113.1-11.91,113.1-26.61v-63.78l116-46-228.89-77.91Z" style="fill:url(#Neues_Verlaufsfeld_1-2);"/></g><g id="lvl-max"><path d="m513.46,348.98h-22.92v-10.82c0-10.19-8.26-18.45-18.45-18.45H131.5c-10.19,0-18.45,8.26-18.45,18.45v10.82h-22.92c-11.65,0-21.1,9.45-21.1,21.1v21.67c0,11.65,9.45,21.1,21.1,21.1h22.92v10.82c0,10.19,8.26,18.45,18.45,18.45h340.58c10.19,0,18.45-8.26,18.45-18.45v-10.82h22.92c11.65,0,21.1-9.45,21.1-21.1v-21.67c0-11.65-9.45-21.1-21.1-21.1Z" style="fill:url(#Unbenannter_Verlauf_24);"/><path d="m303.28,69.35l-229.31,77.24,116,46.4v64.05c0,14.7,50.64,26.61,113.1,26.61s113.1-11.91,113.1-26.61v-63.78l116-46-228.89-77.91Z" style="fill:url(#Unbenannter_Verlauf_24-2);"/></g><g id="icons"><g><ellipse cx="303.07" cy="257.04" rx="113.1" ry="26.61" style="fill:none; stroke:#000; stroke-linecap:round; stroke-linejoin:round; stroke-width:15px;"/><path d="m303.07,138.62c-62.46,0-113.1,11.91-113.1,26.61v91.81c0,14.7,50.64,26.61,113.1,26.61s113.1-11.91,113.1-26.61v-91.81c0-14.7-50.64-26.61-113.1-26.61Z" style="fill:none; stroke:#000; stroke-linecap:round; stroke-linejoin:round; stroke-width:15px;"/><path d="m189.97,165.23c2.69-35.01,223.63-34.94,226.2,0,0,0,0,28.03,0,28.03,0,0,116-46,116-46,0,0-228.89-77.91-228.89-77.91s-229.31,77.24-229.31,77.24c0,0,116,46.4,116,46.4,0,0,0-27.76,0-27.76h0Z" style="fill:none; stroke:#000; stroke-linejoin:round; stroke-width:15px;"/><ellipse cx="303.07" cy="257.04" rx="113.1" ry="26.61" style="opacity:.15;"/><g style="opacity:.15;"><path d="m189.97,165.23c0-14.7,50.64-26.61,113.1-26.61s113.1,11.91,113.1,26.61v28.03l116-46-228.89-77.91-229.31,77.24,116,46.4v-27.76Z"/></g><line x1="471.24" y1="131.3" x2="471.24" y2="216.46" style="fill:none; stroke:#000; stroke-linecap:round; stroke-linejoin:round; stroke-width:15px;"/><path d="m451.95,216.46h24.18c7.95,0,14.41,6.46,14.41,14.41v20.42c0,7.95-6.46,14.41-14.41,14.41h-24.18v-49.23h0Z" style="fill:none; stroke:#000; stroke-linecap:round; stroke-linejoin:round; stroke-width:15px;"/><rect x="113.05" y="319.71" width="377.48" height="122.42" rx="16.42" ry="16.42" style="fill:none; stroke:#000; stroke-linecap:round; stroke-linejoin:round; stroke-width:15px;"/><path d="m113.05,380.91v42.76c0,10.19,8.26,18.45,18.45,18.45h340.58c10.19,0,18.45-8.26,18.45-18.45v-42.76H113.05Z" style="opacity:.15;"/><path d="m490.54,348.98h44.02v45.09c0,10.36-8.41,18.78-18.78,18.78h-6.47c-10.36,0-18.78-8.41-18.78-18.78v-45.09h0Z" style="fill:none; stroke:#000; stroke-linecap:round; stroke-linejoin:round; stroke-width:15px;"/><path d="m69.03,348.98h44.02v45.09c0,10.36-8.41,18.78-18.78,18.78h-6.47c-10.36,0-18.78-8.41-18.78-18.78v-45.09h0Z" style="fill:none; stroke:#000; stroke-linecap:round; stroke-linejoin:round; stroke-width:15px;"/><path d="m69.03,348.98h44.02v45.09c0,10.36-8.41,18.78-18.78,18.78h-6.47c-10.36,0-18.78-8.41-18.78-18.78v-45.09h0Z" style="opacity:.15;"/><rect x="273.19" y="319.71" width="57.22" height="122.42" style="fill:#fff; stroke:#000; stroke-linecap:round; stroke-linejoin:round; stroke-width:15px;"/><g><circle cx="303.27" cy="435.11" r="67.41" style="fill:#fff; stroke:#000; stroke-linecap:round; stroke-linejoin:round; stroke-width:15px;"/><polygon points="303.27 405.9 309.67 425.32 330.4 425.32 313.63 437.32 320.04 456.73 303.27 444.73 286.5 456.73 292.9 437.32 276.13 425.32 296.86 425.32 303.27 405.9" style="fill:none; stroke:#000; stroke-linecap:round; stroke-linejoin:round; stroke-width:15px;"/><polyline points="245.32 469.56 202.51 521.69 242.82 522.38 255.88 559.21 292.62 502.53" style="fill:none; stroke:#000; stroke-linecap:round; stroke-linejoin:round; stroke-width:15px;"/><polyline points="362.39 469.56 404.97 521.69 366.54 522.38 354.09 559.21 317.3 502.53" style="fill:none; stroke:#000; stroke-linecap:round; stroke-linejoin:round; stroke-width:15px;"/><polyline points="245.32 469.56 202.51 521.69 242.82 522.38 255.88 559.21 292.62 502.53" style="opacity:.15;"/><polyline points="362.39 469.56 404.97 521.69 366.54 522.38 354.09 559.21 317.3 502.53" style="opacity:.15;"/></g></g></g><g id="highlights"><path d="m452.79,341.62c4.9-.59,11.06-.56,13.31,3.82.86,1.66.9,3.61.92,5.48.12,8.81.24,17.61.35,26.42" style="fill:none; stroke:#fff; stroke-linecap:round; stroke-linejoin:round; stroke-width:5px;"/><path d="m466.35,387.09v7.94" style="fill:none; stroke:#fff; stroke-linecap:round; stroke-linejoin:round; stroke-width:5px;"/><path d="m398.91,172.26c-.39,4.21-.34,8.46.13,12.66" style="fill:none; stroke:#fff; stroke-linecap:round; stroke-linejoin:round; stroke-width:5px;"/><path d="m398.88,197.53l.36,5.78" style="fill:none; stroke:#fff; stroke-linecap:round; stroke-linejoin:round; stroke-width:5px;"/></g></svg>