<?xml version="1.0" encoding="UTF-8"?><svg xmlns="http://www.w3.org/2000/svg" viewBox="0 0 600 600"><g id="color"><g><polygon points="516.37 250.67 527.27 284.87 562.54 284.87 534.01 306 544.91 340.2 516.37 319.07 487.84 340.2 498.74 306 470.2 284.87 505.47 284.87 516.37 250.67" style="fill:#f2ab38;"/><circle cx="306.59" cy="88.43" r="39.29" style="fill:#f2ab38;"/><polygon points="91.39 266.33 47.86 340.45 134.92 340.45 91.39 266.33" style="fill:#f2ab38;"/><rect x="270.48" y="473.84" width="65.99" height="65.99" style="fill:#f2ab38;"/></g><circle cx="303.47" cy="301.47" r="102.9" style="fill:#f2ab38;"/></g><g id="Ebene_2"><g><path d="M106.89,224.06c20.06-52.21,60.2-94.47,110.96-117.31" style="fill:none; stroke:#000; stroke-linecap:round; stroke-linejoin:round; stroke-width:15px;"/><path d="M225.44,496.5c-53.6-21.63-96.32-64.56-117.68-118.29" style="fill:none; stroke:#000; stroke-linecap:round; stroke-linejoin:round; stroke-width:15px;"/><path d="M388.27,105.32c48.81,20.99,88.15,59.8,109.83,108.24" style="fill:none; stroke:#000; stroke-linecap:round; stroke-linejoin:round; stroke-width:15px;"/><path d="M499.45,383.38c-21.54,50.25-61.95,90.49-112.32,111.79" style="fill:none; stroke:#000; stroke-linecap:round; stroke-linejoin:round; stroke-width:15px;"/><g><circle cx="304.68" cy="301.34" r="102.03" style="fill:none; stroke:#000; stroke-linecap:round; stroke-linejoin:round; stroke-width:15px;"/><g style="opacity:.15;"><path d="M305.2,199.31c-.18,0-.35,0-.53,0-56.35,0-102.03,45.68-102.03,102.03s45.68,102.03,102.03,102.03c.18,0,.35,0,.53,0V199.31Z"/></g><circle cx="304.68" cy="276.99" r="31.21" style="fill:#fff; stroke:#000; stroke-linecap:round; stroke-linejoin:round; stroke-width:15px;"/><path d="M304.68,308.4c-31.57,0-57.17,25.6-57.17,57.17,0,8.37,1.81,16.31,5.05,23.48,15.26,9.09,33.08,14.32,52.12,14.32s36.87-5.23,52.12-14.32c3.23-7.16,5.05-15.11,5.05-23.48,0-31.57-25.6-57.17-57.17-57.17Z" style="fill:#fff; stroke:#000; stroke-linecap:round; stroke-linejoin:round; stroke-width:15px;"/></g><polygon points="516.31 256.49 526.9 289.73 561.19 289.73 533.45 310.27 544.05 343.52 516.31 322.97 488.57 343.52 499.16 310.27 471.42 289.73 505.71 289.73 516.31 256.49" style="fill:none; stroke:#000; stroke-linecap:round; stroke-linejoin:round; stroke-width:15px;"/><g style="opacity:.15;"><polygon points="516.31 322.97 516.31 256.49 505.71 289.73 471.42 289.73 499.16 310.27 488.57 343.52 516.31 322.97"/></g><circle cx="304.68" cy="88.02" r="38.19" style="fill:none; stroke:#000; stroke-linecap:round; stroke-linejoin:round; stroke-width:15px;"/><polygon points="91.53 263.97 49.22 336.03 133.84 336.03 91.53 263.97" style="fill:none; stroke:#000; stroke-linecap:round; stroke-linejoin:round; stroke-width:15px;"/><rect x="272.61" y="479.5" width="64.14" height="64.14" style="fill:none; stroke:#000; stroke-linecap:round; stroke-linejoin:round; stroke-width:15px;"/><g style="opacity:.15;"><rect x="272.61" y="479.5" width="32.6" height="64.14"/></g><g style="opacity:.15;"><polygon points="91.66 264.2 91.53 263.97 49.22 336.03 91.66 336.03 91.66 264.2"/></g><g style="opacity:.15;"><path d="M305.2,49.85c-.18,0-.35-.01-.53-.01-21.09,0-38.19,17.1-38.19,38.19s17.1,38.19,38.19,38.19c.18,0,.35-.01,.53-.01V49.85Z"/></g></g></g><g id="Ebene_4"><path d="M345,232.52c9.48,3.29,17.56,9.96,23.63,17.95s10.28,17.26,13.53,26.75" style="fill:none; stroke:#fff; stroke-linecap:round; stroke-linejoin:round; stroke-width:5px;"/><path d="M317.06,66.44l5.65,4.84" style="fill:none; stroke:#fff; stroke-linecap:round; stroke-linejoin:round; stroke-width:5px;"/><path d="M328.49,80l.77,2.13" style="fill:none; stroke:#fff; stroke-linecap:round; stroke-linejoin:round; stroke-width:5px;"/><path d="M316.17,494.3c3.51,2,6.06,5.62,6.74,9.61" style="fill:none; stroke:#fff; stroke-linecap:round; stroke-linejoin:round; stroke-width:5px;"/><path d="M94.32,291.1c.82,2.41,2.03,4.68,3.56,6.71" style="fill:none; stroke:#fff; stroke-linecap:round; stroke-linejoin:round; stroke-width:5px;"/><path d="M332.8,225.99l3.86,1.4" style="fill:none; stroke:#fff; stroke-linecap:round; stroke-linejoin:round; stroke-width:5px;"/></g></svg>