<?xml version="1.0" encoding="UTF-8"?><svg xmlns="http://www.w3.org/2000/svg" xmlns:xlink="http://www.w3.org/1999/xlink" viewBox="0 0 600 600"><defs><linearGradient id="Unbenannter_Verlauf_21" x1="483.86" y1="271.21" x2="548.88" y2="336.23" gradientUnits="userSpaceOnUse"><stop offset="0" stop-color="#974619"/><stop offset=".08" stop-color="#b26f49"/><stop offset=".18" stop-color="#d7a58a"/><stop offset=".26" stop-color="#efc7b2"/><stop offset=".3" stop-color="#f8d5c2"/><stop offset=".34" stop-color="#e9c3b0"/><stop offset=".47" stop-color="#b98a74"/><stop offset=".57" stop-color="#966049"/><stop offset=".66" stop-color="#81462e"/><stop offset=".71" stop-color="#793d25"/><stop offset="1" stop-color="#6d3119"/></linearGradient><linearGradient id="Unbenannter_Verlauf_21-2" x1="278.81" y1="60.65" x2="334.36" y2="116.21" xlink:href="#Unbenannter_Verlauf_21"/><linearGradient id="Unbenannter_Verlauf_21-3" x1="61.98" y1="295.74" x2="120.8" y2="354.57" xlink:href="#Unbenannter_Verlauf_21"/><linearGradient id="Unbenannter_Verlauf_21-4" x1="270.48" y1="473.84" x2="336.46" y2="539.83" xlink:href="#Unbenannter_Verlauf_21"/><linearGradient id="Unbenannter_Verlauf_21-5" x1="230.71" y1="228.71" x2="376.23" y2="374.23" xlink:href="#Unbenannter_Verlauf_21"/><linearGradient id="Unbenannter_Verlauf_18" x1="483.86" y1="271.21" x2="548.88" y2="336.23" gradientUnits="userSpaceOnUse"><stop offset="0" stop-color="#9a9b9f"/><stop offset=".31" stop-color="#fefefe"/><stop offset=".38" stop-color="#e0e0e1"/><stop offset=".47" stop-color="#c1c1c3"/><stop offset=".54" stop-color="#adaeb0"/><stop offset=".6" stop-color="#a7a8aa"/><stop offset=".72" stop-color="#abacae"/><stop offset=".86" stop-color="#b8b9bb"/><stop offset="1" stop-color="#cdced0"/></linearGradient><linearGradient id="Unbenannter_Verlauf_18-2" x1="278.81" y1="60.65" x2="334.36" y2="116.21" xlink:href="#Unbenannter_Verlauf_18"/><linearGradient id="Unbenannter_Verlauf_18-3" x1="61.98" y1="295.74" x2="120.8" y2="354.57" xlink:href="#Unbenannter_Verlauf_18"/><linearGradient id="Unbenannter_Verlauf_18-4" x1="270.48" y1="473.84" x2="336.46" y2="539.83" xlink:href="#Unbenannter_Verlauf_18"/><linearGradient id="Unbenannter_Verlauf_18-5" x1="230.71" y1="228.71" x2="376.23" y2="374.23" xlink:href="#Unbenannter_Verlauf_18"/><linearGradient id="Neues_Verlaufsfeld_1" x1="483.86" y1="271.21" x2="548.88" y2="336.23" gradientUnits="userSpaceOnUse"><stop offset="0" stop-color="#a36d0a"/><stop offset=".31" stop-color="#f8fb9f"/><stop offset=".6" stop-color="#cf9618"/><stop offset="1" stop-color="#a16705"/></linearGradient><linearGradient id="Neues_Verlaufsfeld_1-2" x1="278.81" y1="60.65" x2="334.36" y2="116.21" xlink:href="#Neues_Verlaufsfeld_1"/><linearGradient id="Neues_Verlaufsfeld_1-3" x1="61.98" y1="295.74" x2="120.8" y2="354.57" xlink:href="#Neues_Verlaufsfeld_1"/><linearGradient id="Neues_Verlaufsfeld_1-4" x1="270.48" y1="473.84" x2="336.46" y2="539.83" xlink:href="#Neues_Verlaufsfeld_1"/><linearGradient id="Neues_Verlaufsfeld_1-5" x1="230.71" y1="228.71" x2="376.23" y2="374.23" xlink:href="#Neues_Verlaufsfeld_1"/><linearGradient id="Unbenannter_Verlauf_24" x1="483.86" y1="271.21" x2="548.88" y2="336.23" gradientUnits="userSpaceOnUse"><stop offset="0" stop-color="#1d7abf"/><stop offset=".31" stop-color="#4ee9f9"/><stop offset=".6" stop-color="#2085c7"/><stop offset="1" stop-color="#2a3b92"/></linearGradient><linearGradient id="Unbenannter_Verlauf_24-2" x1="278.81" y1="60.65" x2="334.36" y2="116.21" xlink:href="#Unbenannter_Verlauf_24"/><linearGradient id="Unbenannter_Verlauf_24-3" x1="61.98" y1="295.74" x2="120.8" y2="354.57" xlink:href="#Unbenannter_Verlauf_24"/><linearGradient id="Unbenannter_Verlauf_24-4" x1="270.48" y1="473.84" x2="336.46" y2="539.83" xlink:href="#Unbenannter_Verlauf_24"/><linearGradient id="Unbenannter_Verlauf_24-5" x1="230.71" y1="228.71" x2="376.23" y2="374.23" xlink:href="#Unbenannter_Verlauf_24"/></defs><g id="lvl-1"><g><polygon points="516.37 250.67 527.27 284.87 562.54 284.87 534.01 306 544.91 340.2 516.37 319.07 487.84 340.2 498.74 306 470.2 284.87 505.47 284.87 516.37 250.67" style="fill:url(#Unbenannter_Verlauf_21);"/><circle cx="306.59" cy="88.43" r="39.29" style="fill:url(#Unbenannter_Verlauf_21-2);"/><polygon points="91.39 266.33 47.86 340.45 134.92 340.45 91.39 266.33" style="fill:url(#Unbenannter_Verlauf_21-3);"/><rect x="270.48" y="473.84" width="65.99" height="65.99" style="fill:url(#Unbenannter_Verlauf_21-4);"/></g><circle cx="303.47" cy="301.47" r="102.9" style="fill:url(#Unbenannter_Verlauf_21-5);"/></g><g id="lvl-2"><g><polygon points="516.37 250.67 527.27 284.87 562.54 284.87 534.01 306 544.91 340.2 516.37 319.07 487.84 340.2 498.74 306 470.2 284.87 505.47 284.87 516.37 250.67" style="fill:url(#Unbenannter_Verlauf_18);"/><circle cx="306.59" cy="88.43" r="39.29" style="fill:url(#Unbenannter_Verlauf_18-2);"/><polygon points="91.39 266.33 47.86 340.45 134.92 340.45 91.39 266.33" style="fill:url(#Unbenannter_Verlauf_18-3);"/><rect x="270.48" y="473.84" width="65.99" height="65.99" style="fill:url(#Unbenannter_Verlauf_18-4);"/></g><circle cx="303.47" cy="301.47" r="102.9" style="fill:url(#Unbenannter_Verlauf_18-5);"/></g><g id="lvl-3"><g><polygon points="516.37 250.67 527.27 284.87 562.54 284.87 534.01 306 544.91 340.2 516.37 319.07 487.84 340.2 498.74 306 470.2 284.87 505.47 284.87 516.37 250.67" style="fill:url(#Neues_Verlaufsfeld_1);"/><circle cx="306.59" cy="88.43" r="39.29" style="fill:url(#Neues_Verlaufsfeld_1-2);"/><polygon points="91.39 266.33 47.86 340.45 134.92 340.45 91.39 266.33" style="fill:url(#Neues_Verlaufsfeld_1-3);"/><rect x="270.48" y="473.84" width="65.99" height="65.99" style="fill:url(#Neues_Verlaufsfeld_1-4);"/></g><circle cx="303.47" cy="301.47" r="102.9" style="fill:url(#Neues_Verlaufsfeld_1-5);"/></g><g id="lvl-max"><g><polygon points="516.37 250.67 527.27 284.87 562.54 284.87 534.01 306 544.91 340.2 516.37 319.07 487.84 340.2 498.74 306 470.2 284.87 505.47 284.87 516.37 250.67" style="fill:url(#Unbenannter_Verlauf_24);"/><circle cx="306.59" cy="88.43" r="39.29" style="fill:url(#Unbenannter_Verlauf_24-2);"/><polygon points="91.39 266.33 47.86 340.45 134.92 340.45 91.39 266.33" style="fill:url(#Unbenannter_Verlauf_24-3);"/><rect x="270.48" y="473.84" width="65.99" height="65.99" style="fill:url(#Unbenannter_Verlauf_24-4);"/></g><circle cx="303.47" cy="301.47" r="102.9" style="fill:url(#Unbenannter_Verlauf_24-5);"/></g><g id="icons"><g><path d="m106.89,224.06c20.06-52.21,60.2-94.47,110.96-117.31" style="fill:none; stroke:#000; stroke-linecap:round; stroke-linejoin:round; stroke-width:15px;"/><path d="m225.44,496.5c-53.6-21.63-96.32-64.56-117.68-118.29" style="fill:none; stroke:#000; stroke-linecap:round; stroke-linejoin:round; stroke-width:15px;"/><path d="m388.27,105.32c48.81,20.99,88.15,59.8,109.83,108.24" style="fill:none; stroke:#000; stroke-linecap:round; stroke-linejoin:round; stroke-width:15px;"/><path d="m499.45,383.38c-21.54,50.25-61.95,90.49-112.32,111.79" style="fill:none; stroke:#000; stroke-linecap:round; stroke-linejoin:round; stroke-width:15px;"/><g><circle cx="304.68" cy="301.34" r="102.03" style="fill:none; stroke:#000; stroke-linecap:round; stroke-linejoin:round; stroke-width:15px;"/><g style="opacity:.15;"><path d="m305.2,199.31c-.18,0-.35,0-.53,0-56.35,0-102.03,45.68-102.03,102.03s45.68,102.03,102.03,102.03c.18,0,.35,0,.53,0v-204.05Z"/></g><circle cx="304.68" cy="276.99" r="31.21" style="fill:#fff; stroke:#000; stroke-linecap:round; stroke-linejoin:round; stroke-width:15px;"/><path d="m304.68,308.4c-31.57,0-57.17,25.6-57.17,57.17,0,8.37,1.81,16.31,5.05,23.48,15.26,9.09,33.08,14.32,52.12,14.32s36.87-5.23,52.12-14.32c3.23-7.16,5.05-15.11,5.05-23.48,0-31.57-25.6-57.17-57.17-57.17Z" style="fill:#fff; stroke:#000; stroke-linecap:round; stroke-linejoin:round; stroke-width:15px;"/></g><polygon points="516.31 256.49 526.9 289.73 561.19 289.73 533.45 310.27 544.05 343.52 516.31 322.97 488.57 343.52 499.16 310.27 471.42 289.73 505.71 289.73 516.31 256.49" style="fill:none; stroke:#000; stroke-linecap:round; stroke-linejoin:round; stroke-width:15px;"/><g style="opacity:.15;"><polygon points="516.31 322.97 516.31 256.49 505.71 289.73 471.42 289.73 499.16 310.27 488.57 343.52 516.31 322.97"/></g><circle cx="304.68" cy="88.02" r="38.19" style="fill:none; stroke:#000; stroke-linecap:round; stroke-linejoin:round; stroke-width:15px;"/><polygon points="91.53 263.97 49.22 336.03 133.84 336.03 91.53 263.97" style="fill:none; stroke:#000; stroke-linecap:round; stroke-linejoin:round; stroke-width:15px;"/><rect x="272.61" y="479.5" width="64.14" height="64.14" style="fill:none; stroke:#000; stroke-linecap:round; stroke-linejoin:round; stroke-width:15px;"/><g style="opacity:.15;"><rect x="272.61" y="479.5" width="32.6" height="64.14"/></g><g style="opacity:.15;"><polygon points="91.66 264.2 91.53 263.97 49.22 336.03 91.66 336.03 91.66 264.2"/></g><g style="opacity:.15;"><path d="m305.2,49.85c-.18,0-.35-.01-.53-.01-21.09,0-38.19,17.1-38.19,38.19s17.1,38.19,38.19,38.19c.18,0,.35-.01.53-.01V49.85Z"/></g></g></g><g id="highlights"><path d="m345,232.52c9.48,3.29,17.56,9.96,23.63,17.95s10.28,17.26,13.53,26.75" style="fill:none; stroke:#fff; stroke-linecap:round; stroke-linejoin:round; stroke-width:5px;"/><path d="m317.06,66.44l5.65,4.84" style="fill:none; stroke:#fff; stroke-linecap:round; stroke-linejoin:round; stroke-width:5px;"/><path d="m328.49,80l.77,2.13" style="fill:none; stroke:#fff; stroke-linecap:round; stroke-linejoin:round; stroke-width:5px;"/><path d="m316.17,494.3c3.51,2,6.06,5.62,6.74,9.61" style="fill:none; stroke:#fff; stroke-linecap:round; stroke-linejoin:round; stroke-width:5px;"/><path d="m94.32,291.1c.82,2.41,2.03,4.68,3.56,6.71" style="fill:none; stroke:#fff; stroke-linecap:round; stroke-linejoin:round; stroke-width:5px;"/><path d="m332.8,225.99l3.86,1.4" style="fill:none; stroke:#fff; stroke-linecap:round; stroke-linejoin:round; stroke-width:5px;"/></g></svg>