<?xml version="1.0" encoding="UTF-8"?><svg xmlns="http://www.w3.org/2000/svg" xmlns:xlink="http://www.w3.org/1999/xlink" viewBox="0 0 600 600"><defs><linearGradient id="Unbenannter_Verlauf_21" x1="111.4" y1="176.4" x2="477.93" y2="542.93" gradientUnits="userSpaceOnUse"><stop offset="0" stop-color="#974619"/><stop offset=".08" stop-color="#b26f49"/><stop offset=".18" stop-color="#d7a58a"/><stop offset=".26" stop-color="#efc7b2"/><stop offset=".3" stop-color="#f8d5c2"/><stop offset=".34" stop-color="#e9c3b0"/><stop offset=".47" stop-color="#b98a74"/><stop offset=".57" stop-color="#966049"/><stop offset=".66" stop-color="#81462e"/><stop offset=".71" stop-color="#793d25"/><stop offset="1" stop-color="#6d3119"/></linearGradient><linearGradient id="Unbenannter_Verlauf_18" x1="111.4" y1="176.4" x2="477.93" y2="542.93" gradientUnits="userSpaceOnUse"><stop offset="0" stop-color="#9a9b9f"/><stop offset=".31" stop-color="#fefefe"/><stop offset=".38" stop-color="#e0e0e1"/><stop offset=".47" stop-color="#c1c1c3"/><stop offset=".54" stop-color="#adaeb0"/><stop offset=".6" stop-color="#a7a8aa"/><stop offset=".72" stop-color="#abacae"/><stop offset=".86" stop-color="#b8b9bb"/><stop offset="1" stop-color="#cdced0"/></linearGradient><linearGradient id="Neues_Verlaufsfeld_1" x1="111.4" y1="176.4" x2="477.93" y2="542.93" gradientUnits="userSpaceOnUse"><stop offset="0" stop-color="#a36d0a"/><stop offset=".31" stop-color="#f8fb9f"/><stop offset=".6" stop-color="#cf9618"/><stop offset="1" stop-color="#a16705"/></linearGradient><linearGradient id="Unbenannter_Verlauf_24" x1="111.4" y1="176.4" x2="477.93" y2="542.93" gradientUnits="userSpaceOnUse"><stop offset="0" stop-color="#1d7abf"/><stop offset=".31" stop-color="#4ee9f9"/><stop offset=".6" stop-color="#2085c7"/><stop offset="1" stop-color="#2a3b92"/></linearGradient></defs><g id="lvl-1"><path d="m84.61,203.19h434.9v277.23c0,27.87-22.63,50.5-50.5,50.5H84.61V203.19h0Z" style="fill:url(#Unbenannter_Verlauf_21);"/></g><g id="lvl-2"><path d="m84.61,203.19h434.9v277.23c0,27.87-22.63,50.5-50.5,50.5H84.61V203.19h0Z" style="fill:url(#Unbenannter_Verlauf_18);"/></g><g id="lvl-3"><path d="m84.61,203.19h434.9v277.23c0,27.87-22.63,50.5-50.5,50.5H84.61V203.19h0Z" style="fill:url(#Neues_Verlaufsfeld_1);"/></g><g id="lvl-max"><path d="m84.61,203.19h434.9v277.23c0,27.87-22.63,50.5-50.5,50.5H84.61V203.19h0Z" style="fill:url(#Unbenannter_Verlauf_24);"/></g><g id="icons"><g><path d="m474.29,113.57h48.77v348.28c0,34.76-28.18,62.94-62.94,62.94H76.94V113.57h93.67" style="fill:none; stroke:#000; stroke-linecap:round; stroke-linejoin:round; stroke-width:15px;"/><line x1="344.36" y1="113.57" x2="430.55" y2="113.57" style="fill:none; stroke:#000; stroke-linecap:round; stroke-linejoin:round; stroke-width:15px;"/><line x1="219.58" y1="113.57" x2="296.81" y2="113.57" style="fill:none; stroke:#000; stroke-linecap:round; stroke-linejoin:round; stroke-width:15px;"/><line x1="170.62" y1="70.23" x2="170.62" y2="159.21" style="fill:none; stroke:#000; stroke-linecap:round; stroke-linejoin:round; stroke-width:15px;"/><line x1="298.68" y1="69.08" x2="298.68" y2="158.06" style="fill:none; stroke:#000; stroke-linecap:round; stroke-linejoin:round; stroke-width:15px;"/><line x1="430.77" y1="69.08" x2="430.77" y2="158.06" style="fill:none; stroke:#000; stroke-linecap:round; stroke-linejoin:round; stroke-width:15px;"/><line x1="76.94" y1="203.6" x2="523.06" y2="202.83" style="fill:none; stroke:#000; stroke-linecap:round; stroke-linejoin:round; stroke-width:15px;"/><rect x="76.94" y="203.2" width="225.12" height="321.59" style="opacity:.15;"/><rect x="76.94" y="114.22" width="446.11" height="88.6" style="opacity:.15;"/><rect x="143.44" y="379.21" width="73.52" height="73.52" style="fill:#fff; stroke:#000; stroke-linecap:round; stroke-linejoin:round; stroke-width:15px;"/><rect x="143.44" y="263.32" width="73.52" height="73.52" style="fill:#fff; stroke:#000; stroke-linecap:round; stroke-linejoin:round; stroke-width:15px;"/><path d="m270.31,263.32v189.41h189.41v-189.41h-189.41Zm136.59,152.65l-38.25-27.36-38.25,27.36,14.61-44.27-38.25-27.36h47.28l14.61-44.27,14.61,44.27h47.28l-38.25,27.36,14.61,44.27Z" style="fill:#fff; stroke:#000; stroke-linecap:round; stroke-linejoin:round; stroke-width:15px;"/></g></g><g id="highlights"><g><line x1="499.85" y1="254.44" x2="499.85" y2="262.36" style="fill:none; stroke:#fff; stroke-linecap:round; stroke-linejoin:round; stroke-width:5px;"/><path d="m476.69,227.93l18.74-.21c2.39-.03,4.33,1.92,4.3,4.31l-.17,9.5" style="fill:none; stroke:#fff; stroke-linecap:round; stroke-linejoin:round; stroke-width:5px;"/><line x1="499.85" y1="275.02" x2="499.85" y2="276.34" style="fill:none; stroke:#fff; stroke-linecap:round; stroke-linejoin:round; stroke-width:5px;"/></g></g></svg>