<?xml version="1.0" encoding="UTF-8"?><svg xmlns="http://www.w3.org/2000/svg" viewBox="0 0 600 600"><g id="color"><path d="M133.39,200.11H482.39v212.5c0,27.87-22.63,50.5-50.5,50.5H133.39V200.11h0Z" style="fill:#f2ab38;"/></g><g id="Ebene_2"><g><path d="M446.1,128.19h39.14V407.67c0,27.9-22.62,50.51-50.51,50.51H127.23V128.19h75.17" style="fill:none; stroke:#000; stroke-linecap:round; stroke-linejoin:round; stroke-width:15px;"/><line x1="341.83" y1="128.19" x2="411" y2="128.19" style="fill:none; stroke:#000; stroke-linecap:round; stroke-linejoin:round; stroke-width:15px;"/><line x1="241.7" y1="128.19" x2="303.67" y2="128.19" style="fill:none; stroke:#000; stroke-linecap:round; stroke-linejoin:round; stroke-width:15px;"/><line x1="202.41" y1="93.41" x2="202.41" y2="164.81" style="fill:none; stroke:#000; stroke-linecap:round; stroke-linejoin:round; stroke-width:15px;"/><line x1="305.17" y1="92.48" x2="305.17" y2="163.89" style="fill:none; stroke:#000; stroke-linecap:round; stroke-linejoin:round; stroke-width:15px;"/><line x1="411.17" y1="92.48" x2="411.17" y2="163.89" style="fill:none; stroke:#000; stroke-linecap:round; stroke-linejoin:round; stroke-width:15px;"/><line x1="127.23" y1="200.43" x2="485.23" y2="199.82" style="fill:none; stroke:#000; stroke-linecap:round; stroke-linejoin:round; stroke-width:15px;"/><rect x="127.23" y="200.12" width="180.65" height="258.07" style="opacity:.15;"/><rect x="127.23" y="128.71" width="358" height="71.1" style="opacity:.15;"/><rect x="180.6" y="341.36" width="59" height="59" style="fill:#fff; stroke:#000; stroke-linecap:round; stroke-linejoin:round; stroke-width:15px;"/><rect x="180.6" y="248.36" width="59" height="59" style="fill:#fff; stroke:#000; stroke-linecap:round; stroke-linejoin:round; stroke-width:15px;"/><path d="M282.41,248.36v152h152V248.36h-152Zm109.61,122.5l-30.7-21.95-30.7,21.95,11.73-35.52-30.7-21.95h37.94l11.73-35.52,11.73,35.52h37.94l-30.7,21.95,11.73,35.52Z" style="fill:#fff; stroke:#000; stroke-linecap:round; stroke-linejoin:round; stroke-width:15px;"/></g></g><g id="Ebene_4"><g><line x1="466.61" y1="241.23" x2="466.61" y2="247.59" style="fill:none; stroke:#fff; stroke-linecap:round; stroke-linejoin:round; stroke-width:5px;"/><path d="M448.03,219.96l15.04-.17c1.92-.02,3.48,1.54,3.45,3.46l-.14,7.62" style="fill:none; stroke:#fff; stroke-linecap:round; stroke-linejoin:round; stroke-width:5px;"/><line x1="466.61" y1="257.75" x2="466.61" y2="258.81" style="fill:none; stroke:#fff; stroke-linecap:round; stroke-linejoin:round; stroke-width:5px;"/></g></g></svg>