<?xml version="1.0" encoding="UTF-8"?><svg xmlns="http://www.w3.org/2000/svg" viewBox="0 0 600 600"><g id="color"><circle cx="433.51" cy="418.44" r="140.22" style="fill:#f2ab38;"/><rect x="183.74" y="109.23" width="333.6" height="66.74" rx="23.19" ry="23.19" transform="translate(27.38 -54.33) rotate(9.22)" style="fill:#f2ab38;"/><path d="M280.41,393c0-75.76,61.42-137.18,137.18-137.18,17.01,0,33.29,3.1,48.32,8.76-.25-12.13-10.14-21.88-22.32-21.88h-89.83c12.34,0,22.35-10.01,22.35-22.35v-19.62c0-12.34-10.01-22.35-22.35-22.35H76.96c-12.34,0-22.35,10.01-22.35,22.35v19.62c0,12.34,10.01,22.35,22.35,22.35h89.83c-12.34,0-22.35,10.01-22.35,22.35v19.62c0,12.34,10.01,22.35,22.35,22.35h-31.54c-12.34,0-22.35,10.01-22.35,22.35v19.62c0,12.34,10.01,22.35,22.35,22.35-12.34,0-22.35,10.01-22.35,22.35v19.62c0,12.34,10.01,22.35,22.35,22.35-12.34,0-22.35,10.01-22.35,22.35v19.62c0,12.34,10.01,22.35,22.35,22.35h196.05c-.52-.52-1.03-1.05-1.54-1.57-30.16-25.16-49.35-63.03-49.35-105.38Z" style="fill:#f2ab38;"/></g><g id="Ebene_2"><rect x="34.15" y="161.69" width="333.6" height="66.74" rx="23.19" ry="23.19" style="fill:none; stroke:#000; stroke-linecap:round; stroke-linejoin:round; stroke-width:19px;"/><rect x="170.8" y="91.57" width="333.6" height="66.74" rx="23.19" ry="23.19" transform="translate(24.38 -52.48) rotate(9.22)" style="fill:none; stroke:#000; stroke-linecap:round; stroke-linejoin:round; stroke-width:19px;"/><circle cx="417.59" cy="397.71" r="137.18" style="fill:none; stroke:#000; stroke-linecap:round; stroke-linejoin:round; stroke-width:19px;"/><path d="M417.59,493.58c52.95,0,95.87-42.92,95.87-95.87s-42.55-95.47-95.17-95.85c-52.66,.38-95.23,43.17-95.23,95.92,0,20.02,6.14,38.6,16.63,53.98l-.66,.86c17.33,24.76,46.05,40.97,78.57,40.97Zm-55.73-105.72c1.53-4.77,5.96-8,10.97-8h32.44l9.99-30.28c1.56-4.72,5.97-7.91,10.94-7.91s9.39,3.19,10.94,7.91l9.99,30.28h32.44c5.01,0,9.44,3.23,10.97,8,1.53,4.77-.19,9.98-4.27,12.89l-26.09,18.67,9.94,30.14c1.56,4.74-.1,9.94-4.12,12.89-2.03,1.49-4.43,2.24-6.83,2.24s-4.7-.72-6.71-2.15l-26.28-18.8-26.28,18.8c-4.05,2.9-9.52,2.87-13.53-.09s-5.68-8.16-4.12-12.89l9.94-30.14-26.09-18.67c-4.07-2.91-5.8-8.12-4.27-12.89Z" style="fill:#fff;"/><circle cx="417.59" cy="397.71" r="95.87" style="fill:none; stroke:#000; stroke-linecap:round; stroke-linejoin:round; stroke-width:19px;"/><polygon points="417.59 344.03 430.5 383.18 472.29 383.18 438.48 407.37 451.4 446.51 417.59 422.32 383.79 446.51 396.7 407.37 362.89 383.18 404.68 383.18 417.59 344.03" style="fill:none; stroke:#000; stroke-linecap:round; stroke-linejoin:round; stroke-width:19px;"/><path d="M283.91,428.64H117.83c-12.81,0-23.19,10.38-23.19,23.19v20.35c0,12.81,10.38,23.19,23.19,23.19h203.44c-18.2-17.95-31.41-40.95-37.36-66.74Z" style="fill:none; stroke:#000; stroke-linecap:round; stroke-linejoin:round; stroke-width:19px;"/><path d="M280.41,397.71c0-12.39,1.65-24.39,4.73-35.81H117.83c-12.81,0-23.19,10.38-23.19,23.19v20.35c0,12.81,10.38,23.19,23.19,23.19h166.08c-2.29-9.94-3.5-20.29-3.5-30.93Z" style="fill:none; stroke:#000; stroke-linecap:round; stroke-linejoin:round; stroke-width:19px;"/><path d="M326.49,295.17H117.83c-12.81,0-23.19,10.38-23.19,23.19v20.35c0,12.81,10.38,23.19,23.19,23.19h167.32c7.06-26.17,21.66-49.24,41.34-66.74Z" style="fill:none; stroke:#000; stroke-linecap:round; stroke-linejoin:round; stroke-width:19px;"/><path d="M417.59,260.53c15.16,0,29.74,2.47,43.38,7.01v-15.92c0-12.81-10.38-23.19-23.19-23.19H150.56c-12.81,0-23.19,10.38-23.19,23.19v20.35c0,12.81,10.38,23.19,23.19,23.19h175.93c24.23-21.54,56.14-34.63,91.11-34.63Z" style="fill:none; stroke:#000; stroke-linecap:round; stroke-linejoin:round; stroke-width:19px;"/></g></svg>