<?xml version="1.0" encoding="UTF-8"?><svg xmlns="http://www.w3.org/2000/svg" viewBox="0 0 600 600"><g id="color"><circle cx="306.12" cy="207.93" r="97.5" style="fill:#f2ab38;"/><circle cx="452.33" cy="475.46" r="63.78" style="fill:#f2ab38;"/><circle cx="304.44" cy="475.46" r="63.78" style="fill:#f2ab38;"/><circle cx="156.55" cy="475.46" r="63.78" style="fill:#f2ab38;"/></g><g id="Ebene_2"><circle cx="293.43" cy="195.44" r="97.5" style="fill:none; stroke:#000; stroke-linecap:round; stroke-linejoin:round; stroke-width:19px;"/><polyline points="143.67 370.24 143.67 346.87 293.78 346.87 293.78 319.45 293.78 370.24" style="fill:none; stroke:#000; stroke-linecap:round; stroke-linejoin:round; stroke-width:19px;"/><polyline points="334.46 346.87 443.89 346.87 443.89 370.24" style="fill:none; stroke:#000; stroke-linecap:round; stroke-linejoin:round; stroke-width:19px;"/><g><circle cx="143.67" cy="460.02" r="60.99" style="fill:none; stroke:#000; stroke-linecap:round; stroke-linejoin:round; stroke-width:19px;"/><circle cx="143.67" cy="445.47" r="18.66" style="fill:#fff; stroke:#000; stroke-linecap:round; stroke-linejoin:round; stroke-width:19px;"/><path d="M143.67,464.24c-18.87,0-34.18,15.3-34.18,34.18,0,5,1.08,9.75,3.02,14.03,9.12,5.43,19.77,8.56,31.16,8.56s22.04-3.13,31.16-8.56c1.93-4.28,3.02-9.03,3.02-14.03,0-18.87-15.3-34.18-34.18-34.18Z" style="fill:#fff; stroke:#000; stroke-linecap:round; stroke-linejoin:round; stroke-width:19px;"/></g><g><circle cx="293.78" cy="460.02" r="60.99" style="fill:none; stroke:#000; stroke-linecap:round; stroke-linejoin:round; stroke-width:19px;"/><circle cx="293.78" cy="445.47" r="18.66" style="fill:#fff; stroke:#000; stroke-linecap:round; stroke-linejoin:round; stroke-width:19px;"/><path d="M293.78,464.24c-18.87,0-34.18,15.3-34.18,34.18,0,5,1.08,9.75,3.02,14.03,9.12,5.43,19.77,8.56,31.16,8.56s22.04-3.13,31.16-8.56c1.93-4.28,3.02-9.03,3.02-14.03,0-18.87-15.3-34.18-34.18-34.18Z" style="fill:#fff; stroke:#000; stroke-linecap:round; stroke-linejoin:round; stroke-width:19px;"/></g><g><circle cx="443.89" cy="460.02" r="60.99" style="fill:none; stroke:#000; stroke-linecap:round; stroke-linejoin:round; stroke-width:19px;"/><circle cx="443.89" cy="445.47" r="18.66" style="fill:#fff; stroke:#000; stroke-linecap:round; stroke-linejoin:round; stroke-width:19px;"/><path d="M443.89,464.24c-18.87,0-34.18,15.3-34.18,34.18,0,5,1.08,9.75,3.02,14.03,9.12,5.43,19.77,8.56,31.16,8.56s22.04-3.13,31.16-8.56c1.93-4.28,3.02-9.03,3.02-14.03,0-18.87-15.3-34.18-34.18-34.18Z" style="fill:#fff; stroke:#000; stroke-linecap:round; stroke-linejoin:round; stroke-width:19px;"/></g><path d="M359.32,161.08c0,2.46-.94,4.92-2.81,6.79l-76.84,76.84c-1.87,1.88-4.33,2.82-6.79,2.82s-4.92-.94-6.79-2.81l-38.42-38.42c-1.88-1.87-2.82-4.33-2.82-6.79,0-5.49,4.49-9.6,9.6-9.6,2.46,0,4.92,.94,6.79,2.81l31.63,31.64,70.05-70.05c1.86-1.88,4.32-2.82,6.78-2.82,5.13,0,9.6,4.11,9.6,9.6Z"/></g></svg>