<?xml version="1.0" encoding="UTF-8"?><svg xmlns="http://www.w3.org/2000/svg" viewBox="0 0 600 600"><g id="color"><path d="M312.11,351.43l46.57,45.81c6.89,6.78,18.54,2.04,18.75-7.62,.3-13.77,.59-29.66,.59-38.19h72.45c31.84,0,57.66-25.81,57.66-57.66V103.44c0-14.85-12.04-26.89-26.89-26.89H110.81c-18.77,0-33.98,15.21-33.98,33.98v210.37c0,16.86,13.67,30.54,30.54,30.54h202.99" style="fill:#f2ab38;"/><rect x="129.94" y="130.84" width="100.04" height="100.04" style="fill:#fff;"/></g><g id="Ebene_2"><path d="M406.48,265.53l-41.62,4.43c-6.49,.69-10.87-6.48-7.29-11.94l22.65-34.54c3.01-4.59,6.95-8.5,11.56-11.48l146.65-94.68c7.24-4.67,16.9-2.59,21.57,4.65l14.07,21.8c4.67,7.24,2.59,16.9-4.65,21.57l-145.78,94.12c-5.17,3.34-11.05,5.42-17.17,6.07Z" style="fill:#fff;"/><g><circle cx="113.65" cy="415.16" r="31.41" style="fill:none; stroke:#000; stroke-miterlimit:10; stroke-width:19px;"/><path d="M113.65,447.11c-27.3,0-49.44,22.13-49.44,49.44,0,6.72,1.34,13.12,3.77,18.95h91.33c2.43-5.84,3.77-12.24,3.77-18.95,0-27.3-22.13-49.44-49.44-49.44Z" style="fill:none; stroke:#000; stroke-linecap:round; stroke-linejoin:round; stroke-width:19px;"/></g><g><circle cx="272.62" cy="415.16" r="31.41" style="fill:none; stroke:#000; stroke-miterlimit:10; stroke-width:19px;"/><path d="M272.62,447.11c-27.3,0-49.44,22.13-49.44,49.44,0,6.72,1.34,13.12,3.77,18.95h91.33c2.43-5.84,3.77-12.24,3.77-18.95,0-27.3-22.13-49.44-49.44-49.44Z" style="fill:none; stroke:#000; stroke-linecap:round; stroke-linejoin:round; stroke-width:19px;"/></g><g><circle cx="431.58" cy="415.16" r="31.41" style="fill:none; stroke:#000; stroke-miterlimit:10; stroke-width:19px;"/><path d="M431.58,447.11c-27.3,0-49.44,22.13-49.44,49.44,0,6.72,1.34,13.12,3.77,18.95h91.33c2.43-5.84,3.77-12.24,3.77-18.95,0-27.3-22.13-49.44-49.44-49.44Z" style="fill:none; stroke:#000; stroke-linecap:round; stroke-linejoin:round; stroke-width:19px;"/></g><path d="M484.43,242.74v20.89c0,36.15-29.31,65.46-65.46,65.46h-73.78" style="fill:none; stroke:#000; stroke-linecap:round; stroke-linejoin:round; stroke-width:19px;"/><path d="M290.28,329.08H99.85c-21.45,0-38.83-17.39-38.83-38.83V101.42c0-23.31,18.9-42.21,42.21-42.21H449.18c19.47,0,35.25,15.78,35.25,35.25" style="fill:none; stroke:#000; stroke-linecap:round; stroke-linejoin:round; stroke-width:19px;"/><rect x="113.65" y="111.07" width="100.04" height="100.04" style="fill:none; stroke:#000; stroke-linecap:round; stroke-linejoin:round; stroke-width:19px;"/><line x1="272.73" y1="111.07" x2="423.06" y2="111.07" style="fill:none; stroke:#000; stroke-linecap:round; stroke-linejoin:round; stroke-width:19px;"/><line x1="272.73" y1="161.09" x2="348.16" y2="161.09" style="fill:none; stroke:#000; stroke-linecap:round; stroke-linejoin:round; stroke-width:19px;"/><line x1="116.87" y1="268.11" x2="293.91" y2="267.48" style="fill:none; stroke:#000; stroke-linecap:round; stroke-linejoin:round; stroke-width:19px;"/><line x1="272.73" y1="211.11" x2="315.09" y2="211.11" style="fill:none; stroke:#000; stroke-linecap:round; stroke-linejoin:round; stroke-width:19px;"/><path d="M291.99,329.08l63.54,62.51s1.16-45.73,1.16-62.51" style="fill:none; stroke:#000; stroke-linecap:round; stroke-linejoin:round; stroke-width:19px;"/><g><path d="M398.73,248.19l-39.34,3.68c-6.14,.57-10.19-6.25-6.74-11.36l21.8-32.33c2.9-4.3,6.66-7.94,11.05-10.69l139.59-87.61c6.89-4.33,15.99-2.25,20.31,4.65l13.02,20.75c4.33,6.89,2.25,15.99-4.65,20.31l-138.76,87.09c-4.92,3.09-10.5,4.98-16.29,5.52Z" style="fill:none; stroke:#000; stroke-linecap:round; stroke-linejoin:round; stroke-width:19px;"/><line x1="384.11" y1="198.1" x2="412.91" y2="243.9" style="fill:none; stroke:#000; stroke-linecap:round; stroke-linejoin:round; stroke-width:19px;"/><line x1="512.1" y1="118.54" x2="541.07" y2="163.46" style="fill:none; stroke:#000; stroke-linecap:round; stroke-linejoin:round; stroke-width:19px;"/></g></g></svg>