<?xml version="1.0" encoding="UTF-8"?><svg xmlns="http://www.w3.org/2000/svg" viewBox="0 0 600 600"><g id="color"><path d="M162.7,503.91H84.61V83.46H346.66l127.3,119.06v242.51c0,32.52-26.36,58.88-58.88,58.88h-19.72" style="fill:#f2ab38;"/></g><g id="Ebene_2"><g><path d="M435.79,462.95c-10.63,10.68-25.35,17.29-41.61,17.29h-7.56" style="fill:none; stroke:#000; stroke-linecap:round; stroke-linejoin:round; stroke-width:19px;"/><polyline points="215.15 480.24 64.69 480.24 64.69 61.03 325.96 61.03 452.89 179.73 452.89 233.71" style="fill:none; stroke:#000; stroke-linecap:round; stroke-linejoin:round; stroke-width:19px;"/><path d="M323.23,61.03l.34,64.05c.17,31.29,25.66,56.52,56.94,56.37l72.38-1.72" style="fill:none; stroke:#000; stroke-linecap:round; stroke-linejoin:round; stroke-width:19px;"/><line x1="198.35" y1="212.55" x2="319.23" y2="212.55" style="fill:none; stroke:#000; stroke-linecap:round; stroke-linejoin:round; stroke-width:19px;"/><line x1="228.51" y1="252.81" x2="289.07" y2="252.81" style="fill:none; stroke:#000; stroke-linecap:round; stroke-linejoin:round; stroke-width:19px;"/></g><path d="M500.95,416.14l-18.2-41.55,9.01-3.95c8.41-3.68,12.24-13.49,8.56-21.9l-4.79-10.94c-3.68-8.41-13.49-12.24-21.9-8.56l-9.01,3.95-18.2-41.55c-3.23-7.38-12.7-9.52-18.85-4.26l-113.61,97.21-.57-1.29c-2.23-5.09-8.16-7.4-13.24-5.18l-34,14.89c-5.09,2.23-7.4,8.16-5.18,13.24l15,34.24-8.79-20.07-18.18,7.96c-11.08,4.86-16.13,17.78-11.28,28.86s17.78,16.13,28.86,11.28l18.18-7.96,6.21,14.17c2.23,5.09,8.16,7.4,13.24,5.18l5.6-2.45,23.45,53.54c2.95,6.74,10.81,9.81,17.54,6.86,6.74-2.95,9.81-10.81,6.86-17.54l-23.45-53.54,4.01-1.75c5.09-2.23,7.4-8.16,5.18-13.24l-.57-1.29,148.48-17.59c8.03-.95,12.88-9.37,9.65-16.74Z" style="fill:#fff;"/><g><rect x="260.02" y="365.23" width="57.23" height="94.86" rx="10.05" ry="10.05" transform="translate(-141.32 150.48) rotate(-23.65)" style="fill:none; stroke:#000; stroke-linecap:round; stroke-linejoin:round; stroke-width:19px;"/><path d="M244.33,410.61h19.85v43.82h-19.85c-12.09,0-21.91-9.82-21.91-21.91h0c0-12.09,9.82-21.91,21.91-21.91Z" transform="translate(-153.1 133.96) rotate(-23.65)" style="fill:none; stroke:#000; stroke-linecap:round; stroke-linejoin:round; stroke-width:19px;"/><path d="M477.82,416.51l-148.64,17.42-28.68-65.49,113.59-97.44c6.11-5.24,15.55-3.09,18.78,4.29l54.54,124.5c3.23,7.38-1.59,15.78-9.58,16.71Z" style="fill:none; stroke:#000; stroke-linecap:round; stroke-linejoin:round; stroke-width:19px;"/><path d="M310.2,453.64h26.64v59.72c0,7.35-5.97,13.32-13.32,13.32h0c-7.35,0-13.32-5.97-13.32-13.32v-59.72h0Z" transform="translate(-169.48 170.99) rotate(-23.65)" style="fill:none; stroke:#000; stroke-linecap:round; stroke-linejoin:round; stroke-width:19px;"/><path d="M459.03,309.63h9.84c9.18,0,16.63,7.45,16.63,16.63v11.94c0,9.18-7.45,16.63-16.63,16.63h-9.84v-45.2h0Z" transform="translate(-93.62 217.4) rotate(-23.65)" style="fill:none; stroke:#000; stroke-linecap:round; stroke-linejoin:round; stroke-width:19px;"/><line x1="498.33" y1="283.98" x2="525.8" y2="250.14" style="fill:none; stroke:#000; stroke-linecap:round; stroke-linejoin:round; stroke-width:19px;"/><line x1="525.41" y1="345.79" x2="568.9" y2="348.54" style="fill:none; stroke:#000; stroke-linecap:round; stroke-linejoin:round; stroke-width:19px;"/><line x1="516.98" y1="312.64" x2="559.17" y2="294.16" style="fill:none; stroke:#000; stroke-linecap:round; stroke-linejoin:round; stroke-width:19px;"/></g></g></svg>