<?xml version="1.0" encoding="UTF-8"?><svg xmlns="http://www.w3.org/2000/svg" viewBox="0 0 600 600"><g id="color"><circle cx="325.7" cy="310.09" r="109.54" style="fill:#f2ab38;"/></g><g id="white"><polygon points="312.55 219.17 329.71 273.01 385.24 273.01 340.31 306.28 357.47 360.12 312.55 326.85 267.62 360.12 284.78 306.28 239.86 273.01 295.39 273.01 312.55 219.17" style="fill:#fff;"/></g><g id="Ebene_2"><line x1="245.34" y1="559.96" x2="245.52" y2="520.23" style="fill:none; stroke:#000; stroke-linecap:round; stroke-linejoin:round; stroke-width:19px;"/><path d="M293.32,514.41l-114.9,.52c-29.75,.13-53.94-23.95-53.94-53.7v-59.18l-41.3-2.43,57.09-91.71,.66-1.4c-.4-4.78-.6-4.98-.6-9.86,0-95.56,77.72-173.02,173.58-173.02s173.58,77.46,173.58,173.02c0,64.41-35.31,120.61-87.7,150.39" style="fill:none; stroke:#000; stroke-linecap:round; stroke-linejoin:round; stroke-width:19px;"/><line x1="435.44" y1="427.38" x2="435.53" y2="559.96" style="fill:none; stroke:#000; stroke-linecap:round; stroke-linejoin:round; stroke-width:19px;"/><path d="M87,208.36l20.5,5.4c3.35,.88,7.2,2.22-20.5-5.4Z" style="fill:none; stroke:#000; stroke-linecap:round; stroke-linejoin:round; stroke-width:19px;"/><path d="M137.42,120.68c6.74,7.53,13.48,15.05,20.22,22.58" style="fill:none; stroke:#000; stroke-linecap:round; stroke-linejoin:round; stroke-width:19px;"/><path d="M216.16,63.14c3.58,10.57,7.78,20.93,12.55,31.02" style="fill:none; stroke:#000; stroke-linecap:round; stroke-linejoin:round; stroke-width:19px;"/><path d="M312.55,44.4c-1.44,9.09-1.48,18.39-.13,27.49" style="fill:none; stroke:#000; stroke-linecap:round; stroke-linejoin:round; stroke-width:19px;"/><path d="M407.78,62.7c-5.84,8.75-11.4,17.68-16.67,26.79" style="fill:none; stroke:#000; stroke-linecap:round; stroke-linejoin:round; stroke-width:19px;"/><path d="M460.73,137.33c8.09-8.02,16.76-15.47,25.92-22.25" style="fill:none; stroke:#000; stroke-linecap:round; stroke-linejoin:round; stroke-width:19px;"/><path d="M506.43,210.87c10.57-1.62,20.96-4.45,30.89-8.42" style="fill:none; stroke:#000; stroke-linecap:round; stroke-linejoin:round; stroke-width:19px;"/><polygon points="312.55 219.17 329.71 273.01 385.24 273.01 340.31 306.28 357.47 360.12 312.55 326.85 267.62 360.12 284.78 306.28 239.86 273.01 295.39 273.01 312.55 219.17" style="fill:none; stroke:#000; stroke-linecap:round; stroke-linejoin:round; stroke-width:19px;"/><circle cx="311.44" cy="296.06" r="109.54" style="fill:none; stroke:#000; stroke-linecap:round; stroke-linejoin:round; stroke-width:19px;"/></g></svg>