<?xml version="1.0" encoding="UTF-8"?><svg xmlns="http://www.w3.org/2000/svg" viewBox="0 0 600 600"><g id="color"><path d="M490.1,234.98v180.51c0,24.24-19.65,43.89-43.89,43.89H77.3V102.9H415.5" style="fill:#f2ab38;"/></g><g id="white"><circle cx="187.08" cy="206.19" r="58.79" transform="translate(-42.37 48.5) rotate(-13.28)" style="fill:#fff;"/><path d="M189.54,131.45v77.53h72.7c.01-.58,.04-1.16,.04-1.74,0-40.77-32.27-74.02-72.74-75.79Z" style="fill:#fff;"/><path d="M363.88,216.83l-47.22-7.37c-7.37-1.15-10.09-10.35-4.53-15.32l35.16-31.44c4.67-4.18,10.17-7.33,16.13-9.26l189.69-61.29c9.37-3.03,19.41,2.11,22.44,11.48l9.11,28.19c3.03,9.37-2.11,19.41-11.48,22.44l-188.56,60.92c-6.69,2.16-13.79,2.72-20.74,1.64Z" style="fill:#fff;"/></g><g id="Ebene_2"><path d="M463.63,213.91v178.75c0,24-19.46,43.46-43.46,43.46H54.86V83.12H389.76" style="fill:none; stroke:#000; stroke-linecap:round; stroke-linejoin:round; stroke-width:19px;"/><line x1="34.43" y1="82.62" x2="398.4" y2="83.12" style="fill:none; stroke:#000; stroke-linecap:round; stroke-linejoin:round; stroke-width:19px;"/><path d="M175.31,113.87v77.53h72.7c.01-.58,.04-1.16,.04-1.74,0-40.77-32.27-74.02-72.74-75.79Z" style="fill:none; stroke:#000; stroke-linecap:round; stroke-linejoin:round; stroke-width:19px;"/><path d="M175.31,191.4v-61.52c-.82-.03-1.63-.06-2.46-.06-32.47,0-58.79,26.32-58.79,58.79s26.32,58.79,58.79,58.79,57.26-24.83,58.72-56h-56.26Z" style="fill:none; stroke:#000; stroke-linecap:round; stroke-linejoin:round; stroke-width:19px;"/><polyline points="100.65 308.05 140.89 383.28 184.98 295.12 237.2 353.57 321.12 251.82 271.76 264.25" style="fill:none; stroke:#000; stroke-linecap:round; stroke-linejoin:round; stroke-width:19px;"/><line x1="321.12" y1="251.82" x2="321.12" y2="304.46" style="fill:none; stroke:#000; stroke-linecap:round; stroke-linejoin:round; stroke-width:19px;"/><line x1="357.7" y1="327.13" x2="408.31" y2="327.95" style="fill:none; stroke:#000; stroke-linecap:round; stroke-linejoin:round; stroke-width:19px;"/><line x1="314.5" y1="362.92" x2="412.42" y2="363.33" style="fill:none; stroke:#000; stroke-linecap:round; stroke-linejoin:round; stroke-width:19px;"/><g><path d="M359.46,199.49l-43.73-6.82c-6.82-1.06-9.34-9.58-4.19-14.18l32.56-29.11c4.33-3.87,9.41-6.79,14.94-8.57l175.64-56.75c8.67-2.8,17.97,1.96,20.77,10.63l8.44,26.11c2.8,8.67-1.96,17.97-10.63,20.77l-174.59,56.41c-6.19,2-12.77,2.52-19.2,1.52Z" style="fill:none; stroke:#000; stroke-linecap:round; stroke-linejoin:round; stroke-width:19px;"/><line x1="357.36" y1="141.08" x2="376.03" y2="198.72" style="fill:none; stroke:#000; stroke-linecap:round; stroke-linejoin:round; stroke-width:19px;"/><line x1="518.18" y1="89.89" x2="537.29" y2="146.62" style="fill:none; stroke:#000; stroke-linecap:round; stroke-linejoin:round; stroke-width:19px;"/></g><line x1="122.79" y1="541.36" x2="180.87" y2="436.12" style="fill:none; stroke:#000; stroke-linecap:round; stroke-linejoin:round; stroke-width:19px;"/><line x1="398.72" y1="541.91" x2="341.83" y2="436.12" style="fill:none; stroke:#000; stroke-linecap:round; stroke-linejoin:round; stroke-width:19px;"/><line x1="259.24" y1="511.57" x2="259.24" y2="436.12" style="fill:none; stroke:#000; stroke-linecap:round; stroke-linejoin:round; stroke-width:19px;"/><polyline points="149.46 493.03 259.24 469.69 374.15 496.21" style="fill:none; stroke:#000; stroke-linecap:round; stroke-linejoin:round; stroke-width:19px;"/></g></svg>