<?xml version="1.0" encoding="UTF-8"?><svg xmlns="http://www.w3.org/2000/svg" viewBox="0 0 600 600"><g id="color"><path d="M73.1,217.25h491.66V502.96c0,37.68-30.59,68.27-68.27,68.27H73.1V217.25h0Z" style="fill:#f2ab38;"/></g><g id="Ebene_2"><path d="M486.21,97.47h52.91V475.32c0,37.72-30.57,68.29-68.29,68.29H55.12V97.47h101.63" style="fill:none; stroke:#000; stroke-linecap:round; stroke-linejoin:round; stroke-width:19px;"/><line x1="345.25" y1="97.47" x2="438.75" y2="97.47" style="fill:none; stroke:#000; stroke-linecap:round; stroke-linejoin:round; stroke-width:19px;"/><line x1="209.87" y1="97.47" x2="293.66" y2="97.47" style="fill:none; stroke:#000; stroke-linecap:round; stroke-linejoin:round; stroke-width:19px;"/><line x1="156.75" y1="50.45" x2="156.75" y2="146.99" style="fill:none; stroke:#000; stroke-linecap:round; stroke-linejoin:round; stroke-width:19px;"/><line x1="295.68" y1="49.2" x2="295.68" y2="145.73" style="fill:none; stroke:#000; stroke-linecap:round; stroke-linejoin:round; stroke-width:19px;"/><line x1="438.99" y1="49.2" x2="438.99" y2="145.73" style="fill:none; stroke:#000; stroke-linecap:round; stroke-linejoin:round; stroke-width:19px;"/><line x1="55.12" y1="195.42" x2="539.12" y2="194.31" style="fill:none; stroke:#000; stroke-linecap:round; stroke-linejoin:round; stroke-width:19px;"/><path d="M195.24,262.57v112.31h117.89c.02-.84,.04-1.68,.04-2.52,0-59.06-52.32-107.24-117.93-109.79Z" style="fill:#fff; stroke:#000; stroke-linecap:round; stroke-linejoin:round; stroke-width:19px;"/><path d="M195.24,287.43c-48.97,0-88.66,39.69-88.66,88.66s39.69,88.66,88.66,88.66,88.66-39.69,88.66-88.66h-88.66v-88.66Z" style="fill:none; stroke:#000; stroke-linecap:round; stroke-linejoin:round; stroke-width:19px;"/><rect x="378.46" y="262.5" width="77.89" height="77.89" style="fill:#fff; stroke:#000; stroke-linecap:round; stroke-linejoin:round; stroke-width:19px;"/><rect x="378.46" y="400.26" width="77.89" height="77.89" style="fill:#fff; stroke:#000; stroke-linecap:round; stroke-linejoin:round; stroke-width:19px;"/><polyline points="398.11 289.42 420.14 325.71 505.67 244.93" style="fill:none; stroke:#000; stroke-linecap:round; stroke-linejoin:round; stroke-width:19px;"/></g></svg>