<?xml version="1.0" encoding="UTF-8"?><svg xmlns="http://www.w3.org/2000/svg" viewBox="0 0 600 600"><g id="color"><path d="M79.03,221.09h484.77V502.8c0,37.15-30.16,67.31-67.31,67.31H79.03V221.09h0Z" style="fill:#f2ab38;"/></g><g id="white"><rect x="147.47" y="408.74" width="80.46" height="80.46" style="fill:#fff;"/><rect x="147.47" y="281.92" width="80.46" height="80.46" style="fill:#fff;"/><path d="M286.32,281.92v207.28h207.28v-207.28h-207.28Zm163.68,92.38l-29.33,20.99,11.18,33.89c1.76,5.32-.11,11.17-4.63,14.49-2.28,1.68-4.98,2.52-7.68,2.52s-5.28-.81-7.54-2.42l-29.54-21.14-29.54,21.14c-4.56,3.26-10.7,3.22-15.22-.1-4.52-3.32-6.38-9.17-4.63-14.49l11.18-33.89-29.33-20.99c-4.58-3.28-6.52-9.13-4.8-14.49,1.72-5.36,6.71-9,12.34-9h36.47l11.23-34.04c1.75-5.31,6.71-8.9,12.3-8.9s10.55,3.59,12.3,8.9l11.23,34.04h36.47c5.63,0,10.62,3.64,12.34,9,1.72,5.36-.22,11.22-4.8,14.49Z" style="fill:#fff;"/></g><g id="Ebene_2"><path d="M484.06,103.06h52.17V475.62c0,37.19-30.15,67.33-67.33,67.33H59.01V103.06h100.21" style="fill:none; stroke:#000; stroke-linecap:round; stroke-linejoin:round; stroke-width:19px;"/><line x1="345.07" y1="103.06" x2="437.27" y2="103.06" style="fill:none; stroke:#000; stroke-linecap:round; stroke-linejoin:round; stroke-width:19px;"/><line x1="211.59" y1="103.06" x2="294.2" y2="103.06" style="fill:none; stroke:#000; stroke-linecap:round; stroke-linejoin:round; stroke-width:19px;"/><line x1="159.21" y1="56.7" x2="159.21" y2="151.89" style="fill:none; stroke:#000; stroke-linecap:round; stroke-linejoin:round; stroke-width:19px;"/><line x1="296.2" y1="55.47" x2="296.2" y2="150.65" style="fill:none; stroke:#000; stroke-linecap:round; stroke-linejoin:round; stroke-width:19px;"/><line x1="437.5" y1="55.47" x2="437.5" y2="150.65" style="fill:none; stroke:#000; stroke-linecap:round; stroke-linejoin:round; stroke-width:19px;"/><line x1="59.01" y1="199.37" x2="536.23" y2="198.54" style="fill:none; stroke:#000; stroke-linecap:round; stroke-linejoin:round; stroke-width:19px;"/><rect x="130.14" y="387.23" width="78.65" height="78.65" style="fill:none; stroke:#000; stroke-linecap:round; stroke-linejoin:round; stroke-width:19px;"/><rect x="130.14" y="263.26" width="78.65" height="78.65" style="fill:none; stroke:#000; stroke-linecap:round; stroke-linejoin:round; stroke-width:19px;"/><rect x="265.86" y="263.26" width="202.62" height="202.62" style="fill:none; stroke:#000; stroke-linecap:round; stroke-linejoin:round; stroke-width:19px;"/><polygon points="371.06 302.58 386.69 349.93 437.27 349.93 396.35 379.2 411.98 426.55 371.06 397.28 330.14 426.55 345.77 379.2 304.85 349.93 355.43 349.93 371.06 302.58" style="fill:none; stroke:#000; stroke-linecap:round; stroke-linejoin:round; stroke-width:19px;"/></g></svg>