<?xml version="1.0" encoding="UTF-8"?><svg xmlns="http://www.w3.org/2000/svg" viewBox="0 0 434.01 356.75"><g id="Background_Complete"><rect x="314.04" y="19.18" width="7.91" height="288.44" transform="translate(635.99 326.8) rotate(180)" style="fill:#ebebeb; stroke-width:0px;"/><polygon points="262.56 55 359.88 50.8 359.18 34.7 261.87 38.9 248.51 47.55 262.56 55" style="fill:#f0f0f0; stroke-width:0px;"/><polygon points="255.38 105.34 351.87 118.63 354.07 102.67 257.58 89.37 242.88 95.48 255.38 105.34" style="fill:#f0f0f0; stroke-width:0px;"/><polygon points="307.79 135.35 374.74 130.81 388.98 137.93 375.83 146.89 309.26 151.4 307.79 135.35" style="fill:#f5f5f5; stroke-width:0px;"/><polygon points="393.67 68.18 296.28 66.83 296.05 82.94 393.45 84.29 407.28 76.43 393.67 68.18" style="fill:#f5f5f5; stroke-width:0px;"/><rect x="58.41" y="238.03" width="7.06" height="69.59" style="fill:#e6e6e6; stroke-width:0px;"/><rect x="134.32" y="238.03" width="7.06" height="69.59" style="fill:#e6e6e6; stroke-width:0px;"/><rect x="41.01" y="149.76" width="117.76" height="98.2" rx="3.88" ry="3.88" style="fill:#f0f0f0; stroke-width:0px;"/><path d="m152.69,244.3H47.1c-1.35,0-2.44-1.09-2.44-2.44v-86.02c0-1.35,1.09-2.44,2.44-2.44h105.59c1.35,0,2.44,1.09,2.44,2.44v86.02c0,1.34-1.09,2.44-2.44,2.44Zm-105.59-89.86c-.77,0-1.4.63-1.4,1.4v86.02c0,.77.63,1.4,1.4,1.4h105.59c.77,0,1.4-.63,1.4-1.4v-86.02c0-.77-.63-1.4-1.4-1.4H47.1Z" style="fill:#fafafa; stroke-width:0px;"/><polygon points="66.57 163.35 61.74 157.2 56.91 163.35 59.24 163.35 59.24 175.65 64.24 175.65 64.24 163.35 66.57 163.35" style="fill:#fafafa; stroke-width:0px;"/><polygon points="64.82 192.23 70.97 187.4 64.82 182.57 64.82 184.9 52.51 184.9 52.51 189.9 64.82 189.9 64.82 192.23" style="fill:#fafafa; stroke-width:0px;"/><polygon points="58.66 203.55 52.51 208.38 58.66 213.21 58.66 210.88 70.97 210.88 70.97 205.88 58.66 205.88 58.66 203.55" style="fill:#fafafa; stroke-width:0px;"/><polygon points="56.91 232.44 61.74 238.59 66.57 232.44 64.24 232.44 64.24 220.13 59.24 220.13 59.24 232.44 56.91 232.44" style="fill:#fafafa; stroke-width:0px;"/><rect x="78" y="162.6" width="69.28" height="2.38" style="fill:#fafafa; stroke-width:0px;"/><rect x="78" y="167.87" width="54.98" height="2.38" style="fill:#fafafa; stroke-width:0px;"/><rect x="78" y="183.58" width="69.28" height="2.38" style="fill:#fafafa; stroke-width:0px;"/><rect x="78" y="188.85" width="54.98" height="2.38" style="fill:#fafafa; stroke-width:0px;"/><rect x="78" y="204.55" width="69.28" height="2.38" style="fill:#fafafa; stroke-width:0px;"/><rect x="78" y="209.83" width="54.98" height="2.38" style="fill:#fafafa; stroke-width:0px;"/><rect x="78" y="225.53" width="69.28" height="2.38" style="fill:#fafafa; stroke-width:0px;"/><rect x="78" y="230.8" width="54.98" height="2.38" style="fill:#fafafa; stroke-width:0px;"/><path d="m110.14,51.19c0-8.1-4.65-10.79-8.23-11.28-5.87-.8-10.06,3.67-10.06,3.67,0,0-3.19-10.75-14.71-10.75s-15.07,11.74-15.07,11.74c0,0-4.48-3.56-10.93-2.48-4.52.76-7.22,4.09-10.13,9.1h69.13Z" style="fill:#f0f0f0; stroke-width:0px;"/><path d="m241.7,23.7c0-10.46-6-13.93-10.62-14.56-7.57-1.03-12.98,4.74-12.98,4.74,0,0-4.12-13.88-19-13.88s-19.46,15.16-19.46,15.16c0,0-5.79-4.59-14.12-3.2-5.84.98-9.32,5.28-13.08,11.74h89.26Z" style="fill:#f0f0f0; stroke-width:0px;"/><path d="m117.81,93.32s2.57-6.35,8.92-7.05c6.36-.69,9.41,3.52,9.41,3.52,0,0,4.98-8.86,14.67-7.59,10.64,1.39,10.02,11.12,10.02,11.12h-43.03Z" style="fill:#f0f0f0; stroke-width:0px;"/></g><g id="Shadow"><ellipse id="_Path_" cx="215.36" cy="345.43" rx="151.42" ry="11.32" style="fill:#f5f5f5; stroke-width:0px;"/></g><g id="Character"><path d="m285.31,220.99c-5.8,0-11.48-.98-16.64-1.99-17.24-3.38-30.94-7.54-43.09-13.08-15.03-6.86-27.43-15.87-36.86-26.78-5.23-6.05-8.9-12.9-12.45-19.52-5.05-9.43-9.83-18.34-18.62-24.36-16.8-11.5-37.67-12.64-52.22-11.57-6.62.49-28.67,3.32-34.5,19.32l-7.52-2.74c5.04-13.84,20.53-23.02,41.43-24.56,15.82-1.17,38.61.13,57.33,12.95,10.41,7.13,15.87,17.32,21.16,27.18,3.5,6.53,6.8,12.69,11.45,18.07,8.68,10.03,20.16,18.35,34.13,24.73,11.57,5.28,24.69,9.26,41.31,12.51,7.26,1.42,15.64,2.78,23.17.94,6.52-1.6,12.04-6.46,14.08-12.4,1.16-3.39,1.67-8.54-2.5-13.81l6.27-4.96c5,6.33,6.35,13.92,3.79,21.37-2.94,8.57-10.5,15.3-19.74,17.57-3.31.81-6.66,1.13-9.97,1.13Z" style="fill:#36474f; stroke-width:0px;"/><path d="m193.26,66.72c-11.48-10.48-36.11-27.57-72.07-24.3-40.84,3.72-73.34,33.81-82.78,76.67-8.7,39.48,3.07,93.72,60.63,130.92l-4.69,7.63,22.95-.52-9.9-20.7-4.17,6.78c-53.99-35-65.11-85.61-57-122.38,8.68-39.38,38.39-67.03,75.69-70.42,32.9-3,55.44,12.65,65.95,22.24,12.78,11.67,21.03,26.62,21.03,38.1h8c0-13.83-9.06-30.69-23.64-44Z" style="fill:#36474f; stroke-width:0px;"/><path d="m193.26,66.72c-11.48-10.48-36.11-27.57-72.07-24.3-40.84,3.72-73.34,33.81-82.78,76.67-8.7,39.48,3.07,93.72,60.63,130.92l-4.69,7.63,22.95-.52-9.9-20.7-4.17,6.78c-53.99-35-65.11-85.61-57-122.38,8.68-39.38,38.39-67.03,75.69-70.42,32.9-3,55.44,12.65,65.95,22.24,12.78,11.67,21.03,26.62,21.03,38.1h8c0-13.83-9.06-30.69-23.64-44Z" style="fill:#fff; opacity:.7; stroke-width:0px;"/><path d="m379.3,185.04c-4.31,31.69-24.09,60.83-53.34,74.27-13.98,6.42-29.64,9.74-45.39,9.74-5.87,0-11.75-.46-17.55-1.39-22.79-3.66-42.46-14.51-55.39-30.56-29.01-36.03-18.17-84.73,1.65-118.3l6.89,4.07c-18.46,31.26-28.76,76.36-2.31,109.21,26.7,33.15,75.97,35.02,108.76,19.96,26.1-12,43.95-37.68,48.47-65.87.91-5.69,1.28-11.48,1.06-17.29-.23-6.53-1.22-13.08-3-19.51-3.96-14.29-16.8-26.99-31.46-23.51-10.94,2.61-18.29,13.44-16.74,24.67,1.35,9.76,9.66,16.96,16.98,20.45l-3.44,7.23c-11.92-5.69-19.95-15.62-21.46-26.59-2.11-15.26,7.91-29.99,22.81-33.54,19.35-4.61,36.05,11.21,41.02,29.15,1.62,5.83,2.63,11.76,3.07,17.69.51,6.74.28,13.49-.63,20.12Z" style="fill:#35464d; stroke-width:0px;"/><g style="opacity:.8;"><path d="m379.3,185.04c-4.31,31.69-24.09,60.83-53.34,74.27-13.98,6.42-29.64,9.74-45.39,9.74-5.87,0-11.75-.46-17.55-1.39-22.79-3.66-42.46-14.51-55.39-30.56-29.01-36.03-18.17-84.73,1.65-118.3l6.89,4.07c-18.46,31.26-28.76,76.36-2.31,109.21,26.7,33.15,75.97,35.02,108.76,19.96,26.1-12,43.95-37.68,48.47-65.87.91-5.69,1.28-11.48,1.06-17.29-.23-6.53-1.22-13.08-3-19.51-3.96-14.29-16.8-26.99-31.46-23.51-10.94,2.61-18.29,13.44-16.74,24.67,1.35,9.76,9.66,16.96,16.98,20.45l-3.44,7.23c-11.92-5.69-19.95-15.62-21.46-26.59-2.11-15.26,7.91-29.99,22.81-33.54,19.35-4.61,36.05,11.21,41.02,29.15,1.62,5.83,2.63,11.76,3.07,17.69.51,6.74.28,13.49-.63,20.12Z" style="fill:#fff; stroke-width:0px;"/></g><path d="m379.3,185.04c-2.96.64-5.75.98-8.21,1.13.91-5.69,1.28-11.48,1.06-17.29,2.99-1.27,5.58-2.64,7.78-3.96.51,6.74.28,13.49-.63,20.12Z" style="opacity:.2; stroke-width:0px;"/><path d="m403.73,158.96l-22.94-.77,4.32,7.21c-9.95,5.42-29.95,13.81-47.19,5.59-7.33-3.49-15.63-10.7-16.98-20.45l-7.92,1.09c1.51,10.96,9.54,20.9,21.47,26.58,6.35,3.03,12.93,4.2,19.32,4.2,14.36,0,27.74-5.94,35.42-10.15l4.37,7.3,10.13-20.59Z" style="fill:#35464d; stroke-width:0px;"/><path d="m403.73,158.96l-22.94-.77,4.32,7.21c-9.95,5.42-29.95,13.81-47.19,5.59-7.33-3.49-15.63-10.7-16.98-20.45l-7.92,1.09c1.51,10.96,9.54,20.9,21.47,26.58,6.35,3.03,12.93,4.2,19.32,4.2,14.36,0,27.74-5.94,35.42-10.15l4.37,7.3,10.13-20.59Z" style="fill:#fff; opacity:.8; stroke-width:0px;"/><path d="m385.3,47.86l-13.47-18.58-11.41,19.92,8.48-.45c.66,14.96-19.02,19.87-23.11,20.73-6.78,1.42-13.81,2.07-21.25,2.77-16.52,1.54-33.6,3.14-47.82,13.61-11.01,8.12-18.54,21.48-19.65,34.89-1.11,13.44,4.79,26.42,15.03,33.07,4.7,3.05,9.95,4.6,15.15,4.6,3.8,0,7.57-.83,11.07-2.5,8.19-3.92,13.66-11.9,14.63-21.35,1.1-10.69-4.12-22.66-13.29-30.48l-5.19,6.09c7.12,6.07,11.35,15.55,10.52,23.58-.7,6.76-4.39,12.21-10.13,14.95-5.84,2.79-12.55,2.21-18.41-1.59-7.68-4.99-12.27-15.32-11.41-25.71.92-11.17,7.21-22.32,16.42-29.11,12.43-9.16,27.68-10.58,43.82-12.09,7.34-.68,14.92-1.39,22.15-2.9,14.43-3.01,30.29-12.38,29.46-28.99l8.41-.45Z" style="fill:#455a64; stroke-width:0px;"/><path d="m376.89,48.32c.83,16.61-15.03,25.97-29.46,28.99-7.22,1.51-14.81,2.21-22.15,2.9-16.09,1.5-31.29,2.92-43.7,12-.04.03-.08.06-.12.09-4.76,3.51-8.74,8.18-11.6,13.42-2.68,4.89-4.38,10.28-4.82,15.68-.85,10.39,3.73,20.72,11.42,25.71,5.85,3.81,12.56,4.39,18.41,1.59,5.74-2.74,9.43-8.19,10.12-14.95.62-6.04-1.61-12.88-5.79-18.49,3.16-1.29,5.73-3.2,5.51-5.97,5.98,7.4,9.12,16.75,8.24,25.28-.97,9.45-6.44,17.43-14.63,21.35-3.5,1.67-7.27,2.5-11.07,2.5-5.2,0-10.45-1.55-15.15-4.6-10.24-6.65-16.14-19.64-15.03-33.07.47-5.71,2.1-11.41,4.68-16.7,2.64-5.45,6.28-10.46,10.67-14.59,1.36-1.29,2.8-2.5,4.3-3.6,14.22-10.48,31.3-12.08,47.82-13.62,7.44-.69,14.47-1.35,21.26-2.77,4.09-.85,23.77-5.76,23.1-20.73l-8.48.46,11.41-19.92,13.47,18.59-8.41.45Z" style="fill:#455a64; opacity:.5; stroke-width:0px;"/><path d="m281.58,92.21s-.08.06-.12.09c-4.76,3.51-8.74,8.18-11.6,13.42-2.44-.75-5.14-1.34-8.11-1.67,2.64-5.45,6.28-10.46,10.67-14.59,2.75.63,5.85,1.52,9.16,2.75Z" style="fill:#455a64; opacity:.2; stroke-width:0px;"/><path d="m312.96,134.57l-7.96-.82c.83-8.03-3.4-17.51-10.52-23.58-19.98-17.04-55.82-11.78-75.49,3.6l-4.93-6.3c22.57-17.64,62.36-23.21,85.61-3.38,9.17,7.82,14.39,19.79,13.29,30.48Z" style="fill:#455a64; stroke-width:0px;"/><g style="opacity:.5;"><path d="m312.96,134.57l-7.96-.82c.83-8.03-3.4-17.51-10.52-23.58-19.98-17.04-55.82-11.78-75.49,3.6l-4.93-6.3c22.57-17.64,62.36-23.21,85.61-3.38,9.17,7.82,14.39,19.79,13.29,30.48Z" style="fill:#455a64; stroke-width:0px;"/></g><path d="m252.1,317.77c-37.39,0-74.72-16.08-98.94-44.09-19.32-22.35-30.29-52.74-30.09-83.39.07-11.34,1.65-22.46,4.68-33.05,3.41-11.89,8.91-19.36,16.12-26.92,15.98-16.74,39.25-24.95,62.24-21.95l-1.04,7.93c-20.48-2.67-41.19,4.63-55.42,19.54-7.77,8.14-11.62,14.53-14.22,23.6-2.83,9.89-4.31,20.28-4.37,30.9-.18,28.74,10.08,57.21,28.15,78.11,28.71,33.21,77.09,48.52,120.39,38.11,21.82-5.24,41.28-16.51,54.82-31.71,14.7-16.52,22.48-37.73,21.34-58.21-1.52-27.29-19.97-53.78-45.91-65.92-24.86-11.63-56.26-10.48-81.96,3-3.32,1.74-6.67,3.73-9.9,5.66-7.33,4.36-14.9,8.88-23.46,11.32l-2.2-7.69c7.55-2.16,14.36-6.21,21.56-10.51,3.32-1.98,6.76-4.03,10.28-5.87,27.87-14.61,61.99-15.82,89.06-3.16,28.54,13.35,48.84,42.57,50.51,72.72,1.25,22.57-7.26,45.89-23.35,63.98-14.61,16.41-35.53,28.55-58.92,34.17-9.63,2.32-19.5,3.44-29.37,3.44Z" style="fill:#35464d; stroke-width:0px;"/><g style="opacity:.5;"><path d="m340.4,280.16c-14.61,16.42-35.54,28.55-58.93,34.17-9.63,2.32-19.5,3.44-29.37,3.44-37.38,0-74.72-16.08-98.94-44.1-19.31-22.34-30.28-52.74-30.09-83.39.07-10.6,1.45-21.01,4.11-30.98.18-.69.37-1.38.57-2.07,1.91-6.67,4.48-11.95,7.64-16.63,2.48-3.67,5.31-6.97,8.48-10.29,15.98-16.74,39.25-24.95,62.25-21.94l-1.04,7.93c-20.47-2.67-41.19,4.63-55.42,19.54-3.52,3.69-6.23,7.02-8.39,10.4-2.61,4.08-4.41,8.24-5.83,13.2-.63,2.21-1.2,4.44-1.69,6.7-1.73,7.84-2.63,15.95-2.68,24.19-.18,28.74,10.08,57.21,28.15,78.11,28.7,33.21,77.08,48.53,120.38,38.11,21.82-5.24,41.29-16.5,54.82-31.71,14.7-16.51,22.48-37.73,21.34-58.21-1.52-27.29-19.97-53.78-45.92-65.92-24.85-11.63-56.25-10.48-81.95,3-3.33,1.74-6.67,3.73-9.9,5.66-7.33,4.36-14.9,8.88-23.46,11.32l-2.2-7.69c7.56-2.16,14.36-6.21,21.56-10.51,3.33-1.98,6.77-4.02,10.28-5.87,27.87-14.61,61.99-15.82,89.06-3.15,28.54,13.35,48.84,42.57,50.52,72.71,1.25,22.58-7.26,45.9-23.35,63.98Z" style="fill:#455a64; stroke-width:0px;"/></g><path d="m141.27,146.24c-2.61,4.08-4.41,8.24-5.83,13.2-.63,2.21-1.2,4.44-1.69,6.7-2.2-2.05-4.44-4.34-6.57-6.84.18-.69.37-1.38.57-2.07,1.91-6.67,4.48-11.95,7.64-16.63,1.72,1.82,3.7,3.76,5.88,5.64Z" style="opacity:.2; stroke-width:0px;"/><path d="m224.17,146.62c-3.52,1.84-6.95,3.89-10.28,5.87-7.2,4.29-14.01,8.35-21.56,10.51-15.54,4.44-34.54-.06-49.6-11.74-12.4-9.62-22.87-23.93-32-43.75-4.21-9.13-7.88-18.73-11.42-28.02-2.08-5.46-4.24-11.11-6.5-16.63-5.08-12.44-13.08-20.86-22.98-24.41l3.72-7.61-22.79,2.73,11.85,19.65,3.68-7.54c10.73,3.43,16.49,13.79,19.11,20.2,2.22,5.44,4.36,11.04,6.43,16.46,3.59,9.41,7.31,19.14,11.63,28.51,9.69,21.01,20.93,36.29,34.36,46.72,12.74,9.89,27.6,15.15,41.83,15.15,5.08,0,10.08-.67,14.87-2.04,8.55-2.45,16.13-6.96,23.46-11.32,3.23-1.93,6.58-3.92,9.9-5.66l-3.71-7.09Z" style="fill:#35464d; stroke-width:0px;"/><circle cx="213.44" cy="113.35" r="14.61" transform="translate(54.08 295.04) rotate(-76.72)" style="fill:#36474f; stroke-width:0px;"/><circle cx="213.44" cy="113.35" r="14.61" transform="translate(54.08 295.04) rotate(-76.72)" style="fill:#fff; opacity:.5; stroke-width:0px;"/><path d="m203.88,277.6c-10.77,0-20.79-2.16-29.24-6.39-16.26-8.15-30.07-27.18-25.02-47.77,2.81-11.47,11.33-21.29,22.23-25.61l2.95,7.44c-8.53,3.38-15.2,11.07-17.41,20.07-4.05,16.53,7.42,31.99,20.84,38.72,11.46,5.74,26.44,7.08,42.19,3.77,27.42-5.77,59.24-25.72,58.66-62.96-.21-13.56-4.68-27.83-12.91-41.26-9.02-14.71-24.64-34.08-47.77-42.77l2.81-7.49c25.26,9.49,42.1,30.29,51.77,46.08,8.99,14.65,13.86,30.32,14.09,45.32.28,18.08-6.43,34.46-19.4,47.37-11.46,11.41-27.66,19.77-45.61,23.54-6.19,1.3-12.29,1.95-18.18,1.95Z" style="fill:#35464d; stroke-width:0px;"/><g style="opacity:.2;"><path d="m287.07,204.74c.28,18.08-6.43,34.46-19.4,47.37-9.87,9.83-23.25,17.39-38.25,21.71-2.42.7-4.88,1.31-7.37,1.83-6.18,1.31-12.29,1.95-18.17,1.95-4.78,0-9.41-.43-13.83-1.27-5.53-1.06-10.72-2.77-15.42-5.12-16.25-8.15-30.07-27.18-25.02-47.77,2.81-11.48,11.33-21.29,22.23-25.61l2.95,7.44c-8.54,3.38-15.2,11.07-17.41,20.07-4.05,16.53,7.42,31.99,20.84,38.72,5.59,2.8,12.02,4.55,18.96,5.23,7.29.71,15.16.24,23.23-1.46,4.67-.98,9.46-2.38,14.2-4.19,23.11-8.87,44.94-27.87,44.46-58.78-.21-13.56-4.68-27.82-12.91-41.25-9.03-14.72-24.64-34.08-47.77-42.77l2.81-7.49c25.26,9.49,42.1,30.29,51.78,46.07,8.98,14.66,13.86,30.33,14.09,45.32Z" style="fill:#fff; stroke-width:0px;"/></g><path d="m234.61,263.64c-1,3.44-2.89,6.9-5.19,10.18-2.42.7-4.88,1.31-7.37,1.83-6.18,1.31-12.29,1.95-18.17,1.95-4.78,0-9.41-.43-13.83-1.27,3.1-2.4,5.41-4.77,7.13-7.04,7.29.71,15.16.24,23.23-1.46,4.67-.98,9.46-2.38,14.2-4.19Z" style="opacity:.2; stroke-width:0px;"/><path d="m230.9,232.84c-2.12-17.28-16.76-32.69-34.81-36.64-8.49-1.86-16.88-1.3-24.25,1.62l2.95,7.44c5.8-2.3,12.75-2.74,19.59-1.25,14.84,3.25,26.86,15.78,28.58,29.8,1.04,8.5-1.36,17.67-6.77,25.83-9.44,14.24-25.72,22.41-37.14,27.32-41.6,17.87-84.34,21.14-115.8,9.13l2.99-7.66-22.48,4.61,13.44,18.61,3.15-8.09c13.37,5.11,28.6,7.64,44.85,7.64,24.33,0,50.94-5.68,77.02-16.88,12.36-5.31,30.03-14.23,40.65-30.25,6.46-9.75,9.32-20.84,8.04-31.23Z" style="fill:#506973; stroke-width:0px;"/><path d="m230.9,232.84c-2.12-17.28-16.76-32.69-34.81-36.64-8.49-1.86-16.88-1.3-24.25,1.62l2.95,7.44c5.8-2.3,12.75-2.74,19.59-1.25,14.84,3.25,26.86,15.78,28.58,29.8,1.04,8.5-1.36,17.67-6.77,25.83-9.44,14.24-25.72,22.41-37.14,27.32-41.6,17.87-84.34,21.14-115.8,9.13l2.99-7.66-22.48,4.61,13.44,18.61,3.15-8.09c13.37,5.11,28.6,7.64,44.85,7.64,24.33,0,50.94-5.68,77.02-16.88,12.36-5.31,30.03-14.23,40.65-30.25,6.46-9.75,9.32-20.84,8.04-31.23Z" style="fill:#506973; opacity:.2; stroke-width:0px;"/><path d="m.09,122.95l7.28-.58s-.48-6.11,5.86-6.72c3.29-.32,5.17,1.71,6,3.31.96,1.86.89,4.07-.05,5.93-1.07,2.13-3.63,4.2-8.6,3.72l1.3,16.41,7.19-.57-.76-9.61s9.88-3.41,9.01-14.53c-.84-10.64-10.58-12.36-14.66-12.03-3.12.25-13.7,1.84-12.55,14.67Z" style="fill:#e0e0e0; stroke-width:0px;"/><rect x="12.37" y="148.1" width="7.32" height="6.84" transform="translate(-11.9 1.74) rotate(-4.52)" style="fill:#e0e0e0; stroke-width:0px;"/><path d="m3.67,246.24l6.62-1.44s-1.21-5.56,4.55-6.91c2.99-.7,4.97.93,5.93,2.3,1.11,1.59,1.32,3.63.69,5.47-.72,2.1-2.82,4.31-7.45,4.49l3.24,14.93,6.55-1.42-1.9-8.75s8.67-4.37,6.48-14.49c-2.1-9.68-11.27-10.05-14.99-9.24-2.84.62-12.38,3.4-9.72,15.06Z" style="fill:#f5f5f5; stroke-width:0px;"/><rect x="18.49" y="267.37" width="6.8" height="6.35" transform="translate(-56.82 10.78) rotate(-12.23)" style="fill:#f5f5f5; stroke-width:0px;"/><path d="m12.91,39.98l5.36-1.16s-.98-4.5,3.68-5.59c2.42-.57,4.02.75,4.8,1.86.9,1.29,1.07,2.94.56,4.42-.58,1.7-2.28,3.49-6.03,3.64l2.62,12.08,5.3-1.15-1.53-7.08s7.01-3.53,5.24-11.72c-1.7-7.84-9.12-8.13-12.13-7.48-2.3.5-10.02,2.75-7.87,12.18Z" style="fill:#f5f5f5; stroke-width:0px;"/><rect x="24.91" y="57.08" width="5.5" height="5.14" transform="translate(-12.01 7.21) rotate(-12.23)" style="fill:#f5f5f5; stroke-width:0px;"/><path d="m405,36.91l6.62-1.44s-1.21-5.56,4.55-6.91c2.99-.7,4.97.93,5.93,2.3,1.11,1.59,1.32,3.63.69,5.47-.72,2.1-2.82,4.31-7.45,4.49l3.24,14.93,6.55-1.42-1.9-8.75s8.67-4.37,6.48-14.49c-2.1-9.68-11.27-10.05-14.99-9.24-2.84.62-12.38,3.4-9.72,15.06Z" style="fill:#f5f5f5; stroke-width:0px;"/><rect x="419.83" y="58.03" width="6.8" height="6.35" transform="translate(-3.36 91.06) rotate(-12.23)" style="fill:#f5f5f5; stroke-width:0px;"/><path d="m396.39,304.2l3.85.85s.71-3.23,4.09-2.55c1.75.36,2.4,1.7,2.58,2.66.2,1.11-.18,2.24-.96,3.06-.89.93-2.54,1.6-5.03.56l-1.92,8.69,3.81.84,1.12-5.09s5.65-.2,6.95-6.09c1.24-5.63-3.52-8.06-5.68-8.54-1.65-.37-7.37-1.21-8.8,5.6Z" style="fill:#e0e0e0; stroke-width:0px;"/><rect x="398.14" y="319.64" width="3.96" height="3.7" transform="translate(78.8 -78.77) rotate(12.46)" style="fill:#e0e0e0; stroke-width:0px;"/><path d="m218.39,52.87l3.85.85s.71-3.23,4.09-2.55c1.75.36,2.4,1.7,2.58,2.66.2,1.11-.18,2.24-.96,3.06-.89.93-2.54,1.6-5.03.56l-1.92,8.69,3.81.84,1.12-5.09s5.65-.2,6.95-6.09c1.24-5.63-3.52-8.06-5.68-8.54-1.65-.37-7.37-1.21-8.8,5.6Z" style="fill:#e0e0e0; stroke-width:0px;"/><rect x="220.14" y="68.3" width="3.96" height="3.7" transform="translate(20.37 -46.28) rotate(12.46)" style="fill:#e0e0e0; stroke-width:0px;"/><path d="m404.12,209.37l7.84,1.73s1.45-6.58,8.32-5.19c3.57.72,4.89,3.46,5.25,5.41.41,2.26-.37,4.56-1.96,6.23-1.81,1.9-5.17,3.25-10.24,1.15l-3.91,17.67,7.75,1.71,2.29-10.35s11.49-.41,14.14-12.39c2.53-11.46-7.16-16.4-11.56-17.37-3.36-.74-15.01-2.46-17.91,11.4Z" style="fill:#e0e0e0; stroke-width:0px;"/><rect x="407.68" y="240.78" width="8.06" height="7.52" transform="translate(62.47 -83.09) rotate(12.46)" style="fill:#e0e0e0; stroke-width:0px;"/><polygon points="384.83 290.23 364.97 278.72 366.18 303.61 384.83 290.23" style="fill:#36474f; stroke-width:0px;"/><path d="m150.22,132.12c.18,1.42.45,2.83.81,4.25-2.54-1.55-5.54-3.14-8.88-4.44-.51-5.31-.01-10.55,1.4-15.45,2.44.64,5.04,1.43,7.63,2.39-1.17,4.19-1.53,8.69-.96,13.25Z" style="opacity:.2; stroke-width:0px;"/><path d="m265.11,225.1c-2.54-.75-5.35-1.77-8.24-3.18-.32-6.04-.04-12.11.85-18.05,2.08,1.06,4.61,2.19,7.63,3.28-.74,5.93-.81,11.98-.24,17.95Z" style="opacity:.2; stroke-width:0px;"/><path d="m262.82,123.92c-2.18-3.33-4.7-6.41-7.51-9.14-.11-.12-.21-.22-.33-.32-.03-.03-.06-.07-.1-.1-.09-.1-.18-.2-.27-.28-.24-.26-.51-.51-.76-.76-.02-.02-.05-.05-.07-.06-.09-.09-.18-.18-.26-.26-.03-.03-.06-.07-.1-.1-.09-.1-.18-.2-.27-.28-.24-.26-.51-.51-.76-.76-.02-.02-.05-.05-.07-.06-.09-.09-.18-.18-.26-.26-.03-.03-.06-.07-.1-.1-.09-.1-.18-.19-.27-.28-.24-.26-.51-.51-.76-.76-.02-.02-.05-.05-.07-.06-.09-.09-.18-.18-.26-.26-.03-.03-.06-.07-.1-.1-.09-.1-.18-.2-.27-.28-.24-.26-.51-.51-.76-.76-.02-.02-.05-.05-.07-.06-.09-.1-.17-.19-.26-.26-.03-.03-.06-.07-.1-.1-7.7-7.95-17.76-13.2-29.03-13.2-15.16,0-27.64,9.02-35.7,21.3-8.44,12.29-12.85,28.22-13.05,45.87.2,17.47,4.6,33.58,13.05,45.87,2.17,3.25,4.66,6.3,7.43,9.01.13.13.25.24.38.37.02,0,.04.03.05.05.22.23.46.46.68.68.12.13.23.24.35.36.13.13.25.24.38.37.02,0,.04.03.05.05.22.23.46.46.68.68.12.13.23.24.35.36.13.13.25.24.38.37.02,0,.04.03.05.05.22.23.46.46.68.68.12.13.23.24.35.36.13.13.25.24.38.37.02,0,.04.03.05.05.22.23.46.46.68.68.12.13.23.24.35.36.13.13.25.24.38.37.02,0,.04.03.05.05.22.23.46.46.68.68,7.59,7.58,17.37,12.66,28.62,12.66,14.77,0,27.44-9.22,35.51-21.31,8.25-12.29,12.86-28.41,12.86-45.87s-4.61-33.58-12.86-45.87Zm-24.97,72.53c-5.57,8.25-11.9,11.9-17.85,11.9-3.28,0-6.73-1.1-10.12-3.48-.27-.35-.54-.72-.8-1.1-5.37-8.06-9.22-20.34-9.22-33.97s3.84-25.91,9.22-34.16c5.76-8.06,12.29-11.9,18.24-11.71,3.16-.1,6.43.94,9.63,3.15.3.41.6.82.9,1.25,5.37,8.25,9.22,20.34,9.22,34.16s-3.84,25.91-9.22,33.97Z" style="fill:#ffc727; stroke-width:0px;"/><path d="m262.82,123.92c-2.18-3.33-4.7-6.41-7.51-9.14-.11-.12-.21-.22-.33-.32-.03-.03-.06-.07-.1-.1-.09-.1-.18-.2-.27-.28-.24-.26-.51-.51-.76-.76-.02-.02-.05-.05-.07-.06-.09-.09-.18-.18-.26-.26-.03-.03-.06-.07-.1-.1-.09-.1-.18-.2-.27-.28-.24-.26-.51-.51-.76-.76-.02-.02-.05-.05-.07-.06-.09-.09-.18-.18-.26-.26-.03-.03-.06-.07-.1-.1-.09-.1-.18-.19-.27-.28-.24-.26-.51-.51-.76-.76-.02-.02-.05-.05-.07-.06-.09-.09-.18-.18-.26-.26-.03-.03-.06-.07-.1-.1-.09-.1-.18-.2-.27-.28-.24-.26-.51-.51-.76-.76-.02-.02-.05-.05-.07-.06-.09-.1-.17-.19-.26-.26-.03-.03-.06-.07-.1-.1-7.7-7.95-17.76-13.2-29.03-13.2-15.16,0-27.64,9.02-35.7,21.3-8.44,12.29-12.85,28.22-13.05,45.87.2,17.47,4.6,33.58,13.05,45.87,2.17,3.25,4.66,6.3,7.43,9.01.13.13.25.24.38.37.02,0,.04.03.05.05.22.23.46.46.68.68.12.13.23.24.35.36.13.13.25.24.38.37.02,0,.04.03.05.05.22.23.46.46.68.68.12.13.23.24.35.36.13.13.25.24.38.37.02,0,.04.03.05.05.22.23.46.46.68.68.12.13.23.24.35.36.13.13.25.24.38.37.02,0,.04.03.05.05.22.23.46.46.68.68.12.13.23.24.35.36.13.13.25.24.38.37.02,0,.04.03.05.05.22.23.46.46.68.68,7.59,7.58,17.37,12.66,28.62,12.66,14.77,0,27.44-9.22,35.51-21.31,8.25-12.29,12.86-28.41,12.86-45.87s-4.61-33.58-12.86-45.87Zm-24.97,72.53c-5.57,8.25-11.9,11.9-17.85,11.9-3.28,0-6.73-1.1-10.12-3.48-.27-.35-.54-.72-.8-1.1-5.37-8.06-9.22-20.34-9.22-33.97s3.84-25.91,9.22-34.16c5.76-8.06,12.29-11.9,18.24-11.71,3.16-.1,6.43.94,9.63,3.15.3.41.6.82.9,1.25,5.37,8.25,9.22,20.34,9.22,34.16s-3.84,25.91-9.22,33.97Z" style="opacity:.1; stroke-width:0px;"/><path d="m171.25,162.48c.19-17.66,4.61-33.59,13.05-45.87,8.06-12.28,20.53-21.3,35.7-21.3s27.44,9.02,35.51,21.3c8.25,12.28,12.86,28.21,12.86,45.87s-4.61,33.59-12.86,45.87c-8.06,12.09-20.73,21.3-35.51,21.3s-27.64-9.21-35.7-21.3c-8.45-12.28-12.86-28.4-13.05-45.87Zm75.81,0c0-13.82-3.84-25.91-9.21-34.16-5.57-8.06-11.9-11.9-17.85-11.71-5.95-.19-12.48,3.65-18.23,11.71-5.37,8.25-9.21,20.34-9.21,34.16s3.84,25.91,9.21,33.97c5.76,8.25,12.28,11.9,18.23,11.9s12.28-3.65,17.85-11.9c5.37-8.06,9.21-20.34,9.21-33.97Z" style="fill:#ffc727; stroke-width:0px;"/><path d="m369.21,288.49c-7.36.52-15.04.9-22.75.9-32.77,0-66.52-6.69-82.54-36.47-5.93-11.03-9.34-23.83-10.01-36.78-.32-6.04-.04-12.11.85-18.05.38-2.52.87-5.01,1.47-7.47,2.02-8.27,5.83-15.14,11.02-19.87,5.33-4.87,12.48-7.21,20.11-6.59,8.17.66,15.99,4.77,20.9,10.98l-6.27,4.97c-3.57-4.51-9.28-7.49-15.27-7.98-5.41-.43-10.4,1.17-14.08,4.53-4.01,3.65-7,9.14-8.64,15.87-.71,2.9-1.25,5.85-1.61,8.84-.74,5.93-.81,11.98-.24,17.95,1,10.53,3.98,20.82,8.82,29.81,17.62,32.75,61.45,33.98,97.67,31.38l.57,7.98Z" style="fill:#36474f; stroke-width:0px;"/><path d="m224.17,146.62c-3.52,1.84-6.95,3.89-10.28,5.87-7.2,4.29-14.01,8.35-21.56,10.51-15.54,4.44-34.54-.06-49.6-11.74-12.4-9.62-22.87-23.93-32-43.75-4.21-9.13-7.88-18.73-11.42-28.02-2.08-5.46-4.24-11.11-6.5-16.63-5.08-12.44-13.08-20.86-22.98-24.41l3.72-7.61-22.79,2.73,11.85,19.65,3.68-7.54c10.73,3.43,16.49,13.79,19.11,20.2,2.22,5.44,4.36,11.04,6.43,16.46,3.59,9.41,7.31,19.14,11.63,28.51,9.69,21.01,20.93,36.29,34.36,46.72,12.74,9.89,27.6,15.15,41.83,15.15,5.08,0,10.08-.67,14.87-2.04,8.55-2.45,16.13-6.96,23.46-11.32,3.23-1.93,6.58-3.92,9.9-5.66l-3.71-7.09Z" style="fill:#455a64; stroke-width:0px;"/><path d="m154.35,192.03s0,0,0,0c-.22-.25-.47-.5-.72-.72t0,0c-.22-.25-.47-.5-.72-.72t0,0c-.22-.25-.47-.5-.72-.72t0,0c-.22-.25-.47-.5-.72-.72t0,0c-.22-.25-.47-.5-.72-.72t0,0c-.22-.25-.47-.5-.72-.72t0,0c-.22-.25-.47-.5-.72-.72t0,0c-.22-.25-.47-.5-.72-.72t0,0c-.22-.25-.47-.5-.72-.72t0,0c-.74-.81-1.6-1.5-2.56-2.06v-72.24c0-.38-.19-.58-.19-.96,0-.58,0-.77-.19-1.15,0-.2-.19-.58-.19-.77-.2-.58-.2-.77-.39-1.15-.2-.2-.38-.58-.38-.77-.39-.58-.58-.77-.77-.96-.2-.2-.38-.58-.58-.77l-.77-.77c0-.12-.15-.23-.31-.31-.1-.1-.22-.22-.38-.38l-.04-.04c0-.12-.15-.23-.31-.31-.1-.1-.22-.22-.38-.38l-.04-.04c0-.12-.15-.23-.31-.31-.1-.1-.22-.22-.38-.38l-.04-.04c0-.12-.15-.23-.31-.31-.1-.1-.22-.22-.38-.38l-.04-.04c0-.12-.15-.23-.31-.31-.1-.1-.22-.22-.38-.38l-.04-.04c0-.12-.15-.23-.31-.31-.1-.1-.22-.22-.38-.38l-.04-.04c0-.12-.15-.23-.31-.31-.1-.1-.22-.22-.38-.38l-.04-.04c0-.12-.15-.23-.31-.31-.1-.1-.22-.22-.38-.38l-.04-.04c0-.12-.15-.23-.31-.31-.1-.1-.22-.22-.38-.38l-.04-.04c0-.12-.15-.23-.31-.31l-.42-.42c0-.19-.38-.38-.58-.38,0-.2-.19-.2-.19-.2-.39-.19-.59-.38-.97-.58-.2-.2-.58-.38-.96-.77-.2,0-.58-.19-.77-.19-.38-.2-.97-.2-1.15-.39-.38,0-.58,0-.97-.19h-3.26c-.2.19-.58.19-.77.19-.58.2-.96.2-1.15.39-.38,0-.58.19-.77.58-.58,0-.76.19-1.15.38-.19.19-.58.39-.77.58-.19.2-.38.39-.96.58-.19.39-.38.58-.58.77-.2.19-.2.38-.38.38l-71.01,88.29c-3.44,4.34-3.12,10.4.96,14.12.22.26.47.51.73.73.22.26.47.51.73.73.22.26.47.51.73.73.22.26.47.51.73.73.22.26.47.51.73.73.22.26.47.51.73.73.22.26.47.51.73.73.22.26.47.51.73.73.22.26.47.51.73.73.44.5.95.97,1.5,1.38,1.92,1.73,4.22,2.3,6.52,2.3h53.15v7.27c0,3.18,1.31,5.97,3.43,7.88l.03.03c.22.24.46.48.7.7,0,0,.02,0,.02.02.22.25.47.49.71.71l.03.03c.22.24.46.48.7.7,0,0,.02,0,.02.02.22.25.47.49.71.71l.03.03c.22.24.46.48.7.7,0,0,.02,0,.02.02.22.25.47.49.71.71l.03.03c.22.24.46.48.7.7,0,0,.02,0,.02.02.22.25.47.49.71.71l.03.03c.22.24.46.48.7.7,0,0,.02,0,.02.02,1.91,2.1,4.68,3.39,7.83,3.39,5.95,0,10.55-4.61,10.55-10.56v-14.59h1.92c5.95,0,10.75-4.6,10.75-10.55,0-3.05-1.36-5.84-3.51-7.78Zm-37.57-41.1v31.02h-24.99l24.99-31.02Z" style="fill:#ffc727; stroke-width:0px;"/><path d="m154.35,192.03s0,0,0,0c-.22-.25-.47-.5-.72-.72t0,0c-.22-.25-.47-.5-.72-.72t0,0c-.22-.25-.47-.5-.72-.72t0,0c-.22-.25-.47-.5-.72-.72t0,0c-.22-.25-.47-.5-.72-.72t0,0c-.22-.25-.47-.5-.72-.72t0,0c-.22-.25-.47-.5-.72-.72t0,0c-.22-.25-.47-.5-.72-.72t0,0c-.22-.25-.47-.5-.72-.72t0,0c-.74-.81-1.6-1.5-2.56-2.06v-72.24c0-.38-.19-.58-.19-.96,0-.58,0-.77-.19-1.15,0-.2-.19-.58-.19-.77-.2-.58-.2-.77-.39-1.15-.2-.2-.38-.58-.38-.77-.39-.58-.58-.77-.77-.96-.2-.2-.38-.58-.58-.77l-.77-.77c0-.12-.15-.23-.31-.31-.1-.1-.22-.22-.38-.38l-.04-.04c0-.12-.15-.23-.31-.31-.1-.1-.22-.22-.38-.38l-.04-.04c0-.12-.15-.23-.31-.31-.1-.1-.22-.22-.38-.38l-.04-.04c0-.12-.15-.23-.31-.31-.1-.1-.22-.22-.38-.38l-.04-.04c0-.12-.15-.23-.31-.31-.1-.1-.22-.22-.38-.38l-.04-.04c0-.12-.15-.23-.31-.31-.1-.1-.22-.22-.38-.38l-.04-.04c0-.12-.15-.23-.31-.31-.1-.1-.22-.22-.38-.38l-.04-.04c0-.12-.15-.23-.31-.31-.1-.1-.22-.22-.38-.38l-.04-.04c0-.12-.15-.23-.31-.31-.1-.1-.22-.22-.38-.38l-.04-.04c0-.12-.15-.23-.31-.31l-.42-.42c0-.19-.38-.38-.58-.38,0-.2-.19-.2-.19-.2-.39-.19-.59-.38-.97-.58-.2-.2-.58-.38-.96-.77-.2,0-.58-.19-.77-.19-.38-.2-.97-.2-1.15-.39-.38,0-.58,0-.97-.19h-3.26c-.2.19-.58.19-.77.19-.58.2-.96.2-1.15.39-.38,0-.58.19-.77.58-.58,0-.76.19-1.15.38-.19.19-.58.39-.77.58-.19.2-.38.39-.96.58-.19.39-.38.58-.58.77-.2.19-.2.38-.38.38l-71.01,88.29c-3.44,4.34-3.12,10.4.96,14.12.22.26.47.51.73.73.22.26.47.51.73.73.22.26.47.51.73.73.22.26.47.51.73.73.22.26.47.51.73.73.22.26.47.51.73.73.22.26.47.51.73.73.22.26.47.51.73.73.22.26.47.51.73.73.44.5.95.97,1.5,1.38,1.92,1.73,4.22,2.3,6.52,2.3h53.15v7.27c0,3.18,1.31,5.97,3.43,7.88l.03.03c.22.24.46.48.7.7,0,0,.02,0,.02.02.22.25.47.49.71.71l.03.03c.22.24.46.48.7.7,0,0,.02,0,.02.02.22.25.47.49.71.71l.03.03c.22.24.46.48.7.7,0,0,.02,0,.02.02.22.25.47.49.71.71l.03.03c.22.24.46.48.7.7,0,0,.02,0,.02.02.22.25.47.49.71.71l.03.03c.22.24.46.48.7.7,0,0,.02,0,.02.02,1.91,2.1,4.68,3.39,7.83,3.39,5.95,0,10.55-4.61,10.55-10.56v-14.59h1.92c5.95,0,10.75-4.6,10.75-10.55,0-3.05-1.36-5.84-3.51-7.78Zm-37.57-41.1v31.02h-24.99l24.99-31.02Z" style="opacity:.1; stroke-width:0px;"/><path d="m150.55,192.5c0,5.95-4.8,10.56-10.75,10.56h-1.92v14.59c0,5.95-4.61,10.56-10.55,10.56s-10.56-4.61-10.56-10.56v-14.59h-60.46c-2.3,0-4.61-.58-6.53-2.3-4.8-3.65-5.37-10.17-1.73-14.78l71.01-88.29c.19,0,.19-.19.38-.38.19-.19.38-.38.58-.77.57-.19.77-.38.96-.58.19-.19.58-.38.77-.58.38-.19.58-.38,1.15-.38.19-.38.38-.58.77-.58.19-.19.58-.19,1.15-.38.19,0,.57,0,.77-.19h3.26c.38.19.58.19.96.19.19.19.77.19,1.15.38.19,0,.58.19.77.19.38.38.77.58.96.77.38.19.58.38.96.58,0,0,.19,0,.19.19.19,0,.58.19.58.38.38.38.57.58.77.77.19.19.38.58.58.77.19.19.38.38.77.96,0,.19.19.58.38.77.19.38.19.58.38,1.15,0,.19.19.58.19.77.19.38.19.58.19,1.15,0,.38.19.58.19.96v78.11h1.92c5.95,0,10.75,4.8,10.75,10.56Zm-33.78-57.96l-38.19,47.41h38.19v-47.41Z" style="fill:#ffc727; stroke-width:0px;"/><path d="m165.32,100.21c6.68-3.93,17.81-6.22,26.18-2.99,2.86,1.1,5.11,2.77,6.72,4.97,2.23-1.52,4.59-2.81,7.07-3.87-2.54-3.85-6.23-6.77-10.91-8.58-11.23-4.33-25.04-1.19-33.12,3.56-8.76,5.16-14.97,13.51-17.71,23.16-1.41,4.9-1.91,10.14-1.4,15.45.04.39.08.79.13,1.18.87,7.06,3.72,13.77,6.47,20.26,4.76,11.21,8.87,20.9,3.52,31.2-6.05,11.64-20.49,14.92-31.02,14.19-16.77-1.16-36.61-13.1-46.13-27.77-4.21-6.47-8.35-16.58-4.2-27.97l-7.52-2.74c-4.17,11.47-2.45,23.59,5.01,35.07,10.76,16.58,33.25,30.07,52.29,31.39,1.07.07,2.17.11,3.3.11,12.53,0,28.19-4.76,35.37-18.59,7.08-13.65,1.59-26.59-3.25-38.01-2.03-4.77-3.96-9.34-5.09-13.88-.36-1.42-.63-2.83-.81-4.25-.57-4.56-.21-9.06.96-13.25,2.17-7.79,7.12-14.53,14.14-18.65Z" style="fill:#36474f; stroke-width:0px;"/><path d="m133.15,346.58h-2.65v4.68c0,.65-.54,1.19-1.21,1.19s-1.19-.54-1.19-1.19v-12.72c0-.67.54-1.19,1.19-1.19h3.86c2.57,0,4.64,2.07,4.64,4.64s-2.07,4.59-4.64,4.59Zm-2.65-2.39h2.65c1.25,0,2.22-.99,2.24-2.2-.02-1.25-.99-2.24-2.24-2.24h-2.65v4.44Z" style="fill:#263238; stroke-width:0px;"/><path d="m146.86,348.88h-5.24l-1.06,2.8c-.19.47-.65.75-1.12.75-.15,0-.28-.02-.41-.06-.63-.24-.93-.93-.71-1.55l4.76-12.7c.19-.47.67-.78,1.14-.75.5-.02.95.28,1.14.75l4.76,12.7c.22.63-.09,1.32-.71,1.55-.11.04-.26.06-.41.06-.47,0-.93-.28-1.1-.75l-1.06-2.8Zm-.88-2.37l-1.75-4.64-1.75,4.64h3.49Z" style="fill:#263238; stroke-width:0px;"/><path d="m151.73,344.7c0-4.33,3.58-7.78,7.96-7.78,1.83,0,3.58.63,4.92,1.68.56.41.65,1.21.24,1.75-.41.52-1.21.63-1.75.19-.93-.71-2.11-1.16-3.41-1.16-1.55,0-2.91.58-3.88,1.57-1.01.97-1.62,2.28-1.62,3.75s.6,2.74,1.62,3.71c.97.99,2.33,1.57,3.88,1.57,1.08,0,2.09-.32,2.95-.82v-2.95h-3.08c-.67,0-1.23-.56-1.23-1.23s.56-1.21,1.23-1.21h4.29c.69,0,1.25.52,1.25,1.21v4.76c0,.15-.04.24-.06.37-.02.04-.02.06-.04.11v.02c-.06.19-.19.37-.41.52-1.36,1.06-3.06,1.68-4.89,1.68-4.38,0-7.96-3.43-7.96-7.74Z" style="fill:#263238; stroke-width:0px;"/><path d="m169.95,351.26v-12.72c0-.67.52-1.19,1.19-1.19h7.05c.63,0,1.19.52,1.19,1.19s-.56,1.21-1.19,1.21h-5.84v3.95h5.02c.65,0,1.19.56,1.19,1.19,0,.67-.54,1.21-1.19,1.21h-5.02v3.97h5.84c.63,0,1.19.54,1.19,1.21s-.56,1.19-1.19,1.19h-6.99s-.04-.02-.04-.02l-.02.02c-.67,0-1.19-.54-1.19-1.19Z" style="fill:#263238; stroke-width:0px;"/><path d="m191.57,351.26c0,.65-.54,1.19-1.16,1.19-.67,0-1.19-.54-1.19-1.19v-12.55c-.02-.37.15-.75.47-.99.54-.37,1.27-.26,1.64.26l6.96,9.64v-8.88c0-.63.52-1.16,1.16-1.16s1.19.54,1.19,1.16v12.53c0,.65-.54,1.19-1.19,1.19-.35,0-.67-.17-.88-.43-.04-.04-.09-.09-.11-.13l-6.9-9.57v8.95Z" style="fill:#263238; stroke-width:0px;"/><path d="m216.64,339.22c1.34,1.42,2.18,3.32,2.18,5.45s-.84,4.05-2.18,5.45c-1.27,1.4-3.17,2.31-5.15,2.31s-3.97-.91-5.28-2.31c-1.34-1.4-2.13-3.32-2.13-5.45s.8-4.03,2.13-5.45c1.32-1.42,3.21-2.31,5.28-2.31s3.88.88,5.15,2.31Zm-.28,5.45c0-1.47-.58-2.82-1.47-3.77-.91-.97-2.11-1.53-3.41-1.53-1.38,0-2.59.56-3.49,1.53-.91.95-1.47,2.31-1.47,3.77s.56,2.82,1.47,3.75c.91.97,2.11,1.55,3.49,1.55,1.29,0,2.5-.58,3.41-1.55.88-.93,1.47-2.29,1.47-3.75Z" style="fill:#263238; stroke-width:0px;"/><path d="m231.1,339.74h-3.43v11.51c0,.67-.52,1.19-1.19,1.19s-1.19-.52-1.19-1.19v-11.51h-3.41c-.67,0-1.19-.56-1.19-1.21s.52-1.19,1.19-1.19h9.21c.65,0,1.19.52,1.19,1.19s-.54,1.21-1.19,1.21Z" style="fill:#263238; stroke-width:0px;"/><path d="m242.31,351.26v-12.72c0-.65.52-1.19,1.19-1.19h7.05c.63,0,1.19.54,1.19,1.19s-.56,1.21-1.19,1.21h-5.84v3.95h5.02c.65,0,1.19.56,1.19,1.19,0,.67-.54,1.21-1.19,1.21h-5.02v5.17c0,.65-.54,1.19-1.21,1.19s-1.19-.54-1.19-1.19Z" style="fill:#263238; stroke-width:0px;"/><path d="m266.82,339.22c1.34,1.42,2.18,3.32,2.18,5.45s-.84,4.05-2.18,5.45c-1.27,1.4-3.17,2.31-5.15,2.31s-3.97-.91-5.28-2.31c-1.34-1.4-2.13-3.32-2.13-5.45s.8-4.03,2.13-5.45c1.31-1.42,3.21-2.31,5.28-2.31s3.88.88,5.15,2.31Zm-.28,5.45c0-1.47-.58-2.82-1.47-3.77-.91-.97-2.11-1.53-3.41-1.53-1.38,0-2.59.56-3.49,1.53-.91.95-1.47,2.31-1.47,3.77s.56,2.82,1.47,3.75c.91.97,2.11,1.55,3.49,1.55,1.29,0,2.5-.58,3.41-1.55.88-.93,1.47-2.29,1.47-3.75Z" style="fill:#263238; stroke-width:0px;"/><path d="m278.52,352.44c-3.47,0-6.23-2.8-6.23-6.23v-7.68c0-.67.52-1.19,1.19-1.19s1.21.52,1.21,1.19v7.68c0,2.11,1.73,3.84,3.84,3.84s3.84-1.72,3.84-3.84v-7.68c0-.67.54-1.19,1.21-1.19s1.19.52,1.19,1.19v7.68c0,3.43-2.78,6.23-6.23,6.23Z" style="fill:#263238; stroke-width:0px;"/><path d="m291.86,351.26c0,.65-.54,1.19-1.16,1.19-.67,0-1.19-.54-1.19-1.19v-12.55c-.02-.37.15-.75.47-.99.54-.37,1.27-.26,1.64.26l6.96,9.64v-8.88c0-.63.52-1.16,1.16-1.16s1.19.54,1.19,1.16v12.53c0,.65-.54,1.19-1.19,1.19-.35,0-.67-.17-.88-.43-.04-.04-.09-.09-.11-.13l-6.9-9.57v8.95Z" style="fill:#263238; stroke-width:0px;"/><path d="m305.03,351.26v-12.72c0-.67.52-1.19,1.19-1.19h2.54c4.16,0,7.52,3.38,7.52,7.52s-3.36,7.57-7.52,7.57h-2.54c-.67,0-1.19-.54-1.19-1.19Zm2.39-1.21h1.34c2.85-.02,5.13-2.31,5.13-5.17s-2.29-5.13-5.13-5.13h-1.34v10.31Z" style="fill:#263238; stroke-width:0px;"/><path d="m393.57,192.03s0,0,0,0c-.23-.25-.48-.5-.72-.72t0,0c-.23-.25-.48-.5-.72-.72t0,0c-.23-.25-.48-.5-.72-.72t0,0c-.23-.25-.48-.5-.72-.72t0,0c-.23-.25-.48-.5-.72-.72t0,0c-.23-.25-.48-.5-.72-.72t0,0c-.23-.25-.48-.5-.72-.72t0,0c-.23-.25-.48-.5-.72-.72t0,0c-.23-.25-.48-.5-.72-.72t0,0c-.74-.81-1.61-1.51-2.57-2.06v-72.24c0-.38-.19-.58-.19-.96,0-.58,0-.77-.19-1.15,0-.2-.19-.58-.19-.77-.19-.58-.19-.77-.39-1.15-.19-.2-.38-.58-.38-.77-.38-.58-.58-.77-.77-.96-.2-.2-.38-.58-.58-.77l-.77-.77c0-.12-.15-.23-.31-.31-.1-.1-.22-.22-.38-.38l-.04-.04c0-.12-.15-.23-.31-.31-.1-.1-.22-.22-.38-.38l-.04-.04c0-.12-.15-.23-.31-.31-.1-.1-.22-.22-.38-.38l-.04-.04c0-.12-.15-.23-.31-.31l-.38-.38-.04-.04c0-.12-.15-.23-.31-.31-.1-.1-.22-.22-.38-.38l-.04-.04c0-.12-.15-.23-.31-.31-.1-.1-.22-.22-.38-.38l-.04-.04c0-.12-.15-.23-.31-.31-.1-.1-.22-.22-.38-.38l-.04-.04c0-.12-.15-.23-.31-.31-.1-.1-.22-.22-.38-.38l-.04-.04c0-.12-.15-.23-.31-.31-.1-.1-.22-.22-.38-.38l-.04-.04c0-.12-.15-.23-.31-.31l-.42-.42c0-.19-.38-.38-.58-.38,0-.2-.2-.2-.2-.2-.38-.19-.58-.38-.96-.58-.2-.2-.58-.38-.96-.77-.2,0-.58-.19-.77-.19-.38-.2-.96-.2-1.15-.39-.39,0-.58,0-.97-.19h-3.26c-.2.19-.58.19-.77.19-.58.2-.96.2-1.15.39-.38,0-.58.19-.77.58-.57,0-.76.19-1.15.38-.19.19-.58.39-.76.58-.19.2-.39.39-.97.58-.2.39-.38.58-.58.77-.19.19-.19.38-.38.38l-71.01,88.29c-3.44,4.34-3.12,10.4.96,14.12.22.26.47.51.73.73.22.26.47.51.73.73.22.26.47.51.73.73.22.26.47.51.73.73.22.26.47.51.73.73.22.26.47.51.73.73.22.26.47.51.73.73.22.26.47.51.73.73.22.26.47.51.73.73.44.5.95.97,1.5,1.38,1.92,1.73,4.22,2.3,6.52,2.3h53.15v7.27c0,3.17,1.31,5.97,3.43,7.88,0,0,.02,0,.02.02.22.25.47.49.71.71l.03.03c.22.24.46.48.7.7,0,0,.02,0,.02.02.22.25.47.49.71.71l.03.03c.22.24.46.48.7.7,0,0,.02,0,.02.02.22.25.47.49.71.71l.03.03c.22.24.46.48.7.7,0,0,.02,0,.02.02.22.25.47.49.71.71l.03.03c.22.24.46.48.7.7,0,0,.02,0,.02.02.22.25.47.49.71.71l.03.03c1.91,2.1,4.67,3.38,7.82,3.38,5.95,0,10.55-4.61,10.55-10.56v-14.59h1.92c5.96,0,10.76-4.6,10.76-10.55,0-3.05-1.36-5.84-3.51-7.78Zm-37.58-41.1v31.02h-24.99l24.99-31.02Z" style="fill:#ffc727; stroke-width:0px;"/><path d="m393.57,192.03s0,0,0,0c-.23-.25-.48-.5-.72-.72t0,0c-.23-.25-.48-.5-.72-.72t0,0c-.23-.25-.48-.5-.72-.72t0,0c-.23-.25-.48-.5-.72-.72t0,0c-.23-.25-.48-.5-.72-.72t0,0c-.23-.25-.48-.5-.72-.72t0,0c-.23-.25-.48-.5-.72-.72t0,0c-.23-.25-.48-.5-.72-.72t0,0c-.23-.25-.48-.5-.72-.72t0,0c-.74-.81-1.61-1.51-2.57-2.06v-72.24c0-.38-.19-.58-.19-.96,0-.58,0-.77-.19-1.15,0-.2-.19-.58-.19-.77-.19-.58-.19-.77-.39-1.15-.19-.2-.38-.58-.38-.77-.38-.58-.58-.77-.77-.96-.2-.2-.38-.58-.58-.77l-.77-.77c0-.12-.15-.23-.31-.31-.1-.1-.22-.22-.38-.38l-.04-.04c0-.12-.15-.23-.31-.31-.1-.1-.22-.22-.38-.38l-.04-.04c0-.12-.15-.23-.31-.31-.1-.1-.22-.22-.38-.38l-.04-.04c0-.12-.15-.23-.31-.31l-.38-.38-.04-.04c0-.12-.15-.23-.31-.31-.1-.1-.22-.22-.38-.38l-.04-.04c0-.12-.15-.23-.31-.31-.1-.1-.22-.22-.38-.38l-.04-.04c0-.12-.15-.23-.31-.31-.1-.1-.22-.22-.38-.38l-.04-.04c0-.12-.15-.23-.31-.31-.1-.1-.22-.22-.38-.38l-.04-.04c0-.12-.15-.23-.31-.31-.1-.1-.22-.22-.38-.38l-.04-.04c0-.12-.15-.23-.31-.31l-.42-.42c0-.19-.38-.38-.58-.38,0-.2-.2-.2-.2-.2-.38-.19-.58-.38-.96-.58-.2-.2-.58-.38-.96-.77-.2,0-.58-.19-.77-.19-.38-.2-.96-.2-1.15-.39-.39,0-.58,0-.97-.19h-3.26c-.2.19-.58.19-.77.19-.58.2-.96.2-1.15.39-.38,0-.58.19-.77.58-.57,0-.76.19-1.15.38-.19.19-.58.39-.76.58-.19.2-.39.39-.97.58-.2.39-.38.58-.58.77-.19.19-.19.38-.38.38l-71.01,88.29c-3.44,4.34-3.12,10.4.96,14.12.22.26.47.51.73.73.22.26.47.51.73.73.22.26.47.51.73.73.22.26.47.51.73.73.22.26.47.51.73.73.22.26.47.51.73.73.22.26.47.51.73.73.22.26.47.51.73.73.22.26.47.51.73.73.44.5.95.97,1.5,1.38,1.92,1.73,4.22,2.3,6.52,2.3h53.15v7.27c0,3.17,1.31,5.97,3.43,7.88,0,0,.02,0,.02.02.22.25.47.49.71.71l.03.03c.22.24.46.48.7.7,0,0,.02,0,.02.02.22.25.47.49.71.71l.03.03c.22.24.46.48.7.7,0,0,.02,0,.02.02.22.25.47.49.71.71l.03.03c.22.24.46.48.7.7,0,0,.02,0,.02.02.22.25.47.49.71.71l.03.03c.22.24.46.48.7.7,0,0,.02,0,.02.02.22.25.47.49.71.71l.03.03c1.91,2.1,4.67,3.38,7.82,3.38,5.95,0,10.55-4.61,10.55-10.56v-14.59h1.92c5.96,0,10.76-4.6,10.76-10.55,0-3.05-1.36-5.84-3.51-7.78Zm-37.58-41.1v31.02h-24.99l24.99-31.02Z" style="opacity:.1; stroke-width:0px;"/><path d="m389.77,192.5c0,5.95-4.8,10.56-10.75,10.56h-1.92v14.59c0,5.95-4.61,10.56-10.55,10.56s-10.56-4.61-10.56-10.56v-14.59h-60.46c-2.31,0-4.61-.58-6.53-2.3-4.8-3.65-5.37-10.17-1.72-14.78l71.01-88.29c.19,0,.19-.19.38-.38.19-.19.38-.38.58-.77.58-.19.77-.38.96-.58.19-.19.58-.38.77-.58.38-.19.58-.38,1.15-.38.19-.38.38-.58.77-.58.19-.19.58-.19,1.15-.38.19,0,.58,0,.77-.19h3.26c.38.19.58.19.96.19.19.19.77.19,1.15.38.19,0,.58.19.77.19.38.38.76.58.96.77.38.19.58.38.96.58,0,0,.19,0,.19.19.19,0,.58.19.58.38.38.38.58.58.77.77.19.19.38.58.58.77.19.19.38.38.77.96,0,.19.19.58.38.77.19.38.19.58.38,1.15,0,.19.19.58.19.77.19.38.19.58.19,1.15,0,.38.19.58.19.96v78.11h1.92c5.95,0,10.75,4.8,10.75,10.56Zm-33.78-57.96l-38.2,47.41h38.2v-47.41Z" style="fill:#ffc727; stroke-width:0px;"/><path d="m304.19,148.34c1.91.72,3.8,1.51,5.65,2.37,14.43,6.75,26.53,17.94,34.7,31.23h9.2c-8.93-16.44-23.2-30.38-40.51-38.48-2.93-1.37-5.96-2.57-9.04-3.62v8.49Z" style="fill:#455a64; stroke-width:0px;"/></g><g id="Lines"><polygon points="377.33 92.91 373.52 64.46 381.14 64.46 377.33 92.91 377.33 92.91" style="fill:#5b7a86; stroke-width:0px;"/><polygon points="382.6 94.55 395.13 61.56 401.92 65.02 382.6 94.55 382.6 94.55" style="fill:#5b7a86; stroke-width:0px;"/><polygon points="386.55 98.4 405.71 79.77 410.19 85.94 386.55 98.4 386.55 98.4" style="fill:#5b7a86; stroke-width:0px;"/></g></svg>