<svg id="logo-41" width="166" height="49" viewBox="0 0 166 49" fill="none" xmlns="http://www.w3.org/2000/svg"> <path d="M54.7309 16.896C54.7309 16.0264 54.6115 15.387 54.3728 14.9778C54.1341 14.5515 53.6567 14.3384 52.9406 14.3384H52.4291V13.8269H54.7309C55.3617 13.8269 55.8306 13.9122 56.1375 14.0827C56.4615 14.2361 56.6917 14.526 56.8281 14.9522C56.9645 15.3785 57.0327 16.0264 57.0327 16.896V29.6838H66.112V30.7068H54.7309V16.896Z" fill="#4845D2" class="ccustom"></path> <path d="M71.9418 30.9625C70.7824 30.9625 69.7764 30.6897 68.9239 30.1441C68.0714 29.5814 67.4235 28.8227 66.9802 27.8679C66.5369 26.9131 66.3152 25.8559 66.3152 24.6965C66.3152 23.5371 66.5369 22.48 66.9802 21.5251C67.4235 20.5703 68.0714 19.8201 68.9239 19.2745C69.7764 18.7118 70.7824 18.4305 71.9418 18.4305C73.1013 18.4305 74.1072 18.7118 74.9597 19.2745C75.8123 19.8201 76.4602 20.5703 76.9035 21.5251C77.3468 22.48 77.5685 23.5371 77.5685 24.6965C77.5685 25.8559 77.3468 26.9131 76.9035 27.8679C76.4602 28.8227 75.8123 29.5814 74.9597 30.1441C74.1072 30.6897 73.1013 30.9625 71.9418 30.9625ZM71.9418 29.9395C72.5727 29.9395 73.1268 29.7093 73.6042 29.249C74.0987 28.7886 74.4738 28.1577 74.7296 27.3564C75.0024 26.555 75.1388 25.6684 75.1388 24.6965C75.1388 23.7246 75.0024 22.838 74.7296 22.0367C74.4738 21.2353 74.0987 20.6044 73.6042 20.1441C73.1268 19.6837 72.5727 19.4535 71.9418 19.4535C71.311 19.4535 70.7483 19.6837 70.2538 20.1441C69.7764 20.6044 69.4013 21.2353 69.1285 22.0367C68.8728 22.838 68.7449 23.7246 68.7449 24.6965C68.7449 25.6684 68.8728 26.555 69.1285 27.3564C69.4013 28.1577 69.7764 28.7886 70.2538 29.249C70.7483 29.7093 71.311 29.9395 71.9418 29.9395Z" fill="#4845D2" class="ccustom"></path> <path d="M84.2507 35.8219C82.5286 35.8219 81.156 35.5065 80.133 34.8756C79.127 34.2447 78.624 33.2388 78.624 31.8577C78.624 31.0734 78.8883 30.3913 79.4169 29.8116C79.9454 29.2319 80.6189 28.8057 81.4374 28.5329C80.7553 28.1577 80.4143 27.6462 80.4143 26.9983C80.4143 26.6573 80.4911 26.393 80.6445 26.2055C80.798 26.0179 81.0196 25.8133 81.3095 25.5917C80.7639 25.3189 80.3035 24.8926 79.9284 24.3129C79.5703 23.7332 79.3913 23.0512 79.3913 22.2668C79.3913 19.7093 81.0111 18.4305 84.2507 18.4305H88.9821V19.0699L87.3197 19.3256V19.4535C87.8483 19.7263 88.2746 20.11 88.5985 20.6044C88.9395 21.0818 89.11 21.636 89.11 22.2668C89.11 24.8244 87.4902 26.1032 84.2507 26.1032C82.4604 26.1032 81.5652 26.4016 81.5652 26.9983C81.5652 27.5951 82.4604 27.8935 84.2507 27.8935C85.9046 27.8935 87.2515 28.2259 88.2916 28.8909C89.3487 29.5388 89.8773 30.5277 89.8773 31.8577C89.8773 33.2388 89.3658 34.2447 88.3428 34.8756C87.3368 35.5065 85.9728 35.8219 84.2507 35.8219ZM84.2507 25.208C85.0179 25.208 85.6317 24.9778 86.0921 24.5175C86.5695 24.0401 86.8082 23.2899 86.8082 22.2668C86.8082 21.295 86.5695 20.5618 86.0921 20.0673C85.6317 19.5729 85.0179 19.3256 84.2507 19.3256C83.4834 19.3256 82.8611 19.5644 82.3837 20.0418C81.9233 20.5021 81.6931 21.2438 81.6931 22.2668C81.6931 23.2899 81.9233 24.0401 82.3837 24.5175C82.8611 24.9778 83.4834 25.208 84.2507 25.208ZM84.2507 34.7989C85.2737 34.7989 86.0836 34.5516 86.6803 34.0572C87.2771 33.5798 87.5755 32.8466 87.5755 31.8577C87.5755 30.1526 86.5525 29.1722 84.5064 28.9165L83.0998 28.7886C82.4007 29.0614 81.8636 29.445 81.4885 29.9395C81.1134 30.434 80.9258 31.0734 80.9258 31.8577C80.9258 32.8466 81.2242 33.5798 81.821 34.0572C82.4178 34.5516 83.2276 34.7989 84.2507 34.7989Z" fill="#4845D2" class="ccustom"></path> <path d="M96.5573 30.9625C95.3979 30.9625 94.3919 30.6897 93.5394 30.1441C92.6869 29.5814 92.039 28.8227 91.5956 27.8679C91.1523 26.9131 90.9307 25.8559 90.9307 24.6965C90.9307 23.5371 91.1523 22.48 91.5956 21.5251C92.039 20.5703 92.6869 19.8201 93.5394 19.2745C94.3919 18.7118 95.3979 18.4305 96.5573 18.4305C97.7167 18.4305 98.7227 18.7118 99.5752 19.2745C100.428 19.8201 101.076 20.5703 101.519 21.5251C101.962 22.48 102.184 23.5371 102.184 24.6965C102.184 25.8559 101.962 26.9131 101.519 27.8679C101.076 28.8227 100.428 29.5814 99.5752 30.1441C98.7227 30.6897 97.7167 30.9625 96.5573 30.9625ZM96.5573 29.9395C97.1882 29.9395 97.7423 29.7093 98.2197 29.249C98.7142 28.7886 99.0893 28.1577 99.345 27.3564C99.6179 26.555 99.7543 25.6684 99.7543 24.6965C99.7543 23.7246 99.6179 22.838 99.345 22.0367C99.0893 21.2353 98.7142 20.6044 98.2197 20.1441C97.7423 19.6837 97.1882 19.4535 96.5573 19.4535C95.9264 19.4535 95.3638 19.6837 94.8693 20.1441C94.3919 20.6044 94.0168 21.2353 93.744 22.0367C93.4882 22.838 93.3604 23.7246 93.3604 24.6965C93.3604 25.6684 93.4882 26.555 93.744 27.3564C94.0168 28.1577 94.3919 28.7886 94.8693 29.249C95.3638 29.7093 95.9264 29.9395 96.5573 29.9395Z" fill="#4845D2" class="ccustom"></path> <path d="M105.772 17.1517C105.379 17.1517 105.038 16.9897 104.748 16.6658C104.476 16.3418 104.339 15.9582 104.339 15.5149C104.339 15.1568 104.442 14.8755 104.646 14.6709C104.868 14.4663 105.158 14.364 105.516 14.364C105.908 14.364 106.24 14.526 106.513 14.8499C106.803 15.1739 106.948 15.5575 106.948 16.0008C106.948 16.3589 106.837 16.6402 106.615 16.8448C106.411 17.0494 106.13 17.1517 105.772 17.1517ZM104.8 21.7553C104.8 20.8858 104.68 20.2464 104.442 19.8372C104.203 19.4109 103.725 19.1978 103.009 19.1978H102.498V18.6863H104.8C105.43 18.6863 105.899 18.7715 106.206 18.942C106.53 19.0955 106.76 19.3853 106.897 19.8116C107.033 20.2378 107.101 20.8858 107.101 21.7553V30.7068H104.8V21.7553Z" fill="#4845D2" class="ccustom"></path> <path d="M110.326 21.7553C110.326 20.8858 110.207 20.2464 109.968 19.8372C109.73 19.4109 109.252 19.1978 108.536 19.1978H108.025V18.6863H110.326C110.974 18.6863 111.46 18.78 111.784 18.9676C112.125 19.1381 112.364 19.428 112.5 19.8372H112.628C112.935 19.445 113.37 19.1125 113.933 18.8397C114.495 18.5669 115.211 18.4305 116.081 18.4305C117.547 18.4305 118.681 19.0273 119.482 20.2208C120.284 21.3973 120.684 22.8892 120.684 24.6965C120.684 26.5209 120.267 28.0213 119.431 29.1978C118.613 30.3743 117.411 30.9625 115.825 30.9625C115.177 30.9625 114.606 30.8943 114.112 30.7579C113.617 30.6215 113.123 30.434 112.628 30.1953V35.5661H110.326V21.7553ZM115.058 29.9395C116.149 29.9395 116.95 29.4621 117.462 28.5073C117.99 27.5525 118.255 26.2822 118.255 24.6965C118.255 23.1279 118.008 21.8662 117.513 20.9113C117.019 19.9395 116.285 19.4535 115.314 19.4535C114.171 19.4535 113.276 19.965 112.628 20.9881V29.1722C113.14 29.4109 113.583 29.5985 113.958 29.7349C114.333 29.8713 114.7 29.9395 115.058 29.9395Z" fill="#4845D2" class="ccustom"></path> <path d="M126.953 30.9625C124.992 30.9625 123.67 30.6215 122.988 29.9395C122.699 29.6497 122.52 29.3257 122.451 28.9676C122.383 28.5925 122.349 28.0213 122.349 27.2541H122.861C123.014 28.1066 123.381 28.7716 123.96 29.249C124.557 29.7093 125.384 29.9395 126.441 29.9395C127.379 29.9395 128.078 29.7775 128.538 29.4536C129.016 29.1296 129.254 28.6948 129.254 28.1492C129.254 27.6548 129.067 27.2285 128.692 26.8704C128.334 26.5124 127.754 26.1714 126.953 25.8474L125.418 25.208C124.395 24.7988 123.628 24.3214 123.116 23.7758C122.605 23.2302 122.349 22.5567 122.349 21.7553C122.349 20.7153 122.741 19.9054 123.526 19.3256C124.31 18.7289 125.324 18.4305 126.569 18.4305C128.445 18.4305 129.723 18.7715 130.405 19.4535C130.695 19.7434 130.874 20.0673 130.942 20.4254C131.011 20.7835 131.045 21.3546 131.045 22.139H130.533C130.397 21.2864 130.039 20.63 129.459 20.1696C128.879 19.6922 128.087 19.4535 127.081 19.4535C126.279 19.4535 125.648 19.624 125.188 19.965C124.745 20.289 124.523 20.7153 124.523 21.2438C124.523 22.1304 125.205 22.8551 126.569 23.4177L128.104 24.0571C129.263 24.5345 130.107 25.0461 130.636 25.5917C131.164 26.1202 131.428 26.8022 131.428 27.6377C131.428 28.6778 131.011 29.4962 130.175 30.093C129.34 30.6727 128.266 30.9625 126.953 30.9625Z" fill="#4845D2" class="ccustom"></path> <path d="M137.958 30.9625C136.679 30.9625 135.63 30.6215 134.812 29.9395C134.01 29.2575 133.61 28.064 133.61 26.3589V21.7553C133.61 20.8858 133.49 20.2464 133.252 19.8372C133.013 19.4109 132.536 19.1978 131.819 19.1978H131.564V18.6863H133.61C134.241 18.6863 134.709 18.7715 135.016 18.942C135.34 19.0955 135.57 19.3853 135.707 19.8116C135.843 20.2378 135.911 20.8858 135.911 21.7553V26.3589C135.911 27.5525 136.176 28.4305 136.704 28.9932C137.25 29.5388 137.923 29.8116 138.725 29.8116C139.628 29.8116 140.481 29.3598 141.282 28.4561V18.6863H143.584V30.7068H142.305L141.41 29.6838H141.282C140.924 30.0418 140.455 30.3487 139.876 30.6045C139.313 30.8432 138.674 30.9625 137.958 30.9625Z" fill="#4845D2" class="ccustom"></path> <path d="M146.887 21.7553C146.887 20.8858 146.768 20.2464 146.529 19.8372C146.291 19.4109 145.813 19.1978 145.097 19.1978H144.586V18.6863H146.887C147.518 18.6863 147.996 18.7715 148.32 18.942C148.661 19.1125 148.908 19.3683 149.061 19.7093H149.189C149.547 19.3512 150.008 19.0528 150.57 18.8141C151.15 18.5584 151.798 18.4305 152.514 18.4305C153.23 18.4305 153.844 18.5669 154.355 18.8397C154.867 19.0955 155.276 19.5558 155.583 20.2208C156.026 19.6581 156.589 19.2233 157.271 18.9164C157.97 18.5925 158.686 18.4305 159.419 18.4305C160.511 18.4305 161.38 18.7715 162.028 19.4535C162.676 20.1355 163 21.3291 163 23.0341V30.7068H160.698V23.0341C160.698 21.8065 160.528 20.9284 160.187 20.3998C159.846 19.8542 159.334 19.5814 158.652 19.5814C158.175 19.5814 157.672 19.7604 157.143 20.1185C156.615 20.4595 156.222 20.8346 155.967 21.2438C156.052 21.4996 156.095 22.0963 156.095 23.0341V30.7068H153.793V23.0341C153.793 21.8065 153.622 20.9284 153.281 20.3998C152.94 19.8542 152.429 19.5814 151.747 19.5814C150.843 19.5814 149.991 20.0332 149.189 20.9369V30.7068H146.887V21.7553Z" fill="#4845D2" class="ccustom"></path> <path fill-rule="evenodd" clip-rule="evenodd" d="M27.4449 3.52287C29.2116 4.35513 30.5823 5.97456 31.0197 8.03216L32.4568 14.7935C32.9484 17.1058 32.9907 19.4663 32.6065 21.7534C32.7023 21.7684 32.7987 21.7809 32.8955 21.791C33.3502 19.8196 33.4816 17.7687 33.2661 15.7185L32.5436 8.84397C32.2753 6.29096 30.5134 4.25648 28.2175 3.51745C28.1044 3.51139 27.9905 3.50832 27.8759 3.50832C27.731 3.50832 27.5873 3.51322 27.4449 3.52287ZM27.0678 3.55981C28.9266 4.32078 30.3889 5.95795 30.838 8.07077L32.2752 14.8321C32.7617 17.1211 32.8038 19.4577 32.4235 21.7216C32.344 21.7065 32.2649 21.6897 32.1862 21.6713C32.4514 19.1087 32.1848 16.4942 31.3733 13.9967L29.2373 7.42268C28.705 5.78428 27.5807 4.50357 26.1783 3.74035C26.4669 3.65953 26.764 3.59882 27.0678 3.55981ZM27.0927 3.36954C27.2281 3.35321 27.3648 3.34105 27.5026 3.33321C27.2437 3.28261 26.9797 3.24808 26.7118 3.2306C26.8404 3.27298 26.9674 3.31933 27.0927 3.36954ZM25.9787 3.2256C26.2283 3.27793 26.4734 3.34529 26.713 3.42687C26.4495 3.47469 26.1917 3.53847 25.9404 3.61716C25.7038 3.50078 25.4602 3.39876 25.2108 3.3118C25.3516 3.28729 25.4942 3.26737 25.6384 3.25221C25.7522 3.24024 25.8657 3.2314 25.9787 3.2256ZM25.9934 3.03894C26.7777 3.00161 27.5394 3.107 28.2516 3.33334C31.6493 3.52791 34.3445 6.34482 34.3445 9.79124V16.7036C34.3445 18.4503 34.0992 20.1717 33.6277 21.8218H39.2502C42.8227 21.8218 45.7188 24.7179 45.7188 28.2904C45.7188 29.2118 45.5262 30.0882 45.179 30.8815C45.0524 31.6562 44.7909 32.3791 44.4215 33.0285C44.2146 33.7859 43.879 34.4777 43.4436 35.0851C43.1589 35.816 42.7534 36.4683 42.2576 37.0264C41.8978 37.7246 41.4256 38.3319 40.8733 38.8357C40.4423 39.4925 39.9091 40.0469 39.3071 40.4902C38.81 41.0979 38.222 41.5934 37.5772 41.9711C37.0195 42.5234 36.3831 42.9546 35.7025 43.2629C35.0903 43.7537 34.4125 44.116 33.7037 44.3515C33.0432 44.776 32.3309 45.0656 31.601 45.2258C30.8998 45.5788 30.1613 45.7923 29.4187 45.8753C28.6844 46.1531 27.9275 46.2882 27.1803 46.2931C26.421 46.4926 25.6542 46.5479 24.9106 46.4746C24.1347 46.5937 23.3663 46.5685 22.6344 46.4179C21.8503 46.4552 21.0888 46.3498 20.3767 46.1235C16.9788 45.9292 14.2834 43.1122 14.2834 39.6656V33.9023C14.2834 31.7458 14.6572 29.6279 15.3691 27.6351H9.37579C5.80327 27.6351 2.90717 24.739 2.90717 21.1665C2.90717 20.2457 3.09956 19.3699 3.44634 18.5769C3.57283 17.802 3.83424 17.0788 4.20369 16.4291C4.41048 15.6718 4.74597 14.9801 5.18116 14.3728C5.46626 13.6404 5.87278 12.9869 6.36979 12.428C6.72956 11.7306 7.20149 11.1241 7.75333 10.6208C8.18389 9.96478 8.71651 9.41082 9.31783 8.96785C9.81474 8.36009 10.4026 7.86457 11.0472 7.48672C11.6051 6.93407 12.2417 6.50263 12.9225 6.19421C13.5352 5.70285 14.2136 5.34031 14.9231 5.1048C15.5836 4.68045 16.2959 4.39097 17.0257 4.23094C17.727 3.87786 18.4657 3.66435 19.2084 3.58146C19.9427 3.30366 20.6996 3.16855 21.4468 3.16373C22.2062 2.96416 22.9731 2.9089 23.7168 2.98223C24.4929 2.86312 25.2614 2.8883 25.9934 3.03894ZM24.4512 3.09775C24.7195 3.08712 24.9857 3.09386 25.2485 3.11712C25.1123 3.13933 24.9776 3.16572 24.8447 3.19613C24.7147 3.15929 24.5835 3.12646 24.4512 3.09775ZM22.9844 3.13782C22.7206 3.14214 22.4551 3.16325 22.1894 3.20185C22.324 3.21658 22.458 3.23551 22.591 3.25858C22.72 3.21445 22.8512 3.17414 22.9844 3.13782ZM22.9673 3.33535C23.1047 3.29627 23.2443 3.26157 23.3861 3.23143C23.4981 3.20763 23.61 3.18698 23.7217 3.16941C23.9754 3.19537 24.2263 3.23674 24.473 3.29285C24.2161 3.36793 23.9664 3.45829 23.7248 3.56279C23.4774 3.47177 23.2244 3.39577 22.9673 3.33535ZM22.2315 3.39361C21.9802 3.36359 21.7263 3.34866 21.4712 3.34937C21.3619 3.37854 21.2527 3.41079 21.1437 3.44618C21.006 3.49095 20.8708 3.54003 20.7383 3.59321C21.0004 3.62644 21.26 3.6756 21.5156 3.74028C21.7449 3.6111 21.9839 3.49514 22.2315 3.39361ZM21.7739 3.81132C22.0393 3.6723 22.3172 3.55119 22.6062 3.44988C22.9033 3.5037 23.1958 3.57876 23.4814 3.67415C23.1952 3.81239 22.9213 3.97084 22.6616 4.14749C22.3739 4.01376 22.0771 3.90147 21.7739 3.81132ZM21.2851 3.87647C20.9911 3.81142 20.6923 3.76733 20.3911 3.74487C20.1142 3.87585 19.8505 4.02536 19.601 4.19139C19.9121 4.24936 20.219 4.33004 20.5192 4.433C20.7591 4.23013 21.0149 4.04388 21.2851 3.87647ZM20.7217 4.50624C20.9779 4.29703 21.252 4.10705 21.5422 3.93901C21.8645 4.02462 22.1801 4.13575 22.4856 4.2715C22.1985 4.48109 21.9299 4.71347 21.6822 4.96568C21.3737 4.78542 21.0523 4.63208 20.7217 4.50624ZM20.5588 4.64389C20.284 4.88438 20.0314 5.1477 19.8037 5.4302C20.1581 5.60311 20.4995 5.81008 20.8229 6.05083C21.0359 5.71348 21.2795 5.39644 21.5503 5.10395C21.2323 4.9211 20.9004 4.76752 20.5588 4.64389ZM20.3571 4.57472C20.0935 4.81316 19.8507 5.07232 19.6308 5.34901C19.3051 5.20194 18.9693 5.083 18.6273 4.99239C18.8602 4.75758 19.1129 4.54003 19.3839 4.3426C19.7135 4.39406 20.0391 4.47161 20.3571 4.57472ZM19.3367 4.14774C19.5513 3.99527 19.7768 3.85495 20.0126 3.72808C19.7596 3.72449 19.5056 3.73619 19.2521 3.76353C19.1463 3.80399 19.0411 3.84749 18.9364 3.89409C18.8041 3.95303 18.6747 4.01598 18.5485 4.08274C18.8125 4.08839 19.0758 4.11014 19.3367 4.14774ZM18.2191 4.26985C18.5209 4.26071 18.8226 4.27332 19.1217 4.30727C18.8705 4.50199 18.6356 4.71391 18.4182 4.94071C18.1091 4.86971 17.7954 4.82156 17.4801 4.79642C17.7109 4.60525 17.9575 4.42902 18.2191 4.26985ZM18.1645 4.08588C18.2815 4.01588 18.4014 3.94918 18.5242 3.88596C18.267 3.94504 18.0118 4.02088 17.7599 4.11388C17.8946 4.1003 18.0295 4.09098 18.1645 4.08588ZM17.0882 4.40744C17.3375 4.35374 17.5889 4.31558 17.8409 4.29271C17.6197 4.44349 17.4102 4.60659 17.2127 4.78062C16.9493 4.77049 16.6852 4.77637 16.422 4.79833C16.5405 4.71877 16.6625 4.64268 16.788 4.57025C16.8872 4.51298 16.9873 4.45872 17.0882 4.40744ZM16.3771 4.60524C16.1277 4.69084 15.8818 4.79291 15.6411 4.91168C15.7736 4.8841 15.9068 4.86074 16.0405 4.84157C16.1495 4.75976 16.2617 4.68092 16.3771 4.60524ZM15.7402 5.08107C15.536 5.25419 15.3446 5.43834 15.1663 5.63211C14.9032 5.64959 14.6412 5.68305 14.3817 5.73242C14.4912 5.64091 14.6046 5.55248 14.7218 5.46734C14.8146 5.39993 14.9086 5.33542 15.0037 5.27381C15.246 5.19436 15.492 5.13015 15.7402 5.08107ZM16.114 5.01883C15.8704 5.20451 15.6435 5.40559 15.4339 5.61987C15.7502 5.61191 16.0672 5.627 16.3821 5.6653C16.5746 5.417 16.7861 5.18167 17.0156 4.96174C16.7146 4.95923 16.4132 4.97821 16.114 5.01883ZM17.28 4.96949C17.0311 5.19417 16.8025 5.43696 16.5954 5.69484C16.9449 5.74919 17.2912 5.83235 17.6304 5.94453C17.8202 5.64638 18.0346 5.36327 18.2719 5.09859C17.9449 5.02932 17.6131 4.98622 17.28 4.96949ZM18.4797 5.1463C18.2315 5.41419 18.0079 5.70246 17.8109 6.00719C18.1815 6.14213 18.5428 6.31229 18.8896 6.51796C19.0662 6.16022 19.2753 5.81947 19.5141 5.5003C19.1786 5.35165 18.8324 5.23357 18.4797 5.1463ZM19.6866 5.57991C19.4413 5.90356 19.2276 6.25044 19.0487 6.61541C19.3537 6.80843 19.6466 7.02969 19.9239 7.27936L20.1481 7.48122C20.2949 7.03537 20.4892 6.6094 20.7256 6.20997C20.3968 5.96377 20.0485 5.75365 19.6866 5.57991ZM20.8737 6.32438C20.6357 6.72992 20.4423 7.16339 20.2994 7.61743L21.4993 8.69783C21.5804 8.22143 21.7136 7.76278 21.8928 7.32795L21.6339 7.0404C21.3967 6.77692 21.1422 6.53819 20.8737 6.32438ZM22.0311 7.48154C21.8598 7.91477 21.7352 8.3716 21.6636 8.84581L25.0608 11.9046C27.7892 14.3613 29.7094 17.5485 30.6221 21.0485C30.639 21.0583 30.6559 21.0681 30.6729 21.0777C30.0485 17.7902 28.5354 14.7053 26.2592 12.1773L22.0311 7.48154ZM30.8829 21.1914C30.2699 17.8152 28.7306 14.6445 26.3972 12.053L22.1099 7.29153C22.2995 6.85487 22.5372 6.44396 22.8163 6.06549C23.0611 6.30627 23.2893 6.57038 23.4978 6.85732L27.5608 12.4496C29.4546 15.0561 30.6153 18.0879 30.9684 21.2344C30.9397 21.2203 30.9112 21.206 30.8829 21.1914ZM30.7161 21.3136C30.7057 21.3081 30.6954 21.3025 30.6851 21.2969C30.7061 21.3825 30.7266 21.4683 30.7465 21.5542C30.7505 21.5574 30.7545 21.5607 30.7585 21.5639C30.7449 21.4804 30.7308 21.3969 30.7161 21.3136ZM30.9723 21.7284C30.9566 21.625 30.9401 21.5218 30.9227 21.4188C30.9455 21.4299 30.9685 21.4408 30.9914 21.4516C31.0018 21.5552 31.0113 21.659 31.02 21.7629C31.004 21.7515 30.9881 21.74 30.9723 21.7284ZM30.3923 20.9073C29.4696 17.5161 27.5888 14.4307 24.9366 12.0426L21.634 9.06904C21.6069 9.30602 21.593 9.547 21.593 9.79124V10.3539L23.7165 11.8967C26.8291 14.1582 29.143 17.3104 30.3796 20.8991C30.3839 20.9018 30.3881 20.9046 30.3923 20.9073ZM30.0107 20.4253C28.7466 17.0941 26.5335 14.173 23.6073 12.047L21.593 10.5834V11.5757L22.3787 12.0294C25.7556 13.979 28.4121 16.9243 30.0107 20.4253ZM21.4073 11.4685V10.4485L20.0119 9.43476C20.0097 9.67332 20.0211 9.9145 20.0466 10.1575L20.1054 10.7169L21.4073 11.4685ZM20.1294 10.9452L21.4073 11.683V12.4592C21.2928 12.4054 21.1776 12.3527 21.0618 12.3011L20.2331 11.9322L20.1294 10.9452ZM19.9066 10.6021L19.8619 10.1769C19.8309 9.88213 19.8203 9.58993 19.8288 9.30168L18.4952 8.33277C18.4176 8.79209 18.3908 9.26477 18.4193 9.74342L19.9066 10.6021ZM18.4367 9.96792L19.9306 10.8304L20.0372 11.845L18.6637 11.2335L18.5468 10.6834C18.496 10.4443 18.4595 10.2055 18.4367 9.96792ZM18.2278 9.63286C18.2081 9.15007 18.2431 8.67381 18.328 8.21128L18.0151 7.98398C17.7281 7.77546 17.4294 7.59476 17.1221 7.44138C16.9736 7.88746 16.8745 8.35159 16.8291 8.82532L18.2278 9.63286ZM16.8129 9.03037L18.2407 9.85472C18.2623 10.1424 18.3035 10.432 18.3651 10.722L18.454 11.1401L16.8848 10.4414C16.8064 9.96831 16.7837 9.49534 16.8129 9.03037ZM16.6528 8.72354C16.7037 8.25702 16.8052 7.80005 16.9534 7.36029C16.5806 7.18788 16.1963 7.05479 15.8062 6.96014C15.6335 7.32765 15.4966 7.71132 15.3974 8.10544C15.7362 8.23088 16.069 8.38649 16.3924 8.5732L16.6528 8.72354ZM15.3545 8.28763C15.6762 8.40808 15.9923 8.5566 16.2996 8.73403L16.6339 8.92704C16.5977 9.39597 16.6128 9.87334 16.6828 10.3515L15.2077 9.69474C15.2033 9.21882 15.2534 8.74683 15.3545 8.28763ZM15.2216 8.04321C15.32 7.65665 15.4537 7.27993 15.6209 6.91815C15.2619 6.84254 14.8987 6.79907 14.5357 6.78705C14.3486 7.10067 14.1898 7.42908 14.0604 7.76809C14.451 7.82296 14.8397 7.91423 15.2216 8.04321ZM13.9954 7.94665C14.3933 7.99998 14.7894 8.09216 15.1782 8.22463C15.0768 8.67751 15.0236 9.14262 15.0217 9.61194L14.747 9.48963C14.4059 9.33775 14.0586 9.21778 13.7086 9.12843C13.766 8.7261 13.8621 8.3302 13.9954 7.94665ZM13.8709 7.74433C13.9946 7.41326 14.1454 7.09179 14.3225 6.78361C13.9881 6.78386 13.6545 6.81072 13.3251 6.86366C13.1284 7.13516 12.9553 7.42013 12.8063 7.7154C13.1596 7.69583 13.5157 7.70514 13.8709 7.74433ZM12.7135 7.90739C13.0759 7.88136 13.4417 7.88661 13.8067 7.92427C13.6783 8.30155 13.5846 8.69019 13.5272 9.08493C13.1338 8.99656 12.7377 8.94641 12.3435 8.93268C12.4367 8.58203 12.5603 8.23883 12.7135 7.90739ZM12.5915 7.73088C12.7282 7.44802 12.8861 7.17389 13.0649 6.91109C12.7697 6.97128 12.4787 7.0526 12.1943 7.15466C11.9947 7.38688 11.8147 7.63067 11.6543 7.88378C11.9621 7.81015 12.2754 7.75895 12.5915 7.73088ZM11.5175 8.11026C11.8396 8.02314 12.1686 7.96151 12.5011 7.92627C12.3573 8.25126 12.2409 8.58671 12.1525 8.92886C11.7951 8.92703 11.44 8.955 11.0907 9.01141C11.2079 8.70225 11.3502 8.40079 11.5175 8.11026ZM11.3951 7.95146C11.5291 7.72493 11.678 7.50507 11.8417 7.29334C11.609 7.39302 11.3817 7.50707 11.1612 7.63526C11.0812 7.71506 11.0029 7.79744 10.9264 7.88239C10.8294 7.99018 10.7368 8.1004 10.6485 8.21284C10.892 8.11056 11.1414 8.0233 11.3951 7.95146ZM10.4236 8.51785C10.6957 8.38666 10.9765 8.27538 11.2636 8.18467C11.1133 8.46466 10.985 8.75373 10.8787 9.04926C10.5674 9.11021 10.2613 9.19385 9.96296 9.2992C10.096 9.0308 10.2495 8.7696 10.4236 8.51785ZM10.2989 8.37201C10.3773 8.26056 10.4596 8.15094 10.5459 8.04335C10.3353 8.20182 10.1331 8.37481 9.94102 8.56208C10.0585 8.49491 10.1778 8.43153 10.2989 8.37201ZM9.44672 9.10366C9.65255 8.9532 9.86659 8.81608 10.0874 8.69267C9.94682 8.92027 9.82178 9.15439 9.71221 9.3936C9.46756 9.4915 9.22882 9.60427 8.99746 9.73135C9.07339 9.61041 9.15393 9.49121 9.23911 9.37396C9.3063 9.28148 9.37554 9.19138 9.44672 9.10366ZM8.87751 9.57384C8.68478 9.75326 8.50201 9.9462 8.3307 10.1523C8.44037 10.0733 8.55235 9.99789 8.66642 9.92614C8.73265 9.80723 8.803 9.68974 8.87751 9.57384ZM8.48957 10.2671C8.28298 10.4128 8.08457 10.5714 7.89569 10.7424C7.83388 10.8373 7.77426 10.9345 7.71694 11.0337C7.64464 11.159 7.57713 11.2857 7.51437 11.4136C7.73111 11.2631 7.95668 11.1261 8.18967 11.0033C8.27364 10.754 8.37353 10.5081 8.48957 10.2671ZM8.10952 11.2587C7.84777 11.407 7.59645 11.574 7.35778 11.7586C7.2396 12.0413 7.14361 12.3289 7.06923 12.6193C7.33901 12.4544 7.62091 12.309 7.91264 12.1848C7.95521 11.8735 8.0207 11.5639 8.10952 11.2587ZM8.11213 12.1037C8.16256 11.7768 8.23914 11.4523 8.34238 11.1332C8.63912 10.9812 8.94786 10.8527 9.2656 10.7491C9.19245 11.097 9.14832 11.4493 9.133 11.8024C8.78327 11.8749 8.44192 11.976 8.11213 12.1037ZM7.88703 12.3985C7.58187 12.5347 7.28825 12.6948 7.00904 12.877C6.93971 13.205 6.89746 13.5358 6.88147 13.8662C7.19611 13.7047 7.52501 13.5685 7.86524 13.4599C7.84357 13.1071 7.85064 12.7521 7.88703 12.3985ZM8.04805 13.4045C8.02834 13.0422 8.03983 12.6776 8.0832 12.315C8.41963 12.1783 8.76895 12.0703 9.12752 11.9934C9.12194 12.3919 9.15299 12.7904 9.22038 13.1836C8.81912 13.2211 8.42703 13.2958 8.04805 13.4045ZM7.87975 13.6504C7.53119 13.7644 7.19508 13.9083 6.87479 14.0793C6.86955 14.4445 6.89623 14.8083 6.9537 15.1666C7.31924 15.0189 7.70136 14.9036 8.0965 14.8244C7.98839 14.4404 7.91586 14.0473 7.87975 13.6504ZM8.27987 14.7903C8.16867 14.3995 8.09547 13.9987 8.06123 13.5941C8.44632 13.481 8.84555 13.4041 9.25453 13.367C9.34603 13.8219 9.48658 14.2684 9.67574 14.6979H9.37579C9.00225 14.6979 8.63609 14.7296 8.27987 14.7903ZM8.14963 15.0032C7.74678 15.0829 7.35778 15.2011 6.98662 15.3538C7.31788 17.0842 8.37108 18.6663 10.0167 19.6164L16.0029 23.0726C16.4284 23.3182 16.8176 23.6139 17.1638 23.9509C17.2327 23.8419 17.3027 23.7335 17.3739 23.6258C17.0255 23.1456 16.6011 22.7184 16.1122 22.3632L10.5199 18.3002C9.35112 17.451 8.55019 16.2836 8.14963 15.0032ZM17.4838 23.4617C17.1318 22.9882 16.7074 22.5661 16.2213 22.213L10.6291 18.15C9.50052 17.33 8.72508 16.2047 8.33376 14.9696C8.67269 14.913 9.0208 14.8836 9.37579 14.8836H9.76108C10.1159 15.6245 10.6188 16.3098 11.2672 16.8936L16.4041 21.5189C16.9325 21.9947 17.3617 22.5601 17.6762 23.1827C17.6112 23.2752 17.547 23.3681 17.4838 23.4617ZM17.4884 23.7896C17.424 23.8878 17.3606 23.9866 17.2982 24.086C17.3288 24.1178 17.359 24.1499 17.3889 24.1824C17.4421 24.0828 17.4961 23.9836 17.5511 23.8849C17.5306 23.8529 17.5096 23.8212 17.4884 23.7896ZM17.6539 23.7029C17.6359 23.676 17.6177 23.6492 17.5992 23.6226C17.655 23.5395 17.7115 23.4568 17.7686 23.3746C17.7799 23.3992 17.7911 23.4239 17.802 23.4487C17.7519 23.5331 17.7025 23.6178 17.6539 23.7029ZM17.6631 24.066C17.6149 24.1538 17.5674 24.2419 17.5206 24.3304C17.5416 24.3549 17.5625 24.3795 17.5832 24.4044C17.6227 24.3147 17.663 24.2252 17.704 24.136C17.6905 24.1126 17.6769 24.0892 17.6631 24.066ZM17.7993 23.9318C17.7887 23.9143 17.778 23.8967 17.7672 23.8793C17.8081 23.8069 17.8495 23.7347 17.8915 23.6628C17.8971 23.6772 17.9027 23.6916 17.9082 23.7059C17.8714 23.781 17.8351 23.8563 17.7993 23.9318ZM17.8153 24.3396C17.7811 24.4155 17.7475 24.4916 17.7144 24.5679C17.7268 24.5841 17.7392 24.6003 17.7515 24.6165C17.7792 24.5376 17.8075 24.4589 17.8363 24.3804C17.8294 24.3668 17.8224 24.3532 17.8153 24.3396ZM17.9234 24.1478C17.9198 24.1411 17.9161 24.1344 17.9124 24.1277C17.9399 24.0686 17.9678 24.0095 17.996 23.9506C17.9966 23.9525 17.9972 23.9543 17.9978 23.9562C17.9727 24.0199 17.9479 24.0838 17.9234 24.1478ZM17.9492 24.6145C17.9273 24.6761 17.9057 24.7377 17.8845 24.7995C17.8889 24.8058 17.8933 24.8122 17.8977 24.8185C17.9154 24.7523 17.9334 24.6862 17.9517 24.6201C17.9509 24.6182 17.9501 24.6164 17.9492 24.6145ZM17.8354 25.0589C17.8271 25.046 17.8186 25.0332 17.8101 25.0204C17.784 25.0996 17.7584 25.1789 17.7334 25.2584C17.7476 25.2732 17.7617 25.2881 17.7757 25.303C17.795 25.2216 17.815 25.1402 17.8354 25.0589ZM17.9271 25.4711C17.9417 25.4073 17.9568 25.3436 17.9722 25.28C17.9732 25.2817 17.9742 25.2834 17.9752 25.2852C17.9638 25.353 17.9528 25.4208 17.9422 25.4886C17.9372 25.4828 17.9321 25.4769 17.9271 25.4711ZM17.7249 25.5225C17.7069 25.5024 17.6887 25.4825 17.6704 25.4626C17.6414 25.5587 17.6132 25.6549 17.5858 25.7513C17.6115 25.7709 17.6371 25.7907 17.6624 25.8108C17.6825 25.7146 17.7033 25.6185 17.7249 25.5225ZM17.8247 25.9435C17.8413 25.8617 17.8585 25.7801 17.8762 25.6985C17.8859 25.7104 17.8957 25.7223 17.9054 25.7342C17.8935 25.8173 17.8822 25.9003 17.8714 25.9834C17.8559 25.97 17.8404 25.9567 17.8247 25.9435ZM17.621 26.0155C17.5916 25.9915 17.5619 25.9678 17.532 25.9444C17.5011 26.0578 17.4713 26.1714 17.4426 26.2852C17.4815 26.3059 17.5202 26.3271 17.5586 26.3487C17.5783 26.2375 17.5991 26.1265 17.621 26.0155ZM17.7295 26.4488C17.7467 26.3501 17.7647 26.2516 17.7835 26.1532C17.8037 26.171 17.8238 26.189 17.8438 26.2071C17.8324 26.3046 17.8218 26.4022 17.8119 26.4998C17.7846 26.4826 17.7571 26.4656 17.7295 26.4488ZM17.525 26.5434C17.4826 26.5188 17.4398 26.4948 17.3967 26.4714C17.3647 26.6038 17.3343 26.7366 17.3053 26.8696C17.3589 26.8877 17.4122 26.9064 17.4652 26.926C17.4838 26.7983 17.5037 26.6708 17.525 26.5434ZM17.6429 26.9947C17.6596 26.8785 17.6773 26.7624 17.6962 26.6465C17.7284 26.6666 17.7603 26.687 17.7921 26.7078C17.782 26.8204 17.7729 26.9331 17.7648 27.0458C17.7244 27.0283 17.6838 27.0113 17.6429 26.9947ZM17.4388 27.1143C17.3817 27.0928 17.3242 27.0722 17.2664 27.0525C17.2344 27.207 17.2044 27.3618 17.1764 27.5169C17.2461 27.5276 17.3156 27.5395 17.3848 27.5526C17.401 27.4064 17.419 27.2602 17.4388 27.1143ZM17.5674 27.5903C17.5824 27.455 17.5988 27.3198 17.6167 27.1847C17.662 27.2035 17.707 27.2229 17.7518 27.2429C17.744 27.3718 17.7375 27.5007 17.7323 27.6296C17.6776 27.6157 17.6226 27.6026 17.5674 27.5903ZM17.3651 27.7379C17.2918 27.7238 17.2182 27.7111 17.1443 27.6999C16.6482 30.614 16.855 33.6323 17.7853 36.4955L19.5663 41.9768C20.1041 43.6318 21.2636 44.9111 22.7023 45.64C23.021 45.536 23.3286 45.4072 23.6226 45.2559C22.6027 44.5979 21.7561 43.6456 21.2255 42.454L18.8813 37.1889C17.5499 34.1985 17.0417 30.9389 17.3651 27.7379ZM23.8105 45.1551C22.781 44.5145 21.9255 43.5697 21.3952 42.3785L19.051 37.1134C17.7356 34.1589 17.2317 30.939 17.5479 27.7763C17.6074 27.7898 17.6667 27.8042 17.7257 27.8196C17.6238 31.2486 18.4703 34.6692 20.2135 37.6884L23.0951 42.6797C23.5235 43.4215 24.0765 44.0465 24.7126 44.5433C24.4311 44.7721 24.1294 44.9771 23.8105 45.1551ZM23.8055 45.3696C23.5287 45.5181 23.2398 45.647 22.9408 45.7546C23.2148 45.8792 23.4978 45.9844 23.7877 46.069C24.0857 45.9985 24.3746 45.9071 24.6532 45.7966C24.361 45.6753 24.0776 45.5326 23.8055 45.3696ZM24.897 45.6939C24.5854 45.5751 24.2831 45.4316 23.9935 45.2647C24.3009 45.0864 24.5922 44.8834 24.8649 44.6586C25.1528 44.87 25.4565 45.0561 25.7721 45.2157C25.4955 45.3969 25.2031 45.5571 24.897 45.6939ZM24.9027 45.8943C24.6611 45.9987 24.4114 46.089 24.1545 46.1641C24.4012 46.2202 24.6521 46.2615 24.9057 46.2875C25.0176 46.2699 25.1296 46.2492 25.2417 46.2254C25.3833 46.1953 25.5228 46.1606 25.66 46.1216C25.403 46.0612 25.1501 45.9852 24.9027 45.8943ZM26.0213 46.0071C25.7242 45.9533 25.4317 45.8783 25.1462 45.7829C25.4323 45.6447 25.7061 45.4863 25.9659 45.3097C26.2536 45.4434 26.5503 45.5556 26.8535 45.6457C26.5881 45.7847 26.3103 45.9058 26.0213 46.0071ZM26.0364 46.1983C25.9075 46.2424 25.7765 46.2827 25.6434 46.319C25.907 46.3146 26.1722 46.2935 26.4376 46.255C26.3031 46.2403 26.1693 46.2214 26.0364 46.1983ZM27.1558 46.1075C26.9009 46.1082 26.6472 46.0933 26.3961 46.0633C26.6437 45.9618 26.8826 45.8459 27.1119 45.7167C27.3674 45.7813 27.6268 45.8304 27.8887 45.8636C27.7562 45.9168 27.621 45.9659 27.4833 46.0106C27.3743 46.046 27.2652 46.0783 27.1558 46.1075ZM27.8927 46.0617C28.1544 46.0299 28.416 45.9811 28.6761 45.915C28.5408 45.9144 28.4057 45.9096 28.271 45.9006C28.1474 45.9579 28.0212 46.0117 27.8927 46.0617ZM28.6145 45.7287C28.8675 45.7323 29.1215 45.7206 29.375 45.6932C29.4807 45.6528 29.5858 45.6093 29.6904 45.5627C29.8227 45.5038 29.952 45.4409 30.0782 45.3742C29.8142 45.3685 29.551 45.3468 29.2901 45.3093C29.0755 45.4616 28.8501 45.6019 28.6145 45.7287ZM29.5051 45.1497C29.8042 45.1836 30.1059 45.1962 30.4077 45.187C30.6693 45.0278 30.9159 44.8516 31.1466 44.6605C30.8313 44.6354 30.5176 44.5873 30.2085 44.5164C29.9911 44.7432 29.7563 44.955 29.5051 45.1497ZM29.9994 44.4648C29.7665 44.6995 29.5138 44.917 29.2429 45.1144C28.9134 45.063 28.5881 44.9856 28.2701 44.8826C28.5337 44.6442 28.7765 44.3852 28.9964 44.1086C29.3219 44.2555 29.6575 44.3743 29.9994 44.4648ZM30.3548 44.3585C30.6819 44.4277 31.0137 44.4707 31.3468 44.4874C31.5956 44.2628 31.8241 44.0201 32.0312 43.7623C31.6817 43.708 31.3354 43.6249 30.9962 43.5128C30.8064 43.8109 30.5921 44.0939 30.3548 44.3585ZM30.8158 43.4502C30.6188 43.7549 30.3952 44.043 30.147 44.3109C29.7945 44.2237 29.4484 44.1058 29.1131 43.9573C29.3518 43.6383 29.561 43.2977 29.7376 42.9401C30.0842 43.1455 30.4453 43.3155 30.8158 43.4502ZM31.0965 43.3502C31.4456 43.4628 31.8021 43.5439 32.1619 43.5938C32.3807 43.3015 32.573 42.9915 32.7371 42.6679C32.3545 42.5725 31.9775 42.4412 31.6112 42.2731C31.473 42.6472 31.3006 43.0079 31.0965 43.3502ZM31.4428 42.1929C31.303 42.5744 31.1267 42.9417 30.9166 43.2891C30.5386 43.1543 30.1704 42.9819 29.8177 42.7717C30.0112 42.3499 30.16 41.906 30.2594 41.4474L30.5015 41.6233C30.8038 41.8429 31.1188 42.0326 31.4428 42.1929ZM31.6733 42.0972C32.0461 42.2695 32.4304 42.4025 32.8205 42.4971C32.9931 42.1296 33.1301 41.7459 33.2293 41.3518C32.8903 41.2263 32.5574 41.0707 32.2338 40.8839L31.9741 40.7339C31.9232 41.2005 31.8216 41.6574 31.6733 42.0972ZM31.7978 40.6322C31.7524 41.1059 31.6532 41.5701 31.5046 42.0162C31.197 41.8627 30.898 41.6818 30.6106 41.4731L30.2996 41.247C30.3846 40.7844 30.4197 40.3081 30.4001 39.8252L31.7978 40.6322ZM31.9931 40.5304L32.3267 40.723C32.6341 40.9006 32.9504 41.0491 33.2722 41.1696C33.3734 40.7105 33.4235 40.2385 33.4191 39.7627L31.9443 39.106C32.0143 39.5842 32.0292 40.0615 31.9931 40.5304ZM31.7423 39.0161C31.8207 39.4892 31.8433 39.9622 31.8141 40.4271L30.3872 39.6033C30.3656 39.3152 30.3244 39.0253 30.2627 38.7349L30.174 38.3179L31.7423 39.0161ZM31.9084 38.8868L33.4139 39.5571C33.3943 39.0916 33.3224 38.6236 33.195 38.1613L31.562 37.6307L31.6938 38.0363C31.7855 38.3186 31.8567 38.6026 31.9084 38.8868ZM31.3437 37.5598L31.5171 38.0937C31.5928 38.3265 31.6541 38.5604 31.7016 38.7947L30.1263 38.0933L29.9142 37.0953C29.922 37.0979 29.9299 37.1004 29.9378 37.103L31.3437 37.5598ZM31.491 37.4124L33.1313 37.9454C33.0596 37.7174 32.9742 37.4911 32.8746 37.2675L32.6463 36.7545L31.2006 36.4472C31.1923 36.4455 31.184 36.4437 31.1757 36.4419L31.491 37.4124ZM30.9654 36.3957L31.2727 37.3415L29.9952 36.9264C29.9532 36.9127 29.9113 36.899 29.8695 36.885L29.6943 36.0607C30.1126 36.1869 30.5366 36.2987 30.9654 36.3957ZM31.1093 36.2375C31.1525 36.247 31.1958 36.2564 31.2392 36.2656L32.5529 36.5448L32.1484 35.6363C31.7116 35.5847 31.2782 35.5178 30.8489 35.436L31.1093 36.2375ZM30.6403 35.3951L30.8985 36.1898C30.4773 36.0919 30.061 35.9796 29.6502 35.8532L29.4955 35.1256C29.8734 35.2272 30.2552 35.3172 30.6403 35.3951ZM30.7833 35.2342C31.2052 35.317 31.6311 35.3853 32.0604 35.4386L31.7205 34.6752C31.3292 34.6379 30.94 34.5884 30.5534 34.5268L30.7833 35.2342ZM30.3471 34.4927L30.5743 35.192C30.1967 35.1133 29.8225 35.023 29.4521 34.9213L29.3172 34.2865C29.658 34.3648 30.0014 34.4336 30.3471 34.4927ZM30.4889 34.3282C30.868 34.3906 31.2498 34.4413 31.6336 34.4801L30.5305 32.0024C30.0392 30.899 29.9031 29.6795 30.1265 28.5093C30.1174 28.5204 30.1082 28.5315 30.0991 28.5427C29.5531 29.8091 29.484 31.2355 29.9128 32.555L30.4889 34.3282ZM30.3913 28.1785C30.0681 29.4207 30.173 30.7429 30.7001 31.9269L31.8459 34.5003C32.2741 34.5385 32.7048 34.5619 33.1373 34.5701L31.2566 31.3127C30.6844 30.3216 30.4184 29.1935 30.477 28.0679C30.4486 28.1049 30.42 28.1417 30.3913 28.1785ZM30.6844 27.7933C30.5632 28.9766 30.8151 30.1766 31.4175 31.2198L33.3533 34.5729C33.3978 34.5732 33.4423 34.5734 33.4868 34.5734H34.829L31.9065 30.5509C31.2777 29.6854 30.9025 28.6728 30.8077 27.6249C30.7669 27.6813 30.7258 27.7374 30.6844 27.7933ZM30.977 27.3871C31.033 28.48 31.4037 29.5428 32.0568 30.4417L35.0586 34.5734H36.7831C36.6445 34.3788 36.4934 34.19 36.3297 34.0082L32.4732 29.7252C31.813 28.9919 31.3542 28.1116 31.127 27.1694C31.0776 27.2423 31.0275 27.3149 30.977 27.3871ZM31.2695 26.9566C31.4735 27.9327 31.9324 28.8471 32.6112 29.6009L36.4677 33.884C36.6662 34.1045 36.8468 34.3349 37.0095 34.5734H38.6576C38.3154 33.8845 37.8401 33.2473 37.2338 32.7013L32.9508 28.8449C32.2849 28.2453 31.7715 27.5077 31.4399 26.6932C31.3838 26.7815 31.327 26.8692 31.2695 26.9566ZM31.3567 26.4769C31.3118 26.5487 31.2664 26.6202 31.2206 26.6915C31.2198 26.6865 31.219 26.6815 31.2182 26.6765C31.261 26.5993 31.3032 26.5218 31.3449 26.444C31.3488 26.455 31.3527 26.4659 31.3567 26.4769ZM31.5624 26.4976C31.8809 27.3361 32.3961 28.0955 33.0751 28.7069L37.3581 32.5633C38.0065 33.1472 38.5094 33.8324 38.8642 34.5734H39.2502C39.6051 34.5734 39.9531 34.5439 40.292 34.4874C39.9007 33.2523 39.1252 32.127 37.9967 31.3071L33.334 27.9194C32.6885 27.4505 32.1519 26.8601 31.7491 26.189C31.6879 26.2924 31.6257 26.3953 31.5624 26.4976ZM31.6425 26.0038C31.5899 26.0939 31.5365 26.1835 31.4824 26.2728C31.4763 26.2543 31.4702 26.2359 31.4643 26.2174C31.5124 26.1244 31.5598 26.0311 31.6064 25.9374C31.6183 25.9596 31.6303 25.9818 31.6425 26.0038ZM31.8564 26.0051C32.2518 26.6916 32.7899 27.2946 33.4432 27.7692L38.1058 31.1568C39.2746 32.006 40.0756 33.1734 40.4761 34.4538C40.8791 34.3741 41.2683 34.2559 41.6396 34.1031C41.3083 32.3727 40.2551 30.7907 38.6096 29.8407L33.6184 26.959C33.0196 26.6133 32.4927 26.1685 32.0564 25.6491C31.9911 25.7684 31.9244 25.8871 31.8564 26.0051ZM31.9299 25.4931C31.8715 25.6008 31.812 25.708 31.7514 25.8146C31.7367 25.7866 31.7221 25.7584 31.7078 25.73C31.76 25.6217 31.8111 25.5129 31.8612 25.4036C31.8838 25.4337 31.9067 25.4635 31.9299 25.4931ZM32.1516 25.4729C32.5831 26.0003 33.1097 26.4509 33.7112 26.7982L38.7024 29.6799C40.3839 30.6506 41.4646 32.2623 41.8142 34.0281C42.149 33.8783 42.4682 33.7 42.7689 33.4963C42.57 31.3023 41.221 29.278 39.0655 28.3183L33.8004 25.9741C33.2749 25.7402 32.7916 25.4327 32.3629 25.0647C32.2942 25.2016 32.2237 25.3377 32.1516 25.4729ZM32.2191 24.9371C32.1562 25.0633 32.0918 25.1888 32.0259 25.3136C31.9998 25.2792 31.974 25.2445 31.9487 25.2096C32.0039 25.0852 32.0578 24.9602 32.1103 24.8348C32.1461 24.8693 32.1824 24.9035 32.2191 24.9371ZM32.4481 24.8929C32.8721 25.2629 33.3524 25.5714 33.876 25.8045L39.1411 28.1487C41.3255 29.1213 42.7054 31.1559 42.9434 33.3738C43.2136 33.1772 43.4674 32.9596 43.7026 32.7234C43.6995 30.0777 42.0122 27.6184 39.3595 26.7565L33.8782 24.9755C33.4522 24.8371 33.0471 24.6517 32.6691 24.4249C32.5977 24.5818 32.524 24.7379 32.4481 24.8929ZM32.5101 24.3259C32.4436 24.4726 32.3751 24.6184 32.3047 24.7633C32.2647 24.726 32.2253 24.6881 32.1865 24.6496C32.2441 24.5077 32.2999 24.365 32.354 24.2217C32.4055 24.2572 32.4575 24.292 32.5101 24.3259ZM32.7458 24.2542C33.1172 24.4792 33.516 24.6626 33.9356 24.7989L39.4169 26.5799C42.084 27.4465 43.8032 29.8815 43.8853 32.5321C44.0886 32.31 44.2761 32.0734 44.4461 31.8238C44.7006 28.7204 42.6157 25.8372 39.4892 25.1726L33.8518 23.9743C33.5512 23.9105 33.2581 23.8236 32.9747 23.7152C32.9012 23.8961 32.8249 24.0758 32.7458 24.2542ZM32.8023 23.6462C32.7331 23.8166 32.6613 23.9861 32.5869 24.1544C32.5309 24.1178 32.4755 24.0803 32.4208 24.0419C32.48 23.8797 32.537 23.7167 32.5918 23.553C32.6613 23.5854 32.7315 23.6165 32.8023 23.6462ZM33.0438 23.5428C33.3174 23.6472 33.6003 23.731 33.8904 23.7927L39.5278 24.991C42.6341 25.6512 44.7417 28.4387 44.65 31.5044C44.7796 31.2871 44.8964 31.0614 44.9995 30.8283C45.0173 30.7163 45.0323 30.6032 45.0443 30.4891C45.407 27.0381 42.9035 23.9465 39.4526 23.5838L33.7208 22.9814C33.5718 22.9657 33.424 22.9444 33.2776 22.9177C33.2034 23.1274 33.1254 23.3359 33.0438 23.5428ZM33.0936 22.881C33.0229 23.0798 32.9488 23.2775 32.8714 23.4737C32.7969 23.4425 32.7231 23.4097 32.6502 23.3753C32.7102 23.1896 32.7673 23.0029 32.8215 22.8153C32.9115 22.8393 33.0022 22.8612 33.0936 22.881ZM33.3394 22.7401C33.4719 22.7636 33.6055 22.7825 33.7402 22.7967L39.472 23.3991C42.9005 23.7595 45.4207 26.736 45.2575 30.1366C45.4367 29.5529 45.5331 28.9329 45.5331 28.2904C45.5331 24.8205 42.7201 22.0075 39.2502 22.0075H33.5736C33.5006 22.2534 33.4225 22.4976 33.3394 22.7401ZM33.3801 22.0065C33.3098 22.2407 33.2349 22.4733 33.1554 22.7043C33.0603 22.6841 32.9658 22.6616 32.8721 22.6367C32.9317 22.4223 32.9875 22.2069 33.0394 21.9905C33.1525 21.9991 33.2661 22.0045 33.3801 22.0065ZM33.4346 21.8216C33.9109 20.1725 34.1588 18.4508 34.1588 16.7036V9.79124C34.1588 6.6861 31.9063 4.10708 28.9461 3.5991C30.9757 4.51309 32.4788 6.4512 32.7283 8.82456L33.4508 15.6991C33.6676 17.7612 33.5368 19.8239 33.0823 21.8074C33.1992 21.8158 33.3167 21.8205 33.4346 21.8216ZM32.8525 21.9732C32.7595 21.9631 32.6669 21.9508 32.5748 21.9364C32.5406 22.1285 32.5033 22.3202 32.463 22.5112C32.5392 22.5377 32.616 22.5627 32.6934 22.586C32.75 22.3827 32.803 22.1784 32.8525 21.9732ZM32.6428 22.7647C32.5692 22.7426 32.4961 22.719 32.4235 22.694C32.3862 22.8626 32.3465 23.0306 32.3045 23.198C32.363 23.2306 32.4221 23.2621 32.4817 23.2926C32.538 23.1175 32.5917 22.9415 32.6428 22.7647ZM32.4233 23.4713C32.3673 23.443 32.3119 23.4139 32.2569 23.3838C32.2181 23.5321 32.1775 23.6799 32.135 23.8273C32.1777 23.8615 32.2209 23.8951 32.2646 23.9281C32.3195 23.7765 32.3724 23.6242 32.4233 23.4713ZM32.1976 24.1099C32.1575 24.0802 32.1178 24.05 32.0785 24.0194C32.0395 24.1496 31.999 24.2794 31.9571 24.4088C31.986 24.441 32.0152 24.4728 32.0449 24.5043C32.0973 24.3734 32.1482 24.2419 32.1976 24.1099ZM31.9681 24.6929C31.9419 24.6658 31.916 24.6385 31.8903 24.611C31.852 24.7247 31.8126 24.8382 31.7721 24.9513C31.7893 24.978 31.8067 25.0046 31.8244 25.031C31.8734 24.9188 31.9213 24.8061 31.9681 24.6929ZM31.7358 25.2306C31.7213 25.2099 31.707 25.1891 31.6928 25.1682C31.6563 25.2662 31.619 25.3639 31.5808 25.4614C31.5887 25.4792 31.5967 25.497 31.6047 25.5148C31.6492 25.4204 31.6929 25.3257 31.7358 25.2306ZM31.501 25.7309C31.4959 25.7204 31.4908 25.7098 31.4858 25.6992C31.4524 25.781 31.4185 25.8626 31.384 25.944C31.3853 25.949 31.3866 25.9539 31.3879 25.9588C31.4262 25.8831 31.4639 25.8071 31.501 25.7309ZM31.4779 25.2122C31.508 25.1329 31.5375 25.0534 31.5665 24.9738C31.5602 24.9637 31.554 24.9536 31.5478 24.9435C31.5232 25.0283 31.498 25.1129 31.4722 25.1974C31.4741 25.2023 31.476 25.2073 31.4779 25.2122ZM31.6174 24.697C31.6272 24.714 31.6371 24.731 31.647 24.748C31.6814 24.6496 31.7149 24.5509 31.7475 24.452C31.7309 24.4328 31.7144 24.4135 31.698 24.3941C31.672 24.4953 31.6452 24.5962 31.6174 24.697ZM31.5521 24.214C31.5316 24.2961 31.5106 24.378 31.489 24.4599C31.4867 24.4553 31.4843 24.4506 31.482 24.446C31.4988 24.3595 31.515 24.2728 31.5305 24.1861C31.5377 24.1954 31.5449 24.2047 31.5521 24.214ZM31.7542 24.1702C31.7742 24.195 31.7944 24.2198 31.8148 24.2443C31.8518 24.1276 31.8877 24.0105 31.9223 23.8931C31.8934 23.8689 31.8646 23.8444 31.8361 23.8196C31.8099 23.9366 31.7826 24.0535 31.7542 24.1702ZM31.6775 23.6764C31.6554 23.7781 31.6324 23.8796 31.6085 23.981C31.597 23.9653 31.5855 23.9495 31.5741 23.9337C31.5911 23.8306 31.6072 23.7275 31.6225 23.6243C31.6408 23.6418 31.6591 23.6592 31.6775 23.6764ZM31.8814 23.6116C31.9136 23.6406 31.9461 23.6693 31.9789 23.6976C32.0174 23.5618 32.0544 23.4256 32.0897 23.289C32.0467 23.2636 32.0039 23.2377 31.9615 23.2112C31.9363 23.3449 31.9096 23.4784 31.8814 23.6116ZM31.793 23.102C31.7708 23.2225 31.7473 23.3427 31.7227 23.4628C31.6999 23.4406 31.6773 23.4183 31.6549 23.3957C31.6711 23.2766 31.686 23.1573 31.6999 23.038C31.7307 23.0596 31.7618 23.081 31.793 23.102ZM31.9976 23.0143C32.0438 23.0439 32.0903 23.0729 32.1373 23.1011C32.176 22.9447 32.2127 22.7877 32.2474 22.6303C32.1887 22.608 32.1304 22.5848 32.0725 22.5606C32.0494 22.7121 32.0245 22.8633 31.9976 23.0143ZM31.8963 22.4837C31.8754 22.6232 31.853 22.7625 31.8289 22.9016C31.7933 22.8769 31.7581 22.8519 31.7231 22.8264C31.7372 22.691 31.7498 22.5555 31.761 22.4199C31.8058 22.4418 31.8509 22.463 31.8963 22.4837ZM32.1004 22.3709C32.1621 22.3972 32.2242 22.4224 32.2868 22.4466C32.3245 22.2665 32.3595 22.0858 32.3918 21.9047C32.3162 21.8903 32.2409 21.8745 32.166 21.8572C32.1465 22.0287 32.1247 22.1999 32.1004 22.3709ZM31.9842 21.8122C31.9662 21.9724 31.9462 22.1323 31.924 22.292C31.8744 22.2688 31.8252 22.2449 31.7763 22.2203C31.7872 22.0674 31.7962 21.9144 31.8033 21.7613C31.8633 21.7792 31.9236 21.7962 31.9842 21.8122ZM32.0042 21.6254C32.2621 19.0969 31.9973 16.518 31.1967 14.0541L29.0607 7.48007C28.523 5.82517 27.3636 4.54599 25.9251 3.81707C25.6063 3.92109 25.2988 4.04991 25.0047 4.20125C26.0245 4.85927 26.8708 5.81137 27.4013 7.0028L30.2128 13.3176C31.3783 15.9353 31.913 18.7593 31.8113 21.5696C31.8752 21.5893 31.9396 21.6079 32.0042 21.6254ZM31.6275 21.5096C31.7196 18.7449 31.1897 15.9682 30.0432 13.3931L27.2317 7.07833C26.7014 5.88737 25.8461 4.94262 24.8168 4.30203C24.498 4.4801 24.1962 4.68515 23.9147 4.91408C24.5504 5.41078 25.1033 6.03552 25.5314 6.77711L28.9876 12.7634C30.5309 15.4365 31.3714 18.4242 31.4731 21.4538C31.5243 21.4731 31.5758 21.4917 31.6275 21.5096ZM31.6201 21.7032C31.5727 21.6874 31.5256 21.6709 31.4788 21.6539C31.4819 21.7899 31.4835 21.926 31.4836 22.0621C31.521 22.0838 31.5587 22.105 31.5967 22.1259C31.6061 21.9851 31.6139 21.8442 31.6201 21.7032ZM31.582 22.3289C31.5487 22.3113 31.5155 22.2933 31.4826 22.275C31.4813 22.3951 31.4789 22.5152 31.4753 22.6353C31.5 22.6554 31.5248 22.6754 31.5498 22.695C31.5617 22.5731 31.5725 22.451 31.582 22.3289ZM31.5272 22.9122C31.507 22.897 31.4869 22.8816 31.467 22.8661C31.4625 22.9705 31.4572 23.0749 31.4511 23.1793C31.4641 23.1939 31.4772 23.2084 31.4903 23.2228C31.5035 23.1194 31.5158 23.0158 31.5272 22.9122ZM31.4585 23.4604C31.4504 23.452 31.4423 23.4435 31.4342 23.4349C31.4278 23.5227 31.4207 23.6105 31.4131 23.6982C31.4159 23.7026 31.4187 23.7069 31.4216 23.7113C31.4345 23.6277 31.4468 23.5441 31.4585 23.4604ZM31.2762 22.9742C31.2803 22.8895 31.2838 22.8049 31.2867 22.7202C31.2777 22.7126 31.2686 22.7049 31.2596 22.6973C31.2624 22.7854 31.2646 22.8736 31.2662 22.9618C31.2695 22.966 31.2728 22.9701 31.2762 22.9742ZM31.2497 22.4413C31.2642 22.4544 31.2789 22.4675 31.2935 22.4806C31.2958 22.3764 31.2972 22.2721 31.2977 22.1679C31.276 22.1548 31.2543 22.1416 31.2328 22.1282C31.2393 22.2325 31.2449 22.3368 31.2497 22.4413ZM31.0383 22.002C31.0442 22.0864 31.0495 22.1709 31.0543 22.2554C31.0505 22.2517 31.0468 22.2479 31.0431 22.2442C31.0323 22.1567 31.0209 22.0693 31.0089 21.9819C31.0187 21.9887 31.0285 21.9953 31.0383 22.002ZM31.2169 21.8978C31.2436 21.9153 31.2705 21.9326 31.2974 21.9496C31.2966 21.827 31.2945 21.7045 31.2912 21.5821C31.2562 21.568 31.2213 21.5535 31.1865 21.5387C31.1978 21.6583 31.2079 21.778 31.2169 21.8978ZM31.1653 21.3269C31.2048 21.3446 31.2446 21.3618 31.2846 21.3786C31.1717 18.4071 30.3409 15.4788 28.8268 12.8563L25.3706 6.86996C24.9478 6.13755 24.3997 5.52248 23.7691 5.03619C23.4618 5.30179 23.1806 5.59668 22.9297 5.91651C23.188 6.1688 23.4286 6.44621 23.648 6.74817L27.711 12.3404C29.6466 15.0044 30.824 18.1082 31.1653 21.3269ZM22.7944 5.78814C23.0415 5.47489 23.3169 5.18504 23.6169 4.92246C23.3197 4.7074 23.0057 4.51999 22.679 4.36136C22.3804 4.57182 22.1017 4.80733 21.8457 5.06449C22.1801 5.27348 22.498 5.51496 22.7944 5.78814ZM22.681 5.93623C22.3797 5.65706 22.0554 5.41174 21.7136 5.20115C21.4358 5.49741 21.187 5.82007 20.9709 6.16436C21.254 6.38821 21.5222 6.63886 21.7719 6.91614L21.9737 7.14024C22.1663 6.71215 22.4041 6.30878 22.681 5.93623ZM22.8553 4.24149C23.1709 4.40118 23.4745 4.58725 23.7625 4.79873C24.0351 4.57384 24.3265 4.37085 24.6339 4.19245C24.3443 4.02553 24.0421 3.88204 23.7304 3.76321C23.4243 3.89998 23.1319 4.06024 22.8553 4.24149ZM23.9742 3.66044C24.2664 3.78178 24.5498 3.92447 24.8219 4.08752C25.0987 3.93899 25.3876 3.81002 25.6867 3.70247C25.4127 3.57776 25.1296 3.47254 24.8397 3.38796C24.5417 3.45852 24.2528 3.54993 23.9742 3.66044ZM29.532 19.8574C27.9267 16.6748 25.4196 13.9995 22.2859 12.1902L21.593 11.7902V12.5477C24.9188 14.1554 27.6743 16.707 29.532 19.8574ZM28.996 19.3416C27.186 16.528 24.6326 14.2419 21.593 12.7542V13.4044C24.5371 14.7135 27.0863 16.7622 28.996 19.3416ZM21.4073 13.323V12.6646C21.2679 12.5983 21.1276 12.5337 20.9863 12.4708L20.2555 12.1455L20.3347 12.8989C20.6975 13.0295 21.0551 13.171 21.4073 13.323ZM20.3563 13.1043C20.7118 13.2342 21.0622 13.3747 21.4073 13.5255V14.1003C21.0835 13.9748 20.7557 13.8582 20.4243 13.7507L20.3563 13.1043ZM20.1408 12.8303L20.0596 12.0582L18.7114 11.458L18.9178 12.4288L19.7801 12.709C19.9009 12.7483 20.0211 12.7887 20.1408 12.8303ZM18.9624 12.6386L19.7228 12.8856C19.8701 12.9335 20.0166 12.9831 20.1623 13.0346L20.2311 13.6892C19.8649 13.5748 19.4944 13.4714 19.1199 13.3795L18.9624 12.6386ZM18.7139 12.3626L18.5017 11.3646L16.9256 10.6629C16.973 10.8969 17.0343 11.1306 17.1099 11.3631L17.2836 11.8978L18.7139 12.3626ZM17.3545 12.1162L18.7584 12.5723L18.9198 13.3315C18.7965 13.3027 18.6728 13.275 18.5487 13.2487L17.6612 13.06L17.3545 12.1162ZM17.0653 11.8269L16.9332 11.4205C16.8416 11.1385 16.7704 10.8547 16.7188 10.5708L15.213 9.90036C15.2326 10.3659 15.3046 10.8339 15.432 11.2962L17.0653 11.8269ZM15.4957 11.5122L17.1362 12.0452L17.4515 13.0154L15.9808 12.7028L15.7522 12.1893C15.6527 11.966 15.5674 11.7399 15.4957 11.5122ZM15.2217 11.2279C15.1021 10.7597 15.0373 10.2865 15.0242 9.8163L14.6715 9.65928C14.3473 9.51494 14.0174 9.40028 13.6849 9.31412C13.6324 9.78139 13.6319 10.256 13.686 10.7289L15.2217 11.2279ZM13.7128 10.9329L15.2804 11.4422C15.3614 11.7192 15.4619 11.9939 15.5825 12.2649L15.7563 12.6551L14.0765 12.298C13.9014 11.8516 13.7809 11.3937 13.7128 10.9329ZM13.4924 10.666C13.4452 10.199 13.4495 9.7309 13.503 9.26988C13.1024 9.17877 12.6988 9.1285 12.2974 9.11706C12.205 9.51244 12.1508 9.91621 12.1357 10.3223C12.4931 10.3746 12.851 10.4576 13.2061 10.573L13.4924 10.666ZM12.1316 10.5095C12.4712 10.5604 12.8112 10.6399 13.1487 10.7496L13.5162 10.869C13.5784 11.3352 13.6923 11.799 13.8602 12.2521L12.2805 11.9163C12.1773 11.4517 12.1282 10.9796 12.1316 10.5095ZM11.9508 10.298C11.9666 9.89945 12.0191 9.50316 12.1074 9.11454C11.7405 9.11525 11.3761 9.14827 11.0185 9.21205C10.9007 9.55766 10.8137 9.91187 10.7576 10.2703C11.1511 10.2428 11.5503 10.2512 11.9508 10.298ZM10.7311 10.4585C11.1315 10.4279 11.5382 10.4357 11.9461 10.4845C11.941 10.9485 11.9857 11.4145 12.0814 11.874L11.7874 11.8115C11.422 11.7338 11.0573 11.6887 10.6963 11.6741C10.6688 11.2686 10.6805 10.8614 10.7311 10.4585ZM10.5673 10.2865C10.6194 9.93698 10.7001 9.59124 10.8092 9.25304C10.4823 9.32284 10.1616 9.41848 9.85053 9.53874C9.71459 9.84512 9.60456 10.1598 9.52028 10.4794C9.8617 10.3869 10.2118 10.322 10.5673 10.2865ZM9.46943 10.6865C9.81838 10.5858 10.1772 10.5149 10.5419 10.4758C10.4947 10.8716 10.4839 11.2712 10.5098 11.6692C10.1068 11.6646 9.70894 11.6979 9.3206 11.7664C9.33886 11.404 9.3884 11.0426 9.46943 10.6865ZM9.31388 11.9564C9.30565 12.3623 9.33657 12.7685 9.4063 13.1689C9.76693 13.1457 10.1344 13.1525 10.5059 13.1915L10.8044 13.2229C10.6612 12.776 10.5681 12.3172 10.5246 11.8552C10.1139 11.8494 9.70877 11.8841 9.31388 11.9564ZM10.7117 11.8606C10.7575 12.3286 10.8557 12.7929 11.0069 13.2442L12.6129 13.413C12.3986 12.9799 12.2368 12.5305 12.1263 12.0734L11.7488 11.9931C11.4016 11.9193 11.055 11.8758 10.7117 11.8606ZM12.3284 12.1163C12.4444 12.5675 12.612 13.0104 12.8328 13.4361L14.541 13.6156L14.3274 13.2457C14.1791 12.9889 14.0505 12.7261 13.941 12.4591L12.3284 12.1163ZM14.1624 12.5062C14.2575 12.7252 14.366 12.9411 14.4883 13.1529L14.7693 13.6396L16.2646 13.7968L15.8496 12.8648L14.1624 12.5062ZM16.0742 12.9125L16.4778 13.8192L17.3804 13.914C17.5064 13.9273 17.6321 13.9418 17.7576 13.9576L17.5177 13.2194L16.0742 12.9125ZM17.7275 13.2639L17.9615 13.9844C18.3437 14.0367 18.7231 14.1008 19.0994 14.1763L18.9625 13.5324C18.8123 13.4965 18.6615 13.4625 18.5101 13.4303L17.7275 13.2639ZM19.1628 13.5815L19.2979 14.2172C19.6389 14.2895 19.9771 14.3713 20.3123 14.4622L20.2522 13.8905C19.8932 13.7767 19.53 13.6735 19.1628 13.5815ZM20.4455 13.953L20.5046 14.5155C20.8082 14.6014 21.1092 14.6949 21.4073 14.7958V14.2996C21.0905 14.1754 20.7698 14.0598 20.4455 13.953ZM21.593 14.3736V14.8598C23.8627 15.655 25.9615 16.884 27.7693 18.4815C26.0115 16.7097 23.9101 15.3111 21.593 14.3736ZM27.0965 18.1536C25.4528 16.8119 23.5904 15.7644 21.593 15.0567V15.4691C23.558 16.0528 25.4187 16.9585 27.0965 18.1536ZM21.4073 15.415V14.992C21.1161 14.8923 20.8221 14.7998 20.5256 14.7146L20.5764 15.1981C20.8552 15.264 21.1322 15.3364 21.4073 15.415ZM20.597 15.3939C20.8689 15.4592 21.139 15.5307 21.4073 15.6082V16.7036C21.4073 17.9612 20.9911 19.1759 20.2352 20.1636C20.6934 19.1964 20.8828 18.1139 20.7691 17.032L20.597 15.3939ZM20.385 15.1539L20.3331 14.6604C20.0051 14.57 19.674 14.4886 19.3402 14.4162L19.4578 14.9694C19.7688 15.0231 20.0779 15.0846 20.385 15.1539ZM19.4994 15.1652C19.8033 15.2189 20.1054 15.2802 20.4055 15.349L20.5844 17.0514C20.7159 18.3023 20.4289 19.5541 19.78 20.6155C20.1348 19.6056 20.2102 18.509 19.9839 17.4447L19.4994 15.1652ZM19.261 14.9365L19.1415 14.3743C18.7724 14.2986 18.4002 14.234 18.0254 14.1808L18.2262 14.7989C18.573 14.8352 18.918 14.8811 19.261 14.9365ZM18.2891 14.9924C18.6287 15.0294 18.9666 15.0759 19.3024 15.1315L19.8023 17.4833C20.0626 18.7081 19.9106 19.9771 19.382 21.0968C19.3803 21.0986 19.3786 21.1005 19.3768 21.1023C19.6216 20.0637 19.5811 18.9688 19.2459 17.9372L18.2891 14.9924ZM18.0245 14.7789L17.8211 14.1529C17.6681 14.133 17.5148 14.1149 17.361 14.0987L16.5651 14.0151L16.8732 14.7071C17.2586 14.7192 17.6425 14.7432 18.0245 14.7789ZM16.9571 14.8957C17.3354 14.9094 17.7122 14.9348 18.087 14.9715L19.0693 17.9946C19.4302 19.1052 19.4383 20.2916 19.1063 21.3946C19.0856 21.4174 19.065 21.4403 19.0444 21.4633C19.1417 20.4606 18.9806 19.4405 18.5637 18.5041L16.9571 14.8957ZM16.6675 14.7018L16.3518 13.9927L14.884 13.8384L15.3803 14.6979H16.2882C16.4148 14.6979 16.5412 14.6992 16.6675 14.7018ZM15.4875 14.8836H16.2882C16.4427 14.8836 16.597 14.8855 16.7511 14.8894L18.3941 18.5796C18.8344 19.5688 18.9801 20.6543 18.8277 21.7091C18.7938 21.7483 18.7601 21.7875 18.7266 21.8269C18.6865 20.8896 18.4222 19.9666 17.9445 19.1392L15.4875 14.8836ZM15.1658 14.6979L14.6558 13.8144L12.94 13.6341C13.0575 13.842 13.188 14.0455 13.3318 14.2433L13.662 14.6979H15.1658ZM13.797 14.8836H15.2731L17.7836 19.232C18.2815 20.0943 18.5399 21.0637 18.5462 22.0421C18.5024 22.0952 18.4589 22.1485 18.4157 22.2019C18.2561 21.3553 17.9109 20.5459 17.3948 19.8356L13.797 14.8836ZM13.4325 14.6979L13.1816 14.3525C13.0072 14.1125 12.8517 13.8645 12.7149 13.6104L11.0754 13.4381C11.2379 13.8747 11.451 14.2976 11.715 14.6979H13.4325ZM11.8423 14.8836H13.5674L17.2446 19.9447C17.7767 20.6772 18.1214 21.5185 18.261 22.3963C18.2093 22.4622 18.1579 22.5285 18.1071 22.595C17.8524 21.8596 17.4518 21.1751 16.9209 20.5855L12.2957 15.4486C12.132 15.2668 11.9809 15.0781 11.8423 14.8836ZM11.4939 14.6979C11.2355 14.2896 11.0276 13.8596 10.8699 13.4165L10.4865 13.3762C10.1334 13.3391 9.78415 13.332 9.44116 13.3528C9.53555 13.8134 9.68176 14.2649 9.87929 14.6979H11.4939ZM9.96774 14.8836H11.6159C11.7786 15.122 11.9592 15.3524 12.1577 15.5729L16.7829 20.7098C17.3256 21.3124 17.7277 22.0176 17.9714 22.7749C17.9127 22.8537 17.8547 22.9329 17.7974 23.0125C17.4771 22.4037 17.0494 21.8501 16.5284 21.3809L11.3915 16.7556C10.7851 16.2097 10.3099 15.5725 9.96774 14.8836ZM17.8917 23.1998C17.9006 23.2183 17.9094 23.2369 17.9181 23.2555C17.9617 23.1841 18.0057 23.113 18.0502 23.0421C18.0462 23.0271 18.0421 23.0122 18.038 22.9973C17.9887 23.0645 17.94 23.132 17.8917 23.1998ZM18.177 22.8102C18.1793 22.8177 18.1815 22.8252 18.1838 22.8327C18.2211 22.775 18.2588 22.7175 18.2967 22.6602C18.2965 22.6581 18.2963 22.656 18.296 22.6538C18.2561 22.7057 18.2164 22.7579 18.177 22.8102ZM18.1119 23.2946C18.0777 23.3503 18.0438 23.4062 18.0101 23.4622C18.0132 23.4694 18.0162 23.4765 18.0192 23.4837C18.0502 23.4226 18.0816 23.3616 18.1133 23.3008C18.1128 23.2987 18.1124 23.2967 18.1119 23.2946ZM18.0644 25.9397C18.0558 26.0047 18.0475 26.0698 18.0395 26.1348C18.0451 26.14 18.0507 26.1452 18.0562 26.1505C18.0597 26.0818 18.0636 26.0131 18.0679 25.9444C18.0667 25.9428 18.0656 25.9413 18.0644 25.9397ZM18.0453 26.3986C18.0345 26.3878 18.0236 26.377 18.0127 26.3663C18.0036 26.4491 17.9951 26.532 17.9872 26.6148C18.004 26.6263 18.0208 26.6379 18.0376 26.6496C18.0396 26.5659 18.0421 26.4823 18.0453 26.3986ZM18.2206 26.7825C18.2217 26.7171 18.2232 26.6518 18.225 26.5864C18.2263 26.5878 18.2276 26.5892 18.2289 26.5906C18.2318 26.6592 18.2351 26.7278 18.2388 26.7963C18.2328 26.7917 18.2267 26.7871 18.2206 26.7825ZM18.0335 26.8748C18.0118 26.859 17.99 26.8433 17.968 26.8277C17.9596 26.9276 17.9521 27.0275 17.9453 27.1274C17.9744 27.1412 18.0035 27.1552 18.0324 27.1695C18.032 27.0713 18.0324 26.9731 18.0335 26.8748ZM18.2187 27.2655C18.2179 27.1822 18.2177 27.0989 18.2181 27.0155C18.2301 27.025 18.242 27.0346 18.2539 27.0442C18.2595 27.1278 18.2657 27.2113 18.2724 27.2948C18.2546 27.2849 18.2367 27.2752 18.2187 27.2655ZM18.0344 27.3784C18.0007 27.3611 17.9669 27.3441 17.9328 27.3275C17.9262 27.4448 17.9206 27.5621 17.9162 27.6794C17.9585 27.6916 18.0006 27.7042 18.0426 27.7174C18.0388 27.6044 18.0361 27.4914 18.0344 27.3784ZM18.2306 27.7796C18.2269 27.6796 18.224 27.5794 18.2219 27.4792C18.2454 27.4924 18.2687 27.5057 18.292 27.5192C18.3011 27.617 18.311 27.7148 18.3216 27.8123C18.2914 27.8012 18.261 27.7903 18.2306 27.7796ZM18.0502 27.9147C18.0037 27.8996 17.957 27.885 17.91 27.8711C17.818 31.2505 18.6563 34.6199 20.3743 37.5956L23.256 42.5868C23.679 43.3195 24.2273 43.9348 24.8582 44.4212C25.1654 44.1557 25.4465 43.861 25.6973 43.5414C25.4386 43.2889 25.1976 43.0111 24.9779 42.7087L21.5903 38.046C19.4261 35.0673 18.2098 31.5389 18.0502 27.9147ZM25.8107 43.3925C25.5655 43.1514 25.3369 42.8869 25.1282 42.5996L21.7405 37.9369C19.6125 35.008 18.4102 31.5422 18.2391 27.9799C18.2747 27.9929 18.3101 28.0062 18.3454 28.0199C18.8013 31.8045 20.4119 35.3866 22.997 38.2577L26.5172 42.1672C26.3275 42.6036 26.0898 43.0143 25.8107 43.3925ZM25.8327 43.6698C25.5856 43.9828 25.3103 44.2725 25.0105 44.5349C25.3077 44.7499 25.6218 44.9373 25.9485 45.0958C26.2469 44.8855 26.5255 44.6502 26.7815 44.3932C26.4471 44.1843 26.1291 43.9429 25.8327 43.6698ZM26.9136 44.2565C26.5718 44.046 26.2475 43.8008 25.9461 43.5217C26.223 43.1494 26.4607 42.7463 26.6534 42.3185L26.8534 42.5407C27.1036 42.8185 27.3724 43.0697 27.6563 43.2939C27.4402 43.638 27.1914 43.9604 26.9136 44.2565ZM26.945 44.492C26.6974 44.744 26.4289 44.9762 26.1419 45.1857C26.4474 45.3214 26.763 45.4324 27.0853 45.518C27.3754 45.3501 27.6494 45.1602 27.9055 44.9511C27.5749 44.8254 27.2535 44.6721 26.945 44.492ZM28.0684 44.8135C27.7269 44.6899 27.395 44.5364 27.0769 44.3537C27.3477 44.0614 27.5913 43.7445 27.8043 43.4074C28.1276 43.6479 28.469 43.8547 28.8235 44.0275C28.5957 44.3099 28.3432 44.5731 28.0684 44.8135ZM28.9405 43.8778C29.1858 43.5543 29.3996 43.2075 29.5785 42.8427C29.2728 42.6494 28.9792 42.4278 28.7014 42.1776L28.4793 41.9776C28.3324 42.4232 28.1381 42.849 27.9016 43.2482C28.2304 43.4943 28.5786 43.7042 28.9405 43.8778ZM27.7534 43.1339C27.9915 42.7285 28.185 42.2952 28.328 41.8414L27.1282 40.7611C27.047 41.2375 26.9136 41.6961 26.7343 42.1308L26.9914 42.4164C27.2292 42.6805 27.4843 42.9197 27.7534 43.1339ZM26.596 41.9773C26.7675 41.5441 26.8922 41.0873 26.9639 40.6132L24.4184 38.3211C21.4209 35.6222 19.3989 32.0416 18.6166 28.1331C18.592 28.1221 18.5673 28.1112 18.5425 28.1005C19.0104 31.8095 20.5991 35.317 23.135 38.1334L26.596 41.9773ZM18.517 27.8884C18.5359 27.8961 18.5549 27.904 18.5737 27.912C18.5583 27.8297 18.5434 27.7473 18.5291 27.6648C18.5162 27.6564 18.5032 27.6481 18.4902 27.6398C18.4986 27.7228 18.5075 27.8056 18.517 27.8884ZM18.4683 27.4078C18.475 27.4118 18.4816 27.4158 18.4882 27.4198C18.4774 27.3521 18.4669 27.2842 18.4568 27.2162C18.4553 27.2149 18.4537 27.2135 18.4522 27.2121C18.4572 27.2774 18.4626 27.3426 18.4683 27.4078ZM18.7439 27.811C18.7557 27.8754 18.7679 27.9397 18.7804 28.0039C18.7875 28.0072 18.7946 28.0106 18.8017 28.0139C18.7838 27.9477 18.7663 27.8813 18.7492 27.8148C18.7474 27.8136 18.7456 27.8123 18.7439 27.811ZM18.8679 28.2532C18.8541 28.2462 18.8403 28.2392 18.8264 28.2323C19.6202 32.049 21.6098 35.5424 24.5426 38.1831L26.9936 40.39C27.0209 40.1523 27.0349 39.9106 27.0349 39.6656V39.1047L25.8388 38.2357C22.4458 35.7705 20.002 32.2469 18.8679 28.2532ZM27.0349 38.8751L25.948 38.0854C22.6381 35.6806 20.2405 32.2585 19.0968 28.3762C19.0987 28.3773 19.1006 28.3784 19.1025 28.3795C20.581 32.3434 23.3726 35.7025 27.0349 37.8805V38.8751ZM27.2206 39.2396V39.6656C27.2206 39.9627 27.2006 40.255 27.1618 40.5415L28.3866 41.6442C28.5118 41.1955 28.5881 40.7281 28.6099 40.249L27.2206 39.2396ZM28.6161 40.0239L27.2206 39.01V37.9895C27.2279 37.9937 27.2353 37.998 27.2426 38.0022L28.5228 38.7413L28.5814 39.2994C28.607 39.5429 28.6184 39.7847 28.6161 40.0239ZM28.7888 40.3789C28.7578 40.8612 28.6731 41.3313 28.5401 41.7825L28.8256 42.0396C29.0897 42.2773 29.3684 42.4886 29.6584 42.6735C29.8529 42.2454 30 41.7942 30.0948 41.3278L28.7888 40.3789ZM30.1324 41.1256L28.7992 40.157C28.8078 39.8681 28.7972 39.5753 28.7661 39.2799L28.7216 38.8561L30.2086 39.7146C30.237 40.1934 30.21 40.6662 30.1324 41.1256ZM30.1912 39.4901C30.1685 39.2521 30.1319 39.0129 30.081 38.7735L29.9643 38.2245L28.6139 37.6232C28.6062 37.6198 28.5986 37.6164 28.5909 37.613L28.6976 38.6278L30.1912 39.4901ZM28.4988 38.513L28.3948 37.524C27.9953 37.3399 27.6037 37.1424 27.2206 36.9319V37.7745C27.2588 37.7969 27.2971 37.8192 27.3354 37.8414L28.4988 38.513ZM27.0349 37.664V36.8285C23.7749 34.9888 21.1431 32.2078 19.4859 28.8504C20.9816 32.5076 23.6213 35.6062 27.0349 37.664ZM19.9448 29.3355C21.5781 32.3747 24.0343 34.899 27.0349 36.6149V35.8799C24.1456 34.363 21.6965 32.1083 19.9448 29.3355ZM27.2206 35.976V36.7197C27.5963 36.9288 27.9804 37.1254 28.3722 37.3088L28.2849 36.4779C27.9242 36.3215 27.5693 36.1541 27.2206 35.976ZM28.2626 36.2655C27.9094 36.11 27.562 35.9438 27.2206 35.7672V35.1182C27.5379 35.2658 27.8597 35.4045 28.1857 35.5342L28.2626 36.2655ZM28.4804 36.5613L28.5685 37.3992C28.6087 37.4175 28.649 37.4356 28.6894 37.4536L29.9166 38L29.7099 37.0273C29.2934 36.886 28.8834 36.7305 28.4804 36.5613ZM29.6649 36.8156C29.2561 36.6742 28.8537 36.5189 28.4582 36.3502L28.3804 35.6104C28.7457 35.7511 29.1161 35.8804 29.4911 35.9982L29.6649 36.8156ZM29.4467 35.7893L29.2939 35.0701C28.9562 34.9752 28.6217 34.8709 28.2908 34.7574L28.3586 35.4028C28.7165 35.5427 29.0793 35.6716 29.4467 35.7893ZM28.1638 35.3253L28.0969 34.6897C27.8018 34.5848 27.5096 34.4726 27.2206 34.3531V34.9132C27.5307 35.0592 27.8452 35.1966 28.1638 35.3253ZM27.0349 34.8246V34.2752C24.7789 33.3143 22.7227 31.9123 20.9941 30.1386C22.6629 32.1109 24.7232 33.705 27.0349 34.8246ZM21.5769 30.455C23.1718 31.9827 25.0222 33.2056 27.0349 34.0732V33.9023C27.0349 33.8042 27.0374 33.7064 27.0422 33.6089C25.0652 32.8799 23.2149 31.8168 21.5769 30.455ZM27.2251 33.6752C27.2221 33.7507 27.2206 33.8264 27.2206 33.9023V34.152C27.5025 34.2699 27.7875 34.3808 28.0754 34.4847L28.018 33.9383C27.7517 33.8565 27.4873 33.7688 27.2251 33.6752ZM27.9969 33.7374C27.7414 33.6577 27.4877 33.5725 27.2361 33.4819C27.3298 32.2159 27.8445 31.0155 28.7001 30.074C28.1076 31.1286 27.8509 32.3485 27.979 33.5676L27.9969 33.7374ZM28.2108 33.9964L28.2694 34.5535C28.5929 34.6662 28.92 34.77 29.2502 34.8647L29.1173 34.2395C28.8129 34.166 28.5106 34.0849 28.2108 33.9964ZM29.0745 34.0379C28.7774 33.9647 28.4824 33.8841 28.1898 33.7964L28.1637 33.5481C28.0154 32.1373 28.3994 30.7254 29.2345 29.5867C28.7557 30.6974 28.6279 31.9372 28.8828 33.136L29.0745 34.0379ZM29.2745 34.086C29.608 34.1642 29.944 34.2332 30.2822 34.2929L29.7362 32.6124C29.3576 31.4472 29.3549 30.2012 29.7147 29.0469C29.0037 30.2664 28.7696 31.7102 29.0644 33.0974L29.2745 34.086ZM29.1241 20.0829C26.9862 18.0109 24.3979 16.5053 21.593 15.6629V16.7036C21.593 18.2627 20.9736 19.7578 19.8712 20.8602C19.8448 20.8867 19.8184 20.9132 19.7921 20.9398C19.6981 21.0789 19.5978 21.2143 19.4913 21.3458C19.4676 21.3751 19.444 21.4044 19.4205 21.4338C19.3416 21.5817 19.2561 21.7267 19.1641 21.8684C19.1433 21.9005 19.1226 21.9325 19.102 21.9647C19.0391 22.1196 18.9694 22.2723 18.8929 22.4224C18.8758 22.456 18.8588 22.4895 18.8419 22.5232C18.7955 22.6843 18.742 22.8439 18.6815 23.0016C18.668 23.0369 18.6545 23.0721 18.6412 23.1074C18.6119 23.2724 18.5754 23.4367 18.5317 23.5998C18.5218 23.6366 18.5121 23.6734 18.5025 23.7102C18.4906 23.877 18.4715 24.0439 18.4451 24.2104C18.4391 24.2479 18.4333 24.2855 18.4276 24.3231C18.4331 24.4903 18.4316 24.6582 18.4228 24.8265C18.4208 24.864 18.419 24.9015 18.4172 24.939C18.4403 25.1052 18.4564 25.2729 18.4653 25.4417C18.4672 25.4788 18.4693 25.5158 18.4714 25.5528C18.5119 25.7161 18.5456 25.8816 18.5721 26.0491C18.5779 26.0857 18.5838 26.1223 18.5898 26.1589C18.6472 26.317 18.6979 26.4782 18.7418 26.6419C18.7516 26.6783 18.7614 26.7147 18.7714 26.751C18.8447 26.9017 18.9117 27.0561 18.9722 27.2138C18.9859 27.2494 18.9997 27.2849 19.0135 27.3204C19.1018 27.4623 19.1844 27.6084 19.2608 27.7584C19.2778 27.7917 19.2948 27.8249 19.312 27.858C19.4152 27.9905 19.5131 28.1279 19.6053 28.2699C19.6257 28.3012 19.6462 28.3325 19.6667 28.3637C19.7832 28.4847 19.8949 28.611 20.0014 28.7425C20.0248 28.7715 20.0483 28.8003 20.0719 28.8291C20.2006 28.9373 20.325 29.0514 20.4448 29.1712C22.336 31.0624 24.5957 32.5005 27.0551 33.4156C27.1697 32.0348 27.7695 30.7328 28.7566 29.7456C28.99 29.5123 29.2165 29.2733 29.4359 29.0291C29.5798 28.8456 29.7199 28.6597 29.8563 28.4716C29.9798 28.2748 30.0994 28.076 30.215 27.8754C30.3186 27.6643 30.4179 27.4516 30.513 27.2375C30.5933 27.0182 30.6693 26.7977 30.741 26.5763C30.7978 26.3505 30.8502 26.124 30.8982 25.897C30.9313 25.6656 30.9599 25.434 30.984 25.2023C30.9927 24.9672 30.9969 24.7324 30.9967 24.4981C30.9808 24.2637 30.9604 24.03 30.9356 23.7972C30.8954 23.5668 30.8509 23.3377 30.8022 23.1098C30.7386 22.8866 30.6709 22.665 30.5992 22.4452C30.5126 22.2294 30.422 22.0157 30.3276 21.8042C30.2172 21.5954 30.103 21.3891 29.985 21.1854C29.8548 20.9916 29.7211 20.8005 29.5841 20.6124C29.4338 20.4327 29.2805 20.2561 29.1241 20.0829ZM20.4463 29.7617C22.1326 32.2397 24.396 34.2666 27.0349 35.6698V35.0307C24.4755 33.8063 22.2176 32.0076 20.4463 29.7617ZM28.403 18.8767C26.5858 16.6144 24.254 14.8053 21.593 13.6078V14.1734C24.1861 15.2104 26.5144 16.8182 28.403 18.8767ZM28.108 45.0243C28.408 45.1272 28.7148 45.2077 29.0257 45.2656C28.7763 45.4316 28.5127 45.581 28.236 45.7119C27.9349 45.6895 27.6362 45.6455 27.3424 45.5805C27.6125 45.4132 27.8682 45.2271 28.108 45.0243ZM9.31341 10.5392C9.01028 10.6323 8.71473 10.7474 8.42917 10.8832C8.5334 10.6025 8.65878 10.3267 8.80568 10.0582C9.06242 9.89935 9.32991 9.75942 9.60582 9.63927C9.48567 9.93339 9.38824 10.2342 9.31341 10.5392ZM44.8421 31.5443C44.7739 31.6612 44.7022 31.7757 44.6271 31.8878C44.6149 32.0235 44.5984 32.1596 44.5774 32.2959C44.6807 32.0534 44.7693 31.8025 44.8421 31.5443ZM44.2486 32.9568C44.278 32.8474 44.3047 32.7366 44.3285 32.6245C44.3586 32.483 44.3837 32.3415 44.4038 32.2003C44.2441 32.4106 44.0718 32.6108 43.888 32.7998C43.8851 33.0629 43.8661 33.3278 43.8302 33.593C43.9818 33.3904 44.1216 33.178 44.2486 32.9568ZM43.5941 33.8893C43.6509 33.5885 43.6849 33.2873 43.6973 32.9879C43.4677 33.2053 43.2223 33.406 42.9628 33.5882C42.9859 33.9014 42.9862 34.2177 42.9628 34.5346C43.188 34.3352 43.3991 34.1196 43.5941 33.8893ZM42.9376 34.8011C43.1399 34.6325 43.332 34.4516 43.5126 34.2594C43.4778 34.3977 43.4381 34.5358 43.3934 34.6735C43.3579 34.7825 43.3198 34.89 43.2791 34.9958C43.13 35.2021 42.969 35.3984 42.7973 35.5837C42.8607 35.3238 42.9073 35.0625 42.9376 34.8011ZM42.7612 34.7058C42.7958 34.3724 42.8032 34.0391 42.7846 33.709C42.4885 33.9025 42.1756 34.0724 41.8485 34.216C41.9069 34.5645 41.937 34.9183 41.9378 35.2737C42.2272 35.1063 42.5025 34.9163 42.7612 34.7058ZM41.9347 35.4889C42.2119 35.3348 42.4772 35.1607 42.7283 34.9684C42.6847 35.2647 42.6194 35.5606 42.5316 35.8539C42.3134 36.0627 42.0808 36.2552 41.8358 36.4302C41.8922 36.1174 41.9249 35.8029 41.9347 35.4889ZM41.7515 35.3773C41.7567 35.0122 41.73 34.6485 41.6725 34.2902C41.3068 34.438 40.9245 34.5533 40.5292 34.6326C40.6373 35.0166 40.7099 35.4097 40.746 35.8065C41.0947 35.6925 41.431 35.5485 41.7515 35.3773ZM40.7605 35.9971C41.1009 35.8884 41.43 35.752 41.7448 35.5905C41.7288 35.9207 41.6866 36.2514 41.6174 36.5794C41.338 36.7618 41.0441 36.922 40.7387 37.0583C40.7751 36.7048 40.7822 36.3498 40.7605 35.9971ZM40.5645 35.8629C40.5303 35.4583 40.4571 35.0575 40.3459 34.6666C39.9897 34.7274 39.6236 34.7591 39.2502 34.7591H38.9496C39.1387 35.1886 39.2793 35.6351 39.3708 36.0901C39.7799 36.0529 40.1793 35.976 40.5645 35.8629ZM39.4049 36.2734C39.8064 36.2359 40.1986 36.1612 40.5777 36.0524C40.5974 36.4147 40.5859 36.7793 40.5426 37.1419C40.206 37.2786 39.8565 37.3867 39.4978 37.4636C39.5034 37.0651 39.4723 36.6666 39.4049 36.2734ZM39.1842 36.1042C39.0898 35.6436 38.9436 35.1921 38.746 34.7591H37.1315C37.39 35.1674 37.5978 35.5974 37.7555 36.0405L38.1391 36.0808C38.492 36.1179 38.8412 36.125 39.1842 36.1042ZM37.8209 36.2341L38.1197 36.2655C38.4911 36.3045 38.8585 36.3113 39.219 36.2881C39.2887 36.6885 39.3196 37.0947 39.3114 37.5007C38.9165 37.5729 38.5114 37.6076 38.1007 37.6018C38.0573 37.1398 37.9642 36.681 37.8209 36.2341ZM37.55 36.0189C37.3875 35.5823 37.1745 35.1594 36.9104 34.7591H35.1935L35.4444 35.1044C35.6188 35.3444 35.7743 35.5924 35.9112 35.8466L37.55 36.0189ZM36.0131 36.0441L37.6185 36.2128C37.7697 36.6641 37.8679 37.1284 37.9136 37.5964C37.5704 37.5812 37.2238 37.5377 36.8766 37.4639L36.4997 37.3838C36.3892 36.9266 36.2275 36.4772 36.0131 36.0441ZM35.686 35.823C35.5685 35.615 35.4379 35.4115 35.2941 35.2135L34.9639 34.7591H33.4868C33.4781 34.7591 33.4695 34.7591 33.4608 34.759L33.971 35.6427L35.686 35.823ZM34.0858 35.8415L35.7932 36.021C36.014 36.4467 36.1816 36.8896 36.2976 37.3408L34.6858 36.9982C34.5763 36.731 34.4475 36.4681 34.2991 36.211L34.0858 35.8415ZM33.7427 35.6187L33.2455 34.7575C32.8057 34.7518 32.3677 34.7306 31.9322 34.6941L32.2749 35.464C32.319 35.4689 32.3631 35.4737 32.4073 35.4784L33.7427 35.6187ZM32.3624 35.6604C32.3709 35.6613 32.3794 35.6622 32.3879 35.6631L33.8575 35.8175L34.1383 36.3039C34.2607 36.5158 34.3693 36.7319 34.4644 36.9511L32.7774 36.5925L32.3624 35.6604ZM32.8708 36.8022L33.0443 37.192C33.165 37.4631 33.2656 37.7381 33.3466 38.0153L34.9139 38.5246C34.8458 38.0637 34.7254 37.6057 34.5503 37.1592L32.8708 36.8022ZM34.7666 37.2052C34.9345 37.6584 35.0484 38.1222 35.1105 38.5885L35.4764 38.7074C35.8142 38.8171 36.1544 38.8967 36.4943 38.9476C36.4978 38.4774 36.4487 38.0054 36.3455 37.5408L34.7666 37.2052ZM36.5446 37.5831C36.6403 38.0426 36.6849 38.5085 36.6798 38.9726C37.0876 39.0212 37.494 39.029 37.8942 38.9984C37.9448 38.5956 37.9565 38.1884 37.9291 37.7829C37.568 37.7683 37.2033 37.7232 36.838 37.6455L36.5446 37.5831ZM38.1155 37.7878C38.1414 38.1858 38.1306 38.5854 38.0834 38.9811C38.4482 38.942 38.8069 38.8711 39.1559 38.7704C39.2369 38.4143 39.2864 38.0529 39.3047 37.6906C38.9164 37.7591 38.5186 37.7924 38.1155 37.7878ZM39.4923 37.6546C39.477 38.0077 39.4328 38.36 39.3597 38.7078C39.6777 38.6042 39.9866 38.4755 40.2835 38.3233C40.3867 38.0044 40.4632 37.6799 40.5137 37.3532C40.1837 37.4809 39.8422 37.5821 39.4923 37.6546ZM40.7131 37.2721C40.6706 37.5832 40.6051 37.8927 40.5164 38.1978C40.7785 38.0493 41.0301 37.882 41.2691 37.697C41.3871 37.4146 41.4829 37.1272 41.5572 36.8371C41.2872 37.0022 41.0051 37.1477 40.7131 37.2721ZM41.7828 36.6926C41.7254 36.9493 41.6518 37.2043 41.5616 37.4561C41.7521 37.2893 41.9331 37.1105 42.1033 36.9204C42.1545 36.82 42.2034 36.7177 42.2498 36.6135C42.3088 36.481 42.3628 36.3476 42.4119 36.2134C42.212 36.3859 42.0019 36.5459 41.7828 36.6926ZM42.6952 35.954C42.6552 36.084 42.6109 36.2133 42.5622 36.342C42.7132 36.1267 42.8517 35.9003 42.9762 35.6634C42.8855 35.7634 42.7918 35.8603 42.6952 35.954ZM41.7324 37.553C41.6314 37.6432 41.5276 37.7302 41.4214 37.8137C41.3678 37.9392 41.31 38.0637 41.2479 38.1871C41.4213 37.988 41.5833 37.7764 41.7324 37.553ZM40.7309 38.7141C40.7926 38.6194 40.8521 38.5224 40.9093 38.4233C40.9819 38.2977 41.0496 38.1705 41.1125 38.0421C40.8955 38.1929 40.6696 38.3301 40.4363 38.4532C40.3522 38.7028 40.2522 38.949 40.136 39.1902C40.343 39.0443 40.5417 38.8854 40.7309 38.7141ZM39.8199 39.3992C39.967 39.1304 40.0925 38.8544 40.1968 38.5733C39.911 38.7093 39.6152 38.8245 39.3119 38.9177C39.237 39.2228 39.1395 39.5239 39.0193 39.8182C39.2953 39.698 39.563 39.558 39.8199 39.3992ZM38.9129 40.0638C39.1577 39.9659 39.3966 39.8531 39.6281 39.7259C39.5522 39.8468 39.4718 39.9659 39.3866 40.0831C39.3192 40.1759 39.2497 40.2663 39.1782 40.3544C38.9723 40.5048 38.7582 40.6419 38.5372 40.7653C38.678 40.5375 38.8032 40.3032 38.9129 40.0638ZM38.7746 39.9187C38.9106 39.6121 39.0207 39.2973 39.105 38.9775C38.7636 39.07 38.4135 39.1349 38.058 39.1705C38.0058 39.52 37.9251 39.8659 37.816 40.2042C38.1429 40.1344 38.4635 40.0389 38.7746 39.9187ZM37.7465 40.408C38.0578 40.3471 38.3638 40.2635 38.6621 40.1582C38.529 40.4267 38.3754 40.6881 38.201 40.94C37.9291 41.071 37.6484 41.1822 37.3614 41.2728C37.5117 40.9927 37.6401 40.7036 37.7465 40.408ZM37.6067 40.2451C37.7246 39.8994 37.8116 39.5452 37.8677 39.1866C37.4744 39.2142 37.0754 39.2057 36.6751 39.159C36.6593 39.5576 36.6068 39.9539 36.5185 40.3425C36.8852 40.3418 37.2493 40.3088 37.6067 40.2451ZM36.4734 40.5282C36.8305 40.53 37.1854 40.5021 37.5345 40.4458C37.4172 40.755 37.2748 41.0566 37.1075 41.3472C36.7857 41.4341 36.457 41.4957 36.1247 41.5308C36.2686 41.2058 36.385 40.8704 36.4734 40.5282ZM36.3285 40.34C36.4209 39.9446 36.4752 39.5409 36.4902 39.1347C36.1325 39.0825 35.7744 38.9994 35.4191 38.884L35.1342 38.7914C35.1814 39.2583 35.1771 39.7264 35.1235 40.1873C35.5239 40.2783 35.9273 40.3285 36.3285 40.34ZM35.0993 40.3722C35.4925 40.4605 35.8884 40.5106 36.2824 40.5244C36.1892 40.875 36.0656 41.2183 35.9123 41.5497C35.5501 41.5757 35.1846 41.5704 34.8198 41.5328C34.9482 41.1556 35.0419 40.767 35.0993 40.3722ZM34.9416 40.1431C34.9942 39.6759 34.9947 39.2013 34.9407 38.7285L33.4053 38.2297C33.5249 38.6979 33.5896 39.171 33.6027 39.6411L33.9545 39.7978C34.2789 39.9422 34.6089 40.0569 34.9416 40.1431ZM33.6051 39.8455L33.879 39.9674C34.2203 40.1194 34.5677 40.2394 34.9179 40.3288C34.8605 40.7311 34.7644 41.1269 34.6311 41.5105C34.2333 41.4571 33.8372 41.365 33.4485 41.2326C33.55 40.7798 33.6032 40.3147 33.6051 39.8455ZM33.4051 41.414C33.3067 41.8006 33.173 42.1773 33.0058 42.5391C33.3647 42.6146 33.7278 42.658 34.0908 42.67C34.2779 42.3564 34.4367 42.028 34.566 41.689C34.1756 41.6342 33.787 41.5429 33.4051 41.414ZM34.7556 41.7128C34.6319 42.0438 34.481 42.3653 34.304 42.6734C34.6382 42.6731 34.9715 42.6463 35.3007 42.5934C35.4975 42.3219 35.6706 42.0369 35.8195 41.7417C35.4664 41.7612 35.1105 41.7519 34.7556 41.7128ZM36.0343 41.7262C35.8976 42.0091 35.7397 42.2831 35.561 42.5459C35.8558 42.4858 36.1464 42.4046 36.4305 42.3027C36.6302 42.0705 36.8102 41.8267 36.9706 41.5736C36.6631 41.6471 36.3501 41.6982 36.0343 41.7262ZM37.2299 41.506C37.0958 41.7325 36.9469 41.9524 36.7832 42.1641C37.0157 42.0645 37.2428 41.9506 37.4632 41.8225C37.5435 41.7425 37.6221 41.6598 37.6989 41.5745C37.7957 41.467 37.8881 41.3571 37.9761 41.2449C37.7327 41.3471 37.4834 41.4342 37.2299 41.506ZM38.3257 41.0858C38.2473 41.1974 38.1649 41.307 38.0785 41.4147C38.2893 41.2562 38.4916 41.0831 38.6839 40.8957C38.5664 40.9629 38.4469 41.0263 38.3257 41.0858ZM36.9151 42.3093C36.7912 42.3638 36.6659 42.4143 36.5393 42.4608C36.4497 42.5634 36.3563 42.6638 36.2592 42.7618C36.4853 42.6262 36.7044 42.4754 36.9151 42.3093ZM35.6047 43.1032C35.6928 43.032 35.7795 42.9581 35.8646 42.8814C35.9722 42.7846 36.0757 42.6848 36.175 42.5825C35.9223 42.6586 35.6654 42.7192 35.4058 42.7641C35.2489 42.9753 35.0779 43.1783 34.893 43.3717C35.1345 43.297 35.3722 43.2075 35.6047 43.1032ZM34.5278 43.4728C34.7505 43.2628 34.955 43.0392 35.1409 42.8043C34.8274 42.8453 34.5107 42.8634 34.1936 42.8583C34.0282 43.1253 33.8425 43.3813 33.6373 43.624C33.9368 43.5949 34.2345 43.5445 34.5278 43.4728ZM33.4602 43.8247C33.7231 43.8072 33.985 43.7737 34.2444 43.7244C34.1348 43.8159 34.0214 43.9044 33.9042 43.9895C33.8116 44.0568 33.7179 44.1211 33.6231 44.1825C33.3808 44.262 33.1348 44.3263 32.8867 44.3754C33.0907 44.2024 33.282 44.0184 33.4602 43.8247ZM33.3735 43.644C33.5975 43.3946 33.7994 43.1293 33.9784 42.8512C33.6251 42.8338 33.2721 42.7873 32.9231 42.7113C32.7655 43.0276 32.5819 43.3315 32.3736 43.6195C32.7061 43.6541 33.0405 43.6622 33.3735 43.644ZM32.2445 43.7918C32.5594 43.83 32.8763 43.8451 33.1925 43.837C32.9831 44.0512 32.7563 44.2522 32.5128 44.4378C32.2136 44.4785 31.9122 44.4975 31.6112 44.4951C31.8407 44.2752 32.0521 44.04 32.2445 43.7918ZM31.4141 44.6762C31.2166 44.8503 31.0071 45.0133 30.786 45.1641C31.0379 45.1412 31.2892 45.103 31.5385 45.0493C31.6394 44.998 31.7394 44.9438 31.8386 44.8865C31.9641 44.8141 32.0861 44.738 32.2047 44.6584C31.9415 44.6804 31.6775 44.6863 31.4141 44.6762ZM32.5864 44.615C32.4774 44.6968 32.3652 44.7756 32.2498 44.8513C32.4992 44.7657 32.7449 44.6636 32.9855 44.5449C32.8531 44.5725 32.7199 44.5958 32.5864 44.615ZM30.8666 45.3429C30.7319 45.3565 30.5971 45.3659 30.4623 45.371C30.3454 45.4409 30.2256 45.5075 30.103 45.5707C30.3599 45.5116 30.6149 45.4358 30.8666 45.3429ZM34.3097 43.9112C34.4164 43.824 34.5197 43.734 34.6194 43.6414C34.7501 43.6084 34.8799 43.5713 35.0086 43.5301C34.782 43.6731 34.5485 43.8002 34.3097 43.9112ZM39.7474 39.8844C39.8222 39.7682 39.8928 39.6504 39.9592 39.5312C40.0736 39.4592 40.1859 39.3836 40.2959 39.3044C40.1241 39.5111 39.9408 39.7045 39.7474 39.8844ZM43.6752 34.3729C43.7103 34.2394 43.741 34.1057 43.7673 33.9719C43.8538 33.8682 43.9372 33.7617 44.0172 33.6525C43.9178 33.9019 43.8033 34.1423 43.6752 34.3729ZM24.1759 46.3591C24.0437 46.3304 23.9126 46.2976 23.7828 46.2608C23.65 46.2912 23.5155 46.3175 23.3794 46.3397C23.6419 46.3629 23.9079 46.3697 24.1759 46.3591ZM22.6492 46.2312C22.7622 46.2254 22.8758 46.2166 22.9897 46.2046C23.1336 46.1895 23.2759 46.1696 23.4164 46.1451C23.1671 46.0582 22.9235 45.9562 22.687 45.8399C22.4359 45.9185 22.1782 45.9822 21.915 46.03C22.1545 46.1115 22.3996 46.1789 22.6492 46.2312ZM21.5601 45.897C21.8638 45.8581 22.1606 45.7974 22.4491 45.7167C21.0464 44.9535 19.9221 43.6727 19.3897 42.0341L17.6087 36.5529C16.6697 33.6629 16.4604 30.6164 16.9602 27.6749C16.8699 27.6642 16.7792 27.6556 16.6883 27.6492C16.0622 30.2838 16.0177 33.0493 16.5915 35.7486L17.7898 41.3861C18.2389 43.4989 19.7013 45.1361 21.5601 45.897ZM16.4998 27.6391C15.8748 30.2903 15.8327 33.0719 16.4099 35.7872L17.6081 41.4247C18.0455 43.4823 19.4163 45.1017 21.183 45.934C21.0406 45.9436 20.8969 45.9485 20.752 45.9485C20.6375 45.9485 20.5238 45.9455 20.4108 45.9394C18.1148 45.2005 16.3528 43.1659 16.0844 40.6128L15.482 34.881C15.2234 32.4205 15.4645 29.9591 16.1642 27.6351H16.2882C16.3589 27.6351 16.4294 27.6365 16.4998 27.6391ZM16.7327 27.4663C16.8195 27.4728 16.9061 27.4813 16.9922 27.4917C17.0221 27.3259 17.0543 27.1604 17.0887 26.9953C17.0174 26.9736 16.9456 26.9533 16.8733 26.9344C16.8238 27.111 16.7769 27.2883 16.7327 27.4663ZM16.6928 26.8904C16.6403 27.0778 16.5908 27.2661 16.5442 27.455C16.4591 27.4513 16.3737 27.4494 16.2882 27.4494H16.2212C16.2855 27.2439 16.3533 27.0395 16.4248 26.8363C16.5147 26.8522 16.6041 26.8702 16.6928 26.8904ZM16.9243 26.7558C16.9925 26.7737 17.0602 26.7928 17.1276 26.813C17.159 26.6693 17.1922 26.5258 17.2271 26.3827C17.1727 26.3554 17.1178 26.329 17.0624 26.3034C17.0144 26.4537 16.9684 26.6045 16.9243 26.7558ZM16.8916 26.2279C16.8401 26.3885 16.7909 26.5497 16.7438 26.7115C16.6591 26.6922 16.5739 26.6746 16.4881 26.659C16.5507 26.4867 16.6158 26.3152 16.6835 26.1447C16.7535 26.1711 16.8229 26.1989 16.8916 26.2279ZM17.1202 26.1256C17.1715 26.1491 17.2225 26.1733 17.2731 26.1982C17.3049 26.0732 17.3381 25.9485 17.3725 25.824C17.3329 25.7952 17.293 25.767 17.2527 25.7392C17.2071 25.8675 17.1629 25.9964 17.1202 26.1256ZM17.0933 25.6333C17.0436 25.7719 16.9957 25.9111 16.9494 26.0507C16.8844 26.0235 16.8189 25.9974 16.7529 25.9725C16.8126 25.8266 16.8741 25.6814 16.9375 25.537C16.99 25.5683 17.0419 25.6004 17.0933 25.6333ZM17.3178 25.5588C17.3542 25.5834 17.3904 25.6085 17.4262 25.634C17.4576 25.5253 17.4899 25.4169 17.5232 25.3087C17.4966 25.2819 17.4696 25.2553 17.4424 25.229C17.3998 25.3386 17.3583 25.4485 17.3178 25.5588ZM17.2964 25.0926C17.2491 25.2128 17.2031 25.3335 17.1583 25.4546C17.1105 25.4244 17.0623 25.395 17.0136 25.3662C17.0696 25.242 17.127 25.1185 17.1858 24.9955C17.2231 25.0274 17.26 25.0598 17.2964 25.0926ZM17.5161 25.0426C17.5395 25.0647 17.5628 25.087 17.5859 25.1094C17.6159 25.0159 17.6466 24.9226 17.6781 24.8295C17.6623 24.8077 17.6464 24.786 17.6304 24.7645C17.5915 24.8569 17.5534 24.9496 17.5161 25.0426ZM17.5001 24.5961C17.4556 24.7001 17.4122 24.8045 17.3697 24.9092C17.3366 24.88 17.3032 24.8513 17.2695 24.8229C17.3212 24.7175 17.374 24.6125 17.4278 24.5081C17.4522 24.5372 17.4763 24.5665 17.5001 24.5961ZM17.2968 24.3571C17.264 24.3206 17.2307 24.2845 17.1969 24.2489C17.1256 24.365 17.0556 24.4819 16.9869 24.5995C17.0324 24.6332 17.0773 24.6676 17.1217 24.7026C17.1789 24.5869 17.2372 24.4717 17.2968 24.3571ZM17.0384 24.8735C16.9907 24.8354 16.9424 24.798 16.8934 24.7614C16.8152 24.8985 16.7388 25.0365 16.6642 25.1754C16.7273 25.2071 16.7897 25.24 16.8515 25.2739C16.9122 25.1397 16.9745 25.0063 17.0384 24.8735ZM16.7755 25.444C16.7102 25.4079 16.644 25.3731 16.5771 25.3395C16.492 25.502 16.4093 25.6656 16.3291 25.8305C16.4128 25.855 16.4958 25.8814 16.5781 25.9095C16.6418 25.7535 16.7076 25.5984 16.7755 25.444ZM16.5086 26.082C16.4224 26.0527 16.3354 26.0254 16.2475 26.0002C16.1553 26.1948 16.0664 26.3911 15.981 26.5888L16.0475 26.5957C16.1327 26.6047 16.2175 26.6155 16.3018 26.6281C16.3679 26.4451 16.4368 26.263 16.5086 26.082ZM16.2384 26.8065C16.1686 26.7965 16.0985 26.7878 16.0281 26.7804L15.9049 26.7675C15.8103 26.993 15.7202 27.2203 15.6347 27.4494H16.0268C16.0934 27.2339 16.164 27.0195 16.2384 26.8065ZM15.9704 27.6351H15.5664C14.8471 29.6262 14.4691 31.7447 14.4691 33.9023V39.6656C14.4691 42.7709 16.7218 45.35 19.6823 45.8578C17.6525 44.9439 16.1492 43.0057 15.8997 40.6322L15.2973 34.9004C15.0381 32.4341 15.2759 29.9667 15.9704 27.6351ZM15.4366 27.4494C15.5237 27.2135 15.6156 26.9794 15.7121 26.7472L9.15359 26.0579C5.72557 25.6976 3.2056 22.7219 3.36802 19.3219C3.18913 19.9052 3.09287 20.5246 3.09287 21.1665C3.09287 24.6365 5.90583 27.4494 9.37579 27.4494H15.4366ZM3.62587 18.6301C3.60809 18.7417 3.59318 18.8543 3.58124 18.968C3.21853 22.4189 5.72204 25.5105 9.173 25.8732L15.7876 26.5684C15.8764 26.361 15.969 26.1552 16.0653 25.9511C15.997 25.9339 15.9281 25.9179 15.8589 25.9032L9.09759 24.466C5.99165 23.8058 3.88409 21.0188 3.9754 17.9536C3.84579 18.1709 3.72894 18.3968 3.62587 18.6301ZM4.17918 17.6341C3.92522 20.7372 6.01006 23.6199 9.1362 24.2844L15.8975 25.7216C15.9813 25.7394 16.0645 25.7589 16.147 25.7803C16.2318 25.6052 16.3194 25.4313 16.4097 25.2589C16.2067 25.1651 15.9972 25.0829 15.7823 25.0131L9.20824 22.877C6.54143 22.0105 4.82228 19.576 4.73988 16.9258C4.53665 17.1478 4.34916 17.3845 4.17918 17.6341ZM4.73715 16.6581C4.55342 16.8471 4.38114 17.0473 4.22143 17.2575C4.24161 17.1161 4.26672 16.9743 4.29687 16.8325C4.32066 16.7205 4.34729 16.6099 4.37668 16.5007C4.50353 16.2796 4.6433 16.0673 4.79485 15.8647C4.75896 16.13 4.73995 16.3949 4.73715 16.6581ZM4.92254 16.7344C4.92599 19.3798 6.61324 21.8386 9.26563 22.7004L15.8397 24.8365C16.0649 24.9096 16.2842 24.9959 16.4968 25.0945C16.5765 24.946 16.6583 24.7985 16.742 24.652C16.4476 24.4466 16.1324 24.268 15.7997 24.1199L9.48496 21.3084C7.30043 20.3358 5.92052 18.3011 5.68256 16.0831C5.41211 16.28 5.15796 16.4979 4.92254 16.7344ZM5.66317 15.8687C5.40337 16.0511 5.15761 16.2521 4.92781 16.4698C4.94014 16.1704 4.97417 15.8693 5.03092 15.5683C5.22623 15.3377 5.43764 15.1217 5.6632 14.922C5.63978 15.239 5.64008 15.5554 5.66317 15.8687ZM5.85707 15.9606C6.05595 18.1547 7.40494 20.179 9.56049 21.1388L15.8753 23.9503C16.2139 24.1011 16.5351 24.2824 16.8354 24.4907C16.9097 24.3637 16.9856 24.2375 17.063 24.1122C16.7206 23.7741 16.3339 23.4781 15.9101 23.2334L9.9238 19.7772C8.24232 18.8064 7.16159 17.1947 6.81202 15.4288C6.47717 15.5786 6.15782 15.7569 5.85707 15.9606ZM6.77768 15.2408C6.45054 15.3844 6.13757 15.5544 5.84143 15.7479C5.8228 15.4177 5.83023 15.0843 5.86488 14.7508C6.12363 14.5403 6.39902 14.3503 6.68842 14.1829C6.68918 14.5384 6.71926 14.8922 6.77768 15.2408ZM6.69155 13.9677C6.70135 13.6536 6.73414 13.339 6.79057 13.0261C6.54558 13.201 6.31293 13.3935 6.09473 13.6023C6.00677 13.8957 5.9414 14.1917 5.8978 14.4882C6.14898 14.2959 6.41427 14.1218 6.69155 13.9677ZM5.68849 14.6555C5.71882 14.3939 5.76547 14.1324 5.82894 13.8723C5.65672 14.0582 5.49524 14.2551 5.34571 14.4621C5.3051 14.5676 5.26708 14.6747 5.23174 14.7835C5.18693 14.9214 5.14716 15.0597 5.1123 15.1982C5.2933 15.0056 5.48578 14.8244 5.68849 14.6555ZM4.85767 15.4858C4.88394 15.3521 4.91457 15.2185 4.94966 15.0851C4.82165 15.3155 4.70732 15.5558 4.60798 15.805C4.68797 15.6959 4.77125 15.5894 4.85767 15.4858ZM5.64845 13.7943C5.7397 13.6938 5.83397 13.5964 5.93107 13.5021C5.97131 13.3715 6.0159 13.2414 6.06493 13.112C5.91298 13.3284 5.77369 13.5561 5.64845 13.7943ZM6.52407 12.5341C6.47233 12.6353 6.42303 12.7385 6.37625 12.8435C6.31739 12.9757 6.26346 13.1089 6.21439 13.2428C6.41436 13.0703 6.62454 12.9104 6.84359 12.7637C6.90111 12.5067 6.97486 12.2515 7.06522 11.9994C6.87492 12.1658 6.6941 12.3443 6.52407 12.5341ZM7.2055 11.6418C7.25897 11.5166 7.3167 11.3924 7.37872 11.2693C7.2057 11.4679 7.044 11.679 6.89508 11.9019C6.99595 11.8118 7.09949 11.7251 7.2055 11.6418ZM4.04789 17.1617C4.02692 17.2981 4.01041 17.4343 3.99825 17.5701C3.92308 17.6823 3.85133 17.797 3.78314 17.914C3.85593 17.6555 3.94458 17.4045 4.04789 17.1617ZM21.1257 46.1236C21.2634 46.1158 21.3999 46.1036 21.5352 46.0873C21.6604 46.1375 21.7874 46.1838 21.9159 46.2262C21.6482 46.2087 21.3844 46.1742 21.1257 46.1236ZM11.7094 7.14831C11.8333 7.09373 11.9588 7.04314 12.0856 6.99657C12.1752 6.89384 12.2687 6.79335 12.3658 6.6953C12.1395 6.83097 11.9202 6.982 11.7094 7.14831ZM13.0203 6.35386C12.9323 6.42495 12.8457 6.49879 12.7607 6.57537C12.6529 6.67239 12.5493 6.77229 12.4499 6.87484C12.7028 6.79856 12.9601 6.73784 13.22 6.69292C13.377 6.48159 13.5481 6.27844 13.7331 6.08493C13.4912 6.15975 13.2531 6.24941 13.0203 6.35386ZM14.0067 5.81534C14.1067 5.72247 14.2102 5.63224 14.3172 5.54482C14.0777 5.65615 13.8436 5.78351 13.6164 5.92698C13.7454 5.88563 13.8756 5.84842 14.0067 5.81534ZM14.0983 5.98394C13.8755 6.19406 13.6709 6.41774 13.4849 6.65274C13.7986 6.61173 14.1155 6.59359 14.4328 6.59874C14.5983 6.33169 14.784 6.07555 14.9893 5.83285C14.6895 5.86182 14.3917 5.91223 14.0983 5.98394ZM15.253 5.81291C15.029 6.06237 14.827 6.32771 14.648 6.60582C15.0014 6.62331 15.3544 6.66981 15.7035 6.74591C15.8611 6.42957 16.0448 6.12562 16.2531 5.83761C15.9205 5.8029 15.5861 5.79473 15.253 5.81291ZM16.4647 5.86334C16.2459 6.15569 16.0536 6.46572 15.8895 6.78936C16.2722 6.88477 16.6492 7.01618 17.0156 7.1844C17.1538 6.81022 17.3261 6.44952 17.5302 6.10719C17.1811 5.99446 16.8245 5.91325 16.4647 5.86334ZM17.7101 6.16832C17.5 6.51579 17.3237 6.88306 17.1839 7.26467C17.5076 7.42481 17.8222 7.61431 18.1243 7.83374L18.3681 8.01087C18.4674 7.55219 18.6161 7.1083 18.8095 6.6864C18.4566 6.47589 18.0883 6.30329 17.7101 6.16832ZM18.9688 6.7847C18.7744 7.21285 18.6274 7.6641 18.5328 8.13053L19.8391 9.07968C19.87 8.59747 19.9545 8.12748 20.0873 7.67635L19.7997 7.41736C19.5362 7.18012 19.2581 6.96929 18.9688 6.7847ZM20.2409 7.81465C20.1158 8.26335 20.0397 8.73064 20.0181 9.20966L21.4073 10.219V9.79124C21.4073 9.49493 21.4272 9.20327 21.4658 8.91754L20.2409 7.81465ZM19.9509 3.54177C20.0862 3.54235 20.2214 3.54718 20.356 3.5562C20.4797 3.49885 20.6059 3.44508 20.7345 3.39505C20.4727 3.42692 20.211 3.47564 19.9509 3.54177Z" fill="#4845D2" class="ccustom"></path> </svg>