<?xml version="1.0" encoding="UTF-8"?>
<svg id="Ebene_2" data-name="Ebene 2" xmlns="http://www.w3.org/2000/svg" xmlns:xlink="http://www.w3.org/1999/xlink" viewBox="0 0 191.65 69.41">
  <defs>
    <style>
      .cls-1 {
        fill: url(#Unbenannter_Verlauf_3-7);
      }

      .cls-1, .cls-2, .cls-3, .cls-4, .cls-5, .cls-6, .cls-7 {
        stroke-width: 0px;
      }

      .cls-2 {
        fill: url(#Unbenannter_Verlauf_3-6);
      }

      .cls-3 {
        fill: url(#Unbenannter_Verlauf_3-3);
      }

      .cls-4 {
        fill: url(#Unbenannter_Verlauf_3);
      }

      .cls-5 {
        fill: url(#Unbenannter_Verlauf_3-5);
      }

      .cls-6 {
        fill: url(#Unbenannter_Verlauf_3-4);
      }

      .cls-7 {
        fill: url(#Unbenannter_Verlauf_3-2);
      }
    </style>
    <linearGradient id="Unbenannter_Verlauf_3" data-name="Unbenannter Verlauf 3" x1="-1.05" y1="53.63" x2="187.55" y2="-11.83" gradientUnits="userSpaceOnUse">
      <stop offset=".08" stop-color="#faab36"/>
      <stop offset=".49" stop-color="#f78104"/>
      <stop offset=".94" stop-color="#e95709"/>
    </linearGradient>
    <linearGradient id="Unbenannter_Verlauf_3-2" data-name="Unbenannter Verlauf 3" x1="1.39" y1="60.66" x2="189.98" y2="-4.81" xlink:href="#Unbenannter_Verlauf_3"/>
    <linearGradient id="Unbenannter_Verlauf_3-3" data-name="Unbenannter Verlauf 3" x1="7.67" y1="78.73" x2="196.26" y2="13.26" xlink:href="#Unbenannter_Verlauf_3"/>
    <linearGradient id="Unbenannter_Verlauf_3-4" data-name="Unbenannter Verlauf 3" x1="7" y1="76.81" x2="195.59" y2="11.34" xlink:href="#Unbenannter_Verlauf_3"/>
    <linearGradient id="Unbenannter_Verlauf_3-5" data-name="Unbenannter Verlauf 3" x1="9.95" y1="85.31" x2="198.54" y2="19.84" xlink:href="#Unbenannter_Verlauf_3"/>
    <linearGradient id="Unbenannter_Verlauf_3-6" data-name="Unbenannter Verlauf 3" x1="-6.34" y1="38.39" x2="182.25" y2="-27.07" xlink:href="#Unbenannter_Verlauf_3"/>
    <linearGradient id="Unbenannter_Verlauf_3-7" data-name="Unbenannter Verlauf 3" x1="-6.34" y1="38.39" x2="182.25" y2="-27.07" xlink:href="#Unbenannter_Verlauf_3"/>
  </defs>
  <g id="Ebene_1-2" data-name="Ebene 1">
    <g>
      <g>
        <path class="cls-4" d="M72.56,56.16c-2.26,0-4.42-.37-6.48-1.12-2.06-.74-3.89-1.81-5.47-3.2-1.63-1.39-2.89-3-3.78-4.82-.57-1.17-.96-2.38-1.16-3.62-.18-1.11.64-2.14,1.77-2.14h0c.9,0,1.63.67,1.78,1.57.23,1.43.79,2.78,1.67,4.05,1.2,1.73,2.83,3.11,4.9,4.14,2.06,1.03,4.32,1.55,6.77,1.55,3.55,0,6.55-.96,9-2.88,2.26-1.73,3.58-3.89,3.96-6.48.05-.24.07-.58.07-1.01,0-2.26-.84-4.34-2.52-6.26-2.3-2.69-5.98-4.73-11.02-6.12h0c-5.57-1.49-9.65-3.67-12.24-6.55-2.59-2.88-3.89-5.95-3.89-9.22,0-.67.02-1.18.07-1.51.19-1.73.74-3.35,1.66-4.86.91-1.51,2.11-2.84,3.6-4,1.54-1.2,3.26-2.11,5.18-2.74,1.92-.62,3.96-.94,6.12-.94s4.4.37,6.44,1.12c2.04.75,3.85,1.81,5.44,3.2,1.63,1.39,2.89,3.01,3.78,4.86.57,1.19.96,2.41,1.16,3.66.18,1.11-.64,2.14-1.77,2.14h0c-.9,0-1.64-.68-1.78-1.57-.23-1.46-.79-2.84-1.68-4.12-1.2-1.73-2.83-3.11-4.9-4.14-2.06-1.03-4.3-1.55-6.7-1.55-3.6,0-6.62.96-9.07,2.88-2.3,1.78-3.6,3.94-3.89,6.48-.05.29-.07.7-.07,1.22,0,2.26.82,4.27,2.45,6.05,2.4,2.78,6.07,4.82,11.02,6.12,5.57,1.49,9.65,3.67,12.24,6.55,2.59,2.88,3.89,5.95,3.89,9.22,0,.67-.02,1.18-.07,1.51-.19,1.73-.75,3.35-1.66,4.86-.91,1.51-2.11,2.84-3.6,4-3.12,2.45-6.86,3.67-11.23,3.67Z"/>
        <path class="cls-7" d="M97.83,53.42h0c-.99,0-1.8-.81-1.8-1.8V2.74c0-.99.81-1.8,1.8-1.8h0c.99,0,1.8.81,1.8,1.8v48.89c0,.99-.81,1.8-1.8,1.8Z"/>
        <path class="cls-3" d="M172.84,59.78c.66.64.62,1.69-.06,2.3-3.92,3.55-8.31,5.83-13.17,6.82-1.63.34-3.34.5-5.11.5-3.5,0-6.84-.67-10.01-2.02-2.93-1.2-5.62-2.89-8.06-5.08-2.45-2.18-4.58-4.76-6.41-7.74-1.87-3.17-3.31-6.62-4.32-10.37-.82-3.17-1.31-6.26-1.46-9.29-.04-.84-.72-1.51-1.56-1.51h-11.39c-.86,0-1.57.7-1.57,1.57v16.74c0,.86-.7,1.57-1.57,1.57h-.47c-.86,0-1.57-.7-1.57-1.57V2.5c0-.86.7-1.57,1.57-1.57h17.74c1.82,0,3.65.19,5.38.74,2.55.8,4.76,2.14,6.64,4.01,1.54,1.54,2.71,3.3,3.53,5.29.82,1.99,1.22,4.07,1.22,6.23s-.41,4.22-1.22,6.19c-.82,1.97-1.99,3.72-3.53,5.26-2.41,2.37-5.2,3.87-8.37,4.48-.74.14-1.28.82-1.24,1.58.14,2.85.58,5.7,1.32,8.56.96,3.55,2.28,6.7,3.96,9.43,1.58,2.64,3.46,4.93,5.62,6.88,2.16,1.94,4.54,3.44,7.13,4.5,2.83,1.15,5.71,1.73,8.64,1.73s6.05-.62,8.93-1.87c2.47-1.07,4.78-2.58,6.93-4.53.61-.55,1.53-.56,2.11.01l.37.36ZM109.71,28.24c0,.86.7,1.57,1.57,1.57h14.63c1.68,0,3.29-.32,4.82-.97,1.54-.65,2.9-1.57,4.1-2.77s2.12-2.57,2.77-4.1c.65-1.54.97-3.12.97-4.75s-.32-3.29-.97-4.82c-.65-1.54-1.57-2.9-2.77-4.1-1.2-1.2-2.57-2.12-4.1-2.77-1.54-.65-3.14-.97-4.82-.97h-14.63c-.86,0-1.57.7-1.57,1.57v22.14Z"/>
        <path class="cls-6" d="M150.18,53.28h0c-.99,0-1.8-.81-1.8-1.8V2.74c0-.99.81-1.8,1.8-1.8h0c.99,0,1.8.81,1.8,1.8v48.74c0,.99-.81,1.8-1.8,1.8Z"/>
        <path class="cls-5" d="M174.8,56.16c-2.26,0-4.42-.37-6.48-1.12-2.06-.74-3.89-1.81-5.47-3.2-1.63-1.39-2.89-3-3.78-4.82-.57-1.17-.96-2.38-1.16-3.62-.18-1.11.64-2.14,1.77-2.14h0c.9,0,1.63.67,1.78,1.57.23,1.43.79,2.78,1.67,4.05,1.2,1.73,2.83,3.11,4.9,4.14,2.06,1.03,4.32,1.55,6.77,1.55,3.55,0,6.55-.96,9-2.88,2.26-1.73,3.58-3.89,3.96-6.48.05-.24.07-.58.07-1.01,0-2.26-.84-4.34-2.52-6.26-2.3-2.69-5.98-4.73-11.02-6.12h0c-5.57-1.49-9.65-3.67-12.24-6.55-2.59-2.88-3.89-5.95-3.89-9.22,0-.67.02-1.18.07-1.51.19-1.73.74-3.35,1.66-4.86.91-1.51,2.11-2.84,3.6-4,1.54-1.2,3.26-2.11,5.18-2.74,1.92-.62,3.96-.94,6.12-.94s4.4.37,6.44,1.12c2.04.75,3.85,1.81,5.44,3.2,1.63,1.39,2.89,3.01,3.78,4.86.57,1.19.96,2.41,1.16,3.66.18,1.11-.64,2.14-1.77,2.14h0c-.9,0-1.64-.68-1.78-1.57-.23-1.46-.79-2.84-1.68-4.12-1.2-1.73-2.83-3.11-4.9-4.14-2.06-1.03-4.3-1.55-6.7-1.55-3.6,0-6.62.96-9.07,2.88-2.3,1.78-3.6,3.94-3.89,6.48-.05.29-.07.7-.07,1.22,0,2.26.82,4.27,2.45,6.05,2.4,2.78,6.07,4.82,11.02,6.12,5.57,1.49,9.65,3.67,12.24,6.55,2.59,2.88,3.89,5.95,3.89,9.22,0,.67-.02,1.18-.07,1.51-.19,1.73-.75,3.35-1.66,4.86-.91,1.51-2.11,2.84-3.6,4-3.12,2.45-6.86,3.67-11.23,3.67Z"/>
      </g>
      <circle class="cls-2" cx="26.17" cy="27.11" r="9.42"/>
      <path class="cls-1" d="M26.17,4.44c12.5,0,22.67,10.17,22.67,22.67s-10.17,22.67-22.67,22.67S3.5,39.61,3.5,27.11,13.67,4.44,26.17,4.44M26.17.94C11.72.94,0,12.65,0,27.11s11.72,26.17,26.17,26.17,26.17-11.72,26.17-26.17S40.63.94,26.17.94h0Z"/>
    </g>
  </g>
</svg>