<?xml version="1.0" encoding="UTF-8"?><svg xmlns="http://www.w3.org/2000/svg" width="196.02" height="71.46" xmlns:xlink="http://www.w3.org/1999/xlink" viewBox="0 0 196.02 71.46"><defs><linearGradient id="Unbenannter_Verlauf_11" x1="1.14" y1="54.66" x2="189.73" y2="-10.81" gradientUnits="userSpaceOnUse"><stop offset=".08" stop-color="#ecaf00"/><stop offset=".49" stop-color="#ee7203"/><stop offset=".94" stop-color="#b61f29"/></linearGradient><linearGradient id="Unbenannter_Verlauf_11-2" x1="3.58" y1="61.69" x2="192.17" y2="-3.78" xlink:href="#Unbenannter_Verlauf_11"/><linearGradient id="Unbenannter_Verlauf_11-3" x1="9.85" y1="79.76" x2="198.44" y2="14.29" xlink:href="#Unbenannter_Verlauf_11"/><linearGradient id="Unbenannter_Verlauf_11-4" x1="9.19" y1="77.84" x2="197.78" y2="12.37" xlink:href="#Unbenannter_Verlauf_11"/><linearGradient id="Unbenannter_Verlauf_11-5" x1="12.14" y1="86.34" x2="200.73" y2="20.87" xlink:href="#Unbenannter_Verlauf_11"/><linearGradient id="Unbenannter_Verlauf_11-6" x1="-4.15" y1="39.42" x2="184.44" y2="-26.05" xlink:href="#Unbenannter_Verlauf_11"/><linearGradient id="Unbenannter_Verlauf_11-7" x1="-4.15" y1="39.42" x2="184.44" y2="-26.05" xlink:href="#Unbenannter_Verlauf_11"/></defs><g id="Ebene_1"><g><g><path d="M74.75,57.19c-2.26,0-4.42-.37-6.48-1.12-2.06-.74-3.89-1.81-5.47-3.2-1.63-1.39-2.89-3-3.78-4.82-.57-1.17-.96-2.38-1.16-3.62-.18-1.11,.64-2.14,1.77-2.14h0c.9,0,1.63,.67,1.78,1.57,.23,1.43,.79,2.78,1.67,4.05,1.2,1.73,2.83,3.11,4.9,4.14,2.06,1.03,4.32,1.55,6.77,1.55,3.55,0,6.55-.96,9-2.88,2.26-1.73,3.58-3.89,3.96-6.48,.05-.24,.07-.58,.07-1.01,0-2.26-.84-4.34-2.52-6.26-2.3-2.69-5.98-4.73-11.02-6.12h0c-5.57-1.49-9.65-3.67-12.24-6.55-2.59-2.88-3.89-5.95-3.89-9.22,0-.67,.02-1.18,.07-1.51,.19-1.73,.74-3.35,1.66-4.86,.91-1.51,2.11-2.84,3.6-4,1.54-1.2,3.26-2.11,5.18-2.74,1.92-.62,3.96-.94,6.12-.94s4.4,.37,6.44,1.12c2.04,.75,3.85,1.81,5.44,3.2,1.63,1.39,2.89,3.01,3.78,4.86,.57,1.19,.96,2.41,1.16,3.66,.18,1.11-.64,2.14-1.77,2.14h0c-.9,0-1.64-.68-1.78-1.57-.23-1.46-.79-2.84-1.68-4.12-1.2-1.73-2.83-3.11-4.9-4.14-2.06-1.03-4.3-1.55-6.7-1.55-3.6,0-6.62,.96-9.07,2.88-2.3,1.78-3.6,3.94-3.89,6.48-.05,.29-.07,.7-.07,1.22,0,2.26,.82,4.27,2.45,6.05,2.4,2.78,6.07,4.82,11.02,6.12,5.57,1.49,9.65,3.67,12.24,6.55,2.59,2.88,3.89,5.95,3.89,9.22,0,.67-.02,1.18-.07,1.51-.19,1.73-.75,3.35-1.66,4.86-.91,1.51-2.11,2.84-3.6,4-3.12,2.45-6.86,3.67-11.23,3.67Z" style="fill:url(#Unbenannter_Verlauf_11);"/><path d="M100.02,54.45h0c-.99,0-1.8-.81-1.8-1.8V3.76c0-.99,.81-1.8,1.8-1.8h0c.99,0,1.8,.81,1.8,1.8V52.65c0,.99-.81,1.8-1.8,1.8Z" style="fill:url(#Unbenannter_Verlauf_11-2);"/><path d="M175.03,60.8c.66,.64,.62,1.69-.06,2.3-3.92,3.55-8.31,5.83-13.17,6.82-1.63,.34-3.34,.5-5.11,.5-3.5,0-6.84-.67-10.01-2.02-2.93-1.2-5.62-2.89-8.06-5.08-2.45-2.18-4.58-4.76-6.41-7.74-1.87-3.17-3.31-6.62-4.32-10.37-.82-3.17-1.31-6.26-1.46-9.29-.04-.84-.72-1.51-1.56-1.51h-11.39c-.86,0-1.57,.7-1.57,1.57v16.74c0,.86-.7,1.57-1.57,1.57h-.47c-.86,0-1.57-.7-1.57-1.57V3.53c0-.86,.7-1.57,1.57-1.57h17.74c1.82,0,3.65,.19,5.38,.74,2.55,.8,4.76,2.14,6.64,4.01,1.54,1.54,2.71,3.3,3.53,5.29,.82,1.99,1.22,4.07,1.22,6.23s-.41,4.22-1.22,6.19c-.82,1.97-1.99,3.72-3.53,5.26-2.41,2.37-5.2,3.87-8.37,4.48-.74,.14-1.28,.82-1.24,1.58,.14,2.85,.58,5.7,1.32,8.56,.96,3.55,2.28,6.7,3.96,9.43,1.58,2.64,3.46,4.93,5.62,6.88,2.16,1.94,4.54,3.44,7.13,4.5,2.83,1.15,5.71,1.73,8.64,1.73s6.05-.62,8.93-1.87c2.47-1.07,4.78-2.58,6.93-4.53,.61-.55,1.53-.56,2.11,.01l.37,.36Zm-63.13-31.53c0,.86,.7,1.57,1.57,1.57h14.63c1.68,0,3.29-.32,4.82-.97,1.54-.65,2.9-1.57,4.1-2.77s2.12-2.57,2.77-4.1c.65-1.54,.97-3.12,.97-4.75s-.32-3.29-.97-4.82c-.65-1.54-1.57-2.9-2.77-4.1-1.2-1.2-2.57-2.12-4.1-2.77-1.54-.65-3.14-.97-4.82-.97h-14.63c-.86,0-1.57,.7-1.57,1.57V29.27Z" style="fill:url(#Unbenannter_Verlauf_11-3);"/><path d="M152.36,54.31h0c-.99,0-1.8-.81-1.8-1.8V3.76c0-.99,.81-1.8,1.8-1.8h0c.99,0,1.8,.81,1.8,1.8V52.51c0,.99-.81,1.8-1.8,1.8Z" style="fill:url(#Unbenannter_Verlauf_11-4);"/><path d="M176.99,57.19c-2.26,0-4.42-.37-6.48-1.12-2.06-.74-3.89-1.81-5.47-3.2-1.63-1.39-2.89-3-3.78-4.82-.57-1.17-.96-2.38-1.16-3.62-.18-1.11,.64-2.14,1.77-2.14h0c.9,0,1.63,.67,1.78,1.57,.23,1.43,.79,2.78,1.67,4.05,1.2,1.73,2.83,3.11,4.9,4.14,2.06,1.03,4.32,1.55,6.77,1.55,3.55,0,6.55-.96,9-2.88,2.26-1.73,3.58-3.89,3.96-6.48,.05-.24,.07-.58,.07-1.01,0-2.26-.84-4.34-2.52-6.26-2.3-2.69-5.98-4.73-11.02-6.12h0c-5.57-1.49-9.65-3.67-12.24-6.55-2.59-2.88-3.89-5.95-3.89-9.22,0-.67,.02-1.18,.07-1.51,.19-1.73,.74-3.35,1.66-4.86,.91-1.51,2.11-2.84,3.6-4,1.54-1.2,3.26-2.11,5.18-2.74,1.92-.62,3.96-.94,6.12-.94s4.4,.37,6.44,1.12c2.04,.75,3.85,1.81,5.44,3.2,1.63,1.39,2.89,3.01,3.78,4.86,.57,1.19,.96,2.41,1.16,3.66,.18,1.11-.64,2.14-1.77,2.14h0c-.9,0-1.64-.68-1.78-1.57-.23-1.46-.79-2.84-1.68-4.12-1.2-1.73-2.83-3.11-4.9-4.14-2.06-1.03-4.3-1.55-6.7-1.55-3.6,0-6.62,.96-9.07,2.88-2.3,1.78-3.6,3.94-3.89,6.48-.05,.29-.07,.7-.07,1.22,0,2.26,.82,4.27,2.45,6.05,2.4,2.78,6.07,4.82,11.02,6.12,5.57,1.49,9.65,3.67,12.24,6.55,2.59,2.88,3.89,5.95,3.89,9.22,0,.67-.02,1.18-.07,1.51-.19,1.73-.75,3.35-1.66,4.86-.91,1.51-2.11,2.84-3.6,4-3.12,2.45-6.86,3.67-11.23,3.67Z" style="fill:url(#Unbenannter_Verlauf_11-5);"/></g><circle cx="28.36" cy="28.14" r="9.42" style="fill:url(#Unbenannter_Verlauf_11-6);"/><path d="M28.36,5.46c12.5,0,22.67,10.17,22.67,22.67s-10.17,22.67-22.67,22.67S5.69,40.64,5.69,28.14,15.86,5.46,28.36,5.46m0-3.5C13.9,1.96,2.19,13.68,2.19,28.14s11.72,26.17,26.17,26.17,26.17-11.72,26.17-26.17S42.81,1.96,28.36,1.96h0Z" style="fill:url(#Unbenannter_Verlauf_11-7);"/></g></g><g id="alpha"><g><path d="M4.27,70.33c-.45,0-.81-.36-.81-.81v-7.77c0-.45,.36-.81,.81-.81h2.51c2.11,0,2.86,1.14,2.86,2.43,0,.92-.46,1.62-1.03,1.9,1.05,.4,1.45,1.16,1.45,2.25,0,1.7-1.02,2.82-3.03,2.82h-2.76Zm.81-5.55h1.7c.88,0,1.24-.5,1.24-1.2s-.36-1.19-1.24-1.19h-1.7v2.38Zm0,4.1h1.95c.99,0,1.38-.53,1.38-1.37s-.46-1.37-1.38-1.37h-1.95v2.73Z" style="fill:#b61f29;"/><path d="M18.57,64.9h2.64c.39,0,.71,.32,.71,.71s-.32,.71-.71,.71h-2.64v2.57h3.7c.4,0,.73,.32,.73,.73s-.32,.73-.73,.73h-4.5c-.45,0-.81-.36-.81-.81v-7.77c0-.45,.36-.81,.81-.81h4.35c.4,0,.73,.32,.73,.73s-.32,.73-.73,.73h-3.54v2.5Z" style="fill:#b61f29;"/><path d="M33.74,62.37v7.27c0,.45-.36,.81-.81,.81s-.81-.36-.81-.81v-7.27h-2.13c-.39,0-.71-.32-.71-.71s.32-.71,.71-.71h5.89c.39,0,.71,.32,.71,.71s-.32,.71-.71,.71h-2.13Z" style="fill:#b61f29;"/><path d="M43.72,67.89l-.85,2.02c-.13,.29-.39,.53-.75,.53-.43,0-.79-.36-.79-.79,0-.08,.01-.19,.06-.29l3.29-8.02c.08-.2,.31-.5,.74-.5s.66,.31,.74,.5l3.29,8.02c.04,.1,.06,.21,.06,.29,0,.43-.36,.79-.79,.79-.36,0-.63-.24-.75-.53l-.85-2.02h-3.38Zm1.69-4.41l-1.14,2.93h2.29l-1.14-2.93Z" style="fill:#b61f29;"/></g></g></svg>